<?xml version="1.0" encoding="utf-8"?>
<!-- Generator: Adobe Illustrator 24.0.1, SVG Export Plug-In . SVG Version: 6.00 Build 0)  -->
<svg version="1.1" id="Layer_1" xmlns="http://www.w3.org/2000/svg" xmlns:xlink="http://www.w3.org/1999/xlink" x="0px" y="0px"
	 viewBox="0 0 923.3 624.1" style="enable-background:new 0 0 923.3 624.1;" xml:space="preserve">
<style type="text/css">
	.st0{clip-path:url(#SVGID_3_);}
	.st1{opacity:0.25;}
	.st2{clip-path:url(#SVGID_6_);fill:url(#SVGID_7_);}
	.st3{fill:#34B463;}
	.st4{fill:#24914A;}
	.st5{fill-rule:evenodd;clip-rule:evenodd;fill:#A2C769;}
	.st6{fill:#00A551;}
	.st7{fill-rule:evenodd;clip-rule:evenodd;fill:#5EBEFF;}
	.st8{fill-rule:evenodd;clip-rule:evenodd;fill:#102B6E;}
	.st9{fill-rule:evenodd;clip-rule:evenodd;fill:#FFFFFF;}
	.st10{fill:#102B6E;}
	.st11{fill-rule:evenodd;clip-rule:evenodd;fill:#4596D1;}
	.st12{fill-rule:evenodd;clip-rule:evenodd;fill:#00ADEE;}
	.st13{fill-rule:evenodd;clip-rule:evenodd;fill:#00A551;}
	.st14{fill-rule:evenodd;clip-rule:evenodd;fill:#EC1C24;}
	.st15{fill-rule:evenodd;clip-rule:evenodd;fill:#1A47B6;}
	.st16{fill-rule:evenodd;clip-rule:evenodd;fill:#092978;}
	.st17{fill-rule:evenodd;clip-rule:evenodd;fill:#3DABF9;}
	.st18{clip-path:url(#SVGID_9_);fill:url(#SVGID_10_);}
	.st19{fill-rule:evenodd;clip-rule:evenodd;fill:#A5DBFD;}
	.st20{fill:#E4F5FB;}
	.st21{clip-path:url(#SVGID_12_);fill:url(#SVGID_13_);}
	.st22{clip-path:url(#SVGID_15_);fill:url(#SVGID_16_);}
	.st23{clip-path:url(#SVGID_18_);fill:url(#SVGID_19_);}
	.st24{fill-rule:evenodd;clip-rule:evenodd;fill:#F7941F;}
	.st25{fill-rule:evenodd;clip-rule:evenodd;fill:#F9C4C7;}
	.st26{fill:#663300;}
	.st27{fill-rule:evenodd;clip-rule:evenodd;fill:#D4ECFD;}
	.st28{fill-rule:evenodd;clip-rule:evenodd;fill:#DD777B;}
	.st29{fill-rule:evenodd;clip-rule:evenodd;fill:#363653;}
	.st30{fill-rule:evenodd;clip-rule:evenodd;fill:#DFF2FC;}
	.st31{fill-rule:evenodd;clip-rule:evenodd;fill:#AFCCEB;}
	.st32{fill-rule:evenodd;clip-rule:evenodd;fill:#76C5FB;}
	.st33{fill-rule:evenodd;clip-rule:evenodd;fill:#3882C8;}
	.st34{fill-rule:evenodd;clip-rule:evenodd;fill:#8DD7F7;}
	.st35{fill:#8DD7F7;}
	.st36{fill:#0164A5;}
</style>
<g>
	<g>
		<defs>
			<path id="SVGID_1_" d="M947.3,677.4"/>
		</defs>
		<defs>
			<path id="SVGID_2_" d="M-492.8,674.3"/>
		</defs>
		<clipPath id="SVGID_3_">
			<use xlink:href="#SVGID_1_"  style="overflow:visible;"/>
		</clipPath>
		<clipPath id="SVGID_4_" class="st0">
			<use xlink:href="#SVGID_2_"  style="overflow:visible;"/>
		</clipPath>
	</g>
	<g class="st1">
		<defs>
			<path id="SVGID_5_" class="st1" d="M142.1,463.3H94.2c-41.2,0-74.8,36.9-74.8,82.1c0,45.1,33.7,82.1,74.8,82.1h696.3
				c66.6,0,121.2-59.8,121.2-132.9c0-73.1-54.5-132.9-121.2-132.9c-28.2,0-53.7-25.3-53.7-56.2c0-30.9,23.1-56.2,51.2-56.2h29
				c29.3,0,53.3-26.3,53.3-58.4c0-32.1-24-58.4-53.3-58.4h-82.6c-11.4,0-20.7-10.2-20.7-22.7c0-12.5,9.3-22.7,20.7-22.7h13.7
				c7.9,0,14.3-7.1,14.3-15.7v0c0-8.6-6.4-15.7-14.3-15.7l-45.2-8c0,0-19.8,0-40.4,8c-17.7,6.9-21.1,24.6-69.1,24.6
				c-74.2,0-28.9,0-103.1,0c-10.3,0-18.7,9.2-18.7,20.5v0c0,11.3,8.4,20.5,18.7,20.5h17.9c14.9,0,27.1,13.4,27.1,29.7
				c0,16.3-12.2,29.7-27.1,29.7h-27c-72.9,0-83.2,20.9-95.9,62.4c-12.8,41.5-107.7,44.9-107.7,44.9H137.4
				c-22.4,0-40.8,20.1-40.8,44.7c0,24.6,18.3,44.7,40.8,44.7h4.7c21.6,0,39.2,19.4,39.2,43C181.3,443.9,163.6,463.3,142.1,463.3z
				 M767.8,114.1c-7.3,0-13.2-6.5-13.2-14.4c0-8,5.9-14.5,13.2-14.5c7.3,0,13.2,6.5,13.2,14.5C780.9,107.6,775,114.1,767.8,114.1z"
				/>
		</defs>
		<clipPath id="SVGID_6_">
			<use xlink:href="#SVGID_5_"  style="overflow:visible;"/>
		</clipPath>
		<linearGradient id="SVGID_7_" gradientUnits="userSpaceOnUse" x1="459.8362" y1="955.3567" x2="459.8362" y2="-37.2303">
			<stop  offset="0" style="stop-color:#014CDA"/>
			<stop  offset="5.743206e-03" style="stop-color:#034DDA"/>
			<stop  offset="0.2887" style="stop-color:#5589E7"/>
			<stop  offset="0.5393" style="stop-color:#95B8F1"/>
			<stop  offset="0.7486" style="stop-color:#C4DAF9"/>
			<stop  offset="0.9085" style="stop-color:#E1EFFD"/>
			<stop  offset="1" style="stop-color:#ECF7FF"/>
		</linearGradient>
		<rect x="4.5" y="24.9" class="st2" width="910.8" height="579.6"/>
	</g>
	<path class="st3" d="M779.7,606.7c0,0-23.4-10.7-20-27.2c3.5-16.5,22.5-14.8,20-27.8c-2.6-13-15.1-33.3-2.9-48.1
		c12.2-14.8,32.4-5.9,34.9-28.8c2-18.5,10.6-31.5,27.1-27.7c15.3,3.5,26.7,15.4,27,43.6c0.3,30,21.4,21.6,21.7,43.7
		c0.3,22.3-17.5,22.3-24.4,37.2c-3.3,7.1,5.3,31.8-19.9,35.2H779.7z"/>
	<path class="st4" d="M836.3,459.1c0,0,0.1,0.5,0.1,1.5c0.3,3,0.8,10.1,0.8,20.2c0,29.3-4.6,82.9-33.8,125.7
		c-0.4,0.6-0.3,1.4,0.3,1.8c0.6,0.4,1.4,0.2,1.8-0.3c29.7-43.5,34.3-97.5,34.3-127.1c0-13.5-1-21.9-1-22c-0.1-0.7-0.7-1.2-1.4-1.1
		C836.7,457.8,836.2,458.4,836.3,459.1"/>
	<path class="st5" d="M807.9,606.7c0,0-3.7-20.4,10.1-28.7c13.8-8.3,27.9-14.7,26.4-28.1c-1.5-13.4,2.2-29.1,24.4-29.4
		c13.7-0.2,8.6-14.6,22.5-17.5c8.5-1.8,14,7.1,15.1,15.7c1.2,9.9-4.4,19.6,2.1,27.6c8.3,10.4,11.7,29.8-6.2,35.4
		c-17.9,5.5-1.9,22.5-26.3,25H807.9z"/>
	<path class="st6" d="M890.4,512.7c-0.5,13-6.2,31.4-16.1,49.1c-9.8,17.6-23.8,34.4-40.4,44.4c-0.6,0.4-0.8,1.1-0.4,1.8
		c0.4,0.6,1.1,0.8,1.8,0.4c17.2-10.2,31.3-27.4,41.3-45.3c10-17.9,15.9-36.6,16.4-50.2c0-0.7-0.5-1.3-1.2-1.3
		C891,511.4,890.4,512,890.4,512.7"/>
	<path class="st7" d="M706.2,277.8l3.7,7c1.5,2.9,1,6.5-1.4,8.8c-4.7,4.4-8.7,9.3-12,14.5c-1.8,2.8-5.2,4-8.4,3l-7.6-2.3
		c-3.9-1.2-8.1,1-9.3,4.9l-4.5,14.5c-1.2,3.9,1,8.1,4.9,9.3l7.6,2.3c3.2,1,5.3,3.9,5.2,7.2c-0.2,6.3,0.4,12.6,1.8,18.8
		c0.7,3.2-0.9,6.5-3.8,8.1l-7,3.7c-3.6,1.9-5,6.4-3.1,10l7.1,13.4c1.9,3.6,6.4,5,10,3.1l7-3.7c2.9-1.5,6.5-1,8.8,1.4
		c4.4,4.7,9.3,8.7,14.5,12c2.8,1.8,4,5.2,3.1,8.4l-2.3,7.6c-1.2,3.9,1,8.1,4.9,9.3l14.5,4.5c3.9,1.2,8.1-1,9.3-4.9l2.3-7.6
		c1-3.2,3.9-5.3,7.2-5.2c6.2,0.2,12.6-0.4,18.8-1.8c3.2-0.7,6.5,0.9,8.1,3.8l3.7,7c1.9,3.6,6.4,5,10,3.1l13.4-7.1
		c3.6-1.9,5-6.4,3.1-10l-3.7-7c-1.5-2.9-1-6.5,1.4-8.8c4.7-4.4,8.7-9.3,12-14.5c1.8-2.8,5.2-4,8.4-3.1l7.6,2.3
		c3.9,1.2,8.1-1,9.3-4.9l4.5-14.5c1.2-3.9-1-8.1-4.9-9.3l-7.6-2.3c-3.2-1-5.3-3.9-5.2-7.3c0.2-6.2-0.4-12.6-1.8-18.8
		c-0.7-3.2,0.9-6.5,3.8-8.1l7-3.7c3.6-1.9,5-6.4,3.1-10l-7.1-13.4c-1.9-3.6-6.4-5-10-3.1l-7,3.7c-2.9,1.5-6.5,1-8.8-1.4
		c-4.4-4.6-9.3-8.7-14.5-12c-2.8-1.8-4-5.2-3.1-8.4l2.3-7.6c1.2-3.9-1-8.1-4.9-9.3l-14.5-4.5c-3.9-1.2-8.1,1-9.3,4.9l-2.3,7.6
		c-1,3.2-3.9,5.3-7.2,5.2c-6.3-0.2-12.6,0.4-18.8,1.8c-3.2,0.7-6.5-0.8-8.1-3.8l-3.7-7c-1.9-3.6-6.4-5-10-3.1l-13.4,7.1
		C705.7,269.7,704.3,274.2,706.2,277.8 M748.2,310.3c16.4-5.5,35,0.2,45.4,14c17.2,22.7,7.2,55.1-19.8,64.2
		c-16.4,5.5-34.9-0.2-45.4-14C711.2,351.8,721.2,319.3,748.2,310.3z"/>
	<path class="st8" d="M473.8,275.8h135.5c9.4,0,17.2,7.7,17.2,17.2v286.3c0,9.4-7.7,17.2-17.2,17.2H473.8c-9.4,0-17.2-7.7-17.2-17.2
		V293C456.7,283.6,464.4,275.8,473.8,275.8"/>
	<rect x="469.2" y="299" class="st9" width="147" height="241.8"/>
	<path class="st10" d="M467.2,323.8V299v-2h2h147h2v2v24.9v2v18.7v6.2v2v18.7v6.2v2v18.7v6.2v2v18.7v6.2v2V452v6.2v2v18.7v6.2v2
		v18.7v6.2v2v2v24.9v2h-2h-147h-2v-2v-24.9v-2v-2V489v-2v14.7v-39.5v-2v14.6v-39.5v-2v14.6v-39.5v-2v14.7v-39.5v-2v14.6v-39.5v-2
		v14.7v-39.5v-2V323.8z M507.2,337h69.3c2.4,0,4.5,1.4,5.5,3.5h32.2V301h-143v39.5h30.6C502.7,338.4,504.8,337,507.2,337z
		 M507.2,390h69.3c2.7,0,5,1.8,5.7,4.2h32V386v-14.6v-4v-11.4v-11.4h-31.9c-0.7,2.6-3,4.5-5.8,4.5h-69.3c-2.8,0-5.1-1.9-5.8-4.5
		h-30.2v11.4v11.4v4V386v8.2h30.3C502.2,391.8,504.5,390,507.2,390z M507.2,444.6h69.3c2.4,0,4.4,1.4,5.4,3.4h32.3v-8.1v-14.7v-4
		v-11.3v-11.5h-32.1c-0.9,2.2-3.1,3.8-5.6,3.8h-69.3c-2.5,0-4.7-1.6-5.6-3.8h-30.5v11.5v11.3v4v14.7v8.1h30.7
		C502.8,446,504.9,444.6,507.2,444.6z M507.2,498.4h69.3c2.3,0,4.4,1.3,5.3,3.3h32.3V496v-17.2v-4v-8.9v-14h-31.8
		c-0.6,2.7-3,4.7-5.9,4.7h-69.3c-2.8,0-5.2-2-5.9-4.7h-30.2v14v8.9v4V496v5.7h30.7C502.9,499.7,504.9,498.4,507.2,498.4z
		 M471.2,538.7h143v-8.6v-14.3v-4v4.9v-11.1h-31.8c-0.6,2.7-3,4.7-5.9,4.7h-69.3c-2.9,0-5.3-2-5.9-4.7h-30.2v11.1v-4.9v4v14.3V538.7
		z"/>
	<rect x="472.3" y="553.9" class="st11" width="18.7" height="18.7"/>
	<rect x="504.2" y="558.5" class="st12" width="9.4" height="9.4"/>
	<rect x="520.4" y="558.5" class="st12" width="9.4" height="9.4"/>
	<rect x="536.6" y="558.5" class="st13" width="9.4" height="9.4"/>
	<rect x="552.8" y="558.5" class="st12" width="9.4" height="9.4"/>
	<rect x="569" y="558.5" class="st13" width="9.4" height="9.4"/>
	<path class="st14" d="M605.8,548.3c3.6,0,6.5,2.9,6.5,6.5c0,3.6-2.9,6.5-6.5,6.5s-6.5-2.9-6.5-6.5
		C599.3,551.2,602.2,548.3,605.8,548.3"/>
	<path class="st13" d="M605.8,567.4c2.2,0,4,1.8,4,4c0,2.2-1.8,4-4,4c-2.2,0-4-1.8-4-4C601.8,569.1,603.6,567.4,605.8,567.4"/>
	<rect x="473.8" y="596.4" class="st8" width="134.7" height="9.1"/>
	<path class="st15" d="M617.8,527.7h170.2c3.4,0,6.2,2.8,6.2,6.2v58.5c0,3.4-2.8,6.2-6.2,6.2H617.8c-3.4,0-6.2-2.8-6.2-6.2v-58.5
		C611.6,530.4,614.4,527.7,617.8,527.7"/>
	<rect x="618.1" y="535.5" class="st9" width="59.9" height="29.7"/>
	<rect x="683.5" y="535.5" class="st9" width="104.6" height="29.7"/>
	<rect x="744.7" y="546.6" class="st14" width="7.1" height="7.1"/>
	<rect x="756" y="546.6" class="st13" width="7.1" height="7.1"/>
	<rect x="767.3" y="546.6" class="st14" width="7.1" height="7.1"/>
	<rect x="625.7" y="598.5" class="st16" width="25.7" height="7"/>
	<rect x="753.2" y="598.5" class="st16" width="25.7" height="7"/>
	<path class="st17" d="M81.8,372.5h291.7c7.2,0,11.1,6.1,13,13l54.6,199c1.9,6.9-5.9,13-13,13H126.5c-7.2,0-11.4-6-13-13l-44.7-199
		C67.2,378.5,74.7,372.5,81.8,372.5"/>
	<path class="st8" d="M90.4,372.5h291.7c7.2,0,11.1,6.1,13,13l54.6,199c1.9,6.9-5.9,13-13,13H135.1c-7.2,0-11.4-6-13-13l-44.7-199
		C75.8,378.5,83.3,372.5,90.4,372.5"/>
	<g>
		<defs>
			<path id="SVGID_8_" d="M93.7,383h285.9c2.1,0,3.2,1.8,3.7,3.7l49.9,175.7c0.6,2-1.7,3.7-3.7,3.7H134c-2.1,0-3.3-1.7-3.7-3.7
				L90,386.7C89.5,384.7,91.7,383,93.7,383"/>
		</defs>
		<clipPath id="SVGID_9_">
			<use xlink:href="#SVGID_8_"  style="overflow:visible;"/>
		</clipPath>
		<linearGradient id="SVGID_10_" gradientUnits="userSpaceOnUse" x1="261.3209" y1="547.6235" x2="262.0798" y2="403.1211">
			<stop  offset="0" style="stop-color:#073482;stop-opacity:0.9"/>
			<stop  offset="1" style="stop-color:#B9E4FF"/>
		</linearGradient>
		<rect x="89.5" y="383" class="st18" width="344.3" height="183.2"/>
	</g>
	<path class="st17" d="M121.6,581.8h392v10.4c0,5.7-4.7,10.4-10.4,10.4H132c-5.7,0-10.4-4.7-10.4-10.4V581.8z"/>
	<path class="st19" d="M342.4,581.8h290.8v10.4c0,5.7-4.7,10.4-10.4,10.4H352.8c-5.7,0-10.4-4.7-10.4-10.4V581.8z"/>
	<path class="st8" d="M459.6,589.9h89.2c1.1,0,2,0.9,2,2c0,1.1-0.9,2-2,2h-89.2c-1.1,0-2-0.9-2-2
		C457.6,590.8,458.5,589.9,459.6,589.9"/>
	<path class="st8" d="M131,585.7c2.4,0,4.3,2.4,4.3,5.3c0,2.9-1.9,5.3-4.3,5.3c-2.4,0-4.3-2.4-4.3-5.3
		C126.7,588.1,128.7,585.7,131,585.7"/>
	<rect x="208.7" y="589.3" class="st8" width="53.5" height="5.8"/>
	<rect x="267.4" y="589.3" class="st8" width="13.7" height="5.8"/>
	<rect x="285.9" y="589.3" class="st8" width="13.7" height="5.8"/>
	<path class="st20" d="M258.5,522.7h-98.3c-1.7,0-3.2,0.7-4.3,1.8l0,0c-1.1,1.1-1.8,2.6-1.8,4.3c0,1.7,0.7,3.2,1.8,4.3l0,0
		c1.1,1.1,2.6,1.8,4.3,1.8h98.3c1.7,0,3.2-0.7,4.3-1.8l0,0c1.1-1.1,1.8-2.6,1.8-4.3c0-1.7-0.7-3.2-1.8-4.3l0,0
		C261.6,523.4,260.1,522.7,258.5,522.7 M160.2,521.9h98.3c1.9,0,3.6,0.8,4.9,2v0h0c1.2,1.2,2,3,2,4.9c0,1.9-0.8,3.6-2,4.8l0,0v0
		c-1.2,1.2-3,2-4.9,2h-98.3c-1.9,0-3.6-0.8-4.9-2l0,0l0,0c-1.2-1.2-2-3-2-4.8c0-1.9,0.8-3.6,2-4.9h0l0,0
		C156.6,522.7,158.3,521.9,160.2,521.9z"/>
	<path class="st20" d="M250.3,493.9h-98.3c-1.7,0-3.2,0.7-4.3,1.8l0,0c-1.1,1.1-1.8,2.6-1.8,4.3c0,1.7,0.7,3.2,1.8,4.3l0,0
		c1.1,1.1,2.6,1.8,4.3,1.8h98.3c1.7,0,3.2-0.7,4.3-1.8l0,0c1.1-1.1,1.8-2.6,1.8-4.3c0-1.7-0.7-3.2-1.8-4.3l0,0
		C253.5,494.6,252,493.9,250.3,493.9 M152.1,493.1h98.3c1.9,0,3.6,0.8,4.9,2l0,0v0c1.2,1.2,2,3,2,4.9c0,1.9-0.8,3.6-2,4.9l0,0l0,0
		c-1.2,1.2-3,2-4.9,2h-98.3c-1.9,0-3.6-0.8-4.8-2l0,0h0c-1.2-1.2-2-3-2-4.9c0-1.9,0.8-3.6,2-4.9l0,0l0,0
		C148.5,493.8,150.2,493.1,152.1,493.1z"/>
	<path class="st20" d="M243,465.1h-98.3c-1.7,0-3.2,0.7-4.3,1.8l0,0c-1.1,1.1-1.8,2.6-1.8,4.3c0,1.7,0.7,3.2,1.8,4.3l0,0
		c1.1,1.1,2.6,1.8,4.3,1.8H243c1.7,0,3.2-0.7,4.3-1.8l0,0c1.1-1.1,1.8-2.6,1.8-4.3c0-1.7-0.7-3.2-1.8-4.3l0,0
		C246.2,465.7,244.7,465.1,243,465.1 M144.8,464.2H243c1.9,0,3.6,0.8,4.8,2l0,0v0c1.2,1.2,2,3,2,4.8c0,1.9-0.8,3.6-2,4.9v0h0
		c-1.2,1.2-3,2-4.8,2h-98.3c-1.9,0-3.6-0.8-4.9-2h0l0,0c-1.2-1.2-2-3-2-4.9c0-1.9,0.8-3.6,2-4.8l0,0l0,0
		C141.2,465,142.9,464.2,144.8,464.2z"/>
	<g>
		<defs>
			<path id="SVGID_11_" d="M292,569.1c-103.5-66.2-170.2-199.1-160.3-321.8l2.3-29l28.7-4.5c50.4-7.9,87.4-23.1,131.7-48.1
				l18.1-10.2l18.1,10.2c44.5,25.1,81.4,39.7,132,48.1l28.4,4.7l2.3,28.7c9.9,122.7-56.8,255.6-160.3,321.8H292z"/>
		</defs>
		<clipPath id="SVGID_12_">
			<use xlink:href="#SVGID_11_"  style="overflow:visible;"/>
		</clipPath>
		<linearGradient id="SVGID_13_" gradientUnits="userSpaceOnUse" x1="121.859" y1="361.3334" x2="503.2911" y2="361.3334">
			<stop  offset="0" style="stop-color:#F67A3C"/>
			<stop  offset="1" style="stop-color:#F67A3C"/>
		</linearGradient>
		<rect x="121.9" y="154.5" class="st21" width="381.4" height="413.6"/>
	</g>
	<g>
		<defs>
			<path id="SVGID_14_" d="M312.6,197.9c-49.4,27.8-89.1,43.8-144.1,52.4c-9,112.3,54.2,231.1,144,288.2
				c89.9-57.1,153.1-175.9,144.1-288.2C400.6,241,362,225.7,312.6,197.9"/>
		</defs>
		<clipPath id="SVGID_15_">
			<use xlink:href="#SVGID_14_"  style="overflow:visible;"/>
		</clipPath>
		<linearGradient id="SVGID_16_" gradientUnits="userSpaceOnUse" x1="312.5753" y1="180.6577" x2="312.5753" y2="538.4894">
			<stop  offset="0" style="stop-color:#0094FF"/>
			<stop  offset="0.1426" style="stop-color:#008CF1"/>
			<stop  offset="0.4111" style="stop-color:#0176CD"/>
			<stop  offset="0.7736" style="stop-color:#025393"/>
			<stop  offset="1" style="stop-color:#033B6B"/>
		</linearGradient>
		<rect x="159.5" y="197.9" class="st22" width="306.2" height="340.6"/>
	</g>
	<g>
		<defs>
			<path id="SVGID_17_" d="M177.6,258.6c-2.2,42.6,6.2,85.6,22.1,125.1C222.3,439.9,261.8,493,312.6,527
				c50.8-34,90.2-87.1,112.8-143.3c15.9-39.5,24.3-82.5,22.1-125.2c-23.3-4.2-45.9-10-68.2-18.2c-23.2-8.5-45.2-19.4-66.7-31.3
				c-22.6,12.6-45.7,23.9-70.1,32.7C221.2,249.3,199.7,254.7,177.6,258.6"/>
		</defs>
		<clipPath id="SVGID_18_">
			<use xlink:href="#SVGID_17_"  style="overflow:visible;"/>
		</clipPath>
		<linearGradient id="SVGID_19_" gradientUnits="userSpaceOnUse" x1="312.5801" y1="825.0361" x2="312.5801" y2="330.1098">
			<stop  offset="0" style="stop-color:#1E9DF8"/>
			<stop  offset="0.133" style="stop-color:#45AEF9"/>
			<stop  offset="0.3603" style="stop-color:#82C8FB"/>
			<stop  offset="0.5689" style="stop-color:#B2DDFD"/>
			<stop  offset="0.7517" style="stop-color:#D4ECFE"/>
			<stop  offset="0.9016" style="stop-color:#E9F6FF"/>
			<stop  offset="1" style="stop-color:#F1F9FF"/>
		</linearGradient>
		<rect x="175.5" y="208.9" class="st23" width="274.2" height="318.1"/>
	</g>
	<path class="st15" d="M617.8,449.8h170.2c3.4,0,6.2,2.8,6.2,6.2v58.5c0,3.4-2.8,6.2-6.2,6.2H617.8c-3.4,0-6.2-2.8-6.2-6.2V456
		C611.6,452.6,614.4,449.8,617.8,449.8"/>
	<rect x="618.1" y="457.6" class="st9" width="59.9" height="29.7"/>
	<rect x="683.5" y="457.6" class="st9" width="104.6" height="29.7"/>
	<rect x="744.7" y="468.7" class="st14" width="7.1" height="7.1"/>
	<rect x="756" y="468.7" class="st14" width="7.1" height="7.1"/>
	<rect x="767.3" y="468.7" class="st13" width="7.1" height="7.1"/>
	<rect x="625.7" y="520.7" class="st16" width="25.7" height="7"/>
	<rect x="753.2" y="520.7" class="st16" width="25.7" height="7"/>
	<path class="st15" d="M617.8,371.9h170.2c3.4,0,6.2,2.8,6.2,6.2v58.5c0,3.4-2.8,6.2-6.2,6.2H617.8c-3.4,0-6.2-2.8-6.2-6.2v-58.5
		C611.6,374.7,614.4,371.9,617.8,371.9"/>
	<rect x="618.1" y="379.8" class="st9" width="59.9" height="29.7"/>
	<rect x="683.5" y="379.8" class="st9" width="104.6" height="29.7"/>
	<rect x="744.7" y="390.8" class="st14" width="7.1" height="7.1"/>
	<rect x="756" y="390.8" class="st14" width="7.1" height="7.1"/>
	<rect x="767.3" y="390.8" class="st14" width="7.1" height="7.1"/>
	<rect x="625.7" y="442.8" class="st16" width="25.7" height="7"/>
	<rect x="753.2" y="442.8" class="st16" width="25.7" height="7"/>
	<path class="st24" d="M642.6,268.3h37.2c4.6,0,16.1,8.8,18.1,20.2h0c3.8,18.4,2.1,59-11,73.4l-14.8-0.2l-45.3-11.2v-39.2v-37.3
		C631,270.5,636.6,268.3,642.6,268.3"/>
	<path class="st24" d="M679.7,268.5c18.3,1.8,20.1,24.9,19.8,39.2h-19.8L679.7,268.5z"/>
	<path class="st25" d="M681.5,307.9l18-0.1c0,0,0,6.8-7.4,12.4c-7.4,5.6-31.3,23.6-31.3,23.6h-26.2c0,0,5.6-7.1,12.9-7.7
		c7.3-0.6,7.6,0.4,7.6,0.4C656.6,332.6,673.5,315.8,681.5,307.9"/>
	<path class="st26" d="M704.7,455.3l1.8,12.9l4.6,4.3c0,0,3.6-0.2,4,1.1c0.4,1.3,0,3.9,0,3.9h-3.7h-20c-1.3-5.6-2.3-11.5-2.7-21.5
		L704.7,455.3z"/>
	<path class="st16" d="M597.1,343.7h78.5c0.9,0,1.8,0.1,2.6,0.2h0c21.9-0.1,24.6,14.1,26.2,29.5l8.8,88.8h-29.8l-9.8-90.4h-76.6
		c-7.8,0-14.1-6.3-14.1-14.1S589.4,343.7,597.1,343.7"/>
	<path class="st26" d="M618.6,424.9l10.8,24.1c0,0-0.7,4.4-2.5,6.9c-1.8,2.5-2,4.3-0.8,5.8c1.1,1.5,1.4,1.9,1.4,1.9l18.3-19.1
		l-9.6-22.4L618.6,424.9z"/>
	<rect x="497.6" y="364.2" class="st27" width="44.6" height="8.7"/>
	<path class="st16" d="M604.7,347.8c2.9,1.3,5.7,3.8,7.8,7c6.5,9.8,35.8,75.9,35.8,75.9l-33.7,0L590,376.8c-1-2.2-6.1-11.6-6.6-15.8
		C581.9,347.3,593.3,342.6,604.7,347.8"/>
	<path class="st25" d="M638.7,249.8c-3.9,6.9,2.8,16.6,11,15.9l0,2.2l-4.5,6.4l4.4,6.6l4.6,1.7l11.1-2.9v-20
		c0.4-0.1,0.4,0.6,1.2,0.1c0.8-0.5,2.7-4.2,2.3-6.1c-0.3-1.9-2.8-3-2.8-3l0,0c2.3-5.7,4.1-6.6-1.8-9.7c-5.9-3.2-17.9-2.9-17.9-2.9
		l-5.4,1.8C640.6,245.1,641.4,245,638.7,249.8"/>
	<path class="st28" d="M648.5,265.7c0.4,0,0.8,0,1.2,0c3.6-0.1,6.6-0.8,9.9-2c0,0-1.2,3.9-5.4,5.8c-4,1.8-6.6,1.9-7,1.9l2.4-3.5
		l0-2.2L648.5,265.7z"/>
	<path class="st7" d="M545.1,165.5c5.8,0,11.2,1.5,15.9,4.2c7.2-12.1,20.9-20.3,36.5-20.3c22.5,0,40.9,17,41.9,38.4
		c8.9,2.7,15.4,10.9,15.4,20.6c0,11.9-9.8,21.6-21.9,21.6h-35.5h-23v-22.6h11.3l-19.1-28.6l-19.1,28.6h11.3v22.6h-13.7
		c-17.8,0-32.2-14.4-32.2-32.2C512.9,179.9,527.3,165.5,545.1,165.5"/>
	<path class="st29" d="M642.2,241.5c4.6,0.8,8.3,0.1,11.1,0.4c1.7,0.2,3,1.1,4,1.9c2.6,2.1,4.7,7.4,5.3,10.9c0,0,3.1-1.3,4.1-0.6
		c1,0.6,0.4,2.2,0.2,2.8c-0.2,0.6-1.6,1.3-2,1.7c-1.4,1.2,1.9,1.7,5.6-1.4c12.1-9.8,8.4-25.3-8.7-31.2c-6.9-2.4-2.1-6.1-6.9-7.1
		C633.1,214.3,628.6,238.8,642.2,241.5"/>
	<path class="st24" d="M627.2,273.8c-10.1,9-16,21.4-19.5,34.5c6.6-0.4,13.5-0.4,20.1-0.6L627.2,273.8z"/>
	<path class="st9" d="M654.3,293.7c0.7,0,1.2,0.5,1.2,1.2c0,0.7-0.5,1.2-1.2,1.2c-0.7,0-1.2-0.5-1.2-1.2
		C653.1,294.2,653.7,293.7,654.3,293.7 M654.3,286.6c0.7,0,1.2,0.5,1.2,1.2c0,0.7-0.5,1.2-1.2,1.2c-0.7,0-1.2-0.5-1.2-1.2
		C653.1,287.2,653.7,286.6,654.3,286.6z M649.6,267.9c-4.2,7.2,0.4,12.3,4.5,14.6c5.8-3.8,11.1-7.5,11.1-14.6c0,0,2,0,3.3,3.2
		c2.2,5.2-1.5,16.8-1.5,16.8s-4.1-5.2-7.4-5.5c-3.4-0.3-5.6,0.7-5.6,0.7c-4.3-3.2-7.3,0.9-10.1,3.9c-0.9-7.7-0.8-13.2,4.9-19.1
		H649.6z"/>
	<rect x="497.6" y="313.5" class="st27" width="44.6" height="8.7"/>
	<path class="st30" d="M645.3,298.5h-56.8c-2.2,0-4.5,1.8-4,4l8.5,37.6c0.5,2.1,1.8,4,4,4h56.8c2.2,0,4.5-1.8,4-4l-8.5-37.6
		C648.8,300.4,647.5,298.5,645.3,298.5"/>
	<path class="st31" d="M642.8,298.5H586c-2.2,0-4.5,1.8-4,4l8.5,37.6c0.5,2.1,1.8,4,4,4h56.8c2.2,0,4.5-1.8,4-4l-8.5-37.6
		C646.3,300.4,645,298.5,642.8,298.5"/>
	<path class="st9" d="M617.4,317.6c-1.7,0.6-2.6,2.7-1.9,4.7c0.7,2.1,2.6,3.3,4.3,2.7c1.7-0.6,2.6-2.7,1.9-4.7
		C621.1,318.2,619.1,317,617.4,317.6"/>
	<path class="st30" d="M684.8,340.3h-28.9v3.7h30.7v-1.9C686.6,341.2,685.8,340.3,684.8,340.3"/>
	<g>
		<defs>
			<path id="SVGID_20_" d="M312.9,255.7c26.5,0,48.8,20.5,50.1,47.1l0,0.1c0,0.8,0.1,1.5,0.1,2.3c0,0.6,0,1.2,0,1.8v14.1
				c10.6,1.2,18.9,10.2,18.9,21.1v76.4c0,11.7-9.6,21.2-21.2,21.2h-94.5c-11.7,0-21.2-9.6-21.2-21.2v-76.4
				c0-10.5,7.7-19.3,17.8-20.9v-18l0-0.4 M344.8,321v-14.4c0-0.5,0-0.9,0-1.4c0-0.5,0-0.9,0-1.4v-0.1h0 M281.1,303.7v1.5"/>
		</defs>
		<clipPath id="SVGID_21_">
			<use xlink:href="#SVGID_20_"  style="overflow:visible;"/>
		</clipPath>
	</g>
	<g>
		<defs>
			<path id="SVGID_22_" d="M323.4,412.3h-19.9V377c-6.8-3.6-11.4-10.7-11.4-18.9 M312.9,267.1c-16.7,0-31.1,12.8-31.9,29.7v1.5
				 M344.8,314v-14.4c0-0.5,0-0.9,0-1.4c0-0.5,0-0.9,0-1.4v-0.1h0"/>
		</defs>
		<clipPath id="SVGID_23_">
			<use xlink:href="#SVGID_22_"  style="overflow:visible;"/>
		</clipPath>
	</g>
	<path class="st8" d="M794,473.5h2.7c5.5,0,10.6,2.3,14.2,5.9c3.6,3.6,5.9,8.7,5.9,14.2v109.6v2.4h-2.4H649.1h-2.4v-2.4v-2.4h4.7
		H794h18V493.6c0-4.2-1.7-8.1-4.5-10.9c-2.8-2.8-6.6-4.5-10.9-4.5H794V473.5z"/>
	<path class="st8" d="M794,552.8h2.7c5.5,0,10.6,2.3,14.2,5.9c3.6,3.6,5.9,8.7,5.9,14.2v33.8h-4.7v-33.8c0-4.2-1.7-8.1-4.5-10.9
		c-2.8-2.8-6.6-4.5-10.9-4.5H794V552.8z"/>
	<path class="st8" d="M794.3,401c2.8,1,5.3,2.6,7.3,4.7c3.6,3.6,5.9,8.7,5.9,14.2v183.2h-4.7V419.9c0-4.2-1.7-8.1-4.5-10.9
		c-1.2-1.2-2.5-2.1-4-2.9V401z"/>
	<path class="st9" d="M15.8,605.5h880c2.4,0,4.3,2.3,4.3,5.2l0,0c0,2.9-1.9,5.2-4.3,9.2h-880c-2.4-4-4.3-6.3-4.3-9.2l0,0
		C11.4,607.9,13.4,605.5,15.8,605.5"/>
	<path class="st32" d="M679.8,164.8l0.9,1.7c0.4,0.7,0.2,1.6-0.4,2.2c-1.1,1.1-2.1,2.3-2.9,3.6c-0.4,0.7-1.3,1-2.1,0.7l-1.9-0.6
		c-1-0.3-2,0.2-2.3,1.2l-1.1,3.5c-0.3,1,0.2,2,1.2,2.3l1.9,0.6c0.8,0.2,1.3,1,1.3,1.8c0,1.5,0.1,3.1,0.4,4.6c0.2,0.8-0.2,1.6-0.9,2
		l-1.7,0.9c-0.9,0.5-1.2,1.6-0.8,2.5l1.7,3.3c0.5,0.9,1.6,1.2,2.5,0.8l1.7-0.9c0.7-0.4,1.6-0.2,2.2,0.3c1.1,1.1,2.3,2.1,3.6,2.9
		c0.7,0.4,1,1.3,0.7,2.1l-0.6,1.8c-0.3,1,0.2,2,1.2,2.3l3.5,1.1c1,0.3,2-0.2,2.3-1.2l0.6-1.8c0.2-0.8,1-1.3,1.8-1.3
		c1.5,0,3.1-0.1,4.6-0.4c0.8-0.2,1.6,0.2,2,0.9l0.9,1.7c0.5,0.9,1.6,1.2,2.5,0.8l3.3-1.7c0.9-0.5,1.2-1.6,0.8-2.5l-0.9-1.7
		c-0.4-0.7-0.2-1.6,0.3-2.2c1.1-1.1,2.1-2.3,2.9-3.6c0.4-0.7,1.3-1,2.1-0.7l1.8,0.6c1,0.3,2-0.2,2.3-1.2l1.1-3.5
		c0.3-1-0.2-2-1.2-2.3l-1.8-0.6c-0.8-0.2-1.3-1-1.3-1.8c0-1.5-0.1-3.1-0.4-4.6c-0.2-0.8,0.2-1.6,0.9-2l1.7-0.9
		c0.9-0.5,1.2-1.6,0.8-2.5l-1.7-3.3c-0.5-0.9-1.6-1.2-2.5-0.8l-1.7,0.9c-0.7,0.4-1.6,0.2-2.2-0.4c-1.1-1.1-2.3-2.1-3.6-2.9
		c-0.7-0.4-1-1.3-0.7-2.1l0.6-1.8c0.3-1-0.2-2-1.2-2.3l-3.5-1.1c-1-0.3-2,0.2-2.3,1.2l-0.6,1.9c-0.2,0.8-1,1.3-1.8,1.3
		c-1.5-0.1-3.1,0.1-4.6,0.4c-0.8,0.2-1.6-0.2-2-0.9l-0.9-1.7c-0.5-0.9-1.6-1.2-2.5-0.8l-3.3,1.7
		C679.7,162.8,679.4,163.9,679.8,164.8 M690.1,172.7c4-1.3,8.6,0.1,11.1,3.4c4.2,5.6,1.8,13.5-4.8,15.7c-4,1.3-8.6-0.1-11.1-3.4
		C681.1,182.9,683.5,174.9,690.1,172.7z"/>
	<rect x="497.6" y="520.6" class="st27" width="44.6" height="8.7"/>
	<rect x="497.6" y="470.6" class="st27" width="44.6" height="8.7"/>
	<rect x="497.6" y="416.7" class="st27" width="44.6" height="8.7"/>
	<rect x="683.5" y="580" class="st33" width="60" height="7.5"/>
	<rect x="749.4" y="580" class="st33" width="38.7" height="7.5"/>
	<rect x="683.5" y="499.4" class="st33" width="60" height="7.5"/>
	<rect x="749.4" y="499.4" class="st33" width="38.7" height="7.5"/>
	<rect x="709.6" y="420.4" class="st33" width="33.9" height="7.5"/>
	<rect x="749.4" y="420.4" class="st33" width="38.7" height="7.5"/>
	<path class="st34" d="M495.9,66.2L495.9,66.2c1,0,1.9,0.8,1.9,1.9v16.2c0,1-0.8,1.9-1.9,1.9c-1,0-1.9-0.8-1.9-1.9V68
		C494.1,67,494.9,66.2,495.9,66.2"/>
	<path class="st34" d="M505.9,76.2L505.9,76.2c0,1-0.8,1.9-1.9,1.9h-16.2c-1,0-1.9-0.8-1.9-1.9c0-1,0.8-1.9,1.9-1.9h16.2
		C505.1,74.3,505.9,75.1,505.9,76.2"/>
	<path class="st34" d="M297.6,88.6L297.6,88.6c1.2,0,2.1,0.9,2.1,2.1v18.4c0,1.2-0.9,2.1-2.1,2.1c-1.2,0-2.1-0.9-2.1-2.1V90.7
		C295.5,89.5,296.5,88.6,297.6,88.6"/>
	<path class="st34" d="M308.9,99.9L308.9,99.9c0,1.2-0.9,2.1-2.1,2.1h-18.4c-1.2,0-2.1-0.9-2.1-2.1c0-1.2,0.9-2.1,2.1-2.1h18.4
		C308,97.8,308.9,98.7,308.9,99.9"/>
	<path class="st35" d="M371.8,31.1c-1.3-1.3-3.1-2.1-5.1-2.1c-2,0-3.8,0.8-5.1,2.1l0,0c-1.3,1.3-2.1,3.1-2.1,5.1
		c0,2,0.8,3.8,2.1,5.1v0c1.3,1.3,3.1,2.1,5.1,2.1c2,0,3.8-0.8,5.1-2.1c1.3-1.3,2.1-3.1,2.1-5.1C374,34.2,373.1,32.4,371.8,31.1
		L371.8,31.1z M366.7,24.9c3.1,0,6,1.3,8,3.3l0,0c2.1,2.1,3.3,4.9,3.3,8c0,3.1-1.3,6-3.3,8c-2.1,2-4.9,3.3-8,3.3c-3.1,0-6-1.3-8-3.3
		l0,0c-2-2.1-3.3-4.9-3.3-8c0-3.1,1.3-5.9,3.3-8l0,0l0,0C360.7,26.2,363.6,24.9,366.7,24.9z"/>
	<path class="st35" d="M436.9,117.2c-0.9-0.9-2.1-1.5-3.5-1.5c-1.4,0-2.6,0.6-3.5,1.5l0,0c-0.9,0.9-1.5,2.1-1.5,3.5
		c0,1.4,0.6,2.6,1.5,3.5v0c0.9,0.9,2.1,1.5,3.5,1.5c1.4,0,2.6-0.6,3.5-1.5c0.9-0.9,1.5-2.2,1.5-3.5
		C438.4,119.3,437.8,118.1,436.9,117.2L436.9,117.2z M433.4,112.9c2.1,0,4.1,0.9,5.5,2.3l0,0c1.4,1.4,2.3,3.4,2.3,5.5
		c0,2.1-0.9,4.1-2.3,5.5c-1.4,1.4-3.3,2.3-5.5,2.3c-2.1,0-4.1-0.9-5.5-2.3l0,0c-1.4-1.4-2.3-3.3-2.3-5.5c0-2.1,0.9-4.1,2.3-5.5l0,0
		l0,0C429.3,113.8,431.2,112.9,433.4,112.9z"/>
	<path class="st35" d="M601.5,88.5c-0.7-0.7-1.8-1.2-2.9-1.2c-1.1,0-2.2,0.5-2.9,1.2l0,0c-0.7,0.7-1.2,1.8-1.2,2.9
		c0,1.1,0.5,2.1,1.2,2.9v0c0.7,0.7,1.8,1.2,2.9,1.2c1.1,0,2.1-0.5,2.9-1.2c0.7-0.7,1.2-1.8,1.2-2.9
		C602.7,90.3,602.2,89.3,601.5,88.5L601.5,88.5z M598.6,85.1c1.8,0,3.3,0.7,4.5,1.9l0,0c1.2,1.2,1.9,2.7,1.9,4.5
		c0,1.8-0.7,3.3-1.9,4.5c-1.2,1.2-2.7,1.9-4.5,1.9c-1.8,0-3.3-0.7-4.5-1.9l0,0c-1.2-1.2-1.9-2.7-1.9-4.5c0-1.8,0.7-3.3,1.9-4.5l0,0
		l0,0C595.3,85.8,596.9,85.1,598.6,85.1z"/>
	<path class="st35" d="M223.8,82.5c-0.7-0.7-1.8-1.2-2.9-1.2c-1.1,0-2.2,0.5-2.9,1.2l0,0c-0.7,0.7-1.2,1.8-1.2,2.9
		c0,1.1,0.5,2.1,1.2,2.9v0c0.7,0.7,1.8,1.2,2.9,1.2c1.1,0,2.1-0.5,2.9-1.2c0.7-0.7,1.2-1.8,1.2-2.9C225,84.2,224.5,83.2,223.8,82.5
		L223.8,82.5z M220.9,79c1.8,0,3.3,0.7,4.5,1.9l0,0c1.2,1.2,1.9,2.7,1.9,4.5c0,1.8-0.7,3.3-1.9,4.5c-1.2,1.2-2.7,1.9-4.5,1.9
		c-1.8,0-3.3-0.7-4.5-1.9l0,0c-1.2-1.2-1.9-2.7-1.9-4.5c0-1.8,0.7-3.3,1.9-4.5l0,0l0,0C217.6,79.7,219.1,79,220.9,79z"/>
	<path class="st34" d="M172.8,130.7L172.8,130.7c1.1,0,1.9,0.9,1.9,1.9v17c0,1.1-0.9,1.9-1.9,1.9h0c-1.1,0-1.9-0.9-1.9-1.9v-17
		C170.8,131.6,171.7,130.7,172.8,130.7"/>
	<path class="st34" d="M183.2,141.2L183.2,141.2c0,1.1-0.9,1.9-1.9,1.9h-17c-1.1,0-1.9-0.9-1.9-1.9l0,0c0-1.1,0.9-1.9,1.9-1.9h17
		C182.3,139.2,183.2,140.1,183.2,141.2"/>
	<path class="st35" d="M707.1,84c-1.1-1.1-2.6-1.8-4.3-1.8c-1.7,0-3.2,0.7-4.3,1.8l0,0c-1.1,1.1-1.8,2.6-1.8,4.3
		c0,1.7,0.7,3.2,1.8,4.3v0c1.1,1.1,2.6,1.8,4.3,1.8c1.7,0,3.2-0.7,4.3-1.8c1.1-1.1,1.8-2.6,1.8-4.3C708.9,86.6,708.2,85.1,707.1,84
		L707.1,84z M702.8,78.8c2.6,0,5,1.1,6.7,2.8l0,0c1.7,1.7,2.8,4.1,2.8,6.7c0,2.6-1.1,5-2.8,6.7c-1.7,1.7-4.1,2.8-6.7,2.8
		c-2.6,0-5-1.1-6.7-2.8l0,0c-1.7-1.7-2.8-4.1-2.8-6.7c0-2.6,1.1-5,2.8-6.7l0,0l0,0C697.8,79.8,700.1,78.8,702.8,78.8z"/>
	<path class="st34" d="M545.6,124L545.6,124c0.7,0,1.3,0.6,1.3,1.3v11.5c0,0.7-0.6,1.3-1.3,1.3h0c-0.7,0-1.3-0.6-1.3-1.3v-11.5
		C544.3,124.6,544.9,124,545.6,124"/>
	<path class="st34" d="M552.7,131.1L552.7,131.1c0,0.7-0.6,1.3-1.3,1.3h-11.5c-0.7,0-1.3-0.6-1.3-1.3v0c0-0.7,0.6-1.3,1.3-1.3h11.5
		C552.1,129.7,552.7,130.3,552.7,131.1"/>
</g>
<path class="st36" d="M347.1,306c-7.9-4.8-15.1-6.7-22.7-11.8c-4.5-3-10.9-10.6-16.4-17c-0.9,10.3-4.2,14.2-7.6,17.3
	c-7.6,6.1-12.4,7.6-18.8,11.2c-5.5,2.8-35.1,20.6-35.1,58.7s32.1,66.3,67.9,66.3s66.7-26,66.7-65.1C381.2,326.5,352,308.7,347.1,306
	z M348.1,417.2c-0.6,0.6-7.6,5.5-15.4,6.4c-7.9,0.6-18.8,1.2-25.5-4.8c-0.9-0.9-0.6-2.4,0-3c0.6-0.6,1.2-0.9,2.1-0.9
	c0.9,0,0.6,0,1.2,0.3c3,2.4,7.3,4.2,17,4.2c9.4,0,16.1-2.8,19.1-4.8c1.2-0.9,1.8,0,2.1,0.3C349,415.4,349.3,415.9,348.1,417.2z
	 M322.3,403.6c1.5-1.5,4.2-4,6.7-4.8c2.4-0.9,4-0.9,6.4-0.9c2.4,0,4.8,0,6.7,1.2c1.8,1.2,2.8,4,3.3,5.5c0.6,1.5,0,2.4-1.2,3
	c-0.9,0.6-1.2,0.3-2.1-1.5c-0.9-1.8-1.8-4-6.9-4c-5.2,0-6.7,1.8-9.4,4c-2.4,2.1-3.3,2.8-4.2,1.5C320.2,406.3,320.5,405,322.3,403.6z
	 M361.4,404.8c-5.5-0.3-16.1-17-22.7-17.3c-8.5-0.3-27.3,17.9-41.8,17.9c-8.8,0-11.5-1.2-14.5-3.3c-4.5-3-6.7-7.9-6.7-14.2
	c0-11.5,10.9-22.4,24.6-22.4c17.3,0,29.4,17.3,38.2,17c7.3,0,21.5-14.5,28.5-14.5c7.3,0,9.4,7.6,9.4,12.4c0,4.8-1.5,13-5.2,18.2
	C367.7,403.2,365.6,405,361.4,404.8z"/>
<path class="st36" d="M353.5,287.4c-8.6-5.3-16.7-7.3-25-13c-5-3.3-12-11.7-18-18.7c-1,11.4-4.7,15.7-8.3,19
	c-8.3,6.7-13.6,8.3-20.6,12.3c-6,3-38.6,22.7-38.6,64.7s35.4,73,74.7,73s73.4-28.7,73.4-71.7C390.9,310,358.9,290.4,353.5,287.4z
	 M354.5,409.8c-0.7,0.7-8.3,6-17,7c-8.6,0.7-20.6,1.3-28-5.3c-1-1-0.7-2.7,0-3.3c0.7-0.7,1.3-1,2.3-1s0.7,0,1.3,0.3
	c3.3,2.7,8,4.7,18.7,4.7c10.4,0,17.7-3,21-5.3c1.3-1,2,0,2.3,0.3C355.5,407.8,355.8,408.4,354.5,409.8z M326.2,394.8
	c1.6-1.6,4.7-4.4,7.3-5.3c2.7-1,4.4-1,7-1c2.7,0,5.3,0,7.3,1.3c2,1.3,3,4.4,3.7,6c0.6,1.6,0,2.7-1.3,3.3c-1,0.7-1.3,0.3-2.3-1.6
	c-1-2-2-4.4-7.6-4.4c-5.7,0-7.3,2-10.4,4.4c-2.7,2.3-3.7,3-4.7,1.6C323.8,397.8,324.1,396.5,326.2,394.8z M369.1,396.1
	c-6-0.3-17.7-18.7-25-19c-9.3-0.3-30,19.7-46,19.7c-9.7,0-12.7-1.3-16-3.7c-5-3.3-7.3-8.6-7.3-15.7c0-12.7,12-24.7,27-24.7
	c19,0,32.3,19,42,18.7c8,0,23.7-16,31.3-16c8,0,10.4,8.3,10.4,13.6c0,5.3-1.6,14.3-5.7,20C376.2,394.4,373.8,396.5,369.1,396.1z"/>
</svg>
