<?xml version="1.0" encoding="utf-8"?>
<!-- Generator: Adobe Illustrator 24.0.1, SVG Export Plug-In . SVG Version: 6.00 Build 0)  -->
<svg version="1.1" xmlns="http://www.w3.org/2000/svg" xmlns:xlink="http://www.w3.org/1999/xlink" x="0px" y="0px"
	 viewBox="0 0 2824.8 1484.3" style="enable-background:new 0 0 2824.8 1484.3;" xml:space="preserve">
<style type="text/css">
	.st0{display:none;}
	.st1{display:inline;fill:#FFFFFF;}
	.st2{opacity:0.76;fill:url(#SVGID_1_);}
	.st3{fill:#7D97F4;}
	.st4{fill:#91B3FA;}
	.st5{fill:#BDD0FB;}
	.st6{opacity:0.82;fill:#FFFFFF;}
	.st7{fill:url(#SVGID_2_);}
	.st8{fill:url(#SVGID_3_);}
	.st9{fill:url(#SVGID_4_);}
	.st10{fill:url(#SVGID_5_);}
	.st11{fill:url(#SVGID_6_);}
	.st12{fill:url(#SVGID_7_);}
	.st13{fill:#0948B3;}
	.st14{fill:#014CDA;}
	.st15{fill:#06155A;}
	.st16{fill:url(#SVGID_8_);}
	.st17{fill:url(#SVGID_9_);}
	.st18{fill:url(#SVGID_10_);}
	.st19{fill:url(#SVGID_11_);}
	.st20{fill:url(#SVGID_12_);}
	.st21{fill:url(#SVGID_13_);}
	.st22{fill:url(#SVGID_14_);}
	.st23{fill:url(#SVGID_15_);}
	.st24{fill:url(#SVGID_16_);}
	.st25{fill:url(#SVGID_17_);}
	.st26{fill:url(#SVGID_18_);}
	.st27{fill:url(#SVGID_19_);}
	.st28{fill:url(#SVGID_20_);}
	.st29{fill:url(#SVGID_21_);}
	.st30{fill:url(#SVGID_22_);}
	.st31{fill:url(#SVGID_23_);}
	.st32{fill:url(#SVGID_24_);}
	.st33{fill:url(#SVGID_25_);}
	.st34{fill:url(#SVGID_26_);}
	.st35{fill:url(#SVGID_27_);}
	.st36{fill:url(#SVGID_28_);}
	.st37{fill:url(#SVGID_29_);}
	.st38{fill:url(#SVGID_30_);}
	.st39{fill:url(#SVGID_31_);}
	.st40{fill:url(#SVGID_32_);}
	.st41{fill:url(#SVGID_33_);}
	.st42{fill:url(#SVGID_34_);}
	.st43{fill:url(#SVGID_35_);}
	.st44{fill:url(#SVGID_36_);}
	.st45{fill:url(#SVGID_37_);}
	.st46{fill:url(#SVGID_38_);}
	.st47{fill:url(#SVGID_39_);}
	.st48{fill:url(#SVGID_40_);}
	.st49{fill:url(#SVGID_41_);}
	.st50{fill:url(#SVGID_42_);}
	.st51{fill:url(#SVGID_43_);}
	.st52{fill:url(#SVGID_44_);}
	.st53{fill:url(#SVGID_45_);}
	.st54{fill:url(#SVGID_46_);}
	.st55{fill:url(#SVGID_47_);}
	.st56{fill:url(#SVGID_48_);}
	.st57{fill:url(#SVGID_49_);}
	.st58{fill:url(#SVGID_50_);}
	.st59{fill:url(#SVGID_51_);}
	.st60{fill:url(#SVGID_52_);}
	.st61{fill:url(#SVGID_53_);}
	.st62{fill:url(#SVGID_54_);}
	.st63{fill:url(#SVGID_55_);}
	.st64{fill:url(#SVGID_56_);}
	.st65{fill:url(#SVGID_57_);}
	.st66{fill:url(#SVGID_58_);}
	.st67{fill:url(#SVGID_59_);}
	.st68{fill:url(#SVGID_60_);}
	.st69{fill:url(#SVGID_61_);}
	.st70{fill:url(#SVGID_62_);}
	.st71{fill:url(#SVGID_63_);}
	.st72{fill:url(#SVGID_64_);}
	.st73{fill:url(#SVGID_65_);}
	.st74{fill:url(#SVGID_66_);}
	.st75{fill:url(#SVGID_67_);}
	.st76{fill:url(#SVGID_68_);}
	.st77{fill:url(#SVGID_69_);}
	.st78{fill:url(#SVGID_70_);}
	.st79{fill:url(#SVGID_71_);}
	.st80{fill:url(#SVGID_72_);}
	.st81{fill:url(#SVGID_73_);}
	.st82{fill:url(#SVGID_74_);}
	.st83{fill:url(#SVGID_75_);}
	.st84{fill:url(#SVGID_76_);}
	.st85{fill:url(#SVGID_77_);}
	.st86{fill:url(#SVGID_78_);}
	.st87{fill:url(#SVGID_79_);}
	.st88{fill:url(#SVGID_80_);}
	.st89{fill:url(#SVGID_81_);}
</style>
<g id="Background" class="st0">
	<rect x="164.4" y="-83.9" class="st1" width="2475" height="1650"/>
</g>
<g id="Illustration">
	<g>
		
			<linearGradient id="SVGID_1_" gradientUnits="userSpaceOnUse" x1="-1654.3284" y1="1006.996" x2="-4203.2983" y2="1016.6143" gradientTransform="matrix(0.9998 -1.860000e-02 1.460000e-02 0.7829 3998.7744 60.2257)">
			<stop  offset="0" style="stop-color:#DAE3FE"/>
			<stop  offset="1" style="stop-color:#E9EFFD"/>
		</linearGradient>
		<path class="st2" d="M2611.3,981l-55.9-50c0,0-251.3-173.7-259.3-370.8c-8-197.1-119.5-223.1-386.7-234.4
			c-225.9-9.6-486.9-38.2-697.4,74.5c-92.4,49.5-201.5,74.9-312.1,72.3l-243.6-5.6c-116.2-2.7-230.8,25.5-325.6,80.2
			c-140.6,81.1-292.2,230.1-232,482.1c10.2,42.8,16.6,87.7,17.4,131.3l2,107.2c1.8,94.1,95.2,169.7,212.4,171.3l1828.7,24
			c188,2.5,369.1-59,498.8-169.2c34.6-29.4,53.5-68.4,52.7-108.7C2709.4,1109.7,2674,1037.1,2611.3,981z"/>
		<g>
			<g>
				<path class="st3" d="M1737.8,174.6l113.6-77.9c10.9-7.5,23.9-11.4,37.2-11.2l24.9,0.3c0,0,122.3,776.7,107.2,1106.2
					c-1.3,29.1-8.2,117-8.2,117s-15,1.8-31.3,3.1c-16.7,1.4-33.5-2.3-48.1-10.5l-162.4-91.5L1737.8,174.6z"/>
				<path class="st4" d="M2317.7,94.9l-421.9-9.2c-14.8-0.3-26.6,12.1-25.6,26.9l81.6,1165c1.2,16.7,13.1,30.7,29.5,34.4l0,0
					l381.9-16.4c10.9-0.5,19.6-9.1,20.2-20c6.4-120.8,37.4-783.5-38.6-1158.1C2342.1,104.7,2330.9,95.2,2317.7,94.9z"/>
				<path class="st5" d="M1946.6,201.2l0.5,9.8c0.4,7.1,6.2,12.8,13.3,12.9l327.3,5.4c7.6,0.1,13.8-6,13.8-13.6v-18
					c0-7.5-6.2-13.6-13.7-13.6l-327.8,2.9C1952.4,187,1946.3,193.5,1946.6,201.2z"/>
				<path class="st5" d="M1959.4,347.4l2.3,21.1c0.8,7,6.7,12.2,13.7,12.1l317.3-5.1c7.4-0.1,13.4-6.2,13.4-13.6v-20.1
					c0-7.6-6.2-13.7-13.8-13.6l-319.6,4.1C1964.7,332.5,1958.6,339.4,1959.4,347.4z"/>
				<path class="st5" d="M1965,498.4l0.6,4.1c0.9,6.9,6.9,11.9,13.8,11.8l313.4-7.4c8.2-0.2,14.4-7.6,13.1-15.8l-2.3-14
					c-1.1-6.8-7.2-11.7-14.2-11.4L1977.7,483C1969.8,483.4,1964,490.5,1965,498.4z"/>
				<path class="st5" d="M1978.3,635.6L1978.3,635.6c0.8,6.8,6.6,12,13.5,12h312.2c7.5,0,13.6-6.1,13.6-13.6v-6.4
					c0-7.6-6.3-13.7-13.9-13.6l-312.2,6.4C1983.5,620.5,1977.3,627.6,1978.3,635.6z"/>
				<path class="st5" d="M2001.7,779.5l33.8,455.6c0.6,7.5,7,13.1,14.5,12.5l261.2-18.6c7.2-0.5,12.7-6.5,12.6-13.7l-6.2-437
					c-0.1-7.4-6.2-13.4-13.6-13.4h-288.9C2007.4,765,2001.1,771.7,2001.7,779.5z"/>
				<path class="st6" d="M2282.3,1152c-2.2,0-4.1-1.8-4.1-4.1V836c0-7.2-2.8-14-7.9-19.1c-5.1-5.1-11.8-7.9-19-7.9c0,0-0.1,0-0.1,0
					c-186.3,0.8-189.9,0-191-0.3c-2.2-0.5-3.6-2.7-3.1-4.9c0.5-2.1,2.6-3.5,4.7-3.1c4.8,0.6,75.5,0.6,189.4,0.1c0.1,0,0.1,0,0.2,0
					c9.3,0,18.1,3.6,24.8,10.2c6.7,6.6,10.3,15.5,10.3,24.9v311.9C2286.3,1150.1,2284.5,1152,2282.3,1152z"/>
				<g>
					<path class="st5" d="M2308.4,728.3h-303.2c-12.5,0-23.2-9.3-24.8-21.7c-29.6-223.4-46.8-395.2-54.2-540.6
						c-0.4-6.9,2.2-13.8,7.1-18.7c4.8-5,11.6-7.7,18.6-7.5l345.9,8.8c13.4,0.3,24.1,11.1,24.4,24.5l11.4,529.8
						c0.1,6.8-2.4,13.2-7.1,18C2321.5,725.7,2315.2,728.3,2308.4,728.3z M1951.1,147.9c-4.6,0-8.9,1.8-12.1,5.1
						c-3.3,3.4-5,7.9-4.8,12.6c7.4,145.2,24.6,316.7,54.2,539.9c1.1,8.4,8.3,14.7,16.7,14.7h303.2c4.6,0,8.9-1.8,12.1-5.1
						c3.2-3.3,4.9-7.6,4.8-12.2l-11.4-529.8c-0.2-9-7.4-16.3-16.4-16.5l-345.9-8.8C1951.4,147.9,1951.2,147.9,1951.1,147.9z"/>
				</g>
				<path class="st5" d="M2301.6,281C2301.5,281,2301.5,281,2301.6,281l-352.9-5.6c-2.2,0-4-1.9-4-4.1c0-2.2,1.9-3.9,4.1-4
					l352.9,5.6c2.2,0,4,1.9,4,4.1C2305.6,279.2,2303.8,281,2301.6,281z"/>
				<path class="st5" d="M2301.6,436.8h-323.4c-2.2,0-4.1-1.8-4.1-4.1c0-2.2,1.8-4.1,4.1-4.1h323.4c2.2,0,4.1,1.8,4.1,4.1
					C2305.6,435,2303.8,436.8,2301.6,436.8z"/>
				<path class="st5" d="M2080.3,576.4c-52.7,0-92.6-0.2-94.8-0.9c-2.1-0.7-3.3-2.9-2.7-5.1c0.6-2,2.7-3.2,4.7-2.8
					c9.8,1.2,233,0.3,318.4-0.1c0,0,0,0,0,0c2.2,0,4.1,1.8,4.1,4c0,2.2-1.8,4.1-4,4.1C2251,576,2153.4,576.4,2080.3,576.4z"/>
			</g>
			<g>
				<path class="st3" d="M1170.5,174.6l-113.6-77.9c-10.9-7.5-23.9-11.4-37.2-11.2l-24.9,0.3c0,0-122.3,776.7-107.2,1106.2
					c1.3,29.1,8.2,117,8.2,117s15,1.8,31.3,3.1c16.7,1.4,33.5-2.3,48.1-10.5l162.4-91.5L1170.5,174.6z"/>
				<path class="st4" d="M590.6,94.9l421.9-9.2c14.8-0.3,26.6,12.1,25.6,26.9l-81.6,1165c-1.2,16.7-13.1,30.7-29.5,34.4l0,0
					l-381.9-16.4c-10.9-0.5-19.6-9.1-20.2-20c-6.4-120.8-37.4-783.5,38.6-1158.1C566.1,104.7,577.3,95.2,590.6,94.9z"/>
				<path class="st5" d="M961.6,201.2l-0.5,9.8c-0.4,7.1-6.2,12.8-13.3,12.9l-327.3,5.4c-7.6,0.1-13.8-6-13.8-13.6v-18
					c0-7.5,6.2-13.6,13.7-13.6l327.8,2.9C955.9,187,962,193.5,961.6,201.2z"/>
				<path class="st5" d="M948.8,347.4l-2.3,21.1c-0.8,7-6.7,12.2-13.7,12.1l-317.3-5.1c-7.4-0.1-13.4-6.2-13.4-13.6v-20.1
					c0-7.6,6.2-13.7,13.8-13.6l319.6,4.1C943.5,332.5,949.7,339.4,948.8,347.4z"/>
				<path class="st5" d="M943.2,498.4l-0.6,4.1c-0.9,6.9-6.9,11.9-13.8,11.8l-313.4-7.4c-8.2-0.2-14.4-7.6-13.1-15.8l2.3-14
					c1.1-6.8,7.2-11.7,14.2-11.4L930.5,483C938.4,483.4,944.3,490.5,943.2,498.4z"/>
				<path class="st5" d="M929.9,635.6L929.9,635.6c-0.8,6.8-6.6,12-13.5,12H604.3c-7.5,0-13.6-6.1-13.6-13.6v-6.4
					c0-7.6,6.3-13.7,13.9-13.6l312.2,6.4C924.8,620.5,930.9,627.6,929.9,635.6z"/>
				<path class="st5" d="M906.5,779.5l-33.8,455.6c-0.6,7.5-7,13.1-14.5,12.5L597,1229.1c-7.2-0.5-12.7-6.5-12.6-13.7l6.2-437
					c0.1-7.4,6.2-13.4,13.6-13.4H893C900.9,765,907.1,771.7,906.5,779.5z"/>
				<g>
					<path class="st5" d="M625.9,1152c-2.2,0-4.1-1.8-4.1-4.1V836c0-9.4,3.7-18.3,10.3-24.9c6.6-6.6,15.4-10.2,24.8-10.2
						c0.1,0,0.1,0,0.2,0c114.2,0.5,185,0.5,189.4-0.1c2.2-0.5,4.3,0.9,4.8,3.1c0.5,2.2-1,4.4-3.2,4.9c-1.2,0.3-4.8,1.1-191,0.3
						c-7.1-0.1-14,2.8-19.1,7.9c-5.1,5.1-7.9,11.9-7.9,19.1v311.9C630,1150.1,628.2,1152,625.9,1152z"/>
					<g>
						<path class="st5" d="M903.1,728.3H599.9c-6.8,0-13.1-2.7-17.9-7.5c-4.7-4.8-7.3-11.3-7.1-18L586.2,173
							c0.3-13.4,11-24.1,24.4-24.5l345.9-8.8c7-0.2,13.7,2.6,18.6,7.5c4.8,5,7.4,11.8,7.1,18.7c-7.4,145.4-24.7,317.1-54.2,540.6
							C926.3,719,915.6,728.3,903.1,728.3z M956.7,147.9l-345.9,8.8c-9,0.2-16.2,7.5-16.4,16.5L583,702.9c-0.1,4.6,1.6,8.9,4.8,12.2
							c3.2,3.3,7.5,5.1,12.1,5.1h303.2c8.4,0,15.6-6.3,16.7-14.7c29.5-223.2,46.8-394.8,54.2-539.9c0.2-4.7-1.4-9.2-4.8-12.6
							C965.9,149.5,961.5,147.7,956.7,147.9L956.7,147.9z"/>
					</g>
					<path class="st5" d="M606.7,281c-2.2,0-4-1.8-4.1-4c0-2.2,1.8-4.1,4-4.1l352.9-5.6c2.3,0,4.1,1.8,4.1,4c0,2.2-1.8,4.1-4,4.1
						L606.7,281C606.7,281,606.7,281,606.7,281z"/>
					<path class="st5" d="M930,436.8H606.7c-2.2,0-4.1-1.8-4.1-4.1c0-2.2,1.8-4.1,4.1-4.1H930c2.2,0,4.1,1.8,4.1,4.1
						C934.1,435,932.3,436.8,930,436.8z"/>
					<path class="st5" d="M827.9,576.4c-73.1,0-170.7-0.4-225.7-0.7c-2.2,0-4.1-1.8-4-4.1c0-2.2,1.8-4,4.1-4c0,0,0,0,0,0
						c85.4,0.4,308.6,1.3,318.4,0.1c2-0.4,4.1,0.7,4.7,2.8c0.7,2.1-0.5,4.4-2.7,5.1C920.5,576.2,880.6,576.4,827.9,576.4z"/>
				</g>
			</g>
			<g>
				<path class="st4" d="M1145.2,1327.3h663c37.3,0,67.1-31,65.6-68.2c-8.5-219.6-37.6-908.1-76.4-1148.7
					c-2.1-12.9-13.3-22.2-26.4-21.7c-83.2,2.7-379.7,9.6-579.9-21.5c-21.7-3.4-41.5,12.8-42.5,34.7l-55.1,1171.3
					C1092.2,1302.7,1115.7,1327.3,1145.2,1327.3z"/>
				<linearGradient id="SVGID_2_" gradientUnits="userSpaceOnUse" x1="1676.6049" y1="191.8912" x2="1507.9702" y2="419.5477">
					<stop  offset="0" style="stop-color:#4042E2"/>
					<stop  offset="1" style="stop-color:#4F52FF"/>
				</linearGradient>
				<path class="st7" d="M1265.3,261l-4.4,351.1c-0.2,15.7,12.4,28.6,28.1,28.7l405.9,2.2c16,0.1,29-13.2,28.4-29.2l-11-343.2
					c-0.5-15-12.6-27-27.6-27.4l-390.5-10.1C1278.5,232.7,1265.5,245.3,1265.3,261z"/>
				<path class="st5" d="M1289.1,628.1c-4.2,0-8.1-1.7-11.1-4.7c-2.9-3-4.5-7-4.5-11.2l4.4-351.1c0.1-8.5,7.1-15.5,15.6-15.5
					l390.9,10.1c8.3,0.2,15,6.9,15.2,15.1l11,343.2c0.1,4.3-1.4,8.3-4.4,11.4c-3,3.1-7,4.8-11.2,4.8L1289.1,628.1z"/>
				<circle class="st3" cx="1320.8" cy="305.4" r="13.2"/>
				<path class="st3" d="M1373.4,302.3L1373.4,302.3c-2,6,2.4,12.3,8.7,12.5l265.5,11.7c5.4,0.2,10-4.1,10-9.6V316
					c0-5.1-4.1-9.4-9.2-9.6l-265.5-10.8C1378.6,295.5,1374.7,298.2,1373.4,302.3z"/>
				<path class="st3" d="M1343.4,376.8c0,7.3-5.9,13.2-13.2,13.2c-7.3,0-13.2-5.9-13.2-13.2c0-7.3,5.9-13.2,13.2-13.2
					C1337.5,363.6,1343.4,369.5,1343.4,376.8z"/>
				<path class="st3" d="M1382.9,373.7L1382.9,373.7c-2,6,2.4,12.3,8.7,12.5l265.5,11.7c5.4,0.2,10-4.1,10-9.6v-0.9
					c0-5.1-4.1-9.4-9.2-9.6l-265.5-10.7C1388.1,366.9,1384.3,369.6,1382.9,373.7z"/>
				<path class="st3" d="M1343.4,450c0,7.3-5.9,13.2-13.2,13.2c-7.3,0-13.2-5.9-13.2-13.2c0-7.3,5.9-13.2,13.2-13.2
					C1337.5,436.8,1343.4,442.7,1343.4,450z"/>
				<path class="st3" d="M1382.9,446.9L1382.9,446.9c-2,6,2.4,12.3,8.7,12.5l265.5,11.7c5.4,0.2,10-4.1,10-9.6v-0.9
					c0-5.1-4.1-9.4-9.2-9.6l-265.5-10.7C1388.1,440.1,1384.3,442.8,1382.9,446.9z"/>
				<path class="st3" d="M1343.4,533.3c0,7.3-5.9,13.2-13.2,13.2c-7.3,0-13.2-5.9-13.2-13.2c0-7.3,5.9-13.2,13.2-13.2
					C1337.5,520.1,1343.4,526,1343.4,533.3z"/>
				<path class="st3" d="M1382.9,530.2L1382.9,530.2c-2,6,2.4,12.3,8.7,12.5l265.5,11.7c5.4,0.2,10-4.1,10-9.6v-0.9
					c0-5.1-4.1-9.4-9.2-9.6l-265.5-10.7C1388.1,523.4,1384.3,526.1,1382.9,530.2z"/>
			</g>
		</g>
		<g>
			<path class="st5" d="M2341.2,1124.5c0,0-6-158.3,66.3-201.7c72.3-43.4,210.6-71.9,212.6-299.4c1.1-133.2,3.6-191.4,5.4-216.8
				c0.7-9.9-8.2-17.8-17.9-15.8c-68.9,14-292.5,70.8-337.4,224.6C2217,797.8,2341.2,1124.5,2341.2,1124.5z"/>
			<linearGradient id="SVGID_3_" gradientUnits="userSpaceOnUse" x1="2319.4729" y1="765.1106" x2="2559.0579" y2="765.1106">
				<stop  offset="0" style="stop-color:#DAE3FE"/>
				<stop  offset="1" style="stop-color:#E9EFFD"/>
			</linearGradient>
			<path class="st8" d="M2558.4,458.3c-19.4,20.4-37.6,42.1-54.8,64.5c-17.4,22.3-33.7,45.3-49.2,68.9
				c-15.2,23.7-30.1,47.8-43.5,72.5c-3.5,6.1-6.6,12.5-9.9,18.7l-4.9,9.4c-1.6,3.1-3.2,6.3-4.7,9.5c-6,12.7-12.3,25.4-17.7,38.3
				c-11.1,25.7-19.6,52.5-26.4,79.8c-6.6,27.3-11.3,55-14.3,83c-3,28-4.1,56.1-3.7,84.3c0.4,28.1,2.3,56.4,6.5,84.1l0,0.2
				c0.3,1.9-1,3.7-3,4c-1.9,0.3-3.6-1-4-2.8c-10.2-56.4-11.6-113.8-6.4-170.7c5.2-56.9,18.5-113.3,40.9-166.1
				c23.1-52.3,51.5-101.9,83.3-149.1c32.5-46.8,67.9-91.5,109.1-131.1c0.8-0.8,2.1-0.7,2.8,0.1
				C2559.2,456.3,2559.2,457.5,2558.4,458.3L2558.4,458.3z"/>
		</g>
		<g>
			<path class="st5" d="M2308.5,1360.3c-7.3,3.8,40.8-79,44.5-151.9c3.7-72.9,20.1-197.4,83-271.9c62.9-74.5,131.8-81.2,218.5-13.6
				c72.3,56.4,117.4,84.9,143.9,90.2c6.6,1.3,9.9,8.7,6.7,14.6c-17,31.2-64.9,103-145.5,98c-102.7-6.4-227.3-73.2-265.2-17.5
				c-38,55.7-33.1,86.9-34.2,113.3C2359.1,1247.9,2356.5,1335,2308.5,1360.3z"/>
			<linearGradient id="SVGID_4_" gradientUnits="userSpaceOnUse" x1="2362.9485" y1="1045.9468" x2="2626.0862" y2="1045.9468">
				<stop  offset="0" style="stop-color:#DAE3FE"/>
				<stop  offset="1" style="stop-color:#E9EFFD"/>
			</linearGradient>
			<path class="st9" d="M2622.8,1015.5c-12.2-9.1-25.2-17.4-38.5-24.6c-13.4-7.2-27.2-13.3-41.6-17.5c-7.2-2.1-14.4-3.6-21.7-4.3
				c-7.3-0.8-14.6-0.9-21.7,0.1c-1.8,0.3-3.6,0.5-5.3,0.9c-1.7,0.4-3.5,0.8-5.2,1.3l-10.7,3.3l-10.4,4l-10.1,4.8
				c-13.1,6.9-25.1,15.9-35.2,26.8c-10.1,10.9-18.6,23.4-25.6,36.8c-1.8,3.3-3.6,6.6-5.1,10.1c-1.5,3.5-3.2,6.9-4.6,10.4
				c-2.7,7.1-5.6,14.1-7.9,21.4c-5.1,14.4-8.6,29.4-12.4,44.3l0,0.1c-0.3,1.1-1.3,1.7-2.4,1.4c-1-0.2-1.6-1.2-1.5-2.2
				c2.4-15.3,5.3-30.6,9.5-45.6c4-15.1,9.3-29.8,16.2-44c6.9-14.1,15.3-27.8,26-39.7c10.7-11.9,23.5-22.1,37.7-29.5l10.8-5.2
				l11.2-4.3l11.4-3.5c1.9-0.6,4-0.9,6-1.4c2-0.5,4.1-0.6,6.1-1c8.2-1,16.4-0.9,24.4,0.1c8,1,15.9,2.9,23.5,5.3
				c15.2,4.9,29.4,12,42.7,20.3c13.3,8.4,25.7,17.8,37,28.6c0.8,0.8,0.8,2.1,0.1,2.9C2624.8,1016,2623.6,1016.1,2622.8,1015.5
				L2622.8,1015.5z"/>
		</g>
		<g>
			<g>
				<path class="st5" d="M718.6,888.8c0,0,7-184-77-234.4c-84-50.5-244.8-83.6-247-347.9c-1.3-154.7-4.2-222.4-6.3-252
					c-0.8-11.5,9.5-20.7,20.8-18.4c80.1,16.3,339.9,82.3,392,261C862.9,509.1,718.6,888.8,718.6,888.8z"/>
				<linearGradient id="SVGID_5_" gradientUnits="userSpaceOnUse" x1="464.5241" y1="471.5045" x2="746.3566" y2="471.5045">
					<stop  offset="0" style="stop-color:#DAE3FE"/>
					<stop  offset="1" style="stop-color:#E9EFFD"/>
				</linearGradient>
				<path class="st10" d="M470.1,110.6c6.2,5.7,12.1,11.4,17.9,17.3c5.8,5.9,11.5,11.9,17.1,18c5.6,6.1,11.2,12.2,16.6,18.4l8.2,9.3
					l8,9.5l7.9,9.6l7.7,9.7c5.2,6.5,10.3,13,15.3,19.6c10.1,13.1,19.6,26.7,29.2,40.2c9.2,13.8,18.6,27.5,27.2,41.6l6.6,10.6
					c2.2,3.5,4.4,7,6.4,10.7l12.5,21.5l3.1,5.4l2.9,5.5l5.9,11l5.9,11c2,3.6,3.9,7.3,5.7,11.1c7.2,15,14.9,29.6,21.3,45.2
					c1.7,3.8,3.2,7.7,4.8,11.6c1.5,3.9,3.1,7.8,4.6,11.7l4.2,11.8l2.1,5.9l1.9,6l3.9,11.9l3.5,12c2.4,8,4.3,16.2,6.4,24.2
					c7.7,32.5,13.2,65.5,16.1,98.7c3.2,33.2,3.8,66.5,2.6,99.8c-0.7,16.6-1.9,33.2-3.7,49.7c-1.7,16.6-4,32.9-7.4,49.5
					c-0.6,3.2-3.7,5.2-6.9,4.6c-3-0.6-5-3.5-4.6-6.5l0-0.3c4.5-32,6.7-64.8,6.9-97.4c0.3-32.6-1.2-65.2-4.7-97.6
					c-3.5-32.4-9-64.5-16.7-96c-8-31.4-17.7-62.5-30.5-92.3C652.4,383.5,620.5,326,585.1,271l-13.6-20.4c-4.5-6.9-9.4-13.4-14-20.2
					c-4.6-6.8-9.5-13.4-14.3-20l-7.3-9.9l-7.5-9.7c-19.7-26.1-40.7-51.5-63-75.4l-0.1-0.1c-1.2-1.3-1.2-3.4,0.2-4.7
					C466.9,109.4,468.8,109.4,470.1,110.6z"/>
			</g>
			<g>
				<path class="st5" d="M562,1303.6c11.5,8.9-88.1-186.7-76.3-459.6c5.6-128.6,37.1-284.7-21.6-359.3
					c-48.9-62.1-256.3-71.4-324.5-72.7c-8.5-0.2-13.4,9.6-8.1,16.3c26.1,32.9,80.9,109.1,85.7,175.6
					c6.3,87.7,74.4,156.5,142.2,185.2c67.7,28.7,104.2,50.5,115.6,170.5C486.4,1079.5,529.3,1278.4,562,1303.6z"/>
				<linearGradient id="SVGID_6_" gradientUnits="userSpaceOnUse" x1="222.6758" y1="672.4894" x2="476.4578" y2="672.4894">
					<stop  offset="0" style="stop-color:#DAE3FE"/>
					<stop  offset="1" style="stop-color:#E9EFFD"/>
				</linearGradient>
				<path class="st11" d="M224.9,465.8c42.1,10.4,81.9,29.5,116.8,55.7c17.5,13,33.3,28.4,47,45.6c13.5,17.3,24.9,36.4,32.8,57
					l2.9,7.7c1,2.6,1.7,5.2,2.5,7.9c1.7,5.3,3.1,10.5,4.4,15.7c2.8,10.4,5.5,20.8,8.1,31.2c5.3,20.9,10.2,41.8,14.8,62.8
					c9.2,42,17,84.4,22.2,127.2c0.2,1.3-0.7,2.4-2,2.5c-1.2,0.1-2.3-0.7-2.5-1.8l0-0.1c-4-21-8.3-42-13-62.9
					c-4.6-20.9-9.5-41.8-14.5-62.6c-5-20.8-10.2-41.6-15.7-62.3c-2.7-10.4-5.4-20.7-8.2-31.1l-2.1-7.8c-0.7-2.6-1.5-5-2.3-7.5
					c-0.8-2.5-1.4-5-2.3-7.5l-2.7-7.4c-7.3-19.6-18.1-37.8-30.7-54.6c-6.5-8.3-13.3-16.3-20.8-23.7c-1.8-1.9-3.7-3.7-5.6-5.5
					c-1.9-1.8-3.8-3.7-5.8-5.4c-4-3.5-7.9-7-12.1-10.2c-16.4-13.3-34.5-24.7-53.2-34.6c-18.8-10-38.5-18.4-58.8-24.7l-0.1,0
					c-1-0.3-1.5-1.3-1.2-2.3C223,466.2,224,465.6,224.9,465.8z"/>
			</g>
			<g>
				<path class="st5" d="M547.2,1338.4c7.7,4.1-43.6-84.3-47.6-162.2c-3.9-77.9-21.5-210.8-88.7-290.4
					c-67.2-79.5-140.7-86.8-233.4-14.5C100.3,931.6,52.1,962,23.9,967.6c-7,1.4-10.6,9.3-7.2,15.6c18.1,33.4,69.4,110,155.4,104.6
					c109.7-6.9,242.7-78.2,283.3-18.7c40.5,59.5,35.3,92.8,36.6,121C493.2,1218.4,495.9,1311.4,547.2,1338.4z"/>
				<linearGradient id="SVGID_7_" gradientUnits="userSpaceOnUse" x1="208.0244" y1="1002.6667" x2="488.963" y2="1002.6667">
					<stop  offset="0" style="stop-color:#DAE3FE"/>
					<stop  offset="1" style="stop-color:#E9EFFD"/>
				</linearGradient>
				<path class="st12" d="M208.7,966.8c12.1-11.6,25.4-21.6,39.6-30.5c14.2-8.9,29.3-16.4,45.6-21.7c8.1-2.6,16.5-4.6,25-5.7
					c8.6-1,17.3-1.2,26-0.1c2.2,0.3,4.4,0.6,6.5,1c2.1,0.5,4.3,0.9,6.4,1.5l12.2,3.8l11.9,4.6l11.5,5.6c15.1,8,28.8,18.8,40.2,31.5
					c11.5,12.7,20.4,27.2,27.8,42.3l2.8,5.7c0.9,1.9,1.6,3.9,2.4,5.8c1.5,3.9,3.2,7.7,4.6,11.7c2.7,7.9,5.5,15.8,7.5,23.8
					c4.6,16,7.6,32.3,10.2,48.7c0.2,1.1-0.6,2.2-1.7,2.3c-1.1,0.2-2-0.5-2.3-1.5l0-0.1c-3.9-15.9-7.9-31.9-13.2-47.3
					c-2.4-7.8-5.5-15.3-8.4-22.9c-1.6-3.7-3.3-7.4-5-11.1c-1.6-3.7-3.5-7.3-5.4-10.8c-7.5-14.3-16.5-27.7-27.3-39.3
					c-10.8-11.7-23.6-21.3-37.6-28.6l-10.8-5.1l-11.1-4.3l-11.5-3.5c-1.9-0.5-3.7-0.9-5.6-1.4c-1.9-0.4-3.8-0.6-5.7-1
					c-7.6-1-15.5-1-23.2-0.1c-7.8,0.8-15.6,2.4-23.2,4.7c-15.3,4.4-30.1,11-44.4,18.7c-14.2,7.7-28.1,16.6-41.1,26.3l-0.1,0.1
					c-0.9,0.7-2.3,0.5-3-0.4C207.8,968.8,207.9,967.6,208.7,966.8z"/>
			</g>
		</g>
		<g>
			<path class="st13" d="M2059.7,720.8c-7.5-0.2-13.6-6.3-13.7-13.8c-1.4-77.3-25.5-461-363.5-541.2
				c-376.2-89.3-548.4,293.3-548.4,293.3S668.6,280.6,579.4,758.8c-291.9,70.1-367.7,451.2-177.9,637.5
				c30.2,29.6,70.6,46.3,112.9,46.7l1827.9,16.5c53.7,0.5,101.2-34.6,116.5-86.1C2515.8,1180.7,2590.7,733.2,2059.7,720.8z"/>
			<path class="st14" d="M2018,729c-7.5-0.2-13.6-6.2-13.7-13.8c-1.5-74.1-25.4-429.9-343.7-504.5
				C1304.8,127.3,1142,484.6,1142,484.6S701.8,317.9,617.4,764.5c-273.3,64.8-346.3,414.6-173.3,590.3
				c30.3,30.8,71.6,48.3,114.9,48.7l1720.8,15.3c53.8,0.5,101.4-34.8,116.5-86.4C2450,1149.3,2513.7,740.8,2018,729z"/>
		</g>
		<g>
			<path class="st15" d="M1843.9,660.9L1821,458.3l0,0c-5-69.7-63.1-123.9-134.1-123.9c-42.6,0-80.6,21.7-105.2,51.6h-123.2
				c-24.6-29.8-62.6-51.6-105.2-51.6c-71,0-129.1,54.6-134.1,124.3l0-0.2L1196.2,661c-2.7,23.7,10.5,46.2,32.4,55.6l22.8,9.7
				c21.3,9.1,46,2.7,61.4-14.6l108.7-122.3h197.3l108.7,122.3c15.4,17.2,40.2,23.2,61.4,14.1l22.8-9.5
				C1833.4,706.9,1846.6,684.5,1843.9,660.9z"/>
			<linearGradient id="SVGID_8_" gradientUnits="userSpaceOnUse" x1="1428.3696" y1="162.0301" x2="1393.0566" y2="308.3275">
				<stop  offset="0" style="stop-color:#09005D"/>
				<stop  offset="1" style="stop-color:#1A0F91"/>
			</linearGradient>
			<circle class="st16" cx="1354.3" cy="469.1" r="87.8"/>
			<linearGradient id="SVGID_9_" gradientUnits="userSpaceOnUse" x1="1849.358" y1="144.2222" x2="1795.1271" y2="256.4676">
				<stop  offset="0" style="stop-color:#09005D"/>
				<stop  offset="1" style="stop-color:#1A0F91"/>
			</linearGradient>
			<circle class="st17" cx="1692.4" cy="469.1" r="87.8"/>
			<g>
				<g>
					<linearGradient id="SVGID_10_" gradientUnits="userSpaceOnUse" x1="1888.603" y1="-49.63" x2="1733.4618" y2="324.9786">
						<stop  offset="0" style="stop-color:#FE7062"/>
						<stop  offset="1" style="stop-color:#FF928E"/>
					</linearGradient>
					<circle class="st18" cx="1692.7" cy="423.4" r="20.3"/>
					<linearGradient id="SVGID_11_" gradientUnits="userSpaceOnUse" x1="1592.4117" y1="635.5173" x2="1975.4044" y2="159.3645">
						<stop  offset="0" style="stop-color:#4042E2"/>
						<stop  offset="1" style="stop-color:#4F52FF"/>
					</linearGradient>
					<circle class="st19" cx="1692.7" cy="510.9" r="20.3"/>
				</g>
				<g>
					<linearGradient id="SVGID_12_" gradientUnits="userSpaceOnUse" x1="1841.4994" y1="10.1595" x2="1754.4686" y2="388.5531">
						<stop  offset="0" style="stop-color:#E1473D"/>
						<stop  offset="1" style="stop-color:#E9605A"/>
					</linearGradient>
					<circle class="st20" cx="1736.4" cy="467.1" r="20.3"/>
					<circle class="st4" cx="1649" cy="467.1" r="20.3"/>
				</g>
			</g>
			<linearGradient id="SVGID_13_" gradientUnits="userSpaceOnUse" x1="1387.6849" y1="399.685" x2="1271.4225" y2="601.2069">
				<stop  offset="0" style="stop-color:#09005D"/>
				<stop  offset="1" style="stop-color:#1A0F91"/>
			</linearGradient>
			<path class="st21" d="M1395,459.2h-29.2l-4-40.4c-0.4-4-3.8-8.4-7.8-8.4h-9.7c-2.2,0-4.2,1.7-5.7,3.2c-1.5,1.6-2.2,4.7-2.1,6.8
				l2.3,38.8h-36.4c-4.3,0-11,2.2-11,6.5v7.4c0,4.3,6.7,7.8,11,7.8h37.7l2.3,38.7c0.2,4.1,3.7,7.4,7.8,7.4h13.9c2.2,0,4.3-1,5.8-2.6
				c1.5-1.6,2.2-3.9,2-6.1l-3.8-37.4h26.8c4.3,0,7.7-3.5,7.7-7.8v-7.4C1402.7,461.4,1399.3,459.2,1395,459.2z"/>
			<g>
				<linearGradient id="SVGID_14_" gradientUnits="userSpaceOnUse" x1="1463.204" y1="529.4082" x2="1323.212" y2="1021.271">
					<stop  offset="0" style="stop-color:#4042E2"/>
					<stop  offset="1" style="stop-color:#4F52FF"/>
				</linearGradient>
				<path class="st22" d="M1505.8,441.6c0,2.2-1.8,4.1-4.1,4.1h-27.1c-2.2,0-4.1-1.8-4.1-4.1l0,0c0-2.2,1.8-4.1,4.1-4.1h27.1
					C1504,437.5,1505.8,439.3,1505.8,441.6L1505.8,441.6z"/>
				<linearGradient id="SVGID_15_" gradientUnits="userSpaceOnUse" x1="1518.4106" y1="545.1208" x2="1378.4187" y2="1036.9835">
					<stop  offset="0" style="stop-color:#4042E2"/>
					<stop  offset="1" style="stop-color:#4F52FF"/>
				</linearGradient>
				<path class="st23" d="M1565.5,441.6c0,2.2-1.8,4.1-4.1,4.1h-27.1c-2.2,0-4.1-1.8-4.1-4.1l0,0c0-2.2,1.8-4.1,4.1-4.1h27.1
					C1563.7,437.5,1565.5,439.3,1565.5,441.6L1565.5,441.6z"/>
			</g>
		</g>
		<g>
			<g>
				<linearGradient id="SVGID_16_" gradientUnits="userSpaceOnUse" x1="1128.8883" y1="1720.943" x2="83.3264" y2="796.1033">
					<stop  offset="0" style="stop-color:#09005D"/>
					<stop  offset="1" style="stop-color:#1A0F91"/>
				</linearGradient>
				<polygon class="st24" points="522.6,892.3 475.2,888.9 415.9,1062.3 493.6,1451.4 567.2,1440.5 				"/>
				<linearGradient id="SVGID_17_" gradientUnits="userSpaceOnUse" x1="620.4121" y1="37.3915" x2="625.4572" y2="501.5072">
					<stop  offset="0" style="stop-color:#09005D"/>
					<stop  offset="1" style="stop-color:#1A0F91"/>
				</linearGradient>
				<polygon class="st25" points="805.9,1424 712.1,1068.5 656.1,876 522.6,892.3 461.2,1071.3 545.5,1440.5 806.1,1440.5 				"/>
				<linearGradient id="SVGID_18_" gradientUnits="userSpaceOnUse" x1="552.22" y1="676.3388" x2="572.399" y2="986.5921">
					<stop  offset="0" style="stop-color:#09005D"/>
					<stop  offset="1" style="stop-color:#1A0F91"/>
				</linearGradient>
				<polygon class="st26" points="475.2,888.9 594.6,871.6 656.1,876 522.6,892.3 				"/>
				<linearGradient id="SVGID_19_" gradientUnits="userSpaceOnUse" x1="643.8659" y1="707.673" x2="433.248" y2="1372.317">
					<stop  offset="0" style="stop-color:#09005D"/>
					<stop  offset="1" style="stop-color:#1A0F91"/>
				</linearGradient>
				<polygon class="st27" points="502,1062.5 567.4,1041.9 567.4,960.3 534.7,963.2 				"/>
				<linearGradient id="SVGID_20_" gradientUnits="userSpaceOnUse" x1="730.9456" y1="735.2672" x2="520.3277" y2="1399.911">
					<stop  offset="0" style="stop-color:#09005D"/>
					<stop  offset="1" style="stop-color:#1A0F91"/>
				</linearGradient>
				<polygon class="st28" points="621.3,950 651.2,942.5 678.3,1032.6 634.2,1032.6 				"/>
			</g>
			<linearGradient id="SVGID_21_" gradientUnits="userSpaceOnUse" x1="1139.2863" y1="1322.9812" x2="1003.0785" y2="1523.5095">
				<stop  offset="0" style="stop-color:#FF928E"/>
				<stop  offset="1" style="stop-color:#FEB3B1"/>
			</linearGradient>
			<path class="st29" d="M989.1,1271.3c0,0,32.6,166.4,44.4,166.4c11.8,0,230.9-26.2,230.9-26.2v-47.4l-173.2,6.4l-41.8-123.7
				L989.1,1271.3z"/>
			<g>
				<g>
					<linearGradient id="SVGID_22_" gradientUnits="userSpaceOnUse" x1="1298.2939" y1="1396.4263" x2="1147.7404" y2="1396.8785">
						<stop  offset="0" style="stop-color:#09005D"/>
						<stop  offset="1" style="stop-color:#1A0F91"/>
					</linearGradient>
					<rect x="1234.6" y="1378.8" class="st30" width="108.5" height="35.3"/>
					<linearGradient id="SVGID_23_" gradientUnits="userSpaceOnUse" x1="1373.3324" y1="1425.4115" x2="1051.8435" y2="1429.0291">
						<stop  offset="0" style="stop-color:#09005D"/>
						<stop  offset="1" style="stop-color:#1A0F91"/>
					</linearGradient>
					<path class="st31" d="M1391.9,1432.7v5.8h-214.3v-5.8c0-11.6,8.9-18.7,20.5-18.7h173.7
						C1383.3,1414.1,1391.9,1421.2,1391.9,1432.7z"/>
					<linearGradient id="SVGID_24_" gradientUnits="userSpaceOnUse" x1="1250.8385" y1="1396.4548" x2="1359.3455" y2="1396.4548">
						<stop  offset="0" style="stop-color:#09005D"/>
						<stop  offset="1" style="stop-color:#1A0F91"/>
					</linearGradient>
					<rect x="1250.8" y="1378.8" class="st32" width="108.5" height="35.3"/>
					<linearGradient id="SVGID_25_" gradientUnits="userSpaceOnUse" x1="1482.1538" y1="1364.8835" x2="1145.4176" y2="1077.3335">
						<stop  offset="0" style="stop-color:#09005D"/>
						<stop  offset="1" style="stop-color:#1A0F91"/>
					</linearGradient>
					<path class="st33" d="M1470.6,1039.2c0-10.2-8.2-18.4-18.4-18.4h-326.7c-10.2,0-18.4,8.2-18.4,18.4v321.2
						c0,10.2,8.2,18.4,18.4,18.4h326.7c10.2,0,18.4-8.2,18.4-18.4V1039.2z"/>
					<linearGradient id="SVGID_26_" gradientUnits="userSpaceOnUse" x1="1198.99" y1="1425.0819" x2="1414.5382" y2="1425.0819">
						<stop  offset="0" style="stop-color:#09005D"/>
						<stop  offset="1" style="stop-color:#1A0F91"/>
					</linearGradient>
					<path class="st34" d="M1414.5,1436l-21.9,1.1l-85.9,1.4H1199l0-4.3c0-11.6,9.3-21.5,20.8-21.5l86.9-0.6l86.8-0.4
						c11.6,0,21,9.2,21,20.8L1414.5,1436z"/>
				</g>
				<linearGradient id="SVGID_27_" gradientUnits="userSpaceOnUse" x1="1161.6332" y1="1196.2465" x2="1066.7017" y2="1209.0256">
					<stop  offset="0" style="stop-color:#09005D"/>
					<stop  offset="1" style="stop-color:#1A0F91"/>
				</linearGradient>
				<path class="st35" d="M1126.3,1021.7c-10.3,0-19.2,8.3-19.2,18.6V1362c0,10.2,8.8,18.4,19,18.4c4.1,0,8.1-3.4,8.1-7.5V1029
					C1134.2,1025,1130.3,1021.7,1126.3,1021.7z"/>
			</g>
			<linearGradient id="SVGID_28_" gradientUnits="userSpaceOnUse" x1="928.9637" y1="1163.1027" x2="-96.348" y2="2269.583">
				<stop  offset="0" style="stop-color:#FE7062"/>
				<stop  offset="1" style="stop-color:#FF928E"/>
			</linearGradient>
			<path class="st36" d="M948,1451.9H656l17.7-207.6c0,0-21.8-156.5,77.8-173.8c58.7-16,58.7-16,58.7-16s75-11.8,137.8,15.9
				c62.8,27.7,114.6,194.1,114.6,194.1l-75,30l-19.1-61.1L948,1451.9z"/>
			<linearGradient id="SVGID_29_" gradientUnits="userSpaceOnUse" x1="861.9057" y1="917.7898" x2="844.249" y2="1191.4673">
				<stop  offset="0" style="stop-color:#FF928E"/>
				<stop  offset="1" style="stop-color:#FEB3B1"/>
			</linearGradient>
			<path class="st37" d="M824.3,954.6l-29.7,114.1c0,0,62.1,30,114.8,4l-16.6-110.6L824.3,954.6z"/>
			<linearGradient id="SVGID_30_" gradientUnits="userSpaceOnUse" x1="850.7078" y1="833.8781" x2="908.7224" y2="949.907">
				<stop  offset="0" style="stop-color:#FF928E"/>
				<stop  offset="1" style="stop-color:#FEB3B1"/>
			</linearGradient>
			<path class="st38" d="M964.2,862.5c0,0,4.7,82.7-7,120.9c-11.7,38.2-12.6,65.4-58.7,57c-46-8.4-74.5-43.4-80.5-88
				c0,0-9.8-68.8,5.9-89.8C839.5,841.7,964.2,862.5,964.2,862.5z"/>
			<linearGradient id="SVGID_31_" gradientUnits="userSpaceOnUse" x1="968.1494" y1="676.1735" x2="823.1136" y2="993.9915">
				<stop  offset="0" style="stop-color:#09005D"/>
				<stop  offset="1" style="stop-color:#1A0F91"/>
			</linearGradient>
			<path class="st39" d="M842.7,931.1l2.9-0.2c3.6-0.2,6.4-3.5,5.9-7.1c-1.8-14-3.7-45.4,14-46.1c22.8-0.8,107.1,12.1,134.3-9.5
				c26.1-20.7,24.5-60.6,6.4-78.4c-1.2-1.2-3.1-1.3-4.4-0.2l-3.1,2.7c-2.1,1.9-5.4,0.3-5.2-2.6l0,0c0.2-2.7-2.9-4.4-5-2.7
				c-8.3,6.4-27.3,14.7-67.4,7.8c-57-9.8-100.3-1.2-114.7,35.3c-0.9,2.3-3.9,2.7-5.4,0.7c-3.1-3.9-8.9-7.3-20-3.3
				c-19.2,6.9-25,41.1-2.6,79.3c1.1,1.8,0.2,4.2-1.9,4.7c-7.2,1.6-19.2,7.5-1.2,27.8c18.7,21,36.4,26.4,43.5,27.8
				c1.8,0.3,3.4-0.9,3.7-2.7l4.8-35.1c0.3-2,2.3-3.2,4.2-2.5L842.7,931.1z"/>
			<linearGradient id="SVGID_32_" gradientUnits="userSpaceOnUse" x1="808.51" y1="924.9058" x2="841.8912" y2="924.9058">
				<stop  offset="0" style="stop-color:#FF928E"/>
				<stop  offset="1" style="stop-color:#FEB3B1"/>
			</linearGradient>
			<path class="st40" d="M841.5,938.4c0,0,5-49.9-20.2-44.7c-25.1,5.2-8.2,54.9,7.6,62.7L841.5,938.4z"/>
			<path class="st3" d="M1234.6,1357.1h-55.8c-10.9,0-20.1-10-20.1-21.9v-70.3c0-1.5,1.2-2.7,2.7-2.7c1.5,0,2.7,1.2,2.7,2.7v70.3
				c0,8,5.9,16.5,14.7,16.5h55.8c1.5,0,2.7,1.2,2.7,2.7S1236.1,1357.1,1234.6,1357.1z"/>
			<g>
				<g>
					<g>
						<linearGradient id="SVGID_33_" gradientUnits="userSpaceOnUse" x1="888.4793" y1="838.5771" x2="861.9944" y2="993.7027">
							<stop  offset="0" style="stop-color:#E1473D"/>
							<stop  offset="1" style="stop-color:#E9605A"/>
						</linearGradient>
						<path class="st41" d="M903.7,1001.9c-53.4-5.1-74.7-64.9-75-65.5l3.9-1.3c0.2,0.6,20.7,57.9,71.5,62.7L903.7,1001.9z"/>
					</g>
				</g>
				<g>
					<linearGradient id="SVGID_34_" gradientUnits="userSpaceOnUse" x1="1071.689" y1="801.836" x2="502.0811" y2="895.945">
						<stop  offset="0" style="stop-color:#E1473D"/>
						<stop  offset="1" style="stop-color:#E9605A"/>
					</linearGradient>
					<path class="st42" d="M841.9,876.9c0,0,33.5-81,87.5-80.6c0,0-13.6-9.2-30.5-4.2c-16.9,5-63.7,39.6-70.6,84.8
						C838.4,882.1,841.9,876.9,841.9,876.9z"/>
					<linearGradient id="SVGID_35_" gradientUnits="userSpaceOnUse" x1="824.8805" y1="705.4078" x2="825.7212" y2="812.1879">
						<stop  offset="0" style="stop-color:#E1473D"/>
						<stop  offset="1" style="stop-color:#E9605A"/>
					</linearGradient>
					<path class="st43" d="M833.8,870.3c-30,0.9-32.7,38.2-32.7,38.2c-6.7,26.3-1.2,40.8,7.7,48.8c6.1,5.5,14.6,7.3,22.4,4.9
						c7.8-2.4,13.8-8.7,15.7-16.6c1.8-7.2,3.6-13.9,4.5-16.3C853.8,923.6,863.8,869.4,833.8,870.3z"/>
				</g>
				<linearGradient id="SVGID_36_" gradientUnits="userSpaceOnUse" x1="785.7651" y1="917.6193" x2="949.4621" y2="914.891">
					<stop  offset="0" style="stop-color:#FE7062"/>
					<stop  offset="1" style="stop-color:#FF928E"/>
				</linearGradient>
				<path class="st44" d="M834.9,880c-5.8-2.1-12.3,0.1-15.7,5.3c-24.2,37.2-7.4,66.9,2.9,69.3C833,957,841.9,904,841.9,890
					C841.9,884.2,838.7,881.3,834.9,880z"/>
				<linearGradient id="SVGID_37_" gradientUnits="userSpaceOnUse" x1="926.1741" y1="965.0725" x2="915.0062" y2="984.7731">
					<stop  offset="0" style="stop-color:#E1473D"/>
					<stop  offset="1" style="stop-color:#E9605A"/>
				</linearGradient>
				<path class="st45" d="M910.2,1006.9h-7.6c-3.8,0-6.9-3.1-6.9-6.9l0,0c0-3.8,3.1-6.9,6.9-6.9h7.6c3.8,0,6.9,3.1,6.9,6.9l0,0
					C917.1,1003.7,914,1006.9,910.2,1006.9z"/>
			</g>
			<path class="st5" d="M1511.5,1436l-1098.2,3.4c-4.5,0-8.6,3.5-9.1,7.9l-1.7,13.4c-0.5,4.4,2.7,7.9,7.2,7.9l1104-5.9
				c3.8,0,6.6-3.3,6.2-7.3l-1-12.2C1518.5,1439.2,1515.2,1436,1511.5,1436z"/>
			<linearGradient id="SVGID_38_" gradientUnits="userSpaceOnUse" x1="974.9836" y1="1416.634" x2="1069.3694" y2="1416.634">
				<stop  offset="0" style="stop-color:#09005D"/>
				<stop  offset="1" style="stop-color:#1A0F91"/>
			</linearGradient>
			<path class="st46" d="M975.2,1438.5h94.1c0,0-21.4-45.9-60.5-43.7C969.8,1397.1,975.2,1438.5,975.2,1438.5z"/>
			<linearGradient id="SVGID_39_" gradientUnits="userSpaceOnUse" x1="619.6354" y1="1192.0255" x2="894.5745" y2="1396.3385">
				<stop  offset="0" style="stop-color:#FF928E"/>
				<stop  offset="1" style="stop-color:#FEB3B1"/>
			</linearGradient>
			<path class="st47" d="M718.6,1308.8l65.5-30.1l57.9,101.7c0,0,163.7-25.5,192.8,5.5c29.1,30.9,15.5,30.5,11.8,30.5
				c-3.6,0-20.5-18.2-20.5-18.2s14.7,22.2,6.8,23.2c-7.9,1-27.3-20-27.3-20s15.9,27.7,6.4,24.6c-9.5-3.2-17.3-18.2-17.3-18.2
				s12.7,17.8,4.1,18.4c-8.6,0.7-21.8-14.7-21.8-14.7s-20.2,9.2-31.8,9.2c-11.6,0-128.5,29.2-149.6,17.1
				C774.5,1425.6,718.6,1308.8,718.6,1308.8z"/>
			<g>
				<linearGradient id="SVGID_40_" gradientUnits="userSpaceOnUse" x1="905.7968" y1="1017.9051" x2="762.0219" y2="1238.6118">
					<stop  offset="0" style="stop-color:#E1473D"/>
					<stop  offset="1" style="stop-color:#E9605A"/>
				</linearGradient>
				<path class="st48" d="M784.1,1280.1c-0.4,0-0.8-0.2-1.1-0.5c-0.5-0.6-0.3-1.5,0.3-1.9l12.1-9.1l-38.8-107.3
					c-0.3-0.7,0.1-1.5,0.8-1.7c0.7-0.3,1.5,0.1,1.7,0.8l39.1,108.2c0.2,0.6,0,1.2-0.5,1.6l-12.9,9.7
					C784.7,1280,784.4,1280.1,784.1,1280.1z"/>
			</g>
			<g>
				<linearGradient id="SVGID_41_" gradientUnits="userSpaceOnUse" x1="742.6441" y1="1380.8372" x2="614.4147" y2="1100.7327">
					<stop  offset="0" style="stop-color:#E1473D"/>
					<stop  offset="1" style="stop-color:#E9605A"/>
				</linearGradient>
				<path class="st49" d="M712.4,1304.5c-0.4,0-0.9-0.2-1.1-0.6l-32.7-48.2c-0.4-0.6-0.3-1.5,0.4-1.9c0.6-0.4,1.5-0.3,1.9,0.4
					l32.7,48.2c0.4,0.6,0.3,1.5-0.4,1.9C712.9,1304.4,712.7,1304.5,712.4,1304.5z"/>
			</g>
		</g>
		<g>
			<linearGradient id="SVGID_42_" gradientUnits="userSpaceOnUse" x1="1579.2699" y1="1072.4203" x2="1673.1388" y2="1072.4203">
				<stop  offset="0" style="stop-color:#DAE3FE"/>
				<stop  offset="1" style="stop-color:#E9EFFD"/>
			</linearGradient>
			<path class="st50" d="M1615.3,1123.5c-0.7,0-1.5-0.3-2-0.8l-33.3-35.2c-0.5-0.6-0.8-1.3-0.7-2l3.2-46.8c0.1-1.2,0.9-2.1,2-2.4
				l56.4-14.7c1.1-0.3,2.2,0.1,2.9,1l28.8,39.1c0.5,0.6,0.6,1.4,0.5,2.1l-9,45.5c-0.2,1-1,1.8-2,2.1l-46.1,12.2
				C1615.8,1123.5,1615.5,1123.5,1615.3,1123.5z M1584.8,1084.6l31.4,33.2l42.9-11.3l8.4-42.7l-27-36.7l-52.7,13.8L1584.8,1084.6z"
				/>
			<linearGradient id="SVGID_43_" gradientUnits="userSpaceOnUse" x1="1579.269" y1="1054.7976" x2="1644.2985" y2="1054.7976">
				<stop  offset="0" style="stop-color:#DAE3FE"/>
				<stop  offset="1" style="stop-color:#E9EFFD"/>
			</linearGradient>
			<path class="st51" d="M1582,1088.3c-1.2,0-2.2-0.8-2.6-1.9c-0.4-1.4,0.4-2.9,1.8-3.4l42.8-12.7l14.9-47c0.5-1.4,2-2.2,3.4-1.8
				c1.4,0.5,2.2,2,1.8,3.4l-15.4,48.4c-0.3,0.9-1,1.5-1.8,1.8l-44.2,13.1C1582.5,1088.2,1582.2,1088.3,1582,1088.3z"/>
			<linearGradient id="SVGID_44_" gradientUnits="userSpaceOnUse" x1="1623.4917" y1="1090.5265" x2="1664.1664" y2="1090.5265">
				<stop  offset="0" style="stop-color:#DAE3FE"/>
				<stop  offset="1" style="stop-color:#E9EFFD"/>
			</linearGradient>
			<path class="st52" d="M1661.5,1111.3c-0.7,0-1.4-0.3-1.9-0.8l-35.2-36.2c-1-1.1-1-2.8,0.1-3.8c1.1-1,2.8-1,3.8,0.1l35.2,36.2
				c1,1.1,1,2.8-0.1,3.8C1662.8,1111.1,1662.1,1111.3,1661.5,1111.3z"/>
		</g>
		<linearGradient id="SVGID_45_" gradientUnits="userSpaceOnUse" x1="1858.2029" y1="1311.6161" x2="1937.296" y2="1311.6161">
			<stop  offset="0" style="stop-color:#DAE3FE"/>
			<stop  offset="1" style="stop-color:#E9EFFD"/>
		</linearGradient>
		<path class="st53" d="M1934.6,1350.3c-0.3,0-0.7-0.1-1-0.2l-73.7-28.3c-0.9-0.4-1.6-1.2-1.7-2.2c-0.1-1,0.3-2,1.1-2.6l62.6-43.8
			c0.8-0.5,1.8-0.6,2.6-0.3c0.9,0.4,1.5,1.2,1.6,2.1l11.1,72c0.1,1-0.2,1.9-1,2.5C1935.8,1350.1,1935.2,1350.3,1934.6,1350.3z
			 M1866.7,1318.7l64.5,24.8l-9.7-63.1L1866.7,1318.7z"/>
		<linearGradient id="SVGID_46_" gradientUnits="userSpaceOnUse" x1="2287.9141" y1="1160.517" x2="2325.8042" y2="1160.517">
			<stop  offset="0" style="stop-color:#DAE3FE"/>
			<stop  offset="1" style="stop-color:#E9EFFD"/>
		</linearGradient>
		<path class="st54" d="M2306.9,1179.5c-10.4,0-18.9-8.5-18.9-18.9c0-10.4,8.5-18.9,18.9-18.9c10.4,0,18.9,8.5,18.9,18.9
			C2325.8,1171,2317.3,1179.5,2306.9,1179.5z M2306.9,1147c-7.5,0-13.5,6.1-13.5,13.5s6.1,13.5,13.5,13.5c7.5,0,13.5-6.1,13.5-13.5
			S2314.3,1147,2306.9,1147z"/>
		<linearGradient id="SVGID_47_" gradientUnits="userSpaceOnUse" x1="1511.2551" y1="238.8214" x2="1829.9941" y2="238.8214">
			<stop  offset="0" style="stop-color:#DAE3FE"/>
			<stop  offset="1" style="stop-color:#E9EFFD"/>
		</linearGradient>
		<path class="st55" d="M1518,360.2c-3.7,0-6.8-3-6.8-6.8v-21.7c0-3.7,3-6.8,6.8-6.8c3.7,0,6.8,3,6.8,6.8v21.7
			C1524.8,357.2,1521.8,360.2,1518,360.2z M1518,303.2c-3.7,0-6.8-3-6.8-6.8v-21.7c0-3.7,3-6.8,6.8-6.8c3.7,0,6.8,3,6.8,6.8v21.7
			C1524.8,300.2,1521.8,303.2,1518,303.2z M1518,246.3c-3.7,0-6.8-3-6.8-6.8v-21.7c0-3.7,3-6.8,6.8-6.8c3.7,0,6.8,3,6.8,6.8v21.7
			C1524.8,243.2,1521.8,246.3,1518,246.3z M1518,189.3c-3.7,0-6.8-3-6.8-6.8v-21.7c0-3.7,3-6.8,6.8-6.8c3.7,0,6.8,3,6.8,6.8v21.7
			C1524.8,186.3,1521.8,189.3,1518,189.3z M1518,132.3c-3.7,0-6.8-3-6.8-6.8v-8.1h27.1c3.7,0,6.8,3,6.8,6.8c0,3.7-3,6.8-6.8,6.8
			h-16.3C1521,131.8,1519.6,132.3,1518,132.3z M1823.2,131h-21.7c-3.7,0-6.8-3-6.8-6.8c0-3.7,3-6.8,6.8-6.8h21.7
			c3.7,0,6.8,3,6.8,6.8C1830,128,1827,131,1823.2,131z M1766.2,131h-21.7c-3.7,0-6.8-3-6.8-6.8c0-3.7,3-6.8,6.8-6.8h21.7
			c3.7,0,6.8,3,6.8,6.8C1773,128,1770,131,1766.2,131z M1709.3,131h-21.7c-3.7,0-6.8-3-6.8-6.8c0-3.7,3-6.8,6.8-6.8h21.7
			c3.7,0,6.8,3,6.8,6.8C1716.1,128,1713,131,1709.3,131z M1652.3,131h-21.7c-3.7,0-6.8-3-6.8-6.8c0-3.7,3-6.8,6.8-6.8h21.7
			c3.7,0,6.8,3,6.8,6.8C1659.1,128,1656.1,131,1652.3,131z M1595.3,131h-21.7c-3.7,0-6.8-3-6.8-6.8c0-3.7,3-6.8,6.8-6.8h21.7
			c3.7,0,6.8,3,6.8,6.8C1602.1,128,1599.1,131,1595.3,131z"/>
		<linearGradient id="SVGID_48_" gradientUnits="userSpaceOnUse" x1="1282.0342" y1="774.5744" x2="1511.2551" y2="774.5744">
			<stop  offset="0" style="stop-color:#DAE3FE"/>
			<stop  offset="1" style="stop-color:#E9EFFD"/>
		</linearGradient>
		<path class="st56" d="M1481.4,912.2h-21.7c-3.7,0-6.8-3-6.8-6.8s3-6.8,6.8-6.8h21.7c3.7,0,6.8,3,6.8,6.8
			S1485.2,912.2,1481.4,912.2z M1424.4,912.2h-21.7c-3.7,0-6.8-3-6.8-6.8s3-6.8,6.8-6.8h21.7c3.7,0,6.8,3,6.8,6.8
			S1428.2,912.2,1424.4,912.2z M1367.5,912.2h-21.7c-3.7,0-6.8-3-6.8-6.8s3-6.8,6.8-6.8h21.7c3.7,0,6.8,3,6.8,6.8
			S1371.2,912.2,1367.5,912.2z M1310.5,912.2h-21.7c-3.7,0-6.8-3-6.8-6.8s3-6.8,6.8-6.8h21.7c3.7,0,6.8,3,6.8,6.8
			S1314.3,912.2,1310.5,912.2z M1504.5,900c-3.7,0-6.8-3-6.8-6.8v-21.7c0-3.7,3-6.8,6.8-6.8s6.8,3,6.8,6.8v21.7
			C1511.3,897,1508.2,900,1504.5,900z M1504.5,843.1c-3.7,0-6.8-3-6.8-6.8v-21.7c0-3.7,3-6.8,6.8-6.8s6.8,3,6.8,6.8v21.7
			C1511.3,840,1508.2,843.1,1504.5,843.1z M1504.5,786.1c-3.7,0-6.8-3-6.8-6.8v-21.7c0-3.7,3-6.8,6.8-6.8s6.8,3,6.8,6.8v21.7
			C1511.3,783.1,1508.2,786.1,1504.5,786.1z M1504.5,729.1c-3.7,0-6.8-3-6.8-6.8v-21.7c0-3.7,3-6.8,6.8-6.8s6.8,3,6.8,6.8v21.7
			C1511.3,726.1,1508.2,729.1,1504.5,729.1z M1504.5,672.2c-3.7,0-6.8-3-6.8-6.8v-21.7c0-3.7,3-6.8,6.8-6.8s6.8,3,6.8,6.8v21.7
			C1511.3,669.1,1508.2,672.2,1504.5,672.2z"/>
		<linearGradient id="SVGID_49_" gradientUnits="userSpaceOnUse" x1="843.9374" y1="436.8466" x2="1178.9526" y2="436.8466">
			<stop  offset="0" style="stop-color:#DAE3FE"/>
			<stop  offset="1" style="stop-color:#E9EFFD"/>
		</linearGradient>
		<path class="st57" d="M1172.2,578.6h-21.7c-3.7,0-6.8-3-6.8-6.8s3-6.8,6.8-6.8h21.7c3.7,0,6.8,3,6.8,6.8
			S1175.9,578.6,1172.2,578.6z M1115.2,578.6h-21.7c-3.7,0-6.8-3-6.8-6.8s3-6.8,6.8-6.8h21.7c3.7,0,6.8,3,6.8,6.8
			S1119,578.6,1115.2,578.6z M1058.2,578.6h-21.7c-3.7,0-6.8-3-6.8-6.8s3-6.8,6.8-6.8h21.7c3.7,0,6.8,3,6.8,6.8
			S1062,578.6,1058.2,578.6z M1001.3,578.6h-21.7c-3.7,0-6.8-3-6.8-6.8s3-6.8,6.8-6.8h21.7c3.7,0,6.8,3,6.8,6.8
			S1005,578.6,1001.3,578.6z M944.3,578.6h-21.7c-3.7,0-6.8-3-6.8-6.8s3-6.8,6.8-6.8h21.7c3.7,0,6.8,3,6.8,6.8
			S948.1,578.6,944.3,578.6z M887.3,578.6h-21.7c-3.7,0-6.8-3-6.8-6.8s3-6.8,6.8-6.8h21.7c3.7,0,6.8,3,6.8,6.8
			S891.1,578.6,887.3,578.6z M850.7,558.2c-3.7,0-6.8-3-6.8-6.8v-21.7c0-3.7,3-6.8,6.8-6.8s6.8,3,6.8,6.8v21.7
			C857.5,555.2,854.5,558.2,850.7,558.2z M850.7,501.3c-3.7,0-6.8-3-6.8-6.8v-21.7c0-3.7,3-6.8,6.8-6.8s6.8,3,6.8,6.8v21.7
			C857.5,498.2,854.5,501.3,850.7,501.3z M850.7,444.3c-3.7,0-6.8-3-6.8-6.8v-21.7c0-3.7,3-6.8,6.8-6.8s6.8,3,6.8,6.8v21.7
			C857.5,441.3,854.5,444.3,850.7,444.3z M850.7,387.3c-3.7,0-6.8-3-6.8-6.8v-21.7c0-3.7,3-6.8,6.8-6.8s6.8,3,6.8,6.8v21.7
			C857.5,384.3,854.5,387.3,850.7,387.3z M850.7,330.4c-3.7,0-6.8-3-6.8-6.8v-21.7c0-3.7,3-6.8,6.8-6.8s6.8,3,6.8,6.8v21.7
			C857.5,327.3,854.5,330.4,850.7,330.4z"/>
		<linearGradient id="SVGID_50_" gradientUnits="userSpaceOnUse" x1="1865.259" y1="503.9852" x2="2242.3206" y2="503.9852">
			<stop  offset="0" style="stop-color:#DAE3FE"/>
			<stop  offset="1" style="stop-color:#E9EFFD"/>
		</linearGradient>
		<path class="st58" d="M2235.5,510.8h-21.7c-3.7,0-6.8-3-6.8-6.8c0-3.7,3-6.8,6.8-6.8h21.7c3.7,0,6.8,3,6.8,6.8
			C2242.3,507.7,2239.3,510.8,2235.5,510.8z M2178.6,510.8h-21.7c-3.7,0-6.8-3-6.8-6.8c0-3.7,3-6.8,6.8-6.8h21.7
			c3.7,0,6.8,3,6.8,6.8C2185.4,507.7,2182.3,510.8,2178.6,510.8z M2121.6,510.8h-21.7c-3.7,0-6.8-3-6.8-6.8c0-3.7,3-6.8,6.8-6.8
			h21.7c3.7,0,6.8,3,6.8,6.8C2128.4,507.7,2125.4,510.8,2121.6,510.8z M2064.6,510.8h-21.7c-3.7,0-6.8-3-6.8-6.8
			c0-3.7,3-6.8,6.8-6.8h21.7c3.7,0,6.8,3,6.8,6.8C2071.4,507.7,2068.4,510.8,2064.6,510.8z M2007.7,510.8H1986c-3.7,0-6.8-3-6.8-6.8
			c0-3.7,3-6.8,6.8-6.8h21.7c3.7,0,6.8,3,6.8,6.8C2014.5,507.7,2011.4,510.8,2007.7,510.8z M1950.7,510.8H1929c-3.7,0-6.8-3-6.8-6.8
			c0-3.7,3-6.8,6.8-6.8h21.7c3.7,0,6.8,3,6.8,6.8C1957.5,507.7,1954.5,510.8,1950.7,510.8z M1893.7,510.8H1872c-3.7,0-6.8-3-6.8-6.8
			c0-3.7,3-6.8,6.8-6.8h21.7c3.7,0,6.8,3,6.8,6.8C1900.5,507.7,1897.5,510.8,1893.7,510.8z"/>
		<linearGradient id="SVGID_51_" gradientUnits="userSpaceOnUse" x1="1857.6598" y1="130.811" x2="1947.775" y2="130.811">
			<stop  offset="0" style="stop-color:#DAE3FE"/>
			<stop  offset="1" style="stop-color:#E9EFFD"/>
		</linearGradient>
		<circle class="st59" cx="1902.7" cy="130.8" r="45.1"/>
		<linearGradient id="SVGID_52_" gradientUnits="userSpaceOnUse" x1="2261.8479" y1="502.4472" x2="2351.9631" y2="502.4472">
			<stop  offset="0" style="stop-color:#DAE3FE"/>
			<stop  offset="1" style="stop-color:#E9EFFD"/>
		</linearGradient>
		<circle class="st60" cx="2306.9" cy="502.4" r="45.1"/>
		<linearGradient id="SVGID_53_" gradientUnits="userSpaceOnUse" x1="810.5677" y1="228.4672" x2="900.6831" y2="228.4672">
			<stop  offset="0" style="stop-color:#DAE3FE"/>
			<stop  offset="1" style="stop-color:#E9EFFD"/>
		</linearGradient>
		<circle class="st61" cx="855.6" cy="228.5" r="45.1"/>
		<linearGradient id="SVGID_54_" gradientUnits="userSpaceOnUse" x1="1155.0773" y1="906.6356" x2="1245.1925" y2="906.6356">
			<stop  offset="0" style="stop-color:#DAE3FE"/>
			<stop  offset="1" style="stop-color:#E9EFFD"/>
		</linearGradient>
		<circle class="st62" cx="1200.1" cy="906.6" r="45.1"/>
		<g>
			<g>
				
					<linearGradient id="SVGID_55_" gradientUnits="userSpaceOnUse" x1="2571.9414" y1="565.9747" x2="2623.0908" y2="619.3975" gradientTransform="matrix(0.9645 0.264 -0.264 0.9645 -15.9086 -478.9911)">
					<stop  offset="0" style="stop-color:#09005D"/>
					<stop  offset="1" style="stop-color:#1A0F91"/>
				</linearGradient>
				<path class="st63" d="M2308.8,715.5c0,0-13.8-3-23.1,24.5c0,0,23.8,36.9,64.6,55.3c3.1,1.4,1.5-23.1,1.2-26.4
					C2349.9,753,2335.2,739,2308.8,715.5z"/>
				<linearGradient id="SVGID_56_" gradientUnits="userSpaceOnUse" x1="2335.1013" y1="526.91" x2="2240.0918" y2="679.9337">
					<stop  offset="0" style="stop-color:#09005D"/>
					<stop  offset="1" style="stop-color:#1A0F91"/>
				</linearGradient>
				<path class="st64" d="M2142.4,671.3h29.8c0,0,91.4-100.9,151.3-111.1c0,0,37.4,62.2-6.6,161.7c-3.5,8-9.1,2.6-16.5-2.1
					c-2.2-1.4-3.8-3.3-4.8-5.7l3.5-85c0,0-78,68.2-91.5,81.3C2194.2,723.7,2125.3,715.7,2142.4,671.3z"/>
				
					<linearGradient id="SVGID_57_" gradientUnits="userSpaceOnUse" x1="2445.5454" y1="867.1213" x2="2542.2949" y2="938.1301" gradientTransform="matrix(1 0 0 1 -62.1546 0)">
					<stop  offset="0" style="stop-color:#09005D"/>
					<stop  offset="1" style="stop-color:#1A0F91"/>
				</linearGradient>
				<path class="st65" d="M2430.2,883.2c-12.5-10.9-32.4-23.2-61.1-26.7l-9.7,5.9c0,0,6.2,9.1,17.5,18.8c10.4,6,26.4,14.2,39.7,16
					C2429.6,898.9,2431.5,891.1,2430.2,883.2z"/>
				<linearGradient id="SVGID_58_" gradientUnits="userSpaceOnUse" x1="2285.7065" y1="767.7289" x2="2357.2708" y2="767.7289">
					<stop  offset="0" style="stop-color:#09005D"/>
					<stop  offset="1" style="stop-color:#1A0F91"/>
				</linearGradient>
				<path class="st66" d="M2351.5,769c-8.1,0.4-14.2,10-31.1-2.1c-16.4-11.7-27.5-24.1-33.1-31c-0.5,1.3-1,2.7-1.5,4.2
					c0,0,24.6,40.8,65.4,59.2c3.1,1.4,6.5-1.1,6.1-4.5C2356.7,788.7,2355.2,779.5,2351.5,769z"/>
				<path class="st4" d="M2439.6,892.5c-2.5-2.8-5.6-6-9.4-9.3c1.3,7.9-0.6,15.7-13.5,14c-13.3-1.8-29.3-9.9-39.7-16
					c13,11.1,32.8,22.9,57.9,22.2C2440.4,903.2,2443.3,896.7,2439.6,892.5z"/>
				<linearGradient id="SVGID_59_" gradientUnits="userSpaceOnUse" x1="2122.1321" y1="637.3854" x2="2267.6521" y2="637.3854">
					<stop  offset="0" style="stop-color:#FF928E"/>
					<stop  offset="1" style="stop-color:#FEB3B1"/>
				</linearGradient>
				<path class="st67" d="M2146.8,580.5c0,0,15,75.2,88.6,105l26.2-3.1l6.2,9.8l-61.4,2c0,0-52.5-20.8-80.2-77.4
					C2125.1,615,2109.8,583.4,2146.8,580.5z"/>
				
					<linearGradient id="SVGID_60_" gradientUnits="userSpaceOnUse" x1="2104.5178" y1="459.9495" x2="2209.7551" y2="829.1584" gradientTransform="matrix(1 0 0 1 -62.1546 0)">
					<stop  offset="0" style="stop-color:#FE7062"/>
					<stop  offset="1" style="stop-color:#FF928E"/>
				</linearGradient>
				<path class="st68" d="M2154.8,691.6c0,0-17.1-46.4-20.7-91.5c0,0,12.5-10.7,20.3-15.4c2.5-1.5,3.5-4.7,2.2-7.3
					c-5.7-11.9-40.4-58.6-43-59.2c-14.1-3.5-72.1-31.1-112.9,24.7c-17.5,24,3.5,97.7,82.9,174.1l16.4,3.1L2154.8,691.6z"/>
				<linearGradient id="SVGID_61_" gradientUnits="userSpaceOnUse" x1="2090.1882" y1="470.4008" x2="2040.1614" y2="573.3975">
					<stop  offset="0" style="stop-color:#FF928E"/>
					<stop  offset="1" style="stop-color:#FEB3B1"/>
				</linearGradient>
				<path class="st69" d="M2061.4,478.9l-10.4,34.6c-0.5,1.6,0.1,3.3,1.5,4.2c5,3.4,18.1,10.2,36,3.6c2-0.8,3.5-2.7,3.6-4.8
					l2.5-30.1L2061.4,478.9z"/>
				<g>
					<linearGradient id="SVGID_62_" gradientUnits="userSpaceOnUse" x1="2083.4873" y1="405.2366" x2="2090.2136" y2="493.099">
						<stop  offset="0" style="stop-color:#FF928E"/>
						<stop  offset="1" style="stop-color:#FEB3B1"/>
					</linearGradient>
					<path class="st70" d="M2122.1,450.8c0,0-5.1,35.9-18.9,46.9c-13.8,11-40.6,2.7-49.7-24.3l18.1-46.2L2122.1,450.8z"/>
					
						<linearGradient id="SVGID_63_" gradientUnits="userSpaceOnUse" x1="2138.9346" y1="360.1046" x2="2158.7078" y2="472.8857" gradientTransform="matrix(1 0 0 1 -62.1546 0)">
						<stop  offset="0" style="stop-color:#09005D"/>
						<stop  offset="1" style="stop-color:#1A0F91"/>
					</linearGradient>
					<path class="st71" d="M2069.6,457.1c1,0.3,2.1-0.3,2.3-1.4c0.5-3.3,1.7-9.9,4.3-14.3c0,0-1.3-4.7,11.9,2.4
						c13.2,7.1,33.1,17.6,44.7,11.3c11.4-6.1,22.9-36.6-7.2-30.9c-1.1,0.2-2.2-0.7-2.1-1.9c0.4-5-0.1-16.6-11.8-20.3
						c-10.9-3.5-5.1,2.2-7.5,5.1c-0.7,0.9,0.9-3-14.6-0.7c-5.3,0.8-12.2-13.4-25.3-7.6c-10.8,4.8-12.5,11.4-12.3,15.5
						c0.1,1.3-1.3,2.3-2.5,1.7c-3.3-1.5-8.6-2.3-13.7,4.1c-7,8.8,3,16.5,6,18.5c0.5,0.3,0.8,0.9,0.8,1.5c0,4.6,0.7,24.6,10.8,35.9
						c0.9,1,2.5,0.7,3-0.5l7.7-18.4c0.4-0.9,1.3-1.3,2.2-1L2069.6,457.1z"/>
					<linearGradient id="SVGID_64_" gradientUnits="userSpaceOnUse" x1="2058.6555" y1="407.1377" x2="2065.3816" y2="495.0002">
						<stop  offset="0" style="stop-color:#FF928E"/>
						<stop  offset="1" style="stop-color:#FEB3B1"/>
					</linearGradient>
					<path class="st72" d="M2069.8,460.8c0,0-4.7-19.2-11.9-13c-7.2,6.2,1.9,20,10.1,22.6L2069.8,460.8z"/>
				</g>
				
					<linearGradient id="SVGID_65_" gradientUnits="userSpaceOnUse" x1="2394.0342" y1="592.7529" x2="2333.2332" y2="654.4413" gradientTransform="matrix(1 0 0 1 -62.1546 0)">
					<stop  offset="0" style="stop-color:#FE7062"/>
					<stop  offset="1" style="stop-color:#FF928E"/>
				</linearGradient>
				<path class="st73" d="M2312.6,620.4c-2.6,5.3-7.1,8.4-10.1,6.9c-2.9-1.5-3.2-6.9-0.6-12.2c2.6-5.3,7.1-8.4,10.1-6.9
					C2314.9,609.7,2315.2,615.1,2312.6,620.4z"/>
				<linearGradient id="SVGID_66_" gradientUnits="userSpaceOnUse" x1="2212.8943" y1="495.8676" x2="2140.3762" y2="565.8634">
					<stop  offset="0" style="stop-color:#E1473D"/>
					<stop  offset="1" style="stop-color:#E9605A"/>
				</linearGradient>
				<path class="st74" d="M2134.1,601.5C2134.1,601.5,2134.1,601.5,2134.1,601.5c-0.8,0-1.4-0.6-1.4-1.4c0.1-20.6-7.9-48-8-48.3
					c-0.2-0.7,0.2-1.5,0.9-1.7c0.7-0.2,1.5,0.2,1.7,0.9c0.1,0.3,8.2,28,8.1,49C2135.4,600.9,2134.8,601.5,2134.1,601.5z"/>
				<linearGradient id="SVGID_67_" gradientUnits="userSpaceOnUse" x1="2132.4829" y1="500.0066" x2="2082.0356" y2="575.6774">
					<stop  offset="0" style="stop-color:#E1473D"/>
					<stop  offset="1" style="stop-color:#E9605A"/>
				</linearGradient>
				<path class="st75" d="M2089,611.7c-0.4,0-0.8-0.2-1.1-0.5c-0.9-1.1-21.9-27.9-29.4-46.8c-0.3-0.7,0.1-1.5,0.8-1.8
					c0.7-0.3,1.5,0.1,1.8,0.8c7.3,18.6,28.8,45.9,29,46.1c0.5,0.6,0.4,1.4-0.2,1.9C2089.6,611.6,2089.3,611.7,2089,611.7z"/>
				<linearGradient id="SVGID_68_" gradientUnits="userSpaceOnUse" x1="2094.9417" y1="541.8021" x2="2042.6025" y2="613.6897">
					<stop  offset="0" style="stop-color:#E1473D"/>
					<stop  offset="1" style="stop-color:#E9605A"/>
				</linearGradient>
				<path class="st76" d="M2058.8,653.9l-1-0.4c-31.5-13.5-51-51.1-51.2-51.5c-0.3-0.7-0.1-1.5,0.6-1.8c0.7-0.3,1.5-0.1,1.8,0.6
					c0.2,0.4,18.8,36.3,48.8,49.8l3-4.2c0.4-0.6,1.3-0.8,1.9-0.3c0.6,0.4,0.8,1.3,0.3,1.9L2058.8,653.9z"/>
				<linearGradient id="SVGID_69_" gradientUnits="userSpaceOnUse" x1="2274.7859" y1="588.8723" x2="2250.1929" y2="697.334">
					<stop  offset="0" style="stop-color:#09005D"/>
					<stop  offset="1" style="stop-color:#1A0F91"/>
				</linearGradient>
				<path class="st77" d="M2377,860.7c-14.4-100.5-94.1-166.3-94.1-166.3l-139.4-1.5l-48.4,19.6c-5.8-0.1-10.4,0.8-13.3,2.9
					c0,0,37.8,52.2,100,26.2c22.5-5.6,74.2-11.4,103.7,40.8c31.4,55.6,79.5,87,79.5,87C2379.4,868.1,2377,860.7,2377,860.7z"/>
				<linearGradient id="SVGID_70_" gradientUnits="userSpaceOnUse" x1="2044.025" y1="556.9243" x2="2192.0037" y2="701.5401">
					<stop  offset="0" style="stop-color:#FF928E"/>
					<stop  offset="1" style="stop-color:#FEB3B1"/>
				</linearGradient>
				<path class="st78" d="M2089,610.3c0,0,47.4,56.1,108.1,64.4c0,0,15.7-14.3,27.3-9.2s27.6,27.6,27.6,27.6h-77.8
					c0,0-73.6-2.6-110.4-47.2C2066.8,630.2,2075.6,620.9,2089,610.3z"/>
				<linearGradient id="SVGID_71_" gradientUnits="userSpaceOnUse" x1="2301.1091" y1="641.3083" x2="2240.5723" y2="531.5854">
					<stop  offset="0" style="stop-color:#4042E2"/>
					<stop  offset="1" style="stop-color:#4F52FF"/>
				</linearGradient>
				<path class="st79" d="M2248.1,697.5l35-116.6c1.4-4.8,5.7-8.1,10.6-8.5l47.2-3.2c4.8-0.3,8.4,4.4,6.8,8.9l-39.1,111.3
					c-1.3,3.6-4.5,6.1-8.3,6.5l-46.5,5.2L2248.1,697.5z"/>
				<linearGradient id="SVGID_72_" gradientUnits="userSpaceOnUse" x1="2267.5642" y1="572.8002" x2="2236.665" y2="632.0759">
					<stop  offset="0" style="stop-color:#4042E2"/>
					<stop  offset="1" style="stop-color:#4F52FF"/>
				</linearGradient>
				<path class="st80" d="M2253.8,701.1c-0.1,0-0.2,0-0.2,0l-99-5c-2.4-0.1-4.3-2.2-4.2-4.7c0.1-2.4,2.2-4.4,4.7-4.2l99,5
					c2.4,0.1,4.3,2.2,4.2,4.7C2258.1,699.2,2256.2,701.1,2253.8,701.1z"/>
			</g>
			<g>
				<g>
					<g>
						
							<linearGradient id="SVGID_73_" gradientUnits="userSpaceOnUse" x1="2022.4332" y1="406.2246" x2="2054.8345" y2="384.2578" gradientTransform="matrix(0.9968 8.050000e-02 -8.050000e-02 0.9968 68.2811 -80.9628)">
							<stop  offset="0" style="stop-color:#4042E2"/>
							<stop  offset="1" style="stop-color:#4F52FF"/>
						</linearGradient>
						<path class="st81" d="M2087.1,488.9c-21.3-3.8-27.9-28.5-28-28.7l1.6-0.4c0.1,0.2,6.4,23.9,26.6,27.5L2087.1,488.9z"/>
					</g>
					<linearGradient id="SVGID_74_" gradientUnits="userSpaceOnUse" x1="2084.989" y1="487.2615" x2="2093.8171" y2="487.2615">
						<stop  offset="0" style="stop-color:#4042E2"/>
						<stop  offset="1" style="stop-color:#4F52FF"/>
					</linearGradient>
					<path class="st82" d="M2091.3,489.8h-3.8c-1.4,0-2.5-1.1-2.5-2.5l0,0c0-1.4,1.1-2.5,2.5-2.5h3.8c1.4,0,2.5,1.1,2.5,2.5l0,0
						C2093.8,488.6,2092.7,489.8,2091.3,489.8z"/>
				</g>
				<g>
					
						<linearGradient id="SVGID_75_" gradientUnits="userSpaceOnUse" x1="2125.7283" y1="324.923" x2="1896.4371" y2="362.8058" gradientTransform="matrix(0.9968 8.050000e-02 -8.050000e-02 0.9968 68.2811 -80.9628)">
						<stop  offset="0" style="stop-color:#4042E2"/>
						<stop  offset="1" style="stop-color:#4F52FF"/>
					</linearGradient>
					<path class="st83" d="M2066.4,436.7c0,0,16.1-31.4,37.7-29.5c0,0-5.2-4.1-12.1-2.7c-6.9,1.5-26.9,13.8-31.1,31.8
						C2064.8,438.7,2066.4,436.7,2066.4,436.7z"/>
					
						<linearGradient id="SVGID_76_" gradientUnits="userSpaceOnUse" x1="2070.0227" y1="364.245" x2="1943.7246" y2="385.1116" gradientTransform="matrix(0.9968 8.050000e-02 -8.050000e-02 0.9968 68.2811 -80.9628)">
						<stop  offset="0" style="stop-color:#4042E2"/>
						<stop  offset="1" style="stop-color:#4F52FF"/>
					</linearGradient>
					<path class="st84" d="M2063.4,433.8c-12.1-0.6-14.4,14.3-14.4,14.3c-3.5,10.3-1.8,16.3,1.5,19.8c2.3,2.4,5.6,3.4,8.8,2.7
						c3.2-0.7,5.8-3,6.9-6.2c0.9-2.8,1.9-5.5,2.3-6.4C2069.7,455.8,2075.5,434.4,2063.4,433.8z"/>
				</g>
				<linearGradient id="SVGID_77_" gradientUnits="userSpaceOnUse" x1="2053.582" y1="378.0415" x2="2056.7351" y2="424.7052">
					<stop  offset="0" style="stop-color:#4042E2"/>
					<stop  offset="1" style="stop-color:#4F52FF"/>
				</linearGradient>
				<path class="st85" d="M2063.5,437.7c-2.3-1-4.9-0.4-6.5,1.6c-10.9,14.1-5.1,26.6-1.1,27.9c4.3,1.3,9.6-19.6,10-25.3
					C2066.2,439.6,2065,438.4,2063.5,437.7z"/>
			</g>
		</g>
		<linearGradient id="SVGID_78_" gradientUnits="userSpaceOnUse" x1="1881.2963" y1="856.4815" x2="1969.6625" y2="856.4815">
			<stop  offset="0" style="stop-color:#DAE3FE"/>
			<stop  offset="1" style="stop-color:#E9EFFD"/>
		</linearGradient>
		<path class="st86" d="M1909.6,905.1c-0.6,0-1.1-0.2-1.6-0.5l-25.6-18.2c-0.7-0.5-1.1-1.2-1.1-2c-0.1-0.8,0.3-1.6,0.9-2.2
			l36.4-34.2l-22.2-16.2c-0.8-0.6-1.3-1.7-1.1-2.7c0.2-1,0.9-1.9,1.9-2.1l69-19.1c0.9-0.2,1.8,0,2.5,0.5c0.7,0.6,1,1.4,1,2.3
			l-5.3,61.1c-0.1,0.9-0.7,1.8-1.5,2.2c-0.9,0.4-1.9,0.4-2.7-0.2l-19.2-12.3l-29.1,42.4c-0.4,0.6-1,1-1.8,1.1
			C1909.9,905.1,1909.7,905.1,1909.6,905.1z M1888.3,883.9l20.6,14.7l29-42.3c0.8-1.2,2.5-1.5,3.7-0.7l17.7,11.3l4.6-52.7
			l-59.8,16.5l20.3,14.8c0.7,0.5,1.1,1.2,1.1,2c0.1,0.8-0.3,1.6-0.9,2.1L1888.3,883.9z"/>
		<g>
			<linearGradient id="SVGID_79_" gradientUnits="userSpaceOnUse" x1="1563.4363" y1="958.4068" x2="2559.1382" y2="958.4068">
				<stop  offset="0" style="stop-color:#DAE3FE"/>
				<stop  offset="1" style="stop-color:#E9EFFD"/>
			</linearGradient>
			<path class="st87" d="M1593.6,1267.2l-4.1,0c-1.1,0-2.1-0.9-2.1-2.1c0-1.1,0.9-2.1,2.1-2.1c0,0,0,0,0,0l4.1,0c3.1,0,6.3,0,9.4,0
				c1.1,0.1,2.1,0.9,2.1,2.1c0,1.1-0.9,2.1-2.1,2.1C1599.9,1267.2,1596.8,1267.2,1593.6,1267.2z M1575.9,1267
				C1575.9,1267,1575.9,1267,1575.9,1267c-3.5-0.1-7-0.1-10.5-0.2c-1.1,0-2.1-1-2-2.1c0-1.1,1-2.1,2.1-2c3.5,0.1,7,0.1,10.4,0.2
				c1.1,0,2.1,1,2,2.1C1578,1266.1,1577.1,1267,1575.9,1267z M1616.6,1267c-1.1,0-2.1-0.9-2.1-2c0-1.1,0.9-2.1,2-2.1
				c4.5-0.1,9-0.2,13.5-0.4c1.1,0,2.1,0.9,2.1,2c0,1.1-0.9,2.1-2,2.1C1625.7,1266.7,1621.2,1266.9,1616.6,1267
				C1616.6,1267,1616.6,1267,1616.6,1267z M1643.7,1266.1c-1.1,0-2-0.9-2.1-2c-0.1-1.1,0.8-2.1,2-2.2c4.5-0.2,9-0.4,13.5-0.7
				c1.1-0.1,2.1,0.8,2.2,2c0.1,1.1-0.8,2.1-2,2.2C1652.9,1265.6,1648.4,1265.9,1643.7,1266.1
				C1643.8,1266.1,1643.8,1266.1,1643.7,1266.1z M1670.8,1264.5c-1.1,0-2-0.8-2.1-1.9c-0.1-1.1,0.8-2.1,1.9-2.2
				c4.5-0.3,9-0.7,13.5-1c1.2-0.1,2.1,0.8,2.2,1.9c0.1,1.1-0.8,2.1-1.9,2.2c-4.5,0.4-9,0.7-13.5,1
				C1670.9,1264.5,1670.9,1264.5,1670.8,1264.5z M1697.8,1262.3c-1.1,0-2-0.8-2.1-1.9c-0.1-1.1,0.7-2.2,1.9-2.3
				c4.5-0.4,9-0.9,13.5-1.4c1.1-0.1,2.2,0.7,2.3,1.8c0.1,1.1-0.7,2.2-1.8,2.3c-4.5,0.5-9,0.9-13.5,1.4
				C1698,1262.3,1697.9,1262.3,1697.8,1262.3z M1724.8,1259.5c-1,0-1.9-0.8-2.1-1.8c-0.1-1.1,0.7-2.2,1.8-2.3
				c4.5-0.5,9-1.1,13.4-1.7c1.1-0.2,2.2,0.6,2.3,1.8c0.2,1.1-0.6,2.2-1.8,2.3c-4.5,0.6-9,1.2-13.5,1.7
				C1725,1259.5,1724.9,1259.5,1724.8,1259.5z M1751.7,1255.9c-1,0-1.9-0.7-2-1.8c-0.2-1.1,0.6-2.2,1.8-2.3c4.5-0.7,8.9-1.3,13.4-2
				c1.1-0.2,2.2,0.6,2.4,1.7c0.2,1.1-0.6,2.2-1.7,2.4c-4.5,0.7-8.9,1.4-13.4,2.1C1751.9,1255.9,1751.8,1255.9,1751.7,1255.9z
				 M1778.5,1251.6c-1,0-1.9-0.7-2-1.7c-0.2-1.1,0.6-2.2,1.7-2.4c4.5-0.8,8.9-1.6,13.3-2.4c1.1-0.2,2.2,0.5,2.4,1.7
				c0.2,1.1-0.5,2.2-1.7,2.4c-4.4,0.8-8.9,1.6-13.4,2.4C1778.7,1251.6,1778.6,1251.6,1778.5,1251.6z M1805.1,1246.6
				c-1,0-1.8-0.7-2-1.7c-0.2-1.1,0.5-2.2,1.6-2.4c4.4-0.9,8.9-1.8,13.3-2.7c1.1-0.2,2.2,0.5,2.5,1.6c0.2,1.1-0.5,2.2-1.6,2.5
				c-4.4,0.9-8.8,1.9-13.3,2.8C1805.4,1246.6,1805.2,1246.6,1805.1,1246.6z M1831.6,1241c-0.9,0-1.8-0.7-2-1.6
				c-0.3-1.1,0.4-2.2,1.6-2.5c4.4-1,8.8-2,13.2-3.1c1.1-0.3,2.2,0.4,2.5,1.5c0.3,1.1-0.4,2.2-1.5,2.5c-4.4,1.1-8.8,2.1-13.2,3.1
				C1831.9,1240.9,1831.8,1241,1831.6,1241z M1858,1234.6c-0.9,0-1.8-0.6-2-1.6c-0.3-1.1,0.4-2.2,1.5-2.5c4.4-1.1,8.7-2.3,13.1-3.5
				c1.1-0.3,2.2,0.4,2.5,1.5c0.3,1.1-0.4,2.2-1.5,2.5c-4.4,1.2-8.7,2.3-13.1,3.5C1858.3,1234.5,1858.2,1234.6,1858,1234.6z
				 M1884.2,1227.5c-0.9,0-1.7-0.6-2-1.5c-0.3-1.1,0.3-2.2,1.4-2.6c4.4-1.2,8.7-2.5,13-3.8c1.1-0.3,2.2,0.3,2.6,1.4
				c0.3,1.1-0.3,2.3-1.4,2.6c-4.3,1.3-8.7,2.6-13,3.8C1884.5,1227.4,1884.3,1227.5,1884.2,1227.5z M1910.1,1219.7
				c-0.9,0-1.7-0.6-2-1.4c-0.3-1.1,0.3-2.3,1.4-2.6c4.3-1.4,8.6-2.7,12.9-4.2c1.1-0.4,2.3,0.2,2.6,1.3c0.4,1.1-0.2,2.3-1.3,2.6
				c-4.3,1.4-8.6,2.8-12.9,4.2C1910.5,1219.6,1910.3,1219.7,1910.1,1219.7z M1935.9,1211.2c-0.9,0-1.7-0.5-2-1.4
				c-0.4-1.1,0.2-2.3,1.3-2.6c4.3-1.5,8.5-3,12.8-4.5c1.1-0.4,2.3,0.2,2.7,1.2c0.4,1.1-0.2,2.3-1.2,2.7c-4.2,1.5-8.5,3-12.8,4.5
				C1936.3,1211.1,1936.1,1211.2,1935.9,1211.2z M1961.4,1201.9c-0.8,0-1.6-0.5-1.9-1.3c-0.4-1.1,0.1-2.3,1.2-2.7
				c4.2-1.6,8.4-3.2,12.6-4.9c1.1-0.4,2.3,0.1,2.7,1.2c0.4,1.1-0.1,2.3-1.2,2.7c-4.2,1.6-8.4,3.3-12.7,4.9
				C1961.9,1201.9,1961.6,1201.9,1961.4,1201.9z M1986.6,1192c-0.8,0-1.6-0.5-1.9-1.3c-0.4-1.1,0.1-2.3,1.1-2.7
				c4.2-1.7,8.4-3.4,12.5-5.2c1-0.4,2.3,0,2.7,1.1c0.4,1.1,0,2.3-1.1,2.7c-4.2,1.8-8.3,3.5-12.5,5.2
				C1987.2,1192,1986.9,1192,1986.6,1192z M2011.6,1181.5c-0.8,0-1.6-0.5-1.9-1.2c-0.5-1,0-2.3,1.1-2.7c4.1-1.8,8.3-3.7,12.3-5.5
				c1-0.5,2.3,0,2.7,1c0.5,1,0,2.3-1,2.7c-4.1,1.9-8.2,3.7-12.4,5.6C2012.2,1181.4,2011.9,1181.5,2011.6,1181.5z M2036.3,1170.2
				c-0.8,0-1.5-0.4-1.9-1.2c-0.5-1,0-2.3,1-2.8c4.1-1.9,8.2-3.9,12.2-5.9c1-0.5,2.3-0.1,2.8,1c0.5,1,0.1,2.3-1,2.8
				c-4.1,2-8.1,3.9-12.2,5.9C2036.9,1170.1,2036.6,1170.2,2036.3,1170.2z M2060.6,1158.3c-0.8,0-1.5-0.4-1.9-1.1
				c-0.5-1-0.1-2.3,0.9-2.8c4-2,8.1-4.1,12-6.2c1-0.5,2.3-0.1,2.8,0.9c0.5,1,0.1,2.3-0.9,2.8c-4,2.1-8,4.2-12.1,6.2
				C2061.3,1158.2,2061,1158.3,2060.6,1158.3z M2084.7,1145.7c-0.7,0-1.5-0.4-1.8-1.1c-0.5-1-0.2-2.3,0.8-2.8
				c4-2.2,7.9-4.3,11.9-6.5c1-0.6,2.3-0.2,2.8,0.8c0.6,1,0.2,2.3-0.8,2.8c-3.9,2.2-7.9,4.4-11.9,6.5
				C2085.3,1145.6,2085,1145.7,2084.7,1145.7z M2108.4,1132.5c-0.7,0-1.4-0.4-1.8-1c-0.6-1-0.2-2.3,0.8-2.8
				c3.9-2.3,7.8-4.5,11.7-6.8c1-0.6,2.3-0.3,2.8,0.7c0.6,1,0.3,2.3-0.7,2.8c-3.9,2.3-7.8,4.6-11.7,6.8
				C2109.1,1132.4,2108.7,1132.5,2108.4,1132.5z M2131.7,1118.7c-0.7,0-1.4-0.4-1.8-1c-0.6-1-0.3-2.3,0.7-2.8
				c3.9-2.4,7.7-4.7,11.5-7.1c1-0.6,2.2-0.3,2.9,0.7c0.6,1,0.3,2.2-0.7,2.9c-3.8,2.4-7.7,4.8-11.6,7.2
				C2132.4,1118.6,2132.1,1118.7,2131.7,1118.7z M2154.7,1104.3c-0.7,0-1.3-0.3-1.7-0.9c-0.6-1-0.3-2.2,0.6-2.9
				c3.8-2.5,7.6-4.9,11.3-7.4c1-0.6,2.2-0.4,2.9,0.6c0.6,1,0.4,2.2-0.6,2.9c-3.8,2.5-7.5,5-11.4,7.5
				C2155.5,1104.2,2155.1,1104.3,2154.7,1104.3z M2177.3,1089.3c-0.7,0-1.3-0.3-1.7-0.9c-0.6-0.9-0.4-2.2,0.5-2.9
				c3.7-2.6,7.4-5.1,11.1-7.7c0.9-0.7,2.2-0.4,2.9,0.5c0.7,0.9,0.4,2.2-0.5,2.9c-3.7,2.6-7.4,5.2-11.2,7.7
				C2178.1,1089.1,2177.7,1089.3,2177.3,1089.3z M2199.5,1073.7c-0.6,0-1.3-0.3-1.7-0.9c-0.7-0.9-0.5-2.2,0.5-2.9
				c3.7-2.7,7.3-5.3,10.9-8c0.9-0.7,2.2-0.5,2.9,0.4c0.7,0.9,0.5,2.2-0.4,2.9c-3.6,2.7-7.3,5.4-11,8
				C2200.3,1073.5,2199.9,1073.7,2199.5,1073.7z M2221.3,1057.5c-0.6,0-1.2-0.3-1.7-0.8c-0.7-0.9-0.5-2.2,0.4-2.9
				c3.6-2.7,7.2-5.5,10.7-8.3c0.9-0.7,2.2-0.5,2.9,0.4c0.7,0.9,0.5,2.2-0.4,2.9c-3.6,2.8-7.1,5.5-10.8,8.3
				C2222.1,1057.4,2221.7,1057.5,2221.3,1057.5z M2242.7,1040.8c-0.6,0-1.2-0.3-1.6-0.8c-0.7-0.9-0.6-2.2,0.3-2.9
				c3.5-2.8,7-5.7,10.5-8.5c0.9-0.7,2.2-0.6,2.9,0.3c0.7,0.9,0.6,2.2-0.3,2.9c-3.5,2.9-7,5.7-10.6,8.6
				C2243.6,1040.7,2243.1,1040.8,2242.7,1040.8z M2263.6,1023.6c-0.6,0-1.2-0.3-1.6-0.7c-0.7-0.9-0.6-2.2,0.3-2.9
				c3.5-2.9,6.9-5.8,10.3-8.8c0.9-0.7,2.2-0.6,2.9,0.2c0.7,0.9,0.6,2.2-0.2,2.9c-3.4,2.9-6.9,5.9-10.4,8.8
				C2264.6,1023.5,2264.1,1023.6,2263.6,1023.6z M2284.2,1005.9c-0.6,0-1.1-0.2-1.6-0.7c-0.8-0.9-0.7-2.2,0.2-2.9
				c3.4-3,6.8-6,10.1-9c0.8-0.8,2.2-0.7,2.9,0.1c0.8,0.9,0.7,2.2-0.2,2.9c-3.3,3-6.7,6-10.1,9
				C2285.2,1005.8,2284.7,1005.9,2284.2,1005.9z M2304.3,987.8c-0.6,0-1.1-0.2-1.5-0.7c-0.8-0.8-0.7-2.2,0.1-2.9
				c3.3-3.1,6.6-6.2,9.9-9.3c0.8-0.8,2.1-0.8,2.9,0.1c0.8,0.8,0.8,2.1-0.1,2.9c-3.3,3.1-6.6,6.2-9.9,9.3
				C2305.4,987.6,2304.8,987.8,2304.3,987.8z M2324.1,969.1c-0.5,0-1.1-0.2-1.5-0.6c-0.8-0.8-0.8-2.1,0-2.9c3.3-3.2,6.5-6.3,9.7-9.5
				c0.8-0.8,2.1-0.8,2.9,0c0.8,0.8,0.8,2.1,0,2.9c-3.2,3.2-6.4,6.3-9.7,9.5C2325.1,968.9,2324.6,969.1,2324.1,969.1z M2343.3,950
				c-0.5,0-1.1-0.2-1.5-0.6c-0.8-0.8-0.8-2.1,0-2.9c3.2-3.2,6.3-6.5,9.5-9.7c0.8-0.8,2.1-0.8,2.9-0.1c0.8,0.8,0.8,2.1,0.1,2.9
				c-3.1,3.2-6.3,6.5-9.5,9.7C2344.4,949.8,2343.9,950,2343.3,950z M2362.2,930.5c-0.5,0-1-0.2-1.4-0.6c-0.8-0.8-0.9-2.1-0.1-2.9
				c3.1-3.3,6.2-6.6,9.2-9.9c0.8-0.8,2.1-0.9,2.9-0.1c0.8,0.8,0.9,2.1,0.1,2.9c-3,3.3-6.1,6.6-9.3,9.9
				C2363.3,930.3,2362.7,930.5,2362.2,930.5z M2380.5,910.5c-0.5,0-1-0.2-1.4-0.5c-0.9-0.8-0.9-2.1-0.2-2.9c3-3.4,6.1-6.8,9-10.1
				c0.8-0.9,2.1-0.9,2.9-0.2c0.9,0.8,0.9,2.1,0.2,2.9c-3,3.4-6,6.8-9,10.2C2381.7,910.3,2381.1,910.5,2380.5,910.5z M2398.5,890.1
				c-0.5,0-1-0.2-1.4-0.5c-0.9-0.7-1-2.1-0.2-2.9c3-3.5,5.9-6.9,8.8-10.3c0.7-0.9,2-1,2.9-0.3c0.9,0.7,1,2,0.2,2.9
				c-2.9,3.4-5.8,6.9-8.8,10.3C2399.6,889.9,2399.1,890.1,2398.5,890.1z M2416,869.4c-0.5,0-0.9-0.2-1.3-0.5c-0.9-0.7-1-2-0.3-2.9
				c2.9-3.5,5.7-7,8.6-10.5c0.7-0.9,2-1,2.9-0.3c0.9,0.7,1,2,0.3,2.9c-2.8,3.5-5.7,7-8.6,10.5C2417.2,869.1,2416.6,869.4,2416,869.4
				z M2433,848.2c-0.4,0-0.9-0.1-1.3-0.4c-0.9-0.7-1.1-2-0.3-2.9c2.8-3.6,5.6-7.2,8.3-10.7c0.7-0.9,2-1.1,2.9-0.4
				c0.9,0.7,1.1,2,0.4,2.9c-2.7,3.5-5.5,7.1-8.4,10.7C2434.2,848,2433.6,848.2,2433,848.2z M2449.6,826.7c-0.4,0-0.9-0.1-1.2-0.4
				c-0.9-0.7-1.1-2-0.4-2.9c2.7-3.7,5.4-7.3,8.1-10.9c0.7-0.9,2-1.1,2.9-0.4c0.9,0.7,1.1,2,0.4,2.9c-2.6,3.6-5.4,7.2-8.1,10.9
				C2450.8,826.5,2450.2,826.7,2449.6,826.7z M2465.6,804.9c-0.4,0-0.8-0.1-1.2-0.4c-0.9-0.7-1.1-2-0.5-2.9c2.7-3.7,5.3-7.4,7.8-11
				c0.7-0.9,1.9-1.2,2.9-0.5c0.9,0.7,1.2,2,0.5,2.9c-2.6,3.7-5.2,7.3-7.9,11.1C2466.9,804.6,2466.3,804.9,2465.6,804.9z
				 M2481.2,782.7c-0.4,0-0.8-0.1-1.2-0.4c-0.9-0.6-1.2-1.9-0.5-2.9c2.6-3.8,5.1-7.5,7.6-11.2c0.6-0.9,1.9-1.2,2.9-0.6
				c1,0.6,1.2,1.9,0.6,2.9c-2.5,3.7-5,7.5-7.6,11.3C2482.6,782.3,2481.9,782.7,2481.2,782.7z M2496.3,760.1c-0.4,0-0.8-0.1-1.1-0.3
				c-1-0.6-1.2-1.9-0.6-2.9c2.5-3.9,5-7.7,7.3-11.4c0.6-1,1.9-1.3,2.9-0.6c1,0.6,1.3,1.9,0.6,2.9c-2.4,3.7-4.8,7.5-7.4,11.4
				C2497.7,759.8,2497,760.1,2496.3,760.1z M2510.9,737.2c-0.4,0-0.7-0.1-1.1-0.3c-1-0.6-1.3-1.9-0.7-2.9c2.5-4,4.8-7.8,7.1-11.6
				c0.6-1,1.9-1.3,2.8-0.7c1,0.6,1.3,1.9,0.7,2.8c-2.3,3.8-4.6,7.6-7.1,11.6C2512.3,736.8,2511.6,737.2,2510.9,737.2z M2525,713.9
				c-0.4,0-0.7-0.1-1-0.3c-1-0.6-1.3-1.8-0.7-2.8c2.4-4.1,4.7-8,6.8-11.8c0.6-1,1.8-1.3,2.8-0.8c1,0.6,1.3,1.8,0.8,2.8
				c-2.1,3.8-4.4,7.7-6.8,11.8C2526.4,713.5,2525.7,713.9,2525,713.9z M2538.4,690.2c-0.3,0-0.7-0.1-1-0.3c-1-0.5-1.4-1.8-0.8-2.8
				c2.4-4.3,4.5-8.3,6.4-12c0.5-1,1.8-1.4,2.8-0.9c1,0.5,1.4,1.8,0.9,2.8c-1.9,3.6-4.1,7.7-6.5,12
				C2539.8,689.8,2539.1,690.2,2538.4,690.2z M2551.1,666.1c-0.3,0-0.6-0.1-0.9-0.2c-1-0.5-1.4-1.8-0.9-2.8
				c3.9-7.8,5.9-12.2,5.9-12.3c0.5-1,1.7-1.5,2.7-1c1,0.5,1.5,1.7,1,2.7c0,0-2,4.5-6,12.4C2552.6,665.7,2551.8,666.1,2551.1,666.1z"
				/>
			<linearGradient id="SVGID_80_" gradientUnits="userSpaceOnUse" x1="1498.3323" y1="817.5914" x2="2559.1379" y2="817.5914">
				<stop  offset="0" style="stop-color:#DAE3FE"/>
				<stop  offset="1" style="stop-color:#E9EFFD"/>
			</linearGradient>
			<path class="st88" d="M1528.1,1180.4C1528.1,1180.4,1528.1,1180.4,1528.1,1180.4c-4.5,0-9,0-13.6-0.1c-1.1,0-2.1-1-2-2.1
				c0-1.1,0.9-2,2.1-2c4.5,0.1,9,0.1,13.5,0.1c1.1,0,2.1,0.9,2.1,2.1C1530.2,1179.5,1529.2,1180.4,1528.1,1180.4z M1541.7,1180.3
				c-1.1,0-2.1-0.9-2.1-2.1c0-1.1,0.9-2.1,2.1-2.1c4.5,0,9-0.1,13.5-0.2c1.1-0.1,2.1,0.9,2.1,2c0,1.1-0.9,2.1-2,2.1
				C1550.8,1180.2,1546.2,1180.3,1541.7,1180.3C1541.7,1180.3,1541.7,1180.3,1541.7,1180.3z M1501,1180
				C1501,1180,1500.9,1180,1501,1180l-0.6,0c-1.1,0-2.1-1-2-2.1c0-1.1,0.9-2,2.1-2c0,0,0,0,0,0l0.6,0c1.1,0,2,1,2,2.1
				C1503,1179.1,1502.1,1180,1501,1180z M1568.8,1179.7c-1.1,0-2-0.9-2.1-2c0-1.1,0.9-2.1,2-2.1c4.5-0.2,9-0.3,13.5-0.6
				c1-0.1,2.1,0.8,2.2,2c0.1,1.1-0.8,2.1-2,2.2C1577.9,1179.4,1573.4,1179.6,1568.8,1179.7
				C1568.8,1179.7,1568.8,1179.7,1568.8,1179.7z M1595.9,1178.4c-1.1,0-2-0.8-2.1-1.9c-0.1-1.1,0.8-2.1,1.9-2.2
				c4.5-0.3,9-0.6,13.5-0.9c1.1-0.1,2.1,0.8,2.2,1.9c0.1,1.1-0.8,2.1-1.9,2.2c-4.5,0.3-9,0.6-13.6,0.9
				C1596,1178.4,1595.9,1178.4,1595.9,1178.4z M1622.9,1176.4c-1.1,0-2-0.8-2.1-1.9c-0.1-1.1,0.7-2.1,1.9-2.2
				c4.5-0.4,9-0.8,13.5-1.2c1.1-0.1,2.2,0.7,2.3,1.9c0.1,1.1-0.7,2.2-1.9,2.3c-4.5,0.4-9,0.9-13.5,1.3
				C1623,1176.4,1623,1176.4,1622.9,1176.4z M1649.9,1173.8c-1,0-1.9-0.8-2.1-1.8c-0.1-1.1,0.7-2.2,1.8-2.3c4.5-0.5,9-1,13.4-1.6
				c1.2-0.1,2.2,0.7,2.3,1.8c0.1,1.1-0.7,2.2-1.8,2.3c-4.5,0.6-9,1.1-13.5,1.6C1650.1,1173.8,1650,1173.8,1649.9,1173.8z
				 M1676.8,1170.4c-1,0-1.9-0.7-2.1-1.8c-0.2-1.1,0.6-2.2,1.8-2.3c4.5-0.6,8.9-1.3,13.4-2c1.1-0.2,2.2,0.6,2.4,1.7
				c0.2,1.1-0.6,2.2-1.7,2.4c-4.5,0.7-8.9,1.3-13.4,2C1677,1170.4,1676.9,1170.4,1676.8,1170.4z M1703.6,1166.3c-1,0-1.9-0.7-2-1.7
				c-0.2-1.1,0.6-2.2,1.7-2.4c4.5-0.7,8.9-1.5,13.3-2.3c1.1-0.2,2.2,0.5,2.4,1.7c0.2,1.1-0.5,2.2-1.7,2.4c-4.4,0.8-8.9,1.6-13.4,2.3
				C1703.8,1166.3,1703.7,1166.3,1703.6,1166.3z M1730.3,1161.5c-1,0-1.8-0.7-2-1.7c-0.2-1.1,0.5-2.2,1.6-2.4
				c4.4-0.9,8.9-1.8,13.3-2.7c1.1-0.2,2.2,0.5,2.5,1.6c0.2,1.1-0.5,2.2-1.6,2.5c-4.4,0.9-8.9,1.8-13.3,2.7
				C1730.6,1161.5,1730.4,1161.5,1730.3,1161.5z M1756.8,1156c-0.9,0-1.8-0.7-2-1.6c-0.2-1.1,0.5-2.2,1.6-2.5c4.4-1,8.8-2,13.2-3
				c1.1-0.3,2.2,0.4,2.5,1.5c0.3,1.1-0.4,2.2-1.5,2.5c-4.4,1-8.8,2.1-13.2,3C1757.1,1156,1757,1156,1756.8,1156z M1783.2,1149.7
				c-0.9,0-1.8-0.6-2-1.6c-0.3-1.1,0.4-2.2,1.5-2.5c4.4-1.1,8.8-2.2,13.1-3.4c1.1-0.3,2.2,0.4,2.5,1.5c0.3,1.1-0.4,2.2-1.5,2.5
				c-4.4,1.2-8.7,2.3-13.2,3.4C1783.6,1149.7,1783.4,1149.7,1783.2,1149.7z M1809.4,1142.8c-0.9,0-1.7-0.6-2-1.5
				c-0.3-1.1,0.3-2.2,1.4-2.6c4.4-1.2,8.7-2.5,13-3.7c1.1-0.3,2.2,0.3,2.6,1.4c0.3,1.1-0.3,2.3-1.4,2.6c-4.3,1.3-8.7,2.5-13.1,3.8
				C1809.8,1142.7,1809.6,1142.8,1809.4,1142.8z M1835.5,1135.1c-0.9,0-1.7-0.6-2-1.5c-0.3-1.1,0.3-2.3,1.4-2.6
				c4.3-1.3,8.6-2.7,12.9-4.1c1.1-0.4,2.3,0.2,2.6,1.3c0.4,1.1-0.2,2.3-1.3,2.6c-4.3,1.4-8.6,2.8-12.9,4.1
				C1835.9,1135.1,1835.7,1135.1,1835.5,1135.1z M1861.2,1126.7c-0.9,0-1.7-0.5-2-1.4c-0.4-1.1,0.2-2.3,1.3-2.6
				c4.3-1.5,8.5-2.9,12.8-4.4c1.1-0.4,2.3,0.2,2.6,1.3c0.4,1.1-0.2,2.3-1.3,2.6c-4.3,1.5-8.5,3-12.8,4.5
				C1861.7,1126.7,1861.5,1126.7,1861.2,1126.7z M1886.8,1117.6c-0.8,0-1.6-0.5-1.9-1.4c-0.4-1.1,0.2-2.3,1.2-2.7
				c4.2-1.6,8.5-3.2,12.7-4.8c1.1-0.4,2.3,0.1,2.7,1.2c0.4,1.1-0.1,2.3-1.2,2.7c-4.2,1.6-8.4,3.2-12.7,4.8
				C1887.3,1117.6,1887,1117.6,1886.8,1117.6z M1912.1,1107.8c-0.8,0-1.6-0.5-1.9-1.3c-0.4-1.1,0.1-2.3,1.1-2.7
				c4.2-1.7,8.4-3.4,12.5-5.1c1.1-0.4,2.3,0.1,2.7,1.1c0.4,1.1-0.1,2.3-1.1,2.7c-4.2,1.7-8.4,3.5-12.6,5.2
				C1912.6,1107.8,1912.3,1107.8,1912.1,1107.8z M1937.1,1097.4c-0.8,0-1.6-0.5-1.9-1.2c-0.5-1.1,0-2.3,1.1-2.7
				c4.1-1.8,8.3-3.6,12.4-5.5c1-0.5,2.3,0,2.7,1c0.5,1,0,2.3-1,2.7c-4.1,1.9-8.3,3.7-12.4,5.5
				C1937.7,1097.3,1937.4,1097.4,1937.1,1097.4z M1961.8,1086.2c-0.8,0-1.5-0.4-1.9-1.2c-0.5-1,0-2.3,1-2.8
				c4.1-1.9,8.2-3.8,12.2-5.8c1-0.5,2.3-0.1,2.8,1c0.5,1,0.1,2.3-1,2.8c-4.1,2-8.2,3.9-12.3,5.8
				C1962.4,1086.2,1962.1,1086.2,1961.8,1086.2z M1986.2,1074.4c-0.8,0-1.5-0.4-1.9-1.1c-0.5-1-0.1-2.3,0.9-2.8
				c4-2,8.1-4.1,12.1-6.1c1-0.5,2.3-0.1,2.8,0.9c0.5,1,0.1,2.3-0.9,2.8c-4,2.1-8.1,4.1-12.1,6.2
				C1986.9,1074.3,1986.6,1074.4,1986.2,1074.4z M2010.3,1062c-0.7,0-1.5-0.4-1.8-1.1c-0.5-1-0.2-2.3,0.9-2.8c4-2.1,8-4.3,11.9-6.4
				c1-0.6,2.3-0.2,2.8,0.8c0.6,1,0.2,2.3-0.8,2.8c-4,2.2-7.9,4.3-11.9,6.5C2011,1061.9,2010.7,1062,2010.3,1062z M2034.1,1048.9
				c-0.7,0-1.4-0.4-1.8-1.1c-0.6-1-0.2-2.3,0.8-2.8c3.9-2.2,7.8-4.5,11.7-6.8c1-0.6,2.3-0.2,2.8,0.7c0.6,1,0.2,2.3-0.7,2.8
				c-3.9,2.3-7.8,4.5-11.8,6.8C2034.8,1048.8,2034.5,1048.9,2034.1,1048.9z M2057.5,1035.2c-0.7,0-1.4-0.4-1.8-1
				c-0.6-1-0.3-2.3,0.7-2.8c3.9-2.3,7.7-4.7,11.6-7.1c1-0.6,2.3-0.3,2.9,0.7c0.6,1,0.3,2.3-0.7,2.9c-3.8,2.4-7.7,4.7-11.6,7.1
				C2058.3,1035.1,2057.9,1035.2,2057.5,1035.2z M2080.6,1020.9c-0.7,0-1.4-0.3-1.8-1c-0.6-1-0.3-2.2,0.6-2.9
				c3.8-2.4,7.6-4.9,11.4-7.3c1-0.6,2.2-0.4,2.9,0.6c0.6,1,0.4,2.2-0.6,2.9c-3.8,2.5-7.6,4.9-11.4,7.4
				C2081.4,1020.8,2081,1020.9,2080.6,1020.9z M2103.3,1006.1c-0.7,0-1.3-0.3-1.7-0.9c-0.6-0.9-0.4-2.2,0.6-2.9
				c3.8-2.5,7.5-5.1,11.2-7.6c0.9-0.7,2.2-0.4,2.9,0.5c0.6,0.9,0.4,2.2-0.5,2.9c-3.7,2.6-7.5,5.1-11.2,7.7
				C2104.1,1006,2103.7,1006.1,2103.3,1006.1z M2125.6,990.7c-0.6,0-1.3-0.3-1.7-0.9c-0.7-0.9-0.4-2.2,0.5-2.9
				c3.7-2.6,7.4-5.2,11-7.9c0.9-0.7,2.2-0.5,2.9,0.5c0.7,0.9,0.5,2.2-0.5,2.9c-3.7,2.7-7.3,5.3-11,7.9
				C2126.4,990.5,2126,990.7,2125.6,990.7z M2147.5,974.7c-0.6,0-1.3-0.3-1.7-0.8c-0.7-0.9-0.5-2.2,0.4-2.9
				c3.6-2.7,7.2-5.4,10.8-8.2c0.9-0.7,2.2-0.5,2.9,0.4c0.7,0.9,0.5,2.2-0.4,2.9c-3.6,2.7-7.2,5.5-10.8,8.2
				C2148.4,974.6,2148,974.7,2147.5,974.7z M2169.1,958.2c-0.6,0-1.2-0.3-1.6-0.8c-0.7-0.9-0.5-2.2,0.4-2.9
				c3.6-2.8,7.1-5.6,10.6-8.4c0.9-0.7,2.2-0.6,2.9,0.3c0.7,0.9,0.6,2.2-0.3,2.9c-3.5,2.8-7.1,5.6-10.6,8.4
				C2170,958.1,2169.5,958.2,2169.1,958.2z M2190.2,941.2c-0.6,0-1.2-0.3-1.6-0.8c-0.7-0.9-0.6-2.2,0.3-2.9c3.5-2.9,7-5.8,10.4-8.7
				c0.9-0.7,2.2-0.6,2.9,0.3c0.7,0.9,0.6,2.2-0.3,2.9c-3.5,2.9-6.9,5.8-10.4,8.7C2191.2,941.1,2190.7,941.2,2190.2,941.2z
				 M2211,923.8c-0.6,0-1.2-0.2-1.6-0.7c-0.7-0.9-0.6-2.2,0.2-2.9c3.4-3,6.8-5.9,10.2-8.9c0.9-0.8,2.2-0.7,2.9,0.2
				c0.8,0.9,0.7,2.2-0.2,2.9c-3.4,3-6.8,6-10.2,8.9C2212,923.6,2211.5,923.8,2211,923.8z M2231.4,905.9c-0.6,0-1.1-0.2-1.5-0.7
				c-0.8-0.9-0.7-2.2,0.2-2.9c3.4-3,6.7-6.1,10-9.1c0.8-0.8,2.2-0.7,2.9,0.1c0.8,0.8,0.7,2.2-0.1,2.9c-3.3,3.1-6.7,6.1-10,9.2
				C2232.4,905.7,2231.9,905.9,2231.4,905.9z M2251.3,887.5c-0.6,0-1.1-0.2-1.5-0.7c-0.8-0.8-0.7-2.1,0.1-2.9
				c3.3-3.1,6.6-6.2,9.8-9.3c0.8-0.8,2.1-0.8,2.9,0.1c0.8,0.8,0.8,2.1-0.1,2.9c-3.3,3.1-6.5,6.3-9.8,9.4
				C2252.3,887.3,2251.8,887.5,2251.3,887.5z M2270.9,868.7c-0.5,0-1.1-0.2-1.5-0.6c-0.8-0.8-0.8-2.1,0-2.9c3.2-3.2,6.4-6.4,9.6-9.5
				c0.8-0.8,2.1-0.8,2.9,0c0.8,0.8,0.8,2.1,0,2.9c-3.2,3.2-6.4,6.4-9.6,9.6C2271.9,868.5,2271.4,868.7,2270.9,868.7z M2290,849.4
				c-0.5,0-1-0.2-1.4-0.6c-0.8-0.8-0.8-2.1,0-2.9c3.2-3.2,6.3-6.5,9.4-9.7c0.8-0.8,2.1-0.9,2.9-0.1c0.8,0.8,0.9,2.1,0.1,2.9
				c-3.1,3.3-6.3,6.5-9.4,9.8C2291.1,849.2,2290.6,849.4,2290,849.4z M2308.8,829.8c-0.5,0-1-0.2-1.4-0.6c-0.8-0.8-0.9-2.1-0.1-2.9
				c3.1-3.3,6.2-6.6,9.2-9.9c0.8-0.8,2.1-0.9,2.9-0.1c0.8,0.8,0.9,2.1,0.1,2.9c-3,3.3-6.1,6.6-9.2,10
				C2309.9,829.6,2309.3,829.8,2308.8,829.8z M2327.1,809.8c-0.5,0-1-0.2-1.4-0.5c-0.9-0.8-0.9-2.1-0.2-2.9c3-3.4,6-6.8,9-10.1
				c0.8-0.9,2.1-0.9,2.9-0.2c0.9,0.8,0.9,2.1,0.2,2.9c-3,3.4-6,6.8-9,10.2C2328.2,809.6,2327.7,809.8,2327.1,809.8z M2345,789.4
				c-0.5,0-1-0.2-1.4-0.5c-0.9-0.7-1-2.1-0.2-2.9c3-3.4,5.9-6.9,8.8-10.3c0.7-0.9,2-1,2.9-0.2c0.9,0.7,1,2,0.2,2.9
				c-2.9,3.4-5.8,6.9-8.8,10.3C2346.2,789.2,2345.6,789.4,2345,789.4z M2362.5,768.7c-0.5,0-0.9-0.2-1.3-0.5c-0.9-0.7-1-2-0.3-2.9
				c2.9-3.5,5.8-7,8.6-10.5c0.7-0.9,2-1,2.9-0.3c0.9,0.7,1,2,0.3,2.9c-2.8,3.5-5.7,7-8.6,10.5
				C2363.7,768.4,2363.1,768.7,2362.5,768.7z M2379.6,747.6c-0.5,0-0.9-0.1-1.3-0.5c-0.9-0.7-1-2-0.3-2.9c2.8-3.6,5.6-7.1,8.4-10.6
				c0.7-0.9,2-1.1,2.9-0.4c0.9,0.7,1.1,2,0.4,2.9c-2.8,3.5-5.6,7.1-8.4,10.7C2380.9,747.4,2380.2,747.6,2379.6,747.6z M2396.3,726.2
				c-0.4,0-0.9-0.1-1.3-0.4c-0.9-0.7-1.1-2-0.4-2.9c2.8-3.6,5.5-7.2,8.2-10.8c0.7-0.9,2-1.1,2.9-0.4c0.9,0.7,1.1,2,0.4,2.9
				c-2.7,3.6-5.4,7.2-8.2,10.8C2397.6,726,2397,726.2,2396.3,726.2z M2412.6,704.5c-0.4,0-0.9-0.1-1.2-0.4c-0.9-0.7-1.1-2-0.4-2.9
				c2.7-3.7,5.4-7.3,8-11c0.7-0.9,2-1.1,2.9-0.5c0.9,0.7,1.1,2,0.5,2.9c-2.6,3.6-5.3,7.3-8,11
				C2413.9,704.2,2413.3,704.5,2412.6,704.5z M2428.5,682.5c-0.4,0-0.8-0.1-1.2-0.4c-0.9-0.7-1.2-2-0.5-2.9
				c2.6-3.7,5.2-7.4,7.8-11.1c0.6-0.9,1.9-1.2,2.9-0.5c0.9,0.7,1.2,1.9,0.5,2.9c-2.6,3.7-5.2,7.4-7.8,11.1
				C2429.8,682.2,2429.2,682.5,2428.5,682.5z M2444,660.2c-0.4,0-0.8-0.1-1.2-0.4c-0.9-0.6-1.2-1.9-0.5-2.9
				c2.6-3.8,5.1-7.5,7.6-11.2c0.6-1,1.9-1.2,2.9-0.6c1,0.6,1.2,1.9,0.6,2.9c-2.5,3.7-5,7.5-7.6,11.3
				C2445.3,659.9,2444.6,660.2,2444,660.2z M2459,637.6c-0.4,0-0.8-0.1-1.1-0.3c-1-0.6-1.2-1.9-0.6-2.9c2.5-3.8,5-7.6,7.4-11.4
				c0.6-1,1.9-1.2,2.9-0.6c1,0.6,1.2,1.9,0.6,2.9c-2.4,3.8-4.9,7.6-7.4,11.4C2460.4,637.3,2459.7,637.6,2459,637.6z M2473.6,614.7
				c-0.4,0-0.8-0.1-1.1-0.3c-1-0.6-1.3-1.9-0.7-2.9c2.4-3.9,4.8-7.7,7.1-11.5c0.6-1,1.9-1.3,2.9-0.7c1,0.6,1.3,1.9,0.7,2.9
				c-2.3,3.8-4.7,7.7-7.2,11.6C2475,614.4,2474.3,614.7,2473.6,614.7z M2487.8,591.6c-0.4,0-0.7-0.1-1.1-0.3c-1-0.6-1.3-1.9-0.7-2.8
				c2.4-3.9,4.7-7.8,6.9-11.7c0.6-1,1.8-1.3,2.8-0.7c1,0.6,1.3,1.9,0.7,2.8c-2.2,3.8-4.6,7.7-6.9,11.7
				C2489.2,591.2,2488.5,591.6,2487.8,591.6z M2501.6,568.2c-0.3,0-0.7-0.1-1-0.3c-1-0.6-1.3-1.8-0.8-2.8c2.3-4,4.5-7.9,6.7-11.8
				c0.6-1,1.8-1.4,2.8-0.8c1,0.6,1.4,1.8,0.8,2.8c-2.2,3.9-4.4,7.8-6.7,11.8C2503,567.8,2502.3,568.2,2501.6,568.2z M2514.9,544.5
				c-0.3,0-0.7-0.1-1-0.3c-1-0.5-1.4-1.8-0.8-2.8c2.2-4.1,4.4-8.1,6.5-11.9c0.5-1,1.8-1.4,2.8-0.9c1,0.5,1.4,1.8,0.9,2.8
				c-2.1,3.9-4.2,7.9-6.5,12C2516.3,544.1,2515.6,544.5,2514.9,544.5z M2527.7,520.5c-0.3,0-0.6-0.1-1-0.2c-1-0.5-1.4-1.8-0.9-2.8
				c2.2-4.2,4.3-8.2,6.2-12.1c0.5-1,1.8-1.4,2.8-0.9c1,0.5,1.4,1.8,0.9,2.8c-1.9,3.9-4,7.9-6.2,12.1
				C2529.1,520.1,2528.4,520.5,2527.7,520.5z M2539.9,496.2c-0.3,0-0.6-0.1-0.9-0.2c-1-0.5-1.5-1.7-1-2.8c2.2-4.4,4.1-8.5,5.9-12.2
				c0.5-1,1.7-1.5,2.8-1c1,0.5,1.5,1.7,1,2.8c-1.8,3.7-3.7,7.8-5.9,12.3C2541.4,495.8,2540.7,496.2,2539.9,496.2z M2551.6,471.5
				c-0.3,0-0.6-0.1-0.9-0.2c-1-0.5-1.5-1.7-1-2.7c3.6-8,5.5-12.5,5.5-12.5c0.4-1.1,1.6-1.6,2.7-1.1c1.1,0.4,1.6,1.6,1.1,2.7
				c0,0-1.9,4.6-5.5,12.7C2553.1,471.1,2552.4,471.5,2551.6,471.5z"/>
			<linearGradient id="SVGID_81_" gradientUnits="userSpaceOnUse" x1="1643.0735" y1="694.9048" x2="2502.2856" y2="694.9048">
				<stop  offset="0" style="stop-color:#DAE3FE"/>
				<stop  offset="1" style="stop-color:#E9EFFD"/>
			</linearGradient>
			<path class="st89" d="M1645.1,1068.9c-1.1,0-2-0.8-2.1-1.9c-0.1-1.1,0.7-2.1,1.9-2.3c2.9-0.3,5.7-0.5,8.5-0.8
				c1.1-0.1,2.2,0.7,2.3,1.9c0.1,1.1-0.7,2.2-1.9,2.3c-2.8,0.3-5.7,0.6-8.6,0.8C1645.3,1068.9,1645.2,1068.9,1645.1,1068.9z
				 M1667.2,1066.7c-1,0-1.9-0.8-2.1-1.8c-0.1-1.1,0.7-2.2,1.8-2.3c4.5-0.5,9-1,13.4-1.6c1.2-0.1,2.2,0.7,2.3,1.8
				c0.1,1.1-0.7,2.2-1.8,2.3c-4.5,0.6-9,1.1-13.5,1.6C1667.3,1066.7,1667.2,1066.7,1667.2,1066.7z M1694.1,1063.3
				c-1,0-1.9-0.7-2.1-1.8c-0.2-1.1,0.6-2.2,1.8-2.3c4.5-0.6,8.9-1.3,13.4-2c1.1-0.2,2.2,0.6,2.4,1.7c0.2,1.1-0.6,2.2-1.7,2.4
				c-4.5,0.7-8.9,1.4-13.4,2C1694.3,1063.2,1694.2,1063.3,1694.1,1063.3z M1720.9,1059.1c-1,0-1.9-0.7-2-1.7
				c-0.2-1.1,0.6-2.2,1.7-2.4c4.5-0.8,8.9-1.5,13.3-2.4c1.1-0.2,2.2,0.5,2.4,1.7c0.2,1.1-0.5,2.2-1.7,2.4c-4.4,0.8-8.9,1.6-13.4,2.4
				C1721.1,1059.1,1721,1059.1,1720.9,1059.1z M1747.5,1054.1c-1,0-1.8-0.7-2-1.7c-0.2-1.1,0.5-2.2,1.6-2.4
				c4.4-0.9,8.9-1.8,13.2-2.8c1.1-0.2,2.2,0.5,2.5,1.6c0.2,1.1-0.5,2.2-1.6,2.5c-4.4,0.9-8.8,1.9-13.3,2.8
				C1747.8,1054.1,1747.7,1054.1,1747.5,1054.1z M1774,1048.4c-0.9,0-1.8-0.6-2-1.6c-0.3-1.1,0.4-2.2,1.6-2.5
				c4.4-1,8.8-2.1,13.2-3.1c1.1-0.3,2.2,0.4,2.5,1.5c0.3,1.1-0.4,2.2-1.5,2.5c-4.4,1.1-8.8,2.1-13.2,3.2
				C1774.4,1048.4,1774.2,1048.4,1774,1048.4z M1800.4,1041.9c-0.9,0-1.8-0.6-2-1.5c-0.3-1.1,0.4-2.2,1.5-2.5
				c4.4-1.1,8.7-2.3,13.1-3.5c1.1-0.3,2.2,0.3,2.6,1.4c0.3,1.1-0.3,2.2-1.4,2.6c-4.3,1.2-8.7,2.4-13.1,3.5
				C1800.7,1041.9,1800.5,1041.9,1800.4,1041.9z M1826.5,1034.7c-0.9,0-1.7-0.6-2-1.5c-0.3-1.1,0.3-2.3,1.4-2.6
				c4.3-1.3,8.7-2.6,12.9-3.9c1.1-0.3,2.3,0.3,2.6,1.4c0.3,1.1-0.3,2.3-1.4,2.6c-4.3,1.3-8.6,2.7-13,3.9
				C1826.9,1034.6,1826.7,1034.7,1826.5,1034.7z M1852.4,1026.6c-0.9,0-1.7-0.6-2-1.4c-0.4-1.1,0.2-2.3,1.3-2.6
				c4.3-1.4,8.6-2.8,12.8-4.3c1.1-0.4,2.3,0.2,2.6,1.3c0.4,1.1-0.2,2.3-1.3,2.6c-4.3,1.5-8.6,2.9-12.9,4.3
				C1852.8,1026.6,1852.6,1026.6,1852.4,1026.6z M1878,1017.8c-0.8,0-1.6-0.5-1.9-1.4c-0.4-1.1,0.2-2.3,1.2-2.7
				c4.3-1.5,8.5-3.1,12.7-4.7c1.1-0.4,2.3,0.1,2.7,1.2c0.4,1.1-0.1,2.3-1.2,2.7c-4.2,1.6-8.5,3.2-12.7,4.7
				C1878.5,1017.7,1878.3,1017.8,1878,1017.8z M1903.4,1008.1c-0.8,0-1.6-0.5-1.9-1.3c-0.4-1.1,0.1-2.3,1.2-2.7
				c4.2-1.7,8.4-3.4,12.5-5.1c1.1-0.4,2.3,0.1,2.7,1.1c0.4,1.1-0.1,2.3-1.1,2.7c-4.2,1.7-8.4,3.4-12.6,5.1
				C1903.9,1008.1,1903.6,1008.1,1903.4,1008.1z M1928.4,997.7c-0.8,0-1.6-0.5-1.9-1.2c-0.5-1.1,0-2.3,1.1-2.7
				c4.1-1.8,8.3-3.6,12.4-5.5c1-0.5,2.3,0,2.7,1c0.5,1,0,2.3-1,2.7c-4.1,1.9-8.3,3.7-12.4,5.5C1929,997.7,1928.7,997.7,1928.4,997.7
				z M1953.1,986.6c-0.8,0-1.5-0.4-1.9-1.2c-0.5-1,0-2.3,1-2.8c4.1-1.9,8.2-3.9,12.2-5.9c1-0.5,2.3-0.1,2.8,0.9c0.5,1,0.1,2.3-1,2.8
				c-4.1,2-8.1,3.9-12.2,5.9C1953.7,986.5,1953.4,986.6,1953.1,986.6z M1977.5,974.6c-0.8,0-1.5-0.4-1.8-1.1c-0.5-1-0.1-2.3,0.9-2.8
				c4-2.1,8-4.1,12-6.2c1-0.5,2.3-0.1,2.8,0.9c0.5,1,0.1,2.3-0.9,2.8c-4,2.1-8,4.2-12.1,6.3C1978.1,974.6,1977.8,974.6,1977.5,974.6
				z M2001.4,962c-0.7,0-1.4-0.4-1.8-1.1c-0.6-1-0.2-2.3,0.8-2.8c4-2.2,7.9-4.4,11.8-6.6c1-0.6,2.3-0.2,2.8,0.8
				c0.6,1,0.2,2.3-0.8,2.8c-3.9,2.2-7.9,4.4-11.9,6.6C2002.1,961.9,2001.8,962,2001.4,962z M2025,948.5c-0.7,0-1.4-0.4-1.8-1
				c-0.6-1-0.3-2.3,0.7-2.8c3.9-2.3,7.8-4.6,11.6-7c1-0.6,2.3-0.3,2.8,0.7c0.6,1,0.3,2.3-0.7,2.8c-3.9,2.4-7.7,4.7-11.7,7
				C2025.7,948.5,2025.4,948.5,2025,948.5z M2048.2,934.4c-0.7,0-1.4-0.3-1.8-1c-0.6-1-0.3-2.2,0.6-2.9c3.8-2.4,7.6-4.8,11.4-7.3
				c1-0.6,2.2-0.4,2.9,0.6c0.6,1,0.4,2.2-0.6,2.9c-3.8,2.5-7.6,4.9-11.4,7.3C2048.9,934.3,2048.5,934.4,2048.2,934.4z M2070.9,919.6
				c-0.7,0-1.3-0.3-1.7-0.9c-0.6-0.9-0.4-2.2,0.6-2.9c3.8-2.5,7.5-5.1,11.2-7.6c0.9-0.7,2.2-0.4,2.9,0.5c0.7,0.9,0.4,2.2-0.5,2.9
				c-3.7,2.6-7.4,5.1-11.2,7.7C2071.7,919.5,2071.3,919.6,2070.9,919.6z M2093.1,904.1c-0.6,0-1.3-0.3-1.7-0.9
				c-0.7-0.9-0.5-2.2,0.5-2.9c3.7-2.6,7.3-5.3,10.9-8c0.9-0.7,2.2-0.5,2.9,0.4c0.7,0.9,0.5,2.2-0.4,2.9c-3.6,2.7-7.3,5.4-11,8
				C2094,904,2093.6,904.1,2093.1,904.1z M2114.9,888c-0.6,0-1.2-0.3-1.7-0.8c-0.7-0.9-0.5-2.2,0.4-2.9c3.6-2.7,7.2-5.5,10.7-8.3
				c0.9-0.7,2.2-0.6,2.9,0.3c0.7,0.9,0.6,2.2-0.3,2.9c-3.6,2.8-7.1,5.6-10.7,8.3C2115.8,887.9,2115.4,888,2114.9,888z M2136.3,871.2
				c-0.6,0-1.2-0.3-1.6-0.8c-0.7-0.9-0.6-2.2,0.3-2.9c3.5-2.8,7-5.7,10.5-8.6c0.9-0.7,2.2-0.6,2.9,0.3c0.7,0.9,0.6,2.2-0.3,2.9
				c-3.5,2.9-7,5.8-10.5,8.6C2137.2,871.1,2136.7,871.2,2136.3,871.2z M2157.1,853.9c-0.6,0-1.2-0.2-1.6-0.7
				c-0.7-0.9-0.6-2.2,0.2-2.9c3.4-2.9,6.8-5.9,10.2-8.9c0.9-0.8,2.2-0.7,2.9,0.2c0.8,0.9,0.7,2.2-0.2,2.9c-3.4,3-6.8,6-10.3,8.9
				C2158.1,853.7,2157.6,853.9,2157.1,853.9z M2177.5,835.9c-0.6,0-1.1-0.2-1.5-0.7c-0.8-0.8-0.7-2.2,0.1-2.9c3.4-3,6.7-6.1,10-9.2
				c0.8-0.8,2.1-0.7,2.9,0.1c0.8,0.8,0.7,2.1-0.1,2.9c-3.3,3.1-6.6,6.1-10,9.2C2178.5,835.8,2178,835.9,2177.5,835.9z M2197.3,817.4
				c-0.5,0-1.1-0.2-1.5-0.6c-0.8-0.8-0.8-2.1,0.1-2.9c3.3-3.1,6.5-6.3,9.7-9.4c0.8-0.8,2.1-0.8,2.9,0c0.8,0.8,0.8,2.1,0,2.9
				c-3.2,3.2-6.5,6.3-9.8,9.5C2198.3,817.3,2197.8,817.4,2197.3,817.4z M2216.6,798.4c-0.5,0-1.1-0.2-1.5-0.6
				c-0.8-0.8-0.8-2.1,0-2.9c3.2-3.2,6.3-6.4,9.5-9.7c0.8-0.8,2.1-0.8,2.9-0.1c0.8,0.8,0.8,2.1,0.1,2.9c-3.1,3.3-6.3,6.5-9.5,9.7
				C2217.7,798.2,2217.2,798.4,2216.6,798.4z M2235.5,778.9c-0.5,0-1-0.2-1.4-0.6c-0.8-0.8-0.9-2.1-0.1-2.9c3.1-3.3,6.2-6.6,9.2-9.9
				c0.8-0.8,2.1-0.9,2.9-0.1c0.8,0.8,0.9,2.1,0.1,2.9c-3,3.3-6.1,6.7-9.2,10C2236.6,778.7,2236,778.9,2235.5,778.9z M2253.8,758.9
				c-0.5,0-1-0.2-1.4-0.5c-0.9-0.8-0.9-2.1-0.2-2.9c3-3.4,6-6.8,9-10.2c0.8-0.9,2.1-0.9,2.9-0.2c0.9,0.8,1,2.1,0.2,2.9
				c-3,3.4-6,6.8-9,10.2C2254.9,758.7,2254.4,758.9,2253.8,758.9z M2271.6,738.4c-0.5,0-1-0.2-1.3-0.5c-0.9-0.7-1-2-0.2-2.9
				c2.9-3.5,5.8-6.9,8.7-10.4c0.7-0.9,2-1,2.9-0.3c0.9,0.7,1,2,0.3,2.9c-2.9,3.5-5.8,6.9-8.7,10.4
				C2272.8,738.2,2272.2,738.4,2271.6,738.4z M2288.9,717.5c-0.5,0-0.9-0.2-1.3-0.5c-0.9-0.7-1-2-0.3-2.9c2.8-3.5,5.7-7.1,8.4-10.6
				c0.7-0.9,2-1.1,2.9-0.3c0.9,0.7,1.1,2,0.3,2.9c-2.8,3.5-5.6,7.1-8.5,10.6C2290.1,717.3,2289.5,717.5,2288.9,717.5z M2305.7,696.2
				c-0.4,0-0.9-0.1-1.3-0.4c-0.9-0.7-1.1-2-0.4-2.9c2.8-3.6,5.5-7.2,8.2-10.8c0.7-0.9,2-1.1,2.9-0.4c0.9,0.7,1.1,2,0.4,2.9
				c-2.7,3.6-5.4,7.2-8.2,10.8C2307,696,2306.3,696.2,2305.7,696.2z M2322,674.5c-0.4,0-0.9-0.1-1.2-0.4c-0.9-0.7-1.1-2-0.4-2.9
				c2.7-3.7,5.3-7.3,7.9-11c0.7-0.9,2-1.1,2.9-0.5c0.9,0.7,1.1,2,0.5,2.9c-2.6,3.7-5.3,7.3-8,11
				C2323.3,674.2,2322.6,674.5,2322,674.5z M2337.8,652.5c-0.4,0-0.8-0.1-1.2-0.4c-0.9-0.7-1.2-1.9-0.5-2.9
				c2.6-3.7,5.2-7.4,7.7-11.2c0.6-0.9,1.9-1.2,2.9-0.5c0.9,0.6,1.2,1.9,0.5,2.9c-2.5,3.7-5.1,7.5-7.7,11.2
				C2339.1,652.1,2338.5,652.5,2337.8,652.5z M2353.1,630c-0.4,0-0.8-0.1-1.1-0.3c-1-0.6-1.2-1.9-0.6-2.9c2.5-3.8,5-7.6,7.4-11.3
				c0.6-1,1.9-1.2,2.9-0.6c1,0.6,1.2,1.9,0.6,2.9c-2.4,3.8-4.9,7.6-7.5,11.4C2354.4,629.7,2353.7,630,2353.1,630z M2367.8,607.3
				c-0.4,0-0.8-0.1-1.1-0.3c-1-0.6-1.3-1.9-0.6-2.9c2.4-3.8,4.8-7.7,7.2-11.5c0.6-1,1.9-1.3,2.9-0.7c1,0.6,1.3,1.9,0.7,2.9
				c-2.4,3.8-4.8,7.7-7.2,11.5C2369.2,606.9,2368.5,607.3,2367.8,607.3z M2382.1,584.2c-0.4,0-0.7-0.1-1.1-0.3
				c-1-0.6-1.3-1.9-0.7-2.8c2.3-3.9,4.7-7.8,6.9-11.6c0.6-1,1.8-1.3,2.8-0.7c1,0.6,1.3,1.9,0.7,2.8c-2.3,3.9-4.6,7.8-7,11.7
				C2383.5,583.8,2382.8,584.2,2382.1,584.2z M2395.9,560.8c-0.3,0-0.7-0.1-1-0.3c-1-0.6-1.3-1.8-0.8-2.8c2.3-4,4.5-7.9,6.7-11.8
				c0.6-1,1.8-1.4,2.8-0.8c1,0.6,1.4,1.8,0.8,2.8c-2.2,3.9-4.4,7.9-6.7,11.8C2397.3,560.4,2396.6,560.8,2395.9,560.8z M2409.1,537.1
				c-0.3,0-0.7-0.1-1-0.3c-1-0.5-1.4-1.8-0.8-2.8c2.2-4,4.3-8,6.4-11.9c0.5-1,1.8-1.4,2.8-0.9c1,0.5,1.4,1.8,0.9,2.8
				c-2.1,4-4.3,7.9-6.5,12C2410.6,536.7,2409.9,537.1,2409.1,537.1z M2421.9,513.1c-0.3,0-0.6-0.1-1-0.2c-1-0.5-1.4-1.8-0.9-2.8
				c2.1-4.1,4.2-8.1,6.2-12.1c0.5-1,1.8-1.4,2.8-0.9c1,0.5,1.4,1.8,0.9,2.8c-2,4-4.1,8-6.2,12.1
				C2423.4,512.7,2422.7,513.1,2421.9,513.1z M2434.2,488.9c-0.3,0-0.6-0.1-0.9-0.2c-1-0.5-1.4-1.7-0.9-2.8c2-4.1,4-8.2,5.9-12.2
				c0.5-1,1.7-1.5,2.8-1c1,0.5,1.5,1.7,1,2.8c-1.9,4-3.9,8.1-5.9,12.2C2435.7,488.5,2434.9,488.9,2434.2,488.9z M2445.9,464.4
				c-0.3,0-0.6-0.1-0.9-0.2c-1-0.5-1.5-1.7-1-2.8c1.9-4.2,3.8-8.3,5.7-12.3c0.5-1,1.7-1.5,2.7-1c1,0.5,1.5,1.7,1,2.7
				c-1.8,4.1-3.7,8.2-5.7,12.4C2447.4,464,2446.7,464.4,2445.9,464.4z M2457.1,439.7c-0.3,0-0.6-0.1-0.8-0.2c-1-0.5-1.5-1.7-1.1-2.7
				c1.9-4.2,3.7-8.4,5.4-12.4c0.5-1.1,1.7-1.5,2.7-1.1c1.1,0.5,1.5,1.7,1.1,2.7c-1.7,4.1-3.5,8.2-5.4,12.5
				C2458.7,439.2,2457.9,439.7,2457.1,439.7z M2467.8,414.7c-0.3,0-0.5-0.1-0.8-0.2c-1.1-0.4-1.6-1.7-1.1-2.7
				c1.8-4.3,3.5-8.5,5.1-12.6c0.4-1.1,1.6-1.6,2.7-1.2c1.1,0.4,1.6,1.6,1.2,2.7c-1.6,4.1-3.3,8.3-5.1,12.6
				C2469.4,414.2,2468.6,414.7,2467.8,414.7z M2477.9,389.5c-0.2,0-0.5,0-0.7-0.1c-1.1-0.4-1.6-1.6-1.2-2.7
				c1.7-4.4,3.3-8.7,4.8-12.7c0.4-1.1,1.6-1.6,2.7-1.2c1.1,0.4,1.6,1.6,1.2,2.7c-1.5,4-3.1,8.3-4.8,12.7
				C2479.6,389,2478.8,389.5,2477.9,389.5z M2487.4,364c-0.2,0-0.5,0-0.7-0.1c-1.1-0.4-1.6-1.6-1.3-2.6c1.7-4.7,3.2-8.9,4.5-12.8
				c0.4-1.1,1.6-1.7,2.6-1.3c1.1,0.4,1.7,1.5,1.3,2.6c-1.3,3.9-2.8,8.2-4.5,12.9C2489.1,363.5,2488.3,364,2487.4,364z M2496.2,338.2
				c-0.2,0-0.4,0-0.6-0.1c-1.1-0.3-1.7-1.5-1.3-2.6c2.7-8.4,4-13,4-13.1c0.3-1.1,1.4-1.8,2.6-1.4c1.1,0.3,1.7,1.4,1.4,2.6
				c0,0-1.3,4.8-4,13.2C2497.9,337.6,2497.1,338.2,2496.2,338.2z"/>
			<g>
				<polygon class="st3" points="2609.5,580.4 2631.6,604 2638,578.9 				"/>
				<path class="st4" d="M2702.7,467.4L2691.5,583c-0.2,2.2-1.3,4.2-3.1,5.6s-4,2-6.2,1.7l-115.6-15.6c-1.3-0.2-2.4-1.1-2.7-2.4
					c-0.3-1.3,0.2-2.7,1.2-3.5L2702.7,467.4z"/>
				<polygon class="st3" points="2609.5,580.4 2702.7,467.4 2628.1,583 2634,589.8 				"/>
				<polygon class="st3" points="2639.2,584.5 2631.6,604 2628.1,583 				"/>
			</g>
			<g>
				<polygon class="st3" points="2487,261.1 2511.5,282.2 2515.3,256.5 				"/>
				<path class="st4" d="M2568,138.9l0.9,116.1c0,2.2-0.9,4.4-2.5,5.9c-1.6,1.6-3.7,2.4-6,2.3l-116.6-3.5c-1.3,0-2.5-0.9-3-2.1
					c-0.5-1.3-0.1-2.7,0.9-3.6L2568,138.9z"/>
				<polygon class="st3" points="2487.1,261.1 2568,138.9 2505.9,261.7 2512.4,267.8 				"/>
				<polygon class="st3" points="2517,262 2511.5,282.2 2505.9,261.7 				"/>
			</g>
			<g>
				<polygon class="st3" points="2535.7,396.2 2569.6,432.3 2579.4,393.8 				"/>
				<path class="st4" d="M2678.4,223.2l-17.1,176.9c-0.3,3.4-2,6.5-4.7,8.6c-2.7,2.1-6.1,3.1-9.5,2.6l-177-23.9
					c-2-0.3-3.7-1.7-4.2-3.7c-0.5-2,0.2-4.1,1.9-5.3L2678.4,223.2z"/>
				<polygon class="st3" points="2535.7,396.2 2678.4,223.2 2564.2,400.2 2573.2,410.6 				"/>
				<polygon class="st3" points="2581.2,402.4 2569.6,432.3 2564.2,400.2 				"/>
			</g>
		</g>
	</g>
</g>
</svg>
