<?xml version="1.0" encoding="utf-8"?>
<!-- Generator: Adobe Illustrator 24.0.1, SVG Export Plug-In . SVG Version: 6.00 Build 0)  -->
<svg version="1.1" xmlns="http://www.w3.org/2000/svg" xmlns:xlink="http://www.w3.org/1999/xlink" x="0px" y="0px"
	 viewBox="0 0 837.4 778.2" style="enable-background:new 0 0 837.4 778.2;" xml:space="preserve">
<style type="text/css">
	.st0{display:none;}
	.st1{display:inline;}
	.st2{fill:#FFFFFF;}
	.st3{fill:url(#SVGID_1_);}
	.st4{fill:#91B3FA;}
	.st5{fill:#BDD0FB;}
	.st6{opacity:0.64;}
	.st7{fill:#0948B3;}
	.st8{opacity:0.11;fill:#FFFFFF;}
	.st9{opacity:0.2;}
	.st10{fill:#7D97F4;}
	.st11{opacity:0.9;fill:#7D97F4;}
	.st12{fill:url(#SVGID_2_);}
	.st13{fill:url(#SVGID_3_);}
	.st14{opacity:0.6;}
	.st15{opacity:0.9;fill:url(#SVGID_4_);}
	.st16{opacity:0.9;fill:url(#SVGID_5_);}
	.st17{opacity:0.9;fill:url(#SVGID_6_);}
	.st18{opacity:0.9;fill:url(#SVGID_7_);}
	.st19{opacity:0.9;fill:url(#SVGID_8_);}
	.st20{opacity:0.9;fill:url(#SVGID_9_);}
	.st21{opacity:0.9;fill:url(#SVGID_10_);}
	.st22{opacity:0.9;fill:url(#SVGID_11_);}
	.st23{opacity:0.9;fill:url(#SVGID_12_);}
	.st24{opacity:0.9;fill:url(#SVGID_13_);}
	.st25{opacity:0.9;fill:url(#SVGID_14_);}
	.st26{opacity:0.9;fill:url(#SVGID_15_);}
	.st27{opacity:0.9;fill:url(#SVGID_16_);}
	.st28{opacity:0.9;fill:url(#SVGID_17_);}
	.st29{opacity:0.9;fill:url(#SVGID_18_);}
	.st30{opacity:0.9;fill:url(#SVGID_19_);}
	.st31{opacity:0.9;fill:url(#SVGID_20_);}
	.st32{opacity:0.9;fill:url(#SVGID_21_);}
	.st33{opacity:0.9;fill:url(#SVGID_22_);}
	.st34{opacity:0.9;fill:url(#SVGID_23_);}
	.st35{opacity:0.9;fill:url(#SVGID_24_);}
	.st36{opacity:0.9;fill:url(#SVGID_25_);}
	.st37{opacity:0.9;fill:url(#SVGID_26_);}
	.st38{opacity:0.9;fill:url(#SVGID_27_);}
	.st39{opacity:0.9;fill:url(#SVGID_28_);}
	.st40{opacity:0.9;fill:url(#SVGID_29_);}
	.st41{opacity:0.9;fill:url(#SVGID_30_);}
	.st42{opacity:0.9;fill:url(#SVGID_31_);}
	.st43{opacity:0.9;fill:url(#SVGID_32_);}
	.st44{opacity:0.9;fill:url(#SVGID_33_);}
	.st45{opacity:0.9;fill:url(#SVGID_34_);}
	.st46{opacity:0.9;fill:url(#SVGID_35_);}
	.st47{opacity:0.9;fill:url(#SVGID_36_);}
	.st48{opacity:0.9;fill:url(#SVGID_37_);}
	.st49{opacity:0.9;fill:url(#SVGID_38_);}
	.st50{opacity:0.9;fill:url(#SVGID_39_);}
	.st51{opacity:0.9;fill:url(#SVGID_40_);}
	.st52{opacity:0.9;fill:url(#SVGID_41_);}
	.st53{opacity:0.9;fill:url(#SVGID_42_);}
	.st54{opacity:0.9;fill:url(#SVGID_43_);}
	.st55{opacity:0.9;fill:url(#SVGID_44_);}
	.st56{opacity:0.9;fill:url(#SVGID_45_);}
	.st57{opacity:0.9;fill:url(#SVGID_46_);}
	.st58{opacity:0.9;fill:url(#SVGID_47_);}
	.st59{opacity:0.9;fill:url(#SVGID_48_);}
	.st60{opacity:0.9;fill:url(#SVGID_49_);}
	.st61{opacity:0.9;fill:url(#SVGID_50_);}
	.st62{opacity:0.9;fill:url(#SVGID_51_);}
	.st63{fill:url(#SVGID_52_);}
	.st64{fill:url(#SVGID_53_);}
	.st65{fill:url(#SVGID_54_);}
	.st66{fill:url(#SVGID_55_);}
	.st67{fill:url(#SVGID_56_);}
	.st68{fill:url(#SVGID_57_);}
	.st69{fill:url(#SVGID_58_);}
	.st70{fill:url(#SVGID_59_);}
	.st71{fill:url(#SVGID_60_);}
	.st72{fill:url(#SVGID_61_);}
	.st73{fill:url(#SVGID_62_);}
	.st74{fill:url(#SVGID_63_);}
	.st75{fill:url(#SVGID_64_);}
	.st76{fill:url(#SVGID_65_);}
	.st77{fill:url(#SVGID_66_);}
	.st78{fill:url(#SVGID_67_);}
	.st79{fill:url(#SVGID_68_);}
	.st80{fill:url(#SVGID_69_);}
	.st81{fill:url(#SVGID_70_);}
	.st82{fill:url(#SVGID_71_);}
	.st83{fill:url(#SVGID_72_);}
	.st84{fill:url(#SVGID_73_);}
	.st85{fill:url(#SVGID_74_);}
	.st86{fill:url(#SVGID_75_);}
	.st87{fill:url(#SVGID_76_);}
	.st88{fill:url(#SVGID_77_);}
	.st89{fill:url(#SVGID_78_);}
	.st90{fill:url(#SVGID_79_);}
	.st91{fill:url(#SVGID_80_);}
	.st92{fill:url(#SVGID_81_);}
	.st93{fill:url(#SVGID_82_);}
	.st94{fill:url(#SVGID_83_);}
	.st95{fill:url(#SVGID_84_);}
	.st96{fill:url(#SVGID_85_);}
	.st97{fill:url(#SVGID_86_);}
	.st98{fill:url(#SVGID_87_);}
	.st99{fill:url(#SVGID_88_);}
	.st100{fill:url(#SVGID_89_);}
	.st101{fill:url(#SVGID_90_);}
	.st102{fill:url(#SVGID_91_);}
	.st103{fill:url(#SVGID_92_);}
	.st104{fill:url(#SVGID_93_);}
	.st105{fill:url(#SVGID_94_);}
	.st106{fill:url(#SVGID_95_);}
	.st107{fill:url(#SVGID_96_);}
	.st108{fill:url(#SVGID_97_);}
	.st109{fill:url(#SVGID_98_);}
	.st110{fill:url(#SVGID_99_);}
	.st111{fill:url(#SVGID_100_);}
	.st112{opacity:0.57;fill:#FFFFFF;}
	.st113{fill:url(#SVGID_101_);}
	.st114{fill:url(#SVGID_102_);}
	.st115{fill:url(#SVGID_103_);}
	.st116{opacity:0.59;fill:url(#SVGID_104_);}
	.st117{opacity:0.59;fill:url(#SVGID_105_);}
	.st118{opacity:0.59;fill:url(#SVGID_106_);}
	.st119{fill:url(#SVGID_107_);}
	.st120{fill:url(#SVGID_108_);}
	.st121{fill:url(#SVGID_109_);}
	.st122{fill:url(#SVGID_110_);}
	.st123{fill:url(#SVGID_111_);}
	.st124{fill:url(#SVGID_112_);}
	.st125{fill:url(#SVGID_113_);}
	.st126{fill:url(#SVGID_114_);}
	.st127{fill:url(#SVGID_115_);}
	.st128{opacity:0.1;fill:#FFFFFF;}
	.st129{opacity:0.8;fill:#FFFFFF;}
	.st130{fill:url(#SVGID_116_);}
	.st131{fill:url(#SVGID_117_);}
	.st132{fill:url(#SVGID_118_);}
	.st133{fill:url(#SVGID_119_);}
	.st134{fill:url(#SVGID_120_);}
	.st135{fill:url(#SVGID_121_);}
	.st136{fill:url(#SVGID_122_);}
	.st137{fill:url(#SVGID_123_);}
	.st138{fill:url(#SVGID_124_);}
	.st139{fill:url(#SVGID_125_);}
	.st140{fill:url(#SVGID_126_);}
	.st141{fill:url(#SVGID_127_);}
	.st142{fill:url(#SVGID_128_);}
	.st143{fill:url(#SVGID_129_);}
	.st144{fill:url(#SVGID_130_);}
	.st145{fill:url(#SVGID_131_);}
	.st146{fill:url(#SVGID_132_);}
	.st147{fill:url(#SVGID_133_);}
	.st148{fill:url(#SVGID_134_);}
	.st149{fill:url(#SVGID_135_);}
	.st150{fill:url(#SVGID_136_);}
	.st151{fill:url(#SVGID_137_);}
	.st152{fill:url(#SVGID_138_);}
	.st153{fill:url(#SVGID_139_);}
	.st154{fill:url(#SVGID_140_);}
	.st155{fill:url(#SVGID_141_);}
	.st156{fill:url(#SVGID_142_);}
	.st157{fill:url(#SVGID_143_);}
	.st158{fill:url(#SVGID_144_);}
	.st159{opacity:0.59;fill:url(#SVGID_145_);}
	.st160{opacity:0.59;fill:url(#SVGID_146_);}
	.st161{opacity:0.59;fill:url(#SVGID_147_);}
	.st162{fill:url(#SVGID_148_);}
	.st163{fill:url(#SVGID_149_);}
	.st164{fill:url(#SVGID_150_);}
</style>
<g id="Background" class="st0">
	<g class="st1">
		<g>
			<rect x="-1450.2" y="-1458.4" class="st2" width="3710" height="3710"/>
		</g>
	</g>
</g>
<g id="Illustration">
	<g>
		<linearGradient id="SVGID_1_" gradientUnits="userSpaceOnUse" x1="798.22" y1="839.1588" x2="282.0481" y2="282.0209">
			<stop  offset="0" style="stop-color:#DAE3FE"/>
			<stop  offset="1" style="stop-color:#E9EFFD"/>
		</linearGradient>
		<path class="st3" d="M726.9,521.4C655.8,686.9,468.3,758,321.3,745.9c-40.1-3.3-120.9-10-183.9-69.4
			C16.3,562.5,34.9,324,150.8,183.6C165.7,165.5,269.1,44.4,430.1,46c117.9,1.2,200.6,67.5,210.7,75.8c12.7,10.4,40.7,35.3,66,74.6
			C766.1,288.9,771.3,418,726.9,521.4z"/>
		<g>
			<path class="st4" d="M72.3,51.4c-0.8-4.2,5.1-6.7,8.6-3.7c35.2,30.6,119.3,121.4,92.5,274.4c-33.6,191.9,10.6,263.8,67,308.7
				c0,0-78.8-22.8-126.5-95.9C-3.1,355.5,87.1,125.6,72.3,51.4z"/>
			<path class="st4" d="M97.8,112.6c3.8,21.6,7.1,43.3,9.5,65c2.5,21.7,4.3,43.5,5.3,65.3c0.9,21.8,1.3,43.6,0.6,65.3
				c-0.5,21.8-2.2,43.5-3.9,65.3c-1.6,21.8-3.3,43.7-2.5,65.9c0.8,22.1,4.7,44.6,13.3,65.8c2.1,5.3,4.4,10.5,7,15.7
				c2.5,5.1,5.2,10.2,8.1,15.2c5.8,10,12.3,19.7,19.6,28.9c14.7,18.5,32.6,35,52.5,49.1c2.1,1.5,5.2,1.2,6.9-0.6
				c1.7-1.8,1.4-4.4-0.6-5.9l0,0c-4.7-3.6-9.4-7.2-13.9-10.9c-2.3-1.9-4.4-3.8-6.7-5.7c-2.1-2-4.3-3.9-6.4-5.9
				c-8.4-8-16.1-16.4-23.1-25.3c-14-17.7-25.1-37.4-33.3-57.6c-4-10.2-7.1-20.5-9.2-31.1c-2.2-10.5-3.4-21.2-3.9-32
				c-1-21.5,0.5-43.3,1.9-65.1c1.4-21.8,2.6-43.7,2.7-65.7c0.1-11,0-21.9-0.4-32.9c-0.1-5.5-0.4-11-0.6-16.4c-0.3-5.5-0.7-11-1-16.4
				c-1.6-21.9-4-43.7-7.2-65.5c-3.3-21.7-7.3-43.4-12.2-64.9c-0.1-0.6-0.8-1-1.5-0.9C98.2,111.4,97.7,112,97.8,112.6z"/>
		</g>
		<g>
			<g>
				<path class="st5" d="M121.6,443.2c-4,4.2-10.9,3-13.3-2.3c-13.1-29-42.8-114.2,6.2-212.4c41.4-82.9,56-131.8,61.1-154.5
					c1.1-4.8,7.6-5.4,9.6-0.9C207.1,122.6,264.9,291.2,121.6,443.2z"/>
				<path class="st2" d="M114.5,440.1c-0.1,0-0.3,0-0.4,0c-1.2,0-2.2-1-2.2-2.3c0-1.4,2.8-142.2,55.1-260.1c0.5-1.1,1.8-1.6,3-1.1
					c1.1,0.5,1.6,1.8,1.1,3c-52,117.1-54.7,257-54.7,258.4C116.3,439.1,115.5,440,114.5,440.1z"/>
			</g>
		</g>
		<g>
			<g>
				<g class="st6">
					<path class="st4" d="M558.3,149.4c-0.6-0.1-1.2-0.5-1.3-1.2c-0.1-0.8-0.3-1.6-0.4-2.4c-0.1-0.8,0.5-1.6,1.3-1.7
						c0.8-0.1,1.6,0.5,1.7,1.3c0.1,0.8,0.2,1.5,0.4,2.3c0.1,0.8-0.4,1.6-1.2,1.7C558.5,149.4,558.4,149.4,558.3,149.4z"/>
					<path class="st4" d="M557.3,139.1c-0.8-0.1-1.3-0.7-1.3-1.5c0-1.7,0.1-3.4,0.2-5c0.1-0.8,0.8-1.4,1.6-1.4
						c0.8,0.1,1.4,0.8,1.4,1.6c-0.1,1.6-0.2,3.2-0.2,4.8c0,0.8-0.7,1.5-1.5,1.5C557.4,139.1,557.4,139.1,557.3,139.1z M558.8,126.4
						c-0.1,0-0.1,0-0.2,0c-0.8-0.2-1.3-1-1.1-1.8c0.4-1.6,0.8-3.3,1.3-4.8c0.2-0.8,1.1-1.2,1.9-1c0.8,0.2,1.2,1.1,1,1.9
						c-0.5,1.5-0.9,3-1.2,4.6C560.2,126,559.5,126.5,558.8,126.4z M562.9,114.3c-0.2,0-0.3-0.1-0.5-0.1c-0.7-0.4-1.1-1.2-0.7-2
						c0.7-1.5,1.5-3,2.4-4.4c0.4-0.7,1.3-0.9,2-0.5c0.7,0.4,0.9,1.3,0.5,2c-0.8,1.4-1.6,2.8-2.2,4.2
						C564.2,114.1,563.6,114.4,562.9,114.3z M569.7,103.5c-0.3,0-0.5-0.1-0.8-0.3c-0.6-0.5-0.8-1.5-0.2-2.1c1-1.3,2.1-2.6,3.3-3.8
						c0.6-0.6,1.5-0.6,2.1-0.1c0.6,0.6,0.6,1.5,0.1,2.1c-1.1,1.1-2.1,2.4-3.1,3.6C570.7,103.3,570.2,103.5,569.7,103.5z M578.8,94.4
						c-0.4,0-0.8-0.2-1-0.6c-0.5-0.6-0.4-1.6,0.2-2.1c1.3-1,2.7-2,4-3c0.7-0.5,1.6-0.3,2.1,0.4c0.5,0.7,0.3,1.6-0.4,2.1
						c-1.3,0.9-2.6,1.8-3.8,2.8C579.6,94.4,579.2,94.5,578.8,94.4z M589.6,87.6c-0.5-0.1-1-0.4-1.2-0.8c-0.4-0.7-0.1-1.6,0.7-2
						c1.5-0.7,3-1.4,4.6-2c0.8-0.3,1.6,0.1,1.9,0.9c0.3,0.8-0.1,1.6-0.9,1.9c-1.5,0.6-2.9,1.2-4.4,1.9
						C590.2,87.6,589.9,87.6,589.6,87.6z M643.5,89.7c-0.2,0-0.4-0.1-0.6-0.2c-1.4-0.8-2.8-1.5-4.2-2.2c-0.7-0.4-1.1-1.2-0.7-2
						c0.4-0.7,1.2-1.1,2-0.7c1.5,0.7,3,1.5,4.4,2.3c0.7,0.4,1,1.3,0.5,2C644.7,89.5,644.1,89.7,643.5,89.7z M601.7,83.3
						c-0.6-0.1-1.2-0.5-1.3-1.1c-0.2-0.8,0.3-1.6,1.1-1.8c1.6-0.4,3.3-0.7,4.9-0.9c0.8-0.1,1.6,0.5,1.7,1.3c0.1,0.8-0.5,1.6-1.3,1.7
						c-1.6,0.2-3.1,0.5-4.7,0.9C602,83.3,601.8,83.3,601.7,83.3z M631.8,84.5c-0.1,0-0.2,0-0.3-0.1c-1.5-0.5-3.1-0.9-4.6-1.2
						c-0.8-0.2-1.3-1-1.1-1.8c0.2-0.8,1-1.3,1.8-1.1c1.6,0.4,3.3,0.8,4.8,1.3c0.8,0.2,1.2,1.1,1,1.9
						C633.2,84.2,632.5,84.6,631.8,84.5z M614.4,81.8c-0.7-0.1-1.3-0.7-1.3-1.5c0-0.8,0.7-1.5,1.5-1.5c1.7,0,3.3,0.1,5,0.2
						c0,0,0,0,0,0c0.8,0.1,1.4,0.8,1.3,1.6c-0.1,0.8-0.8,1.4-1.6,1.4c-1.6-0.1-3.2-0.2-4.8-0.2C614.5,81.8,614.4,81.8,614.4,81.8z"
						/>
					<path class="st4" d="M651.9,95.7c-0.3,0-0.6-0.1-0.8-0.4c-0.6-0.5-1.2-1-1.8-1.5c-0.6-0.5-0.8-1.5-0.2-2.1
						c0.5-0.6,1.5-0.8,2.1-0.2c0.6,0.5,1.3,1,1.9,1.6c0.6,0.5,0.7,1.5,0.2,2.1C652.9,95.6,652.4,95.8,651.9,95.7z"/>
				</g>
				<g class="st6">
					<path class="st4" d="M671.8,136c-0.7-0.1-1.3-0.7-1.3-1.4c0-0.8-0.1-1.6-0.2-2.3c-0.1-0.8,0.5-1.6,1.3-1.6
						c0.8-0.1,1.6,0.5,1.6,1.3c0.1,0.8,0.1,1.6,0.2,2.4c0,0.8-0.6,1.5-1.4,1.6C671.9,136,671.8,136,671.8,136z"/>
					<path class="st4" d="M608.7,196c-0.7-0.1-1.4-0.2-2-0.2c-0.8-0.1-1.4-0.9-1.3-1.7c0.1-0.8,0.9-1.4,1.7-1.3
						c0.6,0.1,1.3,0.2,1.9,0.2c0.9,0.1,1.8,0.2,2.7,0.2c0.8,0.1,1.5,0.7,1.4,1.6c0,0.8-0.7,1.5-1.6,1.4
						C610.6,196.2,609.7,196.1,608.7,196z M599.1,194.2c-0.1,0-0.2,0-0.2,0c-1.6-0.4-3.2-1-4.7-1.5c-0.8-0.3-1.2-1.1-0.9-1.9
						c0.3-0.8,1.1-1.2,1.9-0.9c1.5,0.5,3,1,4.5,1.5c0.8,0.2,1.3,1,1,1.8C600.5,193.8,599.8,194.3,599.1,194.2z M619.3,196.2
						c-0.7-0.1-1.3-0.6-1.3-1.4c-0.1-0.8,0.5-1.5,1.4-1.6c1.6-0.1,3.1-0.3,4.6-0.6c0.8-0.1,1.6,0.4,1.7,1.2c0.1,0.8-0.4,1.6-1.2,1.7
						c-1.6,0.3-3.3,0.5-4.9,0.6C619.5,196.2,619.4,196.2,619.3,196.2z M587.4,189.5c-0.2,0-0.4-0.1-0.6-0.2
						c-1.4-0.8-2.9-1.6-4.2-2.5c-0.7-0.5-0.9-1.4-0.4-2.1c0.5-0.7,1.4-0.9,2.1-0.4c1.3,0.8,2.7,1.7,4,2.4c0.7,0.4,1,1.3,0.6,2
						C588.6,189.3,588,189.6,587.4,189.5z M631.7,193.8c-0.6-0.1-1.1-0.5-1.3-1c-0.2-0.8,0.2-1.6,1-1.9c1.5-0.5,3-1,4.4-1.6
						c0.8-0.3,1.6,0.1,1.9,0.8c0.3,0.8-0.1,1.6-0.8,1.9c-1.5,0.6-3.1,1.2-4.6,1.7C632.1,193.8,631.9,193.8,631.7,193.8z
						 M643.2,188.7c-0.5,0-0.9-0.3-1.1-0.7c-0.4-0.7-0.2-1.6,0.5-2c1.3-0.8,2.7-1.6,4-2.5c0.7-0.5,1.6-0.3,2.1,0.4
						c0.5,0.7,0.3,1.6-0.4,2.1c-1.3,0.9-2.7,1.8-4.2,2.6C643.8,188.7,643.5,188.7,643.2,188.7z M653.3,181.2c-0.3,0-0.7-0.2-0.9-0.5
						c-0.6-0.6-0.5-1.6,0.1-2.1c1.1-1.1,2.3-2.2,3.3-3.3c0.6-0.6,1.5-0.6,2.1-0.1c0.6,0.6,0.6,1.5,0.1,2.1c-1.1,1.2-2.3,2.4-3.5,3.5
						C654.2,181.1,653.8,181.3,653.3,181.2z M661.6,171.7c-0.2,0-0.5-0.1-0.7-0.3c-0.7-0.5-0.8-1.4-0.4-2.1c0.9-1.3,1.7-2.6,2.5-4
						c0.4-0.7,1.3-1,2-0.5c0.7,0.4,1,1.3,0.5,2c-0.8,1.4-1.7,2.8-2.6,4.2C662.7,171.6,662.1,171.8,661.6,171.7z M667.6,160.7
						c-0.1,0-0.3,0-0.4-0.1c-0.8-0.3-1.1-1.2-0.8-1.9c0.6-1.4,1.1-2.9,1.6-4.4c0.2-0.8,1.1-1.2,1.9-1c0.8,0.2,1.2,1.1,1,1.9
						c-0.5,1.6-1,3.1-1.7,4.6C668.9,160.4,668.3,160.7,667.6,160.7z M671,148.5C671,148.5,671,148.5,671,148.5
						c-0.9-0.1-1.5-0.9-1.3-1.7c0.2-1.1,0.3-2.3,0.5-3.4c0-0.4,0.1-0.8,0.1-1.2c0.1-0.8,0.8-1.4,1.6-1.4c0.8,0.1,1.4,0.8,1.4,1.6
						c0,0.4-0.1,0.8-0.1,1.3c-0.1,1.2-0.3,2.4-0.5,3.6C672.5,148.1,671.8,148.6,671,148.5z"/>
					<path class="st4" d="M577,182.3c-0.3,0-0.6-0.1-0.8-0.4c-0.6-0.5-1.2-1.1-1.8-1.6c-0.6-0.6-0.6-1.5-0.1-2.1
						c0.6-0.6,1.5-0.6,2.1-0.1c0.6,0.5,1.1,1.1,1.7,1.6c0.6,0.5,0.7,1.5,0.1,2.1C578,182.2,577.5,182.4,577,182.3z"/>
				</g>
				<g>
					<path class="st4" d="M580.7,165.5c0.2,0.2,0.5,0.4,0.7,0.3l8.1-2.1c2.8,2.7,6.1,5,9.8,6.6l1.1,8.3c0,0.3,0.3,0.5,0.5,0.6l9.8,2
						c0.3,0.1,0.6-0.1,0.7-0.3l4.3-7.2c4-0.1,7.9-0.9,11.6-2.2l6.6,5.1c0.2,0.2,0.6,0.2,0.8,0l8.4-5.5c0.2-0.2,0.4-0.5,0.3-0.7
						l-2.1-8.1c2.7-2.8,5-6.1,6.6-9.8l8.3-1.1c0.3,0,0.5-0.3,0.6-0.5l2-9.8c0.1-0.3-0.1-0.6-0.3-0.7l-7.2-4.3
						c-0.1-4-0.9-7.9-2.2-11.6l5.1-6.6c0.2-0.2,0.2-0.6,0-0.8l-5.5-8.4c-0.2-0.2-0.5-0.4-0.7-0.3l-8.1,2.1c-2.8-2.7-6.1-5-9.8-6.6
						l-1.1-8.3c0-0.3-0.3-0.5-0.5-0.6l-9.8-2c-0.3-0.1-0.6,0.1-0.7,0.3l-4.3,7.2c-4,0.1-7.9,0.9-11.6,2.2l-6.6-5.1
						c-0.2-0.2-0.6-0.2-0.8,0l-8.4,5.5c-0.2,0.2-0.4,0.5-0.3,0.7l2.1,8.1c-2.7,2.8-5,6.1-6.6,9.8l-8.3,1.1c-0.3,0-0.5,0.3-0.6,0.5
						l-2,9.8c-0.1,0.3,0.1,0.6,0.3,0.7l7.2,4.3c0.1,4,0.9,7.9,2.2,11.6l-5.1,6.6c-0.2,0.2-0.2,0.6,0,0.8L580.7,165.5z"/>
					<g>
						<path class="st5" d="M613.7,147.8c-2.3-0.2-4.4-1.2-6.1-2.8c-2.1-1.9-3.3-4.6-3.4-7.4c-0.1-2.9,0.9-5.6,2.8-7.7
							c1.9-2.1,4.6-3.3,7.4-3.4c2.9-0.1,5.6,0.9,7.7,2.8c2.1,1.9,3.3,4.6,3.4,7.4c0.2,5.9-4.3,10.9-10.2,11.1l0,0
							C614.7,147.9,614.2,147.9,613.7,147.8z M615.2,146.1L615.2,146.1L615.2,146.1z M615.6,130.1c-0.3,0-0.7,0-1.1,0
							c-1.9,0.1-3.7,0.9-4.9,2.3c-1.3,1.4-2,3.2-1.9,5.1c0.1,1.9,0.9,3.7,2.3,4.9c1.4,1.3,3.2,2,5.1,1.9c3.9-0.2,7-3.5,6.8-7.4
							c-0.1-1.9-0.9-3.7-2.3-4.9C618.5,130.9,617.1,130.3,615.6,130.1z"/>
					</g>
					<path class="st5" d="M612.5,161.7c-0.8-0.1-1.7-0.2-2.5-0.4l0,0c-1.7-0.4-3.4-0.9-5-1.6c-0.2-0.1-0.4-0.4-0.4-0.6
						c0-0.1,0-0.1,0-0.2c0.1-0.3,0.5-0.4,0.8-0.3c1.5,0.7,3.1,1.2,4.8,1.5c6.2,1.3,12.5,0.1,17.8-3.4c5.3-3.5,8.9-8.8,10.2-14.9
						c0.2-0.8,0.3-1.6,0.4-2.4c0.6-5.4-0.7-10.8-3.7-15.4c-3.5-5.3-8.8-8.9-14.9-10.2c-12.7-2.7-25.3,5.6-27.9,18.3
						c-0.2,0.8-0.3,1.6-0.4,2.4c-0.4,3.4,0,6.9,1.2,10.2c0,0.1,0,0.2,0,0.3c0,0.2-0.2,0.4-0.4,0.5c-0.3,0.1-0.7-0.1-0.8-0.4
						c-1.2-3.4-1.6-7.1-1.2-10.7c0.1-0.8,0.2-1.7,0.4-2.5c2.8-13.4,16-22,29.3-19.2c12.6,2.6,20.9,14.4,19.6,26.8
						c-0.1,0.8-0.2,1.7-0.4,2.5c-1.4,6.5-5.1,12.1-10.7,15.7C623.8,160.9,618.1,162.3,612.5,161.7z"/>
				</g>
			</g>
			<g>
				<g class="st6">
					<path class="st4" d="M656.1,96.7c-0.8-0.1-1.5-0.7-1.6-1.5c-0.2-1-0.3-2.1-0.4-3.1c-0.1-1,0.6-1.9,1.7-2.1
						c1-0.1,1.9,0.6,2.1,1.7c0.1,0.9,0.2,1.9,0.4,2.8c0.2,1-0.5,2-1.5,2.2C656.5,96.7,656.3,96.7,656.1,96.7z"/>
					<path class="st4" d="M655.9,83.9C655.9,83.9,655.9,83.9,655.9,83.9c-1.1-0.2-1.8-1.1-1.7-2.1c0-0.3,0.1-0.6,0.1-0.9
						c0.3-1.8,0.7-3.5,1.3-5.2c0.3-1,1.4-1.5,2.3-1.2c1,0.3,1.5,1.4,1.2,2.3c-0.5,1.5-0.9,3.1-1.2,4.8c0,0.3-0.1,0.5-0.1,0.8
						C657.8,83.4,656.9,84,655.9,83.9z M661.4,69.2c-0.3,0-0.5-0.1-0.8-0.3c-0.9-0.6-1.1-1.7-0.6-2.6c1.1-1.8,2.4-3.5,3.8-5.1
						c0.7-0.8,1.9-0.9,2.6-0.2c0.8,0.7,0.9,1.9,0.2,2.6c-1.3,1.4-2.4,3-3.4,4.6C662.8,69,662.1,69.3,661.4,69.2z M672.3,57.9
						c-0.5-0.1-1-0.3-1.4-0.8c-0.6-0.9-0.4-2,0.5-2.6c1.7-1.2,3.6-2.2,5.5-3.1c0.9-0.4,2.1,0,2.5,0.9c0.4,0.9,0,2.1-0.9,2.5
						c-1.7,0.8-3.4,1.8-5,2.9C673.2,57.9,672.7,58,672.3,57.9z M686.8,51.9c-0.8-0.1-1.5-0.7-1.6-1.5c-0.2-1,0.5-2,1.5-2.2
						c2.1-0.4,4.2-0.6,6.3-0.7c1,0,1.9,0.8,1.9,1.8c0,1-0.8,1.9-1.8,1.9c-1.9,0.1-3.8,0.3-5.7,0.6C687.1,51.9,687,51.9,686.8,51.9z
						 M708.2,53.9c-0.2,0-0.3-0.1-0.5-0.1c-1.8-0.7-3.6-1.3-5.5-1.7c-1-0.2-1.6-1.2-1.4-2.2c0.2-1,1.2-1.6,2.2-1.4
						c2.1,0.5,4.1,1.1,6,1.9c1,0.4,1.4,1.5,1.1,2.4C709.8,53.6,709,54,708.2,53.9z"/>
					<path class="st4" d="M719.1,60.6c-0.4,0-0.7-0.2-1-0.4c-0.7-0.6-1.5-1.2-2.2-1.8c-0.8-0.6-1-1.8-0.4-2.6c0.6-0.8,1.8-1,2.6-0.4
						c0.8,0.6,1.7,1.3,2.5,2c0.8,0.7,0.9,1.9,0.2,2.6C720.3,60.4,719.7,60.6,719.1,60.6z"/>
				</g>
				<g class="st6">
					<path class="st4" d="M732.5,89c-0.9-0.1-1.7-0.9-1.7-1.8c0-0.9-0.1-1.9-0.2-2.8c-0.1-1,0.7-1.9,1.7-2c1-0.1,1.9,0.7,2,1.7
						c0.1,1,0.2,2.1,0.2,3.1c0,1-0.8,1.9-1.8,1.9C732.7,89,732.6,89,732.5,89z"/>
					<path class="st4" d="M693,128.2c-1-0.1-1.7-0.9-1.7-1.9c0-1,0.9-1.8,1.9-1.8c1.9,0,3.8,0,5.6-0.3c1-0.1,2,0.6,2.1,1.6
						c0.1,1-0.6,2-1.6,2.1c-2,0.3-4.1,0.4-6.2,0.3C693.1,128.2,693.1,128.2,693,128.2z M683.6,126.8c-0.1,0-0.2,0-0.3-0.1
						c-2-0.6-4-1.3-5.8-2.1c-0.9-0.4-1.4-1.5-0.9-2.5c0.4-0.9,1.5-1.4,2.5-0.9c1.7,0.8,3.5,1.4,5.3,1.9c1,0.3,1.6,1.3,1.3,2.3
						C685.3,126.3,684.4,126.9,683.6,126.8z M708.2,125.5c-0.7-0.1-1.3-0.5-1.5-1.2c-0.4-1,0.1-2,1-2.4c1.7-0.7,3.4-1.5,5.1-2.5
						c0.9-0.5,2-0.2,2.6,0.7c0.5,0.9,0.2,2-0.7,2.6c-1.8,1-3.7,2-5.6,2.7C708.8,125.5,708.5,125.5,708.2,125.5z M721.2,117.1
						c-0.4,0-0.8-0.2-1.1-0.5c-0.7-0.7-0.7-1.9,0-2.6c1.3-1.3,2.6-2.8,3.7-4.3c0.6-0.8,1.8-1,2.6-0.4c0.8,0.6,1,1.8,0.4,2.6
						c-1.2,1.7-2.6,3.2-4.1,4.7C722.2,116.9,721.7,117.1,721.2,117.1z M729.7,104.2c-0.2,0-0.3-0.1-0.5-0.1c-1-0.4-1.4-1.5-1-2.4
						c0.7-1.7,1.3-3.5,1.7-5.4c0.2-1,1.2-1.6,2.2-1.4c1,0.2,1.6,1.2,1.4,2.2c-0.5,2-1.1,4-1.9,5.9
						C731.3,103.8,730.5,104.3,729.7,104.2z"/>
					<path class="st4" d="M669.8,119.7c-0.3,0-0.7-0.2-1-0.4c-0.8-0.7-1.6-1.4-2.4-2.1c-0.8-0.7-0.8-1.9-0.1-2.6
						c0.7-0.8,1.9-0.8,2.6-0.1c0.7,0.6,1.4,1.3,2.1,1.9c0.8,0.7,0.9,1.8,0.3,2.6C671,119.5,670.4,119.7,669.8,119.7z"/>
				</g>
				<g>
					<path class="st4" d="M671.3,106.6c0.1,0.2,0.3,0.2,0.5,0.2l5.5-1.4c1.9,1.8,4.1,3.3,6.6,4.5l0.7,5.6c0,0.2,0.2,0.4,0.4,0.4
						l6.6,1.4c0.2,0,0.4,0,0.5-0.2l2.9-4.8c2.7-0.1,5.3-0.6,7.8-1.5l4.4,3.4c0.2,0.1,0.4,0.1,0.5,0l5.6-3.7c0.2-0.1,0.2-0.3,0.2-0.5
						l-1.4-5.5c1.8-1.9,3.3-4.1,4.5-6.6l5.6-0.7c0.2,0,0.4-0.2,0.4-0.4l1.4-6.6c0-0.2,0-0.4-0.2-0.5l-4.8-2.9
						c-0.1-2.7-0.6-5.3-1.5-7.8l3.4-4.4c0.1-0.2,0.1-0.4,0-0.5l-3.7-5.6c-0.1-0.2-0.3-0.2-0.5-0.2l-5.5,1.4
						c-1.9-1.8-4.1-3.3-6.6-4.5l-0.7-5.6c0-0.2-0.2-0.4-0.4-0.4l-6.6-1.4c-0.2,0-0.4,0-0.5,0.2l-2.9,4.8c-2.7,0.1-5.3,0.6-7.8,1.5
						l-4.4-3.4c-0.2-0.1-0.4-0.1-0.5,0l-5.6,3.7c-0.2,0.1-0.2,0.3-0.2,0.5l1.4,5.5c-1.8,1.9-3.3,4.1-4.5,6.6l-5.6,0.7
						c-0.2,0-0.4,0.2-0.4,0.4l-1.4,6.6c0,0.2,0,0.4,0.2,0.5l4.8,2.9c0.1,2.7,0.6,5.3,1.5,7.8l-3.4,4.4c-0.1,0.2-0.1,0.4,0,0.5
						L671.3,106.6z"/>
					<g>
						<path class="st5" d="M693.4,95.8c-1.7-0.2-3.4-0.9-4.7-2.1c-1.6-1.5-2.6-3.5-2.7-5.7c-0.2-4.5,3.3-8.4,7.9-8.6
							c2.2-0.1,4.3,0.7,5.9,2.2c1.6,1.5,2.6,3.5,2.7,5.7c0.1,2.2-0.7,4.3-2.2,5.9c-1.5,1.6-3.5,2.6-5.7,2.7l0,0
							C694.2,95.8,693.8,95.8,693.4,95.8z M694.7,83.8c-0.2,0-0.4,0-0.6,0c-2.1,0.1-3.7,1.8-3.6,3.9c0,1,0.5,1.9,1.2,2.6
							c0.7,0.7,1.7,1,2.7,1l0,0c1,0,1.9-0.5,2.6-1.2c0.7-0.7,1-1.7,1-2.7c0-1-0.5-1.9-1.2-2.6C696.2,84.3,695.5,83.9,694.7,83.8z"/>
					</g>
					<path class="st5" d="M692.6,104.4c-0.6-0.1-1.2-0.2-1.7-0.3c-1.1-0.2-2.2-0.6-3.3-1c-0.1,0-0.1-0.1-0.2-0.1
						c-0.3-0.1-0.5-0.4-0.4-0.8c0-0.1,0-0.2,0.1-0.2c0.2-0.4,0.6-0.5,1-0.4c1,0.4,2.1,0.8,3.1,1c2.3,0.5,4.7,0.4,6.9-0.1
						c1.6-0.4,3.1-1,4.5-1.9c0,0,0.1,0,0.1,0c0,0,0.1-0.1,0.1-0.1c3.5-2.3,5.8-5.8,6.7-9.8c0.1-0.5,0.2-1.1,0.2-1.6
						c0.4-3.5-0.5-7.1-2.5-10.1c-2.3-3.5-5.8-5.8-9.8-6.7c-4.1-0.8-8.2-0.1-11.7,2.2c-3.5,2.3-5.8,5.8-6.7,9.8
						c-0.1,0.5-0.2,1-0.2,1.6c-0.2,2.3,0,4.5,0.8,6.7c0,0.1,0,0.2,0,0.3c0,0.3-0.2,0.5-0.5,0.6c-0.4,0.1-0.8-0.1-1-0.5
						c-0.8-2.4-1.1-4.9-0.8-7.3c0.1-0.6,0.1-1.1,0.3-1.7c0.9-4.5,3.5-8.3,7.3-10.8c3.8-2.5,8.4-3.4,12.8-2.4
						c4.5,0.9,8.3,3.5,10.8,7.3c2.2,3.3,3.1,7.2,2.7,11.1c-0.1,0.6-0.2,1.2-0.3,1.7c-0.9,4.5-3.5,8.3-7.3,10.8
						C700.4,103.9,696.5,104.8,692.6,104.4z"/>
				</g>
			</g>
		</g>
		<path class="st2" d="M635.3,705.6c-0.2,0.1-0.6,0.3-0.8,0.4c-0.3,0.2-0.6,0.4-0.9,0.6c-0.3,0.2-0.6,0.4-0.9,0.6
			c-0.3,0.2-0.6,0.4-0.8,0.7l-0.8,0.7l-0.8,0.8c-0.5,0.5-1,1.1-1.4,1.7c-1.8,2.3-3.2,5-4.2,7.8L624,721l-0.5,2.2l-0.3,1.1l-0.2,1.1
			l-0.3,2.2c-0.2,1.5-0.2,3-0.3,4.5l0.1,4.6l0,0.1c0,0.4-0.3,0.8-0.7,0.8c-0.4,0-0.7-0.3-0.8-0.7l-0.3-4.7c0-1.6,0-3.1,0.1-4.7
			l0.2-2.4l0.1-1.2l0.2-1.2l0.5-2.3l0.7-2.3c1-3,2.3-6,4.2-8.7c0.5-0.6,0.9-1.3,1.5-1.9l0.8-0.9l0.9-0.9c0.3-0.3,0.6-0.6,0.9-0.8
			c0.3-0.3,0.6-0.5,1-0.8c0.3-0.2,0.7-0.5,1-0.7c0.4-0.2,0.7-0.4,1.2-0.7c0.8-0.4,1.8-0.1,2.2,0.7c0.4,0.8,0.1,1.8-0.7,2.2
			C635.4,705.5,635.4,705.5,635.3,705.6L635.3,705.6z"/>
		<g>
			<g>
				<path class="st7" d="M74.5,238.4V594c0,29.3,23.3,53.2,52.6,53.9c129.9,3.3,464.5,11.5,588.1,9.6c21.3-0.3,38.5-17.3,39.1-38.6
					c2.4-82.6,6.3-281.3-8.1-373.5c-3-19.4-19.4-33.9-39.1-34.6c-108.8-3.5-470.7-14.5-594.3-11.8C91.5,199.6,74.5,217.1,74.5,238.4
					z"/>
				<path class="st5" d="M96.8,236.7v337.9c0,17.1,13.7,31,30.8,31.3l569.8,8.5c16.9,0.3,30.8-13.4,30.9-30.3l1.2-334.9
					c0-12.1-9.6-22-21.7-22.3l-586.2-14.3C108,212.2,96.8,223.1,96.8,236.7z"/>
				<path class="st4" d="M733.5,628.3C733.5,628.3,733.5,628.3,733.5,628.3L96.8,615.4c-0.6,0-1.1-0.5-1.1-1.1
					c0-0.6,0.5-1.1,1.1-1.1l636.7,12.9c0.6,0,1.1,0.5,1.1,1.1C734.6,627.8,734.1,628.3,733.5,628.3z"/>
				<path class="st8" d="M697.4,596.2H127.6c-9.9,0-18-8.9-18-19.9V252.1c0-11.1,8.2-20,18.2-19.8l570.6,9.9
					c8.7,0.2,15.7,8,15.7,17.6v317.9C714.2,587.9,706.7,596.2,697.4,596.2z"/>
			</g>
			<g>
				<path class="st4" d="M602.7,384.2c0-0.9-0.4-1.7-1.1-2.4c-0.7-0.6-1.6-0.9-2.5-0.9l-71.3,2.7c-1.2,0-2.2,1-2.2,2.2l3.6,144.8
					l72.1-0.8c0.9,0,1.8-0.4,2.5-1c0.6-0.6,1-1.5,1-2.4L602.7,384.2z"/>
				<g class="st9">
					<g>
						<polygon class="st2" points="545.1,406.8 534.6,406.8 534,392.3 544.7,392.3 						"/>
						<polygon class="st2" points="561.5,406.8 551.5,406.8 551.1,392.3 561.2,392.3 						"/>
						<polygon class="st2" points="578.3,406.7 567.9,406.7 567.6,392.3 578.1,392.3 						"/>
						<polygon class="st2" points="595,406.7 584.6,406.7 584.4,392.3 594.9,392.3 						"/>
					</g>
					<g>
						<polygon class="st2" points="545.9,430.3 535.4,430.4 534.9,416.3 545.4,416.2 						"/>
						<polygon class="st2" points="562.1,430.2 552.2,430.3 551.8,416.2 561.8,416.1 						"/>
						<polygon class="st2" points="578.7,430.1 568.4,430.2 568.1,416.1 578.5,416.1 						"/>
						<polygon class="st2" points="595.2,430 585,430.1 584.8,416.1 595.1,416 						"/>
					</g>
					<g>
						<polygon class="st2" points="546.6,453.3 536.3,453.4 535.8,439.6 546.1,439.5 						"/>
						<polygon class="st2" points="562.7,453.2 552.8,453.3 552.4,439.4 562.3,439.4 						"/>
						<polygon class="st2" points="579.1,453 568.9,453.1 568.6,439.3 578.9,439.2 						"/>
						<polygon class="st2" points="595.5,452.8 585.3,452.9 585.1,439.2 595.3,439.1 						"/>
					</g>
					<g>
						<polygon class="st2" points="547.3,475.9 537.1,476 536.6,462.4 546.9,462.3 						"/>
						<polygon class="st2" points="563.2,475.6 553.5,475.8 553.1,462.2 562.9,462.1 						"/>
						<polygon class="st2" points="579.5,475.4 569.4,475.6 569.1,462.1 579.3,461.9 						"/>
						<polygon class="st2" points="595.7,475.2 585.6,475.3 585.4,461.9 595.6,461.8 						"/>
					</g>
					<g>
						<polygon class="st2" points="548,497.9 537.9,498.1 537.4,484.8 547.6,484.7 						"/>
						<polygon class="st2" points="563.8,497.7 554.1,497.8 553.8,484.6 563.4,484.4 						"/>
						<polygon class="st2" points="579.9,497.4 569.9,497.6 569.6,484.3 579.6,484.2 						"/>
						<polygon class="st2" points="595.9,497.1 585.9,497.3 585.8,484.1 595.8,483.9 						"/>
					</g>
					<g>
						<polygon class="st2" points="548.7,519.6 538.7,519.8 538.2,506.8 548.3,506.6 						"/>
						<polygon class="st2" points="564.3,519.3 554.8,519.5 554.4,506.4 564,506.3 						"/>
						<polygon class="st2" points="580.2,518.9 570.3,519.1 570.1,506.2 580,506 						"/>
						<polygon class="st2" points="596.1,518.6 586.3,518.8 586.1,505.9 596,505.7 						"/>
					</g>
				</g>
			</g>
			<g>
				<path class="st4" d="M440.8,347.1c0-0.7-0.5-1.3-1.3-1.8c-0.8-0.5-1.9-0.7-3-0.6l-111.7,6c-2.1,0.1-3.7,1.2-3.7,2.5V492
					c0,1.4,1.9,2.4,4.1,2.4h116.9c1.1,0,2.1-0.2,2.9-0.7c0.8-0.5,1.2-1.1,1.1-1.8L440.8,347.1z"/>
				<path class="st10" d="M448.1,344.1H319c-0.3,0-0.5,0.3-0.7,0.6c-0.2,0.2-0.3,0.7-0.3,1l1,12c0.1,0.6,0.5,1.1,1,1.1h128.1
					c0.5,0,0-0.6,0-1.3v-11.9C448.1,345,448.7,344.1,448.1,344.1z"/>
				<g>
					<g>
						<g>
							<path class="st11" d="M339.2,364.7h0.5c-3.7,0-6.4,4.4-6.4,8.7v6h5.9V364.7z"/>
							<path class="st11" d="M333.3,383.9v4.9c0,0.8,0.2,1,0.8,1h5v-5.9H333.3z"/>
							<path class="st11" d="M341.8,364.7h-1.1v14.7h5.9v-6C346.6,369.2,345.5,364.7,341.8,364.7z"/>
							<path class="st11" d="M340.7,389.7h6.7c0.7,0-0.8-0.2-0.8-1v-4.9h-5.9V389.7z"/>
						</g>
						<g>
							<path class="st11" d="M367.2,364.7h1c-3.7,0-8.4,4.4-8.4,8.7v6h7.4V364.7z"/>
							<path class="st11" d="M359.8,383.9v4.9c0,0.8,2.2,1,2.9,1h4.5v-5.9H359.8z"/>
							<path class="st11" d="M370.3,364.7h-0.2v14.7h5.9v-6C376,369.2,374,364.7,370.3,364.7z"/>
							<path class="st11" d="M370.1,389.7h5.7c0.7,0,0.2-0.2,0.2-1v-4.9h-5.9V389.7z"/>
						</g>
						<g>
							<path class="st11" d="M395.2,364.7h1.6c-3.7,0-7.5,4.4-7.5,8.7v6h5.9V364.7z"/>
							<path class="st11" d="M389.3,383.9v4.9c0,0.8,1.3,1,1.9,1h4v-5.9H389.3z"/>
							<path class="st11" d="M398.8,364.7h-0.7v14.7h5.9v-6C404,369.2,402.6,364.7,398.8,364.7z"/>
							<path class="st11" d="M398.1,389.7h6.3c0.7,0-0.4-0.2-0.4-1v-4.9h-5.9V389.7z"/>
						</g>
						<g>
							<path class="st11" d="M424.6,364.7h0.7c-3.7,0-8,4.4-8,8.7v6h7.4V364.7z"/>
							<path class="st11" d="M417.2,383.9v4.9c0,0.8,1.8,1,2.5,1h4.9v-5.9H417.2z"/>
							<path class="st11" d="M427.3,364.7h0.2v14.7h5.9v-6C433.4,369.2,431.1,364.7,427.3,364.7z"/>
							<path class="st11" d="M427.5,389.7h5.3c0.7,0,0.5-0.2,0.5-1v-4.9h-5.9V389.7z"/>
						</g>
					</g>
					<g>
						<g>
							<path class="st11" d="M339.2,408.9h0.5c-3.7,0-6.4,3-6.4,7.3v7.4h5.9V408.9z"/>
							<path class="st11" d="M333.3,425.1v6.4c0,0.8,0.2,2.4,0.8,2.4h5v-8.8H333.3z"/>
							<path class="st11" d="M341.8,408.9h-1.1v14.7h5.9v-7.4C346.6,411.9,345.5,408.9,341.8,408.9z"/>
							<path class="st11" d="M340.7,433.9h6.7c0.7,0-0.8-1.6-0.8-2.4v-6.4h-5.9V433.9z"/>
						</g>
						<g>
							<path class="st11" d="M367.2,408.9h1c-3.7,0-8.4,3-8.4,7.3v7.4h7.4V408.9z"/>
							<path class="st11" d="M359.8,425.1v6.4c0,0.8,2.2,2.4,2.9,2.4h4.5v-8.8H359.8z"/>
							<path class="st11" d="M370.3,408.9h-0.2v14.7h5.9v-7.4C376,411.9,374,408.9,370.3,408.9z"/>
							<path class="st11" d="M370.1,433.9h5.7c0.7,0,0.2-1.6,0.2-2.4v-6.4h-5.9V433.9z"/>
						</g>
						<g>
							<path class="st11" d="M395.2,408.9h1.6c-3.7,0-7.5,3-7.5,7.3v7.4h5.9V408.9z"/>
							<path class="st11" d="M389.3,425.1v6.4c0,0.8,1.3,2.4,1.9,2.4h4v-8.8H389.3z"/>
							<path class="st11" d="M398.8,408.9h-0.7v14.7h5.9v-7.4C404,411.9,402.6,408.9,398.8,408.9z"/>
							<path class="st11" d="M398.1,433.9h6.3c0.7,0-0.4-1.6-0.4-2.4v-6.4h-5.9V433.9z"/>
						</g>
						<g>
							<path class="st11" d="M424.6,408.9h0.7c-3.7,0-8,3-8,7.3v7.4h7.4V408.9z"/>
							<path class="st11" d="M417.2,425.1v6.4c0,0.8,1.8,2.4,2.5,2.4h4.9v-8.8H417.2z"/>
							<path class="st11" d="M427.3,408.9h0.2v14.7h5.9v-7.4C433.4,411.9,431.1,408.9,427.3,408.9z"/>
							<path class="st11" d="M427.5,433.9h5.3c0.7,0,0.5-1.6,0.5-2.4v-6.4h-5.9V433.9z"/>
						</g>
					</g>
					<g>
						<g>
							<path class="st11" d="M339.2,450.1h0.5c-3.7,0-6.4,4.6-6.4,8.9v7.3h5.9V450.1z"/>
							<path class="st11" d="M333.3,469.2v5c0,0.8,0.2,3.8,0.8,3.8h5v-8.8H333.3z"/>
							<path class="st11" d="M341.8,450.1h-1.1v16.2h5.9V459C346.6,454.7,345.5,450.1,341.8,450.1z"/>
							<path class="st11" d="M340.7,478.1h6.7c0.7,0-0.8-3-0.8-3.8v-5h-5.9V478.1z"/>
						</g>
						<g>
							<path class="st11" d="M367.2,450.1h1c-3.7,0-8.4,4.6-8.4,8.9v7.3h7.4V450.1z"/>
							<path class="st11" d="M359.8,469.2v5c0,0.8,2.2,3.8,2.9,3.8h4.5v-8.8H359.8z"/>
							<path class="st11" d="M370.3,450.1h-0.2v16.2h5.9V459C376,454.7,374,450.1,370.3,450.1z"/>
							<path class="st11" d="M370.1,478.1h5.7c0.7,0,0.2-3,0.2-3.8v-5h-5.9V478.1z"/>
						</g>
						<g>
							<path class="st11" d="M395.2,450.1h1.6c-3.7,0-7.5,4.6-7.5,8.9v7.3h5.9V450.1z"/>
							<path class="st11" d="M389.3,469.2v5c0,0.8,1.3,3.8,1.9,3.8h4v-8.8H389.3z"/>
							<path class="st11" d="M398.8,450.1h-0.7v16.2h5.9V459C404,454.7,402.6,450.1,398.8,450.1z"/>
							<path class="st11" d="M398.1,478.1h6.3c0.7,0-0.4-3-0.4-3.8v-5h-5.9V478.1z"/>
						</g>
						<g>
							<path class="st11" d="M424.6,450.1h0.7c-3.7,0-8,4.6-8,8.9v7.3h7.4V450.1z"/>
							<path class="st11" d="M417.2,469.2v5c0,0.8,1.8,3.8,2.5,3.8h4.9v-8.8H417.2z"/>
							<path class="st11" d="M427.3,450.1h0.2v16.2h5.9V459C433.4,454.7,431.1,450.1,427.3,450.1z"/>
							<path class="st11" d="M427.5,478.1h5.3c0.7,0,0.5-3,0.5-3.8v-5h-5.9V478.1z"/>
						</g>
					</g>
				</g>
			</g>
			<g>
				<path class="st10" d="M535.1,316.3c0-1.1-0.5-2.2-1.4-3c-0.9-0.8-2-1.2-3.2-1.2l-91.2,3.5c-1.6,0.1-2.8,1.3-2.8,2.8l4.6,185.2
					l92.2-1.1c1.2,0,2.3-0.5,3.1-1.3c0.8-0.8,1.3-1.9,1.3-3L535.1,316.3z"/>
				<g class="st9">
					<g>
						<polygon class="st2" points="461.4,345.2 447.9,345.2 447.2,326.7 460.8,326.7 						"/>
						<polygon class="st2" points="482.4,345.1 469.5,345.1 469,326.7 481.9,326.7 						"/>
						<polygon class="st2" points="503.8,345.1 490.5,345.1 490.1,326.7 503.5,326.7 						"/>
						<polygon class="st2" points="525.2,345 511.9,345 511.7,326.7 525,326.7 						"/>
					</g>
					<g>
						<polygon class="st2" points="462.3,375.3 449,375.4 448.3,357.3 461.7,357.2 						"/>
						<polygon class="st2" points="483.1,375.1 470.4,375.2 469.9,357.2 482.7,357.1 						"/>
						<polygon class="st2" points="504.4,375 491.2,375.1 490.8,357.1 504,357.1 						"/>
						<polygon class="st2" points="525.5,374.9 512.4,375 512.1,357 525.3,357 						"/>
					</g>
					<g>
						<polygon class="st2" points="463.3,404.7 450.1,404.8 449.4,387.1 462.7,387 						"/>
						<polygon class="st2" points="483.8,404.5 471.3,404.6 470.8,386.9 483.4,386.8 						"/>
						<polygon class="st2" points="504.9,404.3 491.8,404.4 491.4,386.8 504.6,386.7 						"/>
						<polygon class="st2" points="525.8,404.1 512.8,404.2 512.5,386.6 525.6,386.5 						"/>
					</g>
					<g>
						<polygon class="st2" points="464.2,433.5 451.1,433.7 450.5,416.3 463.6,416.2 						"/>
						<polygon class="st2" points="484.5,433.2 472.1,433.4 471.6,416.1 484.1,415.9 						"/>
						<polygon class="st2" points="505.3,432.9 492.4,433.1 492,415.8 505,415.7 						"/>
						<polygon class="st2" points="526,432.7 513.2,432.8 512.9,415.6 525.9,415.5 						"/>
					</g>
					<g>
						<polygon class="st2" points="465.1,461.7 452.1,462 451.5,445 464.5,444.8 						"/>
						<polygon class="st2" points="485.2,461.4 472.9,461.6 472.4,444.6 484.8,444.5 						"/>
						<polygon class="st2" points="505.8,461 493,461.3 492.7,444.3 505.5,444.1 						"/>
						<polygon class="st2" points="526.3,460.7 513.6,460.9 513.3,444 526.2,443.8 						"/>
					</g>
					<g>
						<polygon class="st2" points="465.9,489.4 453.1,489.7 452.5,473 465.4,472.8 						"/>
						<polygon class="st2" points="485.9,489 473.7,489.3 473.2,472.6 485.5,472.4 						"/>
						<polygon class="st2" points="506.3,488.6 493.6,488.8 493.3,472.3 506,472 						"/>
						<polygon class="st2" points="526.6,488.2 514,488.4 513.7,471.9 526.4,471.6 						"/>
					</g>
				</g>
			</g>
			<g>
				<path class="st4" d="M176.2,358.5c0-0.9-0.4-1.8-1.1-2.5c-0.7-0.6-1.7-1-2.7-1l-75.2,2.9c-1.3,0-2.3,1.1-2.3,2.3l3.8,152.6
					l76-0.9c1,0,1.9-0.4,2.6-1.1c0.7-0.7,1.1-1.6,1-2.5L176.2,358.5z"/>
				<g class="st9">
					<g>
						<polygon class="st2" points="115.5,382.2 104.3,382.2 103.8,367 115,367 						"/>
						<polygon class="st2" points="132.8,382.2 122.2,382.2 121.8,367 132.4,367 						"/>
						<polygon class="st2" points="150.5,382.2 139.5,382.2 139.1,367 150.2,367 						"/>
						<polygon class="st2" points="168.1,382.1 157.1,382.1 156.9,367 167.9,367 						"/>
					</g>
					<g>
						<polygon class="st2" points="116.2,407.1 105.2,407.1 104.7,392.2 115.8,392.2 						"/>
						<polygon class="st2" points="133.4,406.9 122.9,407 122.5,392.1 133,392.1 						"/>
						<polygon class="st2" points="150.9,406.8 140,406.9 139.7,392.1 150.6,392 						"/>
						<polygon class="st2" points="168.3,406.7 157.5,406.8 157.3,392 168.1,392 						"/>
					</g>
					<g>
						<polygon class="st2" points="117,431.3 106.1,431.4 105.6,416.8 116.5,416.7 						"/>
						<polygon class="st2" points="134,431.1 123.6,431.2 123.2,416.7 133.6,416.6 						"/>
						<polygon class="st2" points="151.3,430.9 140.5,431.1 140.2,416.5 151,416.4 						"/>
						<polygon class="st2" points="168.5,430.8 157.8,430.9 157.6,416.4 168.4,416.3 						"/>
					</g>
					<g>
						<polygon class="st2" points="117.8,455 107,455.2 106.5,440.9 117.3,440.8 						"/>
						<polygon class="st2" points="134.5,454.8 124.3,454.9 123.9,440.7 134.2,440.6 						"/>
						<polygon class="st2" points="151.7,454.6 141,454.7 140.7,440.5 151.4,440.4 						"/>
						<polygon class="st2" points="168.8,454.3 158.2,454.5 158,440.3 168.6,440.2 						"/>
					</g>
					<g>
						<polygon class="st2" points="118.5,478.3 107.8,478.5 107.3,464.5 118.1,464.3 						"/>
						<polygon class="st2" points="135.1,478 125,478.2 124.6,464.2 134.8,464.1 						"/>
						<polygon class="st2" points="152.1,477.7 141.5,477.9 141.2,464 151.9,463.8 						"/>
						<polygon class="st2" points="169,477.4 158.5,477.6 158.3,463.7 168.8,463.5 						"/>
					</g>
					<g>
						<polygon class="st2" points="119.2,501.1 108.7,501.3 108.2,487.6 118.8,487.4 						"/>
						<polygon class="st2" points="135.7,500.8 125.6,501 125.2,487.3 135.3,487.1 						"/>
						<polygon class="st2" points="152.5,500.4 142,500.6 141.7,487 152.2,486.8 						"/>
						<polygon class="st2" points="169.2,500.1 158.8,500.3 158.6,486.7 169.1,486.5 						"/>
					</g>
				</g>
			</g>
			<linearGradient id="SVGID_2_" gradientUnits="userSpaceOnUse" x1="94.1604" y1="552.5973" x2="729.4592" y2="552.5973">
				<stop  offset="0" style="stop-color:#4F52FF"/>
				<stop  offset="1" style="stop-color:#4042E2"/>
			</linearGradient>
			<path class="st12" d="M699.2,613.2H139.6c-25.1,0-45.4-20.3-45.4-45.4V492h635.3V583C729.5,599.7,715.9,613.2,699.2,613.2z"/>
			<g>
				<path class="st10" d="M327.9,285.9c3.6-1.5-5.1-3-6.5-3.6c-1.4-0.7-3.2-1-5-0.9l-183.7,8.6c-3.4,0.2-6.1,1.7-6.1,3.5v199.1
					c0,2,3.2,3.4,6.8,3.4h192.4c1.8,0,3.5-0.3,4.7-1c1.2-0.7,1.9-1.6,1.9-2.5L327.9,285.9z"/>
				<linearGradient id="SVGID_3_" gradientUnits="userSpaceOnUse" x1="226.4937" y1="273.8669" x2="233.2589" y2="114.0409">
					<stop  offset="0" style="stop-color:#4F52FF"/>
					<stop  offset="1" style="stop-color:#4042E2"/>
				</linearGradient>
				<path class="st13" d="M330.5,277.6H122.7c-0.5,0-0.9,2-1.2,2.3c-0.3,0.3-0.5,1.7-0.4,2.2l1.7,17.7c0.1,0.8,0.8,2.1,1.6,2.1
					c0,0,206-0.3,206-1.2C330.5,300.6,331.4,277.6,330.5,277.6z"/>
				<g class="st14">
					<g>
						<g>
							<linearGradient id="SVGID_4_" gradientUnits="userSpaceOnUse" x1="72.012" y1="566.6196" x2="186.7244" y2="212.5074">
								<stop  offset="0" style="stop-color:#4F52FF"/>
								<stop  offset="1" style="stop-color:#4042E2"/>
							</linearGradient>
							<path class="st15" d="M154.8,313.9c0,0-9.6-0.6-9.7,8.7v8.3h9.7V313.9z"/>
							<linearGradient id="SVGID_5_" gradientUnits="userSpaceOnUse" x1="76.6597" y1="568.1252" x2="191.3723" y2="214.0121">
								<stop  offset="0" style="stop-color:#4F52FF"/>
								<stop  offset="1" style="stop-color:#4042E2"/>
							</linearGradient>
							<path class="st16" d="M145.1,335.7v8.8c0,1.1,1.5,3.3,2.6,3.3h7.1v-12.1H145.1z"/>
							<linearGradient id="SVGID_6_" gradientUnits="userSpaceOnUse" x1="83.0334" y1="570.189" x2="197.7461" y2="216.076">
								<stop  offset="0" style="stop-color:#4F52FF"/>
								<stop  offset="1" style="stop-color:#4042E2"/>
							</linearGradient>
							<path class="st17" d="M160.3,313.9h-0.6v16.9h7.3v-8.3C166.9,316.5,166.4,313.9,160.3,313.9z"/>
							<linearGradient id="SVGID_7_" gradientUnits="userSpaceOnUse" x1="88.5247" y1="571.9694" x2="203.2372" y2="217.8569">
								<stop  offset="0" style="stop-color:#4F52FF"/>
								<stop  offset="1" style="stop-color:#4042E2"/>
							</linearGradient>
							<path class="st18" d="M159.7,347.8h6.3c1.1,0,1-2.2,1-3.3v-8.8h-7.3V347.8z"/>
						</g>
						<g>
							<linearGradient id="SVGID_8_" gradientUnits="userSpaceOnUse" x1="114.8035" y1="580.481" x2="229.5157" y2="226.3693">
								<stop  offset="0" style="stop-color:#4F52FF"/>
								<stop  offset="1" style="stop-color:#4042E2"/>
							</linearGradient>
							<path class="st19" d="M203.3,313.9h0.5c-6.1,0-12.6,2.6-12.6,8.7v8.3h12.1V313.9z"/>
							<linearGradient id="SVGID_9_" gradientUnits="userSpaceOnUse" x1="119.3916" y1="581.967" x2="234.1042" y2="227.8542">
								<stop  offset="0" style="stop-color:#4F52FF"/>
								<stop  offset="1" style="stop-color:#4042E2"/>
							</linearGradient>
							<path class="st20" d="M191.2,335.7v8.8c0,1.1,2.4,3.3,3.5,3.3h8.6v-12.1H191.2z"/>
							<linearGradient id="SVGID_10_" gradientUnits="userSpaceOnUse" x1="126.8608" y1="584.3867" x2="241.5731" y2="230.2744">
								<stop  offset="0" style="stop-color:#4F52FF"/>
								<stop  offset="1" style="stop-color:#4042E2"/>
							</linearGradient>
							<path class="st21" d="M207.2,313.9h-1.5v16.9h12.1v-8.3C217.8,316.5,213.3,313.9,207.2,313.9z"/>
							<linearGradient id="SVGID_11_" gradientUnits="userSpaceOnUse" x1="132.2124" y1="586.1216" x2="246.9247" y2="232.0098">
								<stop  offset="0" style="stop-color:#4F52FF"/>
								<stop  offset="1" style="stop-color:#4042E2"/>
							</linearGradient>
							<path class="st22" d="M205.7,347.8h10.6c1.1,0,1.5-2.2,1.5-3.3v-8.8h-12.1V347.8z"/>
						</g>
						<g>
							<linearGradient id="SVGID_12_" gradientUnits="userSpaceOnUse" x1="155.3354" y1="593.6122" x2="270.0478" y2="239.5001">
								<stop  offset="0" style="stop-color:#4F52FF"/>
								<stop  offset="1" style="stop-color:#4042E2"/>
							</linearGradient>
							<path class="st23" d="M246.8,313.9c0,0-9.4,0-9.7,8.7v8.3h9.7V313.9z"/>
							<linearGradient id="SVGID_13_" gradientUnits="userSpaceOnUse" x1="159.9318" y1="595.0999" x2="274.6442" y2="240.9878">
								<stop  offset="0" style="stop-color:#4F52FF"/>
								<stop  offset="1" style="stop-color:#4042E2"/>
							</linearGradient>
							<path class="st24" d="M237.2,335.7v8.8c0,1.1,3.3,3.3,4.4,3.3h5.3v-12.1H237.2z"/>
							<linearGradient id="SVGID_14_" gradientUnits="userSpaceOnUse" x1="168.4967" y1="597.8742" x2="283.2093" y2="243.7616">
								<stop  offset="0" style="stop-color:#4F52FF"/>
								<stop  offset="1" style="stop-color:#4042E2"/>
							</linearGradient>
							<path class="st25" d="M254.1,313.9h-2.4v16.9h12.1v-8.3C263.8,316.5,260.2,313.9,254.1,313.9z"/>
							<linearGradient id="SVGID_15_" gradientUnits="userSpaceOnUse" x1="174.115" y1="599.6944" x2="288.8273" y2="245.5825">
								<stop  offset="0" style="stop-color:#4F52FF"/>
								<stop  offset="1" style="stop-color:#4042E2"/>
							</linearGradient>
							<path class="st26" d="M251.7,347.8h11.5c1.1,0,0.6-2.2,0.6-3.3v-8.8h-12.1V347.8z"/>
						</g>
						<g>
							<linearGradient id="SVGID_16_" gradientUnits="userSpaceOnUse" x1="198.0932" y1="607.4616" x2="312.8053" y2="253.3503">
								<stop  offset="0" style="stop-color:#4F52FF"/>
								<stop  offset="1" style="stop-color:#4042E2"/>
							</linearGradient>
							<path class="st27" d="M295.3,313.9c0,0-11.7-0.6-12.1,8.7v8.3h12.1V313.9z"/>
							<linearGradient id="SVGID_17_" gradientUnits="userSpaceOnUse" x1="202.6633" y1="608.9429" x2="317.3756" y2="254.8311">
								<stop  offset="0" style="stop-color:#4F52FF"/>
								<stop  offset="1" style="stop-color:#4042E2"/>
							</linearGradient>
							<path class="st28" d="M283.2,335.7v8.8c0,1.1,4.2,3.3,5.3,3.3h6.8v-12.1H283.2z"/>
							<linearGradient id="SVGID_18_" gradientUnits="userSpaceOnUse" x1="210.1327" y1="611.362" x2="324.8451" y2="257.2497">
								<stop  offset="0" style="stop-color:#4F52FF"/>
								<stop  offset="1" style="stop-color:#4042E2"/>
							</linearGradient>
							<path class="st29" d="M301,313.9h-3.3v16.9h12.1v-8.3C309.8,316.5,307.1,313.9,301,313.9z"/>
							<linearGradient id="SVGID_19_" gradientUnits="userSpaceOnUse" x1="215.524" y1="613.1086" x2="330.2362" y2="258.9969">
								<stop  offset="0" style="stop-color:#4F52FF"/>
								<stop  offset="1" style="stop-color:#4042E2"/>
							</linearGradient>
							<path class="st30" d="M297.7,347.8h10.8c1.1,0,1.3-2.2,1.3-3.3v-8.8h-12.1V347.8z"/>
						</g>
					</g>
					<g>
						<g>
							<linearGradient id="SVGID_20_" gradientUnits="userSpaceOnUse" x1="90.1794" y1="572.5043" x2="204.8916" y2="218.3927">
								<stop  offset="0" style="stop-color:#4F52FF"/>
								<stop  offset="1" style="stop-color:#4042E2"/>
							</linearGradient>
							<path class="st31" d="M154.8,372c0,0-11.1,0-9.7,11.9v12.4h9.7V372z"/>
							<linearGradient id="SVGID_21_" gradientUnits="userSpaceOnUse" x1="94.4068" y1="573.8738" x2="209.1191" y2="219.7619">
								<stop  offset="0" style="stop-color:#4F52FF"/>
								<stop  offset="1" style="stop-color:#4042E2"/>
							</linearGradient>
							<path class="st32" d="M145.1,398.7v7.2c0,1.1,9.7,0.1,9.7,0.1v-7.3H145.1z"/>
							<linearGradient id="SVGID_22_" gradientUnits="userSpaceOnUse" x1="101.1352" y1="576.0536" x2="215.8475" y2="221.9416">
								<stop  offset="0" style="stop-color:#4F52FF"/>
								<stop  offset="1" style="stop-color:#4042E2"/>
							</linearGradient>
							<path class="st33" d="M160.3,372h-0.6v24.2h7.3v-12.4C166.9,377.8,166.4,372,160.3,372z"/>
							<linearGradient id="SVGID_23_" gradientUnits="userSpaceOnUse" x1="106.4503" y1="577.7754" x2="221.1628" y2="223.6628">
								<stop  offset="0" style="stop-color:#4F52FF"/>
								<stop  offset="1" style="stop-color:#4042E2"/>
							</linearGradient>
							<path class="st34" d="M159.7,405.9c0,0,7.3,1,7.3-0.1v-7.2h-7.3V405.9z"/>
						</g>
						<g>
							<linearGradient id="SVGID_24_" gradientUnits="userSpaceOnUse" x1="133.3419" y1="586.4865" x2="248.054" y2="232.3751">
								<stop  offset="0" style="stop-color:#4F52FF"/>
								<stop  offset="1" style="stop-color:#4042E2"/>
							</linearGradient>
							<path class="st35" d="M203.3,372h0.5c-6.1,0-12.6,5.7-12.6,11.9v12.4h12.1V372z"/>
							<linearGradient id="SVGID_25_" gradientUnits="userSpaceOnUse" x1="137.1384" y1="587.7165" x2="251.8506" y2="233.6049">
								<stop  offset="0" style="stop-color:#4F52FF"/>
								<stop  offset="1" style="stop-color:#4042E2"/>
							</linearGradient>
							<path class="st36" d="M191.2,398.7v7.2c0,1.1,12.1,0.1,12.1,0.1v-7.3H191.2z"/>
							<linearGradient id="SVGID_26_" gradientUnits="userSpaceOnUse" x1="144.9625" y1="590.2512" x2="259.6748" y2="236.1391">
								<stop  offset="0" style="stop-color:#4F52FF"/>
								<stop  offset="1" style="stop-color:#4042E2"/>
							</linearGradient>
							<path class="st37" d="M207.2,372h-1.5v24.2h12.1v-12.4C217.8,377.8,213.3,372,207.2,372z"/>
							<linearGradient id="SVGID_27_" gradientUnits="userSpaceOnUse" x1="150.2756" y1="591.9719" x2="264.9879" y2="237.8602">
								<stop  offset="0" style="stop-color:#4F52FF"/>
								<stop  offset="1" style="stop-color:#4042E2"/>
							</linearGradient>
							<path class="st38" d="M205.7,405.9c0,0,12.1,1,12.1-0.1v-7.2h-12.1V405.9z"/>
						</g>
						<g>
							<linearGradient id="SVGID_28_" gradientUnits="userSpaceOnUse" x1="173.6616" y1="599.5479" x2="288.3737" y2="245.4364">
								<stop  offset="0" style="stop-color:#4F52FF"/>
								<stop  offset="1" style="stop-color:#4042E2"/>
							</linearGradient>
							<path class="st39" d="M246.8,372c0,0-9.7-0.5-9.7,11.9v12.4h9.7V372z"/>
							<linearGradient id="SVGID_29_" gradientUnits="userSpaceOnUse" x1="177.6788" y1="600.8489" x2="292.3911" y2="246.737">
								<stop  offset="0" style="stop-color:#4F52FF"/>
								<stop  offset="1" style="stop-color:#4042E2"/>
							</linearGradient>
							<path class="st40" d="M237.2,398.7v7.2c0,1.1,9.7,0.1,9.7,0.1v-7.3H237.2z"/>
							<linearGradient id="SVGID_30_" gradientUnits="userSpaceOnUse" x1="186.5985" y1="603.7388" x2="301.3111" y2="249.626">
								<stop  offset="0" style="stop-color:#4F52FF"/>
								<stop  offset="1" style="stop-color:#4042E2"/>
							</linearGradient>
							<path class="st41" d="M254.1,372h-2.4v24.2h12.1v-12.4C263.8,377.8,260.2,372,254.1,372z"/>
							<linearGradient id="SVGID_31_" gradientUnits="userSpaceOnUse" x1="192.0338" y1="605.4991" x2="306.746" y2="251.3873">
								<stop  offset="0" style="stop-color:#4F52FF"/>
								<stop  offset="1" style="stop-color:#4042E2"/>
							</linearGradient>
							<path class="st42" d="M251.7,405.9h11.5c1.1,0,0.6,1,0.6-0.1v-7.2h-12.1V405.9z"/>
						</g>
						<g>
							<linearGradient id="SVGID_32_" gradientUnits="userSpaceOnUse" x1="216.3458" y1="613.3751" x2="331.0581" y2="259.2629">
								<stop  offset="0" style="stop-color:#4F52FF"/>
								<stop  offset="1" style="stop-color:#4042E2"/>
							</linearGradient>
							<path class="st43" d="M295.3,372c0,0-13.1,0-12.1,11.9v12.4h12.1V372z"/>
							<linearGradient id="SVGID_33_" gradientUnits="userSpaceOnUse" x1="220.4105" y1="614.6913" x2="335.1227" y2="260.5797">
								<stop  offset="0" style="stop-color:#4F52FF"/>
								<stop  offset="1" style="stop-color:#4042E2"/>
							</linearGradient>
							<path class="st44" d="M283.2,398.7v7.2c0,1.1,12.1,0.1,12.1,0.1v-7.3H283.2z"/>
							<linearGradient id="SVGID_34_" gradientUnits="userSpaceOnUse" x1="228.2344" y1="617.2266" x2="342.9467" y2="263.1147">
								<stop  offset="0" style="stop-color:#4F52FF"/>
								<stop  offset="1" style="stop-color:#4042E2"/>
							</linearGradient>
							<path class="st45" d="M301,372h-3.3v24.2h12.1v-12.4C309.8,377.8,307.1,372,301,372z"/>
							<linearGradient id="SVGID_35_" gradientUnits="userSpaceOnUse" x1="233.5474" y1="618.9479" x2="348.2596" y2="264.8364">
								<stop  offset="0" style="stop-color:#4F52FF"/>
								<stop  offset="1" style="stop-color:#4042E2"/>
							</linearGradient>
							<path class="st46" d="M297.7,405.9c0,0,12.1,1,12.1-0.1v-7.2h-12.1V405.9z"/>
						</g>
					</g>
					<g>
						<g>
							<linearGradient id="SVGID_36_" gradientUnits="userSpaceOnUse" x1="107.8758" y1="578.2371" x2="222.588" y2="224.1255">
								<stop  offset="0" style="stop-color:#4F52FF"/>
								<stop  offset="1" style="stop-color:#4042E2"/>
							</linearGradient>
							<path class="st47" d="M154.8,432.6c0,0-11.7,0-9.7,12.6v11.6h9.7V432.6z"/>
							<linearGradient id="SVGID_37_" gradientUnits="userSpaceOnUse" x1="112.8638" y1="579.8524" x2="227.576" y2="225.7405">
								<stop  offset="0" style="stop-color:#4F52FF"/>
								<stop  offset="1" style="stop-color:#4042E2"/>
							</linearGradient>
							<path class="st48" d="M145.1,461.6v5.5c0,1.1,1.5,1.8,2.6,1.8h7.1v-7.3H145.1z"/>
							<linearGradient id="SVGID_38_" gradientUnits="userSpaceOnUse" x1="118.8822" y1="581.8025" x2="233.5946" y2="227.6903">
								<stop  offset="0" style="stop-color:#4F52FF"/>
								<stop  offset="1" style="stop-color:#4042E2"/>
							</linearGradient>
							<path class="st49" d="M160.3,432.6h-0.6v24.2h7.3v-11.6C166.9,439,166.4,432.6,160.3,432.6z"/>
							<linearGradient id="SVGID_39_" gradientUnits="userSpaceOnUse" x1="124.8158" y1="583.7247" x2="239.5282" y2="229.6122">
								<stop  offset="0" style="stop-color:#4F52FF"/>
								<stop  offset="1" style="stop-color:#4042E2"/>
							</linearGradient>
							<path class="st50" d="M159.7,468.9h6.3c1.1,0,1-0.7,1-1.8v-5.5h-7.3V468.9z"/>
						</g>
						<g>
							<linearGradient id="SVGID_40_" gradientUnits="userSpaceOnUse" x1="151.1906" y1="592.2687" x2="265.9027" y2="238.1573">
								<stop  offset="0" style="stop-color:#4F52FF"/>
								<stop  offset="1" style="stop-color:#4042E2"/>
							</linearGradient>
							<path class="st51" d="M203.3,432.6h0.5c-6.1,0-12.6,6.5-12.6,12.6v11.6h12.1V432.6z"/>
							<linearGradient id="SVGID_41_" gradientUnits="userSpaceOnUse" x1="155.5953" y1="593.6954" x2="270.3077" y2="239.5831">
								<stop  offset="0" style="stop-color:#4F52FF"/>
								<stop  offset="1" style="stop-color:#4042E2"/>
							</linearGradient>
							<path class="st52" d="M191.2,461.6v5.5c0,1.1,2.4,1.8,3.5,1.8h8.6v-7.3H191.2z"/>
							<linearGradient id="SVGID_42_" gradientUnits="userSpaceOnUse" x1="162.7095" y1="596" x2="277.4219" y2="241.8878">
								<stop  offset="0" style="stop-color:#4F52FF"/>
								<stop  offset="1" style="stop-color:#4042E2"/>
							</linearGradient>
							<path class="st53" d="M207.2,432.6h-1.5v24.2h12.1v-11.6C217.8,439,213.3,432.6,207.2,432.6z"/>
							<linearGradient id="SVGID_43_" gradientUnits="userSpaceOnUse" x1="168.56" y1="597.8956" x2="283.2722" y2="243.7838">
								<stop  offset="0" style="stop-color:#4F52FF"/>
								<stop  offset="1" style="stop-color:#4042E2"/>
							</linearGradient>
							<path class="st54" d="M205.7,468.9h10.6c1.1,0,1.5-0.7,1.5-1.8v-5.5h-12.1V468.9z"/>
						</g>
						<g>
							<linearGradient id="SVGID_44_" gradientUnits="userSpaceOnUse" x1="191.4639" y1="605.3148" x2="306.1761" y2="251.2032">
								<stop  offset="0" style="stop-color:#4F52FF"/>
								<stop  offset="1" style="stop-color:#4042E2"/>
							</linearGradient>
							<path class="st55" d="M246.8,432.6c0,0-9.7-0.6-9.7,12.6v11.6h9.7V432.6z"/>
							<linearGradient id="SVGID_45_" gradientUnits="userSpaceOnUse" x1="196.1356" y1="606.8281" x2="310.848" y2="252.7159">
								<stop  offset="0" style="stop-color:#4F52FF"/>
								<stop  offset="1" style="stop-color:#4042E2"/>
							</linearGradient>
							<path class="st56" d="M237.2,461.6v7.3c0,1.1,9.7,0,9.7,0v-7.3H237.2z"/>
							<linearGradient id="SVGID_46_" gradientUnits="userSpaceOnUse" x1="204.3455" y1="609.4878" x2="319.0579" y2="255.3755">
								<stop  offset="0" style="stop-color:#4F52FF"/>
								<stop  offset="1" style="stop-color:#4042E2"/>
							</linearGradient>
							<path class="st57" d="M254.1,432.6h-2.4v24.2h12.1v-11.6C263.8,439,260.2,432.6,254.1,432.6z"/>
							<linearGradient id="SVGID_47_" gradientUnits="userSpaceOnUse" x1="210.3779" y1="611.4421" x2="325.0901" y2="257.3303">
								<stop  offset="0" style="stop-color:#4F52FF"/>
								<stop  offset="1" style="stop-color:#4042E2"/>
							</linearGradient>
							<path class="st58" d="M251.7,468.9h11.5c1.1,0,0.6-0.7,0.6-1.8v-5.5h-12.1V468.9z"/>
						</g>
						<g>
							<linearGradient id="SVGID_48_" gradientUnits="userSpaceOnUse" x1="234.1343" y1="619.1377" x2="348.8467" y2="265.0255">
								<stop  offset="0" style="stop-color:#4F52FF"/>
								<stop  offset="1" style="stop-color:#4042E2"/>
							</linearGradient>
							<path class="st59" d="M295.3,432.6c0,0-13.2,0-12.1,12.6v11.6h12.1V432.6z"/>
							<linearGradient id="SVGID_49_" gradientUnits="userSpaceOnUse" x1="238.8673" y1="620.6707" x2="353.5797" y2="266.5583">
								<stop  offset="0" style="stop-color:#4F52FF"/>
								<stop  offset="1" style="stop-color:#4042E2"/>
							</linearGradient>
							<path class="st60" d="M283.2,461.6v5.5c0,1.1,4.2,1.8,5.3,1.8h6.8v-7.3H283.2z"/>
							<linearGradient id="SVGID_50_" gradientUnits="userSpaceOnUse" x1="245.9814" y1="622.9755" x2="360.6941" y2="268.8624">
								<stop  offset="0" style="stop-color:#4F52FF"/>
								<stop  offset="1" style="stop-color:#4042E2"/>
							</linearGradient>
							<path class="st61" d="M301,432.6h-3.3v24.2h12.1v-11.6C309.8,439,307.6,434.3,301,432.6z"/>
							<linearGradient id="SVGID_51_" gradientUnits="userSpaceOnUse" x1="251.9411" y1="624.9059" x2="366.6533" y2="270.7943">
								<stop  offset="0" style="stop-color:#4F52FF"/>
								<stop  offset="1" style="stop-color:#4042E2"/>
							</linearGradient>
							<path class="st62" d="M297.7,468.9h11.3c1.1,0,0.8-0.7,0.8-1.8v-5.5h-12.1V468.9z"/>
						</g>
					</g>
				</g>
			</g>
		</g>
		<g>
			<g>
				<g>
					<path class="st4" d="M671,530.9c-2.7-7.6-4.4-15.3-4.1-23.6c0.7-20.8,14.8-38.5,25.4-55.4c9.8-15.5,18.4-39.2-9.1-39.9
						c-22-0.6-49.9,18.4-55.2,40.7c-6.3,26.4,3.2,61.6-14.9,84.3c-25.2,31.7-40,22.3-46.1,79.7c-2.6,24.5,9.6,39.5,24.3,48.6
						c23.3,14.4,53.1,12.7,74.7-4.1c19.1-14.9,31.9-37.9,31-62.4C696.2,574.1,679,553.5,671,530.9z"/>
					<path class="st10" d="M633.2,713.7c0,0,0.1,0,0.1,0c0.5-0.1,0.8-0.5,0.7-0.9c-17.6-125.2-2.9-197.2,12.5-235.5
						c16.7-41.4,37.9-53.4,38.1-53.5c0.4-0.2,0.5-0.7,0.3-1.1c-0.2-0.4-0.7-0.5-1.1-0.3c-0.9,0.5-21.8,12.3-38.7,54.1
						c-9.9,24.5-16.4,54.3-19.2,88.5c-3.5,42.7-1.3,92.5,6.5,148C632.4,713.4,632.8,713.7,633.2,713.7z"/>
				</g>
			</g>
			<g>
				<path class="st5" d="M738,635.3c4.7-18.1,0.3-39.8-1-59.6c-0.7-10.5-0.4-20.7,2.3-30.9c2.7-10.1,8.7-20.7,5.4-31.4
					c-6.8-21.6-29.1-14.5-43-0.2c-16.1,16.5-23.1,45.6-30.9,67.7c-4.7,13.3-11.1,26.8-14.3,40.6c-5.3,22.8-1.8,39.4,8.1,51.4
					c9.5,11.5,25.4,15.4,39.1,9.5C716.2,677,730.4,664.4,738,635.3z"/>
				<path class="st4" d="M680.2,715.4C680.3,715.4,680.3,715.4,680.2,715.4c0.5,0,0.9-0.4,0.8-0.9c0-0.3-1.7-28.7,2.3-67.2
					c3.7-35.5,13-87.2,36.7-131.6c0.2-0.4,0.1-0.9-0.3-1.1c-0.4-0.2-0.9-0.1-1.1,0.3c-23.8,44.6-33.2,96.6-36.8,132.2
					c-4,38.7-2.3,67.2-2.3,67.4C679.4,715,679.8,715.4,680.2,715.4z"/>
			</g>
		</g>
		<g>
			<g>
				<linearGradient id="SVGID_52_" gradientUnits="userSpaceOnUse" x1="192.7454" y1="535.83" x2="193.5911" y2="653.3737">
					<stop  offset="0" style="stop-color:#09005D"/>
					<stop  offset="1" style="stop-color:#1A0F91"/>
				</linearGradient>
				<ellipse class="st63" cx="194.2" cy="735" rx="90.1" ry="10.9"/>
				<linearGradient id="SVGID_53_" gradientUnits="userSpaceOnUse" x1="192.8165" y1="535.8295" x2="193.6622" y2="653.3731">
					<stop  offset="0" style="stop-color:#09005D"/>
					<stop  offset="1" style="stop-color:#1A0F91"/>
				</linearGradient>
				<rect x="104.1" y="714.9" class="st64" width="180.3" height="20.5"/>
				<linearGradient id="SVGID_54_" gradientUnits="userSpaceOnUse" x1="84.4215" y1="710.9" x2="303.9349" y2="710.9">
					<stop  offset="0" style="stop-color:#FF928E"/>
					<stop  offset="1" style="stop-color:#FE7062"/>
				</linearGradient>
				<ellipse class="st65" cx="194.2" cy="710.9" rx="109.8" ry="13.2"/>
				<linearGradient id="SVGID_55_" gradientUnits="userSpaceOnUse" x1="84.4215" y1="706.488" x2="303.9349" y2="706.488">
					<stop  offset="0" style="stop-color:#FF928E"/>
					<stop  offset="1" style="stop-color:#FE7062"/>
				</linearGradient>
				<rect x="84.4" y="701.6" class="st66" width="219.5" height="9.7"/>
				<linearGradient id="SVGID_56_" gradientUnits="userSpaceOnUse" x1="392.3513" y1="623.7816" x2="487.0627" y2="586.5736">
					<stop  offset="0" style="stop-color:#FEBBBA"/>
					<stop  offset="1" style="stop-color:#FF928E"/>
				</linearGradient>
				<ellipse class="st67" cx="194.2" cy="701.6" rx="109.8" ry="13.2"/>
				<linearGradient id="SVGID_57_" gradientUnits="userSpaceOnUse" x1="93.299" y1="701.6353" x2="295.0575" y2="701.6353">
					<stop  offset="0" style="stop-color:#FF928E"/>
					<stop  offset="1" style="stop-color:#FE7062"/>
				</linearGradient>
				<path class="st68" d="M194.2,709.8c-26.6,0-52.3-1.2-72.1-3.3c-15.9-1.7-24.3-3.6-28.7-4.9c4.4-1.4,12.8-3.2,28.7-4.9
					c19.9-2.1,45.5-3.3,72.1-3.3c26.6,0,52.3,1.2,72.1,3.3c15.9,1.7,24.3,3.6,28.7,4.9c-4.4,1.4-12.8,3.2-28.7,4.9
					C246.4,708.7,220.8,709.8,194.2,709.8z"/>
			</g>
			<g>
				<g>
					
						<linearGradient id="SVGID_58_" gradientUnits="userSpaceOnUse" x1="14.341" y1="998.9365" x2="2.0232" y2="1049.0875" gradientTransform="matrix(0.9886 -0.1508 0.1508 0.9886 74.5806 -390.822)">
						<stop  offset="0" style="stop-color:#020039"/>
						<stop  offset="1" style="stop-color:#090056"/>
					</linearGradient>
					<path class="st69" d="M216.8,674.9c0,0-5.1,6-6.1,15.1c-0.2,2.1,1.3,4.1,3.4,4.3l34.4,4.4c1.6,0.2,2.5-1.8,1.3-2.9
						c-5.9-5.4-17.6-15.5-26.4-20.1L216.8,674.9z"/>
					<linearGradient id="SVGID_59_" gradientUnits="userSpaceOnUse" x1="240.3652" y1="515.4839" x2="218.3788" y2="700.6786">
						<stop  offset="0" style="stop-color:#020039"/>
						<stop  offset="1" style="stop-color:#090056"/>
					</linearGradient>
					<path class="st70" d="M207.5,502.2c13,9.3,90.4,79.7,70.5,94.9c-18.6,14.1-51.2,84.3-51.2,84.3l-9.6-4c0,0,6-83.1,38.7-90.6
						c-7-4.8-71.2-41.8-67.6-51.7L207.5,502.2z"/>
				</g>
				<g>
					<g>
						
							<linearGradient id="SVGID_60_" gradientUnits="userSpaceOnUse" x1="10220.5518" y1="2009.6797" x2="10265.459" y2="2009.6797" gradientTransform="matrix(0.9929 0.1189 -0.1189 0.9929 -9785.9863 -2509.2026)">
							<stop  offset="0" style="stop-color:#020039"/>
							<stop  offset="1" style="stop-color:#090056"/>
						</linearGradient>
						<path class="st71" d="M129.1,692.6c-2.3-0.3-5.8,14.8-6.9,16.1c4.1,3.6,6.8,3.1,11.1,3c3.8,0,15.8,1.2,19.8,0.7
							c8.6-1.1,9.6-3,14.5-5.2c-4.4-4.8-11.5-1.7-16.8-3.7c-5.4-2-9.8-7.5-15.1-10.2C135.7,693.3,129.1,692.6,129.1,692.6z"/>
					</g>
					<linearGradient id="SVGID_61_" gradientUnits="userSpaceOnUse" x1="182.9994" y1="508.6735" x2="161.013" y2="693.8681">
						<stop  offset="0" style="stop-color:#020039"/>
						<stop  offset="1" style="stop-color:#090056"/>
					</linearGradient>
					<path class="st72" d="M184.9,490.3c0,0-28.8,9.4-30.4,111.2c-24,9.7-25.3,91-25.3,91c1.2,5,4.2,4,8.5,5.4
						c0,0,19.1-68.1,35.5-84.4c7.7-7.6,35.3-97.8,44-110.4C204.1,469.8,184.9,490.3,184.9,490.3z"/>
				</g>
				<linearGradient id="SVGID_62_" gradientUnits="userSpaceOnUse" x1="136.5025" y1="512.9088" x2="148.7642" y2="472.3183">
					<stop  offset="0" style="stop-color:#FEBBBA"/>
					<stop  offset="1" style="stop-color:#FF928E"/>
				</linearGradient>
				<path class="st73" d="M134.2,495.5c0.6-3.9-2.3-9.7-3.7-12.3c6.1-17.7,29.4-40.5,51.9-45.9c0-7.5-10.7-12.6-11.6-17.8
					c-15.8,10.3-36.3,15.5-46.6,63.2c-4.7,4.9-5.4,13.7-4.1,15.8C120.8,499.4,133.4,500.6,134.2,495.5z"/>
				<g>
					<linearGradient id="SVGID_63_" gradientUnits="userSpaceOnUse" x1="405.9974" y1="522.8195" x2="197.076" y2="407.675">
						<stop  offset="0" style="stop-color:#020039"/>
						<stop  offset="1" style="stop-color:#090056"/>
					</linearGradient>
					<path class="st74" d="M259.5,422.2l-15.9,24.4c7.4,14.4,16.4,39.7,77.6,8.6c-5.2-5.3-7.8-2.4-7.2-7.7
						C267.1,464,259.5,422.2,259.5,422.2z"/>
					<linearGradient id="SVGID_64_" gradientUnits="userSpaceOnUse" x1="330.0987" y1="437.0266" x2="308.112" y2="465.7783">
						<stop  offset="0" style="stop-color:#FEBBBA"/>
						<stop  offset="1" style="stop-color:#FF928E"/>
					</linearGradient>
					<path class="st75" d="M315,451.7c0,0-4.4-7.6,1.9-13.5c0,0,2-2.3,4.3,1.1c0,0,6.8-6.2,8.6-3.7c1.9,2.5,6.8,8.6,2,15.6
						C326.9,458.3,317.1,455.2,315,451.7z"/>
					<linearGradient id="SVGID_65_" gradientUnits="userSpaceOnUse" x1="317.9625" y1="443.6462" x2="324.5862" y2="443.6462">
						<stop  offset="0" style="stop-color:#FEBBBA"/>
						<stop  offset="1" style="stop-color:#FF928E"/>
					</linearGradient>
					<path class="st76" d="M321.6,447.6c-0.7,0-1.4-0.1-2-0.5c-0.6-0.4-1.4-1.1-1.6-2.7c-0.1-0.5,0.3-1,0.8-1.1
						c0.5-0.1,1,0.3,1.1,0.8c0.1,1,0.6,1.2,0.7,1.3c0.5,0.3,1.3,0.3,1.9,0.2l-1.5-4.7c-0.2-0.5,0.1-1,0.6-1.2c0.5-0.2,1,0.1,1.2,0.6
						l1.8,5.6c0.1,0.5-0.1,1-0.6,1.2C323.8,447.2,322.8,447.6,321.6,447.6z"/>
				</g>
				<linearGradient id="SVGID_66_" gradientUnits="userSpaceOnUse" x1="202.6991" y1="562.8751" x2="223.84" y2="408.1233">
					<stop  offset="0" style="stop-color:#020039"/>
					<stop  offset="1" style="stop-color:#090056"/>
				</linearGradient>
				<path class="st77" d="M204.4,407.3c-11.3,0.6-21.2,32-13.8,30.1c-6.6,24.7-13.2,47.2-20.4,70.7c0,0,23.1,13.3,43.6,1.7l39.6-61
					c4-5.7,6.6-12.3,7.7-19.2v0c0.9-5.7-2.4-11.2-7.9-13.1C241.4,412.5,220.9,406.4,204.4,407.3z"/>
				<linearGradient id="SVGID_67_" gradientUnits="userSpaceOnUse" x1="225.7439" y1="426.2279" x2="228.7206" y2="417.7388">
					<stop  offset="0" style="stop-color:#FEBBBA"/>
					<stop  offset="1" style="stop-color:#FF928E"/>
				</linearGradient>
				<path class="st78" d="M229.5,393.1l-9.7,19c-0.6,1.2-0.4,2.6,0.5,3.5c2.4,2.6,7.9,6.9,17.6,3.8c1.1-0.3,1.8-1.3,2-2.4l2.5-17.3
					L229.5,393.1z"/>
				<g>
					<linearGradient id="SVGID_68_" gradientUnits="userSpaceOnUse" x1="255.4809" y1="407.3052" x2="230.1118" y2="374.6072">
						<stop  offset="0" style="stop-color:#FEBBBA"/>
						<stop  offset="1" style="stop-color:#FF928E"/>
					</linearGradient>
					<path class="st79" d="M245.7,371c0,0,5.7,13.1,6.1,20c0.4,6.9,1.9,11.3-6.1,12.7c-7.9,1.4-14.6-2.6-18.3-9.4
						c0,0-5.1-10.4-4.4-14.9C224.5,369,245.7,371,245.7,371z"/>
					<linearGradient id="SVGID_69_" gradientUnits="userSpaceOnUse" x1="242.8536" y1="377.2791" x2="210.264" y2="402.2151">
						<stop  offset="0" style="stop-color:#FEBBBA"/>
						<stop  offset="1" style="stop-color:#FF928E"/>
					</linearGradient>
					<path class="st80" d="M230.4,390.6c0,0-2.2-8.4-5.9-6c-3.8,2.3,1.9,9.4,5,9.7L230.4,390.6z"/>
					<linearGradient id="SVGID_70_" gradientUnits="userSpaceOnUse" x1="217.5789" y1="360.3343" x2="254.7344" y2="408.1718">
						<stop  offset="0" style="stop-color:#020039"/>
						<stop  offset="1" style="stop-color:#090056"/>
					</linearGradient>
					<path class="st81" d="M247.3,375c-3.6-30.8-55.5-10.7-25.8,18.3l5.3,5.7l3.1-6.4C227.9,380.6,236.6,365.5,247.3,375z"/>
					<linearGradient id="SVGID_71_" gradientUnits="userSpaceOnUse" x1="235.6364" y1="174.6174" x2="230.5626" y2="253.2615">
						<stop  offset="0" style="stop-color:#FF928E"/>
						<stop  offset="1" style="stop-color:#FE7062"/>
					</linearGradient>
					<circle class="st82" cx="222.2" cy="382.8" r="3.5"/>
					<linearGradient id="SVGID_72_" gradientUnits="userSpaceOnUse" x1="246.8977" y1="175.3439" x2="241.8239" y2="253.9882">
						<stop  offset="0" style="stop-color:#FF928E"/>
						<stop  offset="1" style="stop-color:#FE7062"/>
					</linearGradient>
					<circle class="st83" cx="234.4" cy="369" r="3.5"/>
				</g>
				<linearGradient id="SVGID_73_" gradientUnits="userSpaceOnUse" x1="148.6819" y1="555.4957" x2="169.8227" y2="400.7442">
					<stop  offset="0" style="stop-color:#020039"/>
					<stop  offset="1" style="stop-color:#090056"/>
				</linearGradient>
				<path class="st84" d="M189.6,438.1l15.5-29.7c0.3-0.6-0.2-1.3-0.9-1.2c-46.9,8.3-73.1,37.1-82,76.5c1.9,1.2,4.7,1.2,8.2,0
					C150.6,459.9,170.7,437.8,189.6,438.1z"/>
				<linearGradient id="SVGID_74_" gradientUnits="userSpaceOnUse" x1="272.479" y1="311.2533" x2="241.1904" y2="400.891">
					<stop  offset="0" style="stop-color:#FF928E"/>
					<stop  offset="1" style="stop-color:#FE7062"/>
				</linearGradient>
				<circle class="st85" cx="168.4" cy="609.4" r="4.7"/>
				<linearGradient id="SVGID_75_" gradientUnits="userSpaceOnUse" x1="252.4624" y1="304.2669" x2="221.1738" y2="393.9044">
					<stop  offset="0" style="stop-color:#FF928E"/>
					<stop  offset="1" style="stop-color:#FE7062"/>
				</linearGradient>
				<circle class="st86" cx="163.7" cy="558.7" r="4.7"/>
				<linearGradient id="SVGID_76_" gradientUnits="userSpaceOnUse" x1="312.0448" y1="325.0653" x2="280.7562" y2="414.7029">
					<stop  offset="0" style="stop-color:#FF928E"/>
					<stop  offset="1" style="stop-color:#FE7062"/>
				</linearGradient>
				<circle class="st87" cx="230.5" cy="558.7" r="4.7"/>
				<linearGradient id="SVGID_77_" gradientUnits="userSpaceOnUse" x1="277.0779" y1="312.8589" x2="245.7892" y2="402.4966">
					<stop  offset="0" style="stop-color:#FF928E"/>
					<stop  offset="1" style="stop-color:#FE7062"/>
				</linearGradient>
				<circle class="st88" cx="207.9" cy="511.2" r="4.7"/>
				<linearGradient id="SVGID_78_" gradientUnits="userSpaceOnUse" x1="248.1804" y1="302.7722" x2="216.8917" y2="392.41">
					<stop  offset="0" style="stop-color:#FF928E"/>
					<stop  offset="1" style="stop-color:#FE7062"/>
				</linearGradient>
				<circle class="st89" cx="177.1" cy="506.4" r="4.7"/>
				<linearGradient id="SVGID_79_" gradientUnits="userSpaceOnUse" x1="287.4556" y1="177.9603" x2="282.3817" y2="256.6047">
					<stop  offset="0" style="stop-color:#FF928E"/>
					<stop  offset="1" style="stop-color:#FE7062"/>
				</linearGradient>
				<circle class="st90" cx="268.9" cy="465.6" r="4.7"/>
				<linearGradient id="SVGID_80_" gradientUnits="userSpaceOnUse" x1="362.8104" y1="342.7853" x2="331.5218" y2="432.4229">
					<stop  offset="0" style="stop-color:#FF928E"/>
					<stop  offset="1" style="stop-color:#FE7062"/>
				</linearGradient>
				<circle class="st91" cx="276.6" cy="589.7" r="4.7"/>
				<linearGradient id="SVGID_81_" gradientUnits="userSpaceOnUse" x1="269.0461" y1="176.773" x2="263.9722" y2="255.4171">
					<stop  offset="0" style="stop-color:#FF928E"/>
					<stop  offset="1" style="stop-color:#FE7062"/>
				</linearGradient>
				<circle class="st92" cx="253.1" cy="424.1" r="4.7"/>
				<linearGradient id="SVGID_82_" gradientUnits="userSpaceOnUse" x1="220.5241" y1="173.6424" x2="215.4502" y2="252.2866">
					<stop  offset="0" style="stop-color:#FF928E"/>
					<stop  offset="1" style="stop-color:#FE7062"/>
				</linearGradient>
				<circle class="st93" cx="205.1" cy="411.9" r="4.7"/>
				<linearGradient id="SVGID_83_" gradientUnits="userSpaceOnUse" x1="244.1848" y1="175.1694" x2="239.111" y2="253.8136">
					<stop  offset="0" style="stop-color:#FF928E"/>
					<stop  offset="1" style="stop-color:#FE7062"/>
				</linearGradient>
				<circle class="st94" cx="226.8" cy="444.4" r="4.7"/>
				<linearGradient id="SVGID_84_" gradientUnits="userSpaceOnUse" x1="167.0171" y1="170.1903" x2="161.9432" y2="248.8345">
					<stop  offset="0" style="stop-color:#FF928E"/>
					<stop  offset="1" style="stop-color:#FE7062"/>
				</linearGradient>
				<circle class="st95" cx="149.6" cy="439.7" r="4.7"/>
				<linearGradient id="SVGID_85_" gradientUnits="userSpaceOnUse" x1="147.5947" y1="168.9367" x2="142.5209" y2="247.5811">
					<stop  offset="0" style="stop-color:#FF928E"/>
					<stop  offset="1" style="stop-color:#FE7062"/>
				</linearGradient>
				<circle class="st96" cx="127.5" cy="481.1" r="4.2"/>
				<linearGradient id="SVGID_86_" gradientUnits="userSpaceOnUse" x1="327.8" y1="180.5626" x2="322.7262" y2="259.207">
					<stop  offset="0" style="stop-color:#FF928E"/>
					<stop  offset="1" style="stop-color:#FE7062"/>
				</linearGradient>
				<circle class="st97" cx="310.4" cy="450.4" r="4.2"/>
				<linearGradient id="SVGID_87_" gradientUnits="userSpaceOnUse" x1="345.6701" y1="336.802" x2="314.3815" y2="426.4395">
					<stop  offset="0" style="stop-color:#FF928E"/>
					<stop  offset="1" style="stop-color:#FE7062"/>
				</linearGradient>
				<circle class="st98" cx="226.8" cy="677.3" r="4.7"/>
				<linearGradient id="SVGID_88_" gradientUnits="userSpaceOnUse" x1="270.4964" y1="310.561" x2="239.2077" y2="400.1987">
					<stop  offset="0" style="stop-color:#FF928E"/>
					<stop  offset="1" style="stop-color:#FE7062"/>
				</linearGradient>
				<circle class="st99" cx="136.7" cy="694" r="4.7"/>
			</g>
		</g>
		<g>
			<linearGradient id="SVGID_89_" gradientUnits="userSpaceOnUse" x1="413.8116" y1="165.3509" x2="440.6495" y2="165.3509">
				<stop  offset="0" style="stop-color:#09005D"/>
				<stop  offset="1" style="stop-color:#1A0F91"/>
			</linearGradient>
			<rect x="413.8" y="145.2" class="st100" width="26.8" height="40.3"/>
			
				<linearGradient id="SVGID_90_" gradientUnits="userSpaceOnUse" x1="48.5645" y1="1108.1409" x2="74.7963" y2="1108.1409" gradientTransform="matrix(0.9853 -0.1706 0.1706 0.9853 106.9334 -523.5826)">
				<stop  offset="0" style="stop-color:#09005D"/>
				<stop  offset="1" style="stop-color:#1A0F91"/>
			</linearGradient>
			<polygon class="st101" points="352.4,548 344.7,564.8 366.4,566.6 368.3,547.3 			"/>
			<linearGradient id="SVGID_91_" gradientUnits="userSpaceOnUse" x1="473.5137" y1="532.4135" x2="499.7442" y2="532.4135">
				<stop  offset="0" style="stop-color:#09005D"/>
				<stop  offset="1" style="stop-color:#1A0F91"/>
			</linearGradient>
			<polygon class="st102" points="484,522 473.5,537.3 494.6,542.8 499.7,524 			"/>
			
				<linearGradient id="SVGID_92_" gradientUnits="userSpaceOnUse" x1="101.673" y1="960.7697" x2="169.8345" y2="960.7697" gradientTransform="matrix(0.9853 -0.1706 0.1706 0.9853 106.9334 -523.5826)">
				<stop  offset="0" style="stop-color:#09005D"/>
				<stop  offset="1" style="stop-color:#1A0F91"/>
			</linearGradient>
			<path class="st103" d="M379.8,456.5l0.8-112.9c0-4.6,4.2-8,8.7-7.1l40.2,7.6l-20.6,121.6L379.8,456.5z"/>
			
				<linearGradient id="SVGID_93_" gradientUnits="userSpaceOnUse" x1="-2888.2659" y1="2624.3816" x2="-2824.5188" y2="2624.3816" gradientTransform="matrix(0.3593 -0.9332 0.9332 0.3593 -922.3741 -3227.3074)">
				<stop  offset="0" style="stop-color:#09005D"/>
				<stop  offset="1" style="stop-color:#1A0F91"/>
			</linearGradient>
			<polygon class="st104" points="538.7,430.1 429.5,360.2 467.3,334.3 564.8,419.1 			"/>
			<linearGradient id="SVGID_94_" gradientUnits="userSpaceOnUse" x1="405.4248" y1="289.476" x2="444.0042" y2="289.476">
				<stop  offset="0" style="stop-color:#09005D"/>
				<stop  offset="1" style="stop-color:#1A0F91"/>
			</linearGradient>
			<rect x="405.4" y="249.2" class="st105" width="38.6" height="80.5"/>
			<linearGradient id="SVGID_95_" gradientUnits="userSpaceOnUse" x1="400.3927" y1="189.6727" x2="450.7137" y2="189.6727">
				<stop  offset="0" style="stop-color:#09005D"/>
				<stop  offset="1" style="stop-color:#1A0F91"/>
			</linearGradient>
			<rect x="400.4" y="182.1" class="st106" width="50.3" height="15.1"/>
			<linearGradient id="SVGID_96_" gradientUnits="userSpaceOnUse" x1="538.7032" y1="147.8978" x2="517.9851" y2="165.2334">
				<stop  offset="0" style="stop-color:#FF928E"/>
				<stop  offset="1" style="stop-color:#FE7062"/>
			</linearGradient>
			<path class="st107" d="M470.8,182.1h-21.6l-1.8,15.1h-44.1l-1.8-15.1h-19.9c-8.5,0-16.6,7.2-16.6,15.7l13.4,51.8
				c1.8,7.1,4.1,14.1,6.8,20.9l20.1,50.6h48.3l21.3-46.3c6.1-13.2,9.2-27.6,9.2-42.2v-37.1C484.3,188.2,478.2,182.1,470.8,182.1z"/>
			<g>
				
					<linearGradient id="SVGID_97_" gradientUnits="userSpaceOnUse" x1="-4719.3105" y1="-1257.4128" x2="-4649.229" y2="-1257.4128" gradientTransform="matrix(-0.6596 0.8894 -0.8032 -0.5957 -3749.7739 3644.5571)">
					<stop  offset="0" style="stop-color:#09005D"/>
					<stop  offset="1" style="stop-color:#1A0F91"/>
				</linearGradient>
				<polygon class="st108" points="316.6,251 359.7,192.9 383.3,203.8 329.4,260.5 				"/>
				
					<linearGradient id="SVGID_98_" gradientUnits="userSpaceOnUse" x1="-2047.1924" y1="-3647.6592" x2="-1985.7113" y2="-3647.6592" gradientTransform="matrix(7.550000e-02 0.982 -0.9138 7.030000e-02 -2861.8904 2539.8777)">
					<stop  offset="0" style="stop-color:#09005D"/>
					<stop  offset="1" style="stop-color:#1A0F91"/>
				</linearGradient>
				<path class="st109" d="M313.9,331.1l-4.4-57.5l14.5-1.1l4.5,58.1c0.1,1.3-0.9,2.4-2.2,2.5l-9.6,0.5
					C315.3,333.6,314.1,332.6,313.9,331.1z"/>
				<linearGradient id="SVGID_99_" gradientUnits="userSpaceOnUse" x1="317.3506" y1="230.4539" x2="371.7777" y2="230.4539">
					<stop  offset="0" style="stop-color:#FF928E"/>
					<stop  offset="1" style="stop-color:#FE7062"/>
				</linearGradient>
				<polygon class="st110" points="366.3,197.2 317.4,260.5 319.9,263.7 371.8,203.3 				"/>
				
					<linearGradient id="SVGID_100_" gradientUnits="userSpaceOnUse" x1="-879.334" y1="-2255.4795" x2="-835.6602" y2="-2255.4795" gradientTransform="matrix(0.5205 0.8539 -0.8539 0.5205 -1104.3938 2107.3696)">
					<stop  offset="0" style="stop-color:#FEBBBA"/>
					<stop  offset="1" style="stop-color:#FF928E"/>
				</linearGradient>
				<circle class="st111" cx="375.2" cy="201.2" r="21.8"/>
				
					<ellipse transform="matrix(1 -1.667502e-03 1.667502e-03 1 -0.3349 0.626)" class="st112" cx="375.2" cy="201.2" rx="16" ry="16"/>
				<linearGradient id="SVGID_101_" gradientUnits="userSpaceOnUse" x1="406.1603" y1="307.9344" x2="359.6504" y2="305.3975">
					<stop  offset="0" style="stop-color:#FF928E"/>
					<stop  offset="1" style="stop-color:#FE7062"/>
				</linearGradient>
				<polygon class="st113" points="313.1,272.8 319.3,333.6 323.8,333.2 319.9,272.9 				"/>
				<g>
					<linearGradient id="SVGID_102_" gradientUnits="userSpaceOnUse" x1="306.6913" y1="255.5547" x2="384.0673" y2="312.2125">
						<stop  offset="0" style="stop-color:#FF928E"/>
						<stop  offset="1" style="stop-color:#FE7062"/>
					</linearGradient>
					<circle class="st114" cx="319.6" cy="265" r="17.9"/>
					<path class="st112" d="M325.3,277.5c-7.1,3.1-15.4-0.1-18.5-7.2c-3.1-7.1,0.1-15.4,7.2-18.5c7.1-3.1,15.4,0.1,18.5,7.2
						C335.7,266.1,332.4,274.3,325.3,277.5z"/>
				</g>
				<g>
					<linearGradient id="SVGID_103_" gradientUnits="userSpaceOnUse" x1="309.1873" y1="349.6882" x2="338.4723" y2="349.6882">
						<stop  offset="0" style="stop-color:#09005D"/>
						<stop  offset="1" style="stop-color:#1A0F91"/>
					</linearGradient>
					<path class="st115" d="M315.6,339.9l-6.2,15.2c-0.5,1.2-0.1,2.6,0.9,3.4c6.3,4.8,14,6.8,26,0.3c1.7-0.9,2.6-3,1.9-4.9
						l-8.7-15.9c-0.6-1-1.7-1.6-2.9-1.5l-7.9,0.9C317.4,337.6,316.1,338.5,315.6,339.9z"/>
					<linearGradient id="SVGID_104_" gradientUnits="userSpaceOnUse" x1="340.3723" y1="307.4336" x2="330.0891" y2="326.9716">
						<stop  offset="0" style="stop-color:#4F52FF"/>
						<stop  offset="1" style="stop-color:#4042E2"/>
					</linearGradient>
					<path class="st116" d="M319.6,337.5c0,0.9-5.5,23.4-5.5,23.4l2.5,1.1L319.6,337.5z"/>
					<linearGradient id="SVGID_105_" gradientUnits="userSpaceOnUse" x1="344.2024" y1="310.2137" x2="333.9192" y2="329.7517">
						<stop  offset="0" style="stop-color:#4F52FF"/>
						<stop  offset="1" style="stop-color:#4042E2"/>
					</linearGradient>
					<polygon class="st117" points="321.3,339.1 321.9,363 324.2,363 					"/>
					<linearGradient id="SVGID_106_" gradientUnits="userSpaceOnUse" x1="348.6623" y1="311.7968" x2="338.3792" y2="331.3348">
						<stop  offset="0" style="stop-color:#4F52FF"/>
						<stop  offset="1" style="stop-color:#4042E2"/>
					</linearGradient>
					<polygon class="st118" points="324.2,337.5 331.7,360.9 334.3,359.8 					"/>
					<g>
						
							<linearGradient id="SVGID_107_" gradientUnits="userSpaceOnUse" x1="-1084.9774" y1="-2523.1519" x2="-1074.281" y2="-2523.1519" gradientTransform="matrix(0.4003 0.9164 -0.9164 0.4003 -1558.0928 2334.4563)">
							<stop  offset="0" style="stop-color:#FF928E"/>
							<stop  offset="1" style="stop-color:#FE7062"/>
						</linearGradient>
						<circle class="st119" cx="321.9" cy="335.1" r="5.3"/>
						
							<ellipse transform="matrix(0.1695 -0.9855 0.9855 0.1695 -62.6815 595.5205)" class="st112" cx="322" cy="335" rx="4.2" ry="4.2"/>
					</g>
				</g>
			</g>
			<linearGradient id="SVGID_108_" gradientUnits="userSpaceOnUse" x1="308.0177" y1="454.3054" x2="453.4505" y2="552.142">
				<stop  offset="0" style="stop-color:#FF928E"/>
				<stop  offset="1" style="stop-color:#FE7062"/>
			</linearGradient>
			<path class="st120" d="M382.7,448.9l-11.4,8.8c-3.7,2.9-6.3,7.1-7.1,11.7l-15.6,82.9c4.2,5.4,10.3,7.6,18.1,6.9l41.8-90.6
				c1.7-3.7,2.1-7.8,1-11.7l-1.1-4.2c-1.1-4.3-5.3-7.2-9.7-6.7l-12.4,1.4C384.9,447.6,383.7,448.1,382.7,448.9z"/>
			<linearGradient id="SVGID_109_" gradientUnits="userSpaceOnUse" x1="578.2446" y1="533.9899" x2="515.6674" y2="474.7951">
				<stop  offset="0" style="stop-color:#FF928E"/>
				<stop  offset="1" style="stop-color:#FE7062"/>
			</linearGradient>
			<path class="st121" d="M526.1,423.8l-12.2,7.7c-4,2.5-6.9,6.4-8.2,11l-23.4,81c3.7,5.8,9.5,8.6,17.4,8.6l50.2-86.3
				c2-3.5,2.8-7.6,2.1-11.5l-0.7-4.3c-0.7-4.4-4.6-7.7-9.1-7.6l-12.5,0.2C528.5,422.7,527.2,423.1,526.1,423.8z"/>
			
				<linearGradient id="SVGID_110_" gradientUnits="userSpaceOnUse" x1="-64.018" y1="1418.5431" x2="-273.203" y2="1536.0629" gradientTransform="matrix(0.9586 -0.2848 0.2848 0.9586 113.209 -889.7471)">
				<stop  offset="0" style="stop-color:#FF928E"/>
				<stop  offset="1" style="stop-color:#FE7062"/>
			</linearGradient>
			<path class="st122" d="M344.9,561.7c-2.1,0-4.1,1.1-5.3,2.9l-11.6,18.6c-1.8,2.9,0.3,6.3,3.9,6.2l70.1-2l0.3-5.3l-36.2-20.5
				L344.9,561.7z"/>
			
				<linearGradient id="SVGID_111_" gradientUnits="userSpaceOnUse" x1="247.4671" y1="990.5701" x2="320.4499" y2="990.5701" gradientTransform="matrix(0.9908 -0.1351 0.1351 0.9908 76.897 -393.6322)">
				<stop  offset="0" style="stop-color:#FF928E"/>
				<stop  offset="1" style="stop-color:#FE7062"/>
			</linearGradient>
			<path class="st123" d="M476.7,531c-2.1-0.3-4.2,0.5-5.6,2.1l-14.3,16.6c-2.3,2.6-0.6,6.3,2.9,6.8l69.6,8.7l1.1-5.2l-32.7-25.8
				L476.7,531z"/>
			<g>
				<linearGradient id="SVGID_112_" gradientUnits="userSpaceOnUse" x1="379.7104" y1="119.5195" x2="468.7679" y2="119.5195">
					<stop  offset="0" style="stop-color:#09005D"/>
					<stop  offset="1" style="stop-color:#1A0F91"/>
				</linearGradient>
				<path class="st124" d="M468.8,115.8c0,21.7-20.4,46.7-45,46.7c-24.6,0-44-25-44-46.7c0-21.7,19.9-39.4,44.5-39.4
					S468.8,94.1,468.8,115.8z"/>
				<linearGradient id="SVGID_113_" gradientUnits="userSpaceOnUse" x1="549.3273" y1="84.0894" x2="251.4105" y2="221.5893">
					<stop  offset="0" style="stop-color:#FF928E"/>
					<stop  offset="1" style="stop-color:#FE7062"/>
				</linearGradient>
				<path class="st125" d="M472.8,165.7l-33.1-6.2c-13.4-14.5-18.9-23.9-27.2-36.4c-5.4-8.1-2.9-19,5.4-24
					c12.8-7.7,29.7-13.9,47.9-6.1L472.8,165.7z"/>
				<linearGradient id="SVGID_114_" gradientUnits="userSpaceOnUse" x1="467.7621" y1="114.3418" x2="382.2652" y2="229.8068">
					<stop  offset="0" style="stop-color:#FF928E"/>
					<stop  offset="1" style="stop-color:#FE7062"/>
				</linearGradient>
				<path class="st126" d="M416.5,111.9c-2.7-16.1,46.6-22.7,51.2-16.9c12.4,13.3,20.4,30.6,25.9,50.2c2.3,8.1-2.6,16.6-10.8,18.7
					l-3.5,0.9c-7.1,1.9-14.7,0.8-21-3C439.1,150.3,424.6,134.1,416.5,111.9z"/>
				<linearGradient id="SVGID_115_" gradientUnits="userSpaceOnUse" x1="425.5667" y1="115.9772" x2="477.2761" y2="115.9772">
					<stop  offset="0" style="stop-color:#09005D"/>
					<stop  offset="1" style="stop-color:#1A0F91"/>
				</linearGradient>
				<path class="st127" d="M426.3,115.6l9.9,12.9c1.1,1.5,2.9,2.2,4.8,2c5.4-0.7,16.6-1.8,20.2-2.3c0.7-0.1,1.4-0.3,2-0.7l12.4-7
					c1.7-0.9,2.2-3.1,1.1-4.7l-7.8-12.1c-1-1.5-2.8-2.4-4.6-2.2c-12.8,1.7-24.9,4.5-36.3,8.5C425.7,110.8,424.8,113.7,426.3,115.6z"
					/>
				<path class="st128" d="M428.8,115.6l9,11.6c1,1.3,2.7,2,4.3,1.8c4.9-0.6,15-1.7,18.2-2.1c0.6-0.1,1.2-0.3,1.8-0.6l11.2-6.3
					c1.5-0.8,2-2.8,1-4.2l-7.1-10.9c-0.9-1.4-2.5-2.2-4.2-1.9c-11.6,1.6-22.5,4.1-32.8,7.7C428.2,111.3,427.4,113.9,428.8,115.6z"/>
				<path class="st129" d="M433.4,115.7l31-7.6c0.5-0.1,1,0.1,1.2,0.6l0,0c0.3,0.6-0.1,1.3-0.7,1.4l-30.9,7.7
					c-0.4,0.1-0.9-0.1-1.1-0.4l-0.1-0.1C432.4,116.7,432.7,115.9,433.4,115.7z"/>
				<g>
					
						<linearGradient id="SVGID_116_" gradientUnits="userSpaceOnUse" x1="428.8025" y1="1320.5812" x2="457.316" y2="1320.5812" gradientTransform="matrix(0.7121 -0.297 0.3849 0.9229 -348.9417 -943.1275)">
						<stop  offset="0" style="stop-color:#09005D"/>
						<stop  offset="1" style="stop-color:#1A0F91"/>
					</linearGradient>
					<path class="st130" d="M485,139.9c0.2,0.4,0,0.8-0.2,0.9l-19.3,8c-0.3,0.1-0.6-0.1-0.8-0.5l-0.1-0.2c-0.2-0.4,0-0.8,0.2-0.9
						l19.3-8c0.3-0.1,0.6,0.1,0.8,0.5L485,139.9z"/>
					
						<linearGradient id="SVGID_117_" gradientUnits="userSpaceOnUse" x1="429.2424" y1="1324.8" x2="457.7559" y2="1324.8" gradientTransform="matrix(0.7121 -0.297 0.3849 0.9229 -348.9417 -943.1275)">
						<stop  offset="0" style="stop-color:#09005D"/>
						<stop  offset="1" style="stop-color:#1A0F91"/>
					</linearGradient>
					<path class="st131" d="M487,143.7c0.2,0.4,0,0.8-0.2,0.9l-19.3,8c-0.3,0.1-0.6-0.1-0.8-0.5l-0.1-0.2c-0.2-0.4,0-0.8,0.2-0.9
						l19.3-8c0.3-0.1,0.6,0.1,0.8,0.5L487,143.7z"/>
					
						<linearGradient id="SVGID_118_" gradientUnits="userSpaceOnUse" x1="429.6823" y1="1329.0188" x2="458.1958" y2="1329.0188" gradientTransform="matrix(0.7121 -0.297 0.3849 0.9229 -348.9417 -943.1275)">
						<stop  offset="0" style="stop-color:#09005D"/>
						<stop  offset="1" style="stop-color:#1A0F91"/>
					</linearGradient>
					<path class="st132" d="M488.9,147.4c0.2,0.4,0,0.8-0.2,0.9l-19.3,8c-0.3,0.1-0.6-0.1-0.8-0.5l-0.1-0.2c-0.2-0.4,0-0.8,0.2-0.9
						l19.3-8c0.3-0.1,0.6,0.1,0.8,0.5L488.9,147.4z"/>
				</g>
			</g>
			<linearGradient id="SVGID_119_" gradientUnits="userSpaceOnUse" x1="435.9607" y1="495.4628" x2="650.7524" y2="462.4829">
				<stop  offset="0" style="stop-color:#FEBBBA"/>
				<stop  offset="1" style="stop-color:#FF928E"/>
			</linearGradient>
			<polygon class="st133" points="355.9,557.9 397.3,448.7 408.4,452.7 363.9,559.3 			"/>
			<linearGradient id="SVGID_120_" gradientUnits="userSpaceOnUse" x1="568.0942" y1="449.7743" x2="652.1122" y2="390.4925">
				<stop  offset="0" style="stop-color:#FEBBBA"/>
				<stop  offset="1" style="stop-color:#FF928E"/>
			</linearGradient>
			<polygon class="st134" points="487.7,529 545.2,431.9 555.4,437.7 499.7,532.1 			"/>
			<linearGradient id="SVGID_121_" gradientUnits="userSpaceOnUse" x1="425.0723" y1="374.9294" x2="394.6293" y2="467.9493">
				<stop  offset="0" style="stop-color:#FEBBBA"/>
				<stop  offset="1" style="stop-color:#FF928E"/>
			</linearGradient>
			<circle class="st135" cx="400.6" cy="449.7" r="13.4"/>
			
				<ellipse transform="matrix(0.8214 -0.5704 0.5704 0.8214 -184.8661 309.1075)" class="st112" cx="401.1" cy="449.7" rx="10.2" ry="10.2"/>
			<linearGradient id="SVGID_122_" gradientUnits="userSpaceOnUse" x1="556.7312" y1="414.5185" x2="536.8587" y2="482.5922">
				<stop  offset="0" style="stop-color:#FF928E"/>
				<stop  offset="1" style="stop-color:#FE7062"/>
			</linearGradient>
			<circle class="st136" cx="553.3" cy="426.2" r="13.4"/>
			
				<ellipse transform="matrix(3.469362e-02 -0.9994 0.9994 3.469362e-02 108.5958 964.8881)" class="st112" cx="553.8" cy="426.2" rx="10.2" ry="10.2"/>
			
				<linearGradient id="SVGID_123_" gradientUnits="userSpaceOnUse" x1="-155.2774" y1="1472.7289" x2="-131.4283" y2="1455.9014" gradientTransform="matrix(0.9586 -0.2848 0.2848 0.9586 113.209 -889.7471)">
				<stop  offset="0" style="stop-color:#FEBBBA"/>
				<stop  offset="1" style="stop-color:#FF928E"/>
			</linearGradient>
			<path class="st137" d="M352,562.2l-6,9.4c-1.7,2.7-0.1,6.3,3,6.8l53,9l0.3-5.3l-36.2-20.5L352,562.2z"/>
			
				<linearGradient id="SVGID_124_" gradientUnits="userSpaceOnUse" x1="307.4312" y1="985.2995" x2="331.2819" y2="968.4708" gradientTransform="matrix(0.9908 -0.1351 0.1351 0.9908 76.897 -393.6322)">
				<stop  offset="0" style="stop-color:#FEBBBA"/>
				<stop  offset="1" style="stop-color:#FF928E"/>
			</linearGradient>
			<path class="st138" d="M483.9,532.2l-7.4,8.4c-2.1,2.4-1.1,6.2,1.9,7.2l51,17l1.1-5.2l-32.7-25.8L483.9,532.2z"/>
			<linearGradient id="SVGID_125_" gradientUnits="userSpaceOnUse" x1="451.9448" y1="266.1152" x2="444.334" y2="291.4843">
				<stop  offset="0" style="stop-color:#FF928E"/>
				<stop  offset="1" style="stop-color:#FE7062"/>
			</linearGradient>
			<path class="st139" d="M399.3,292.8l-18.9,47c-0.4,1,0,2.2,0.9,2.8l42.9,27l13.9-0.9l39-24c0.9-0.6,1.3-1.7,1.1-2.7l-14.6-52.3
				L399.3,292.8z"/>
			<linearGradient id="SVGID_126_" gradientUnits="userSpaceOnUse" x1="452.5327" y1="324.5003" x2="473.099" y2="418.8115">
				<stop  offset="0" style="stop-color:#FEBBBA"/>
				<stop  offset="1" style="stop-color:#FF928E"/>
			</linearGradient>
			<path class="st140" d="M438.2,368.7l28.4-79l7.2,22.1c0.6,2,0.3,4.1-0.8,5.8L438.2,368.7z"/>
			<linearGradient id="SVGID_127_" gradientUnits="userSpaceOnUse" x1="401.3355" y1="325.7936" x2="425.1542" y2="435.0192">
				<stop  offset="0" style="stop-color:#FEBBBA"/>
				<stop  offset="1" style="stop-color:#FF928E"/>
			</linearGradient>
			<path class="st141" d="M398.2,289.7c-0.7,1.1-7.4,18.2-10.2,25.4c-0.8,1.9-0.5,4.1,0.7,5.8l34.1,47.8L398.2,289.7z"/>
			<linearGradient id="SVGID_128_" gradientUnits="userSpaceOnUse" x1="429.6844" y1="194.9382" x2="434.3355" y2="366.6026">
				<stop  offset="0" style="stop-color:#FF928E"/>
				<stop  offset="1" style="stop-color:#FE7062"/>
			</linearGradient>
			<path class="st142" d="M404.1,195.6l-23.4,56.1c-0.6,1.5-0.7,3.3-0.1,4.8l42.1,112.1l15.4,0L481.3,260c1.9-4.7,1.3-10-1.5-14.2
				l-33.5-50.2H404.1z"/>
			
				<linearGradient id="SVGID_129_" gradientUnits="userSpaceOnUse" x1="457.0927" y1="110.6268" x2="422.5441" y2="262.0229" gradientTransform="matrix(0.9996 2.780000e-02 -2.780000e-02 0.9996 -32.4535 81.1537)">
				<stop  offset="0" style="stop-color:#FEBBBA"/>
				<stop  offset="1" style="stop-color:#FF928E"/>
			</linearGradient>
			<path class="st143" d="M409,210l-17.8,46.2c-0.3,0.7-0.1,1.6,0.4,2.2l23.2,24.3c1.3,1.4,3.7,0.3,3.5-1.6l-5.4-70.5
				C412.8,208.4,409.8,208,409,210z"/>
			
				<linearGradient id="SVGID_130_" gradientUnits="userSpaceOnUse" x1="450.9105" y1="183.324" x2="416.8688" y2="332.4985" gradientTransform="matrix(1 -7.200000e-03 7.500000e-03 1.0359 8.7895 17.95)">
				<stop  offset="0" style="stop-color:#FEBBBA"/>
				<stop  offset="1" style="stop-color:#FF928E"/>
			</linearGradient>
			<path class="st144" d="M445.2,210.8l-1.7,69c-0.1,2.4,3,3.3,4.2,1.3l18.1-30.3c0.4-0.7,0.4-1.5,0.1-2.2L449.5,210
				C448.5,207.7,445.2,208.3,445.2,210.8z"/>
			<g>
				<linearGradient id="SVGID_131_" gradientUnits="userSpaceOnUse" x1="430.522" y1="216.7975" x2="426.7767" y2="233.2098">
					<stop  offset="0" style="stop-color:#09005D"/>
					<stop  offset="1" style="stop-color:#1A0F91"/>
				</linearGradient>
				<path class="st145" d="M438.9,223h-18.8c-1,0-1.8-0.8-1.8-1.8l0,0c0-1,0.8-1.8,1.8-1.8h18.8c1,0,1.8,0.8,1.8,1.8v0
					C440.6,222.2,439.9,223,438.9,223z"/>
				<linearGradient id="SVGID_132_" gradientUnits="userSpaceOnUse" x1="430.522" y1="224.0691" x2="426.7767" y2="240.4815">
					<stop  offset="0" style="stop-color:#09005D"/>
					<stop  offset="1" style="stop-color:#1A0F91"/>
				</linearGradient>
				<path class="st146" d="M438.9,230.3h-18.8c-1,0-1.8-0.8-1.8-1.8v0c0-1,0.8-1.8,1.8-1.8h18.8c1,0,1.8,0.8,1.8,1.8v0
					C440.6,229.5,439.9,230.3,438.9,230.3z"/>
				<linearGradient id="SVGID_133_" gradientUnits="userSpaceOnUse" x1="430.3085" y1="231.0313" x2="426.5632" y2="247.4436">
					<stop  offset="0" style="stop-color:#09005D"/>
					<stop  offset="1" style="stop-color:#1A0F91"/>
				</linearGradient>
				<path class="st147" d="M438.7,237.3h-18.8c-1,0-1.8-0.8-1.8-1.8v0c0-1,0.8-1.8,1.8-1.8h18.8c1,0,1.8,0.8,1.8,1.8l0,0
					C440.4,236.5,439.6,237.3,438.7,237.3z"/>
				<linearGradient id="SVGID_134_" gradientUnits="userSpaceOnUse" x1="430.3085" y1="238.3029" x2="426.5632" y2="254.7152">
					<stop  offset="0" style="stop-color:#09005D"/>
					<stop  offset="1" style="stop-color:#1A0F91"/>
				</linearGradient>
				<path class="st148" d="M438.7,244.5h-18.8c-1,0-1.8-0.8-1.8-1.8v0c0-1,0.8-1.8,1.8-1.8h18.8c1,0,1.8,0.8,1.8,1.8v0
					C440.4,243.7,439.6,244.5,438.7,244.5z"/>
				<linearGradient id="SVGID_135_" gradientUnits="userSpaceOnUse" x1="430.3085" y1="245.1213" x2="426.5632" y2="261.5336">
					<stop  offset="0" style="stop-color:#09005D"/>
					<stop  offset="1" style="stop-color:#1A0F91"/>
				</linearGradient>
				<path class="st149" d="M438.7,251.3h-18.8c-1,0-1.8-0.8-1.8-1.8v0c0-1,0.8-1.8,1.8-1.8h18.8c1,0,1.8,0.8,1.8,1.8l0,0
					C440.4,250.6,439.6,251.3,438.7,251.3z"/>
				<linearGradient id="SVGID_136_" gradientUnits="userSpaceOnUse" x1="430.3085" y1="252.3929" x2="426.5632" y2="268.8053">
					<stop  offset="0" style="stop-color:#09005D"/>
					<stop  offset="1" style="stop-color:#1A0F91"/>
				</linearGradient>
				<path class="st150" d="M438.7,258.6h-18.8c-1,0-1.8-0.8-1.8-1.8v0c0-1,0.8-1.8,1.8-1.8h18.8c1,0,1.8,0.8,1.8,1.8l0,0
					C440.4,257.8,439.6,258.6,438.7,258.6z"/>
				<linearGradient id="SVGID_137_" gradientUnits="userSpaceOnUse" x1="430.522" y1="260.9857" x2="426.7767" y2="277.3981">
					<stop  offset="0" style="stop-color:#09005D"/>
					<stop  offset="1" style="stop-color:#1A0F91"/>
				</linearGradient>
				<path class="st151" d="M438.9,267.2h-18.8c-1,0-1.8-0.8-1.8-1.8l0,0c0-1,0.8-1.8,1.8-1.8h18.8c1,0,1.8,0.8,1.8,1.8v0
					C440.6,266.4,439.9,267.2,438.9,267.2z"/>
				<linearGradient id="SVGID_138_" gradientUnits="userSpaceOnUse" x1="430.522" y1="268.2574" x2="426.7767" y2="284.6697">
					<stop  offset="0" style="stop-color:#09005D"/>
					<stop  offset="1" style="stop-color:#1A0F91"/>
				</linearGradient>
				<path class="st152" d="M438.9,274.5h-18.8c-1,0-1.8-0.8-1.8-1.8l0,0c0-1,0.8-1.8,1.8-1.8h18.8c1,0,1.8,0.8,1.8,1.8v0
					C440.6,273.7,439.9,274.5,438.9,274.5z"/>
			</g>
			<g>
				
					<linearGradient id="SVGID_139_" gradientUnits="userSpaceOnUse" x1="-558.5344" y1="669.4849" x2="-488.997" y2="669.4849" gradientTransform="matrix(0.706 0.7081 -0.7081 0.706 1360.5254 129.1877)">
					<stop  offset="0" style="stop-color:#09005D"/>
					<stop  offset="1" style="stop-color:#1A0F91"/>
				</linearGradient>
				<polygon class="st153" points="533.6,263.2 487.5,217 499.8,198.7 544.8,252 				"/>
				
					<linearGradient id="SVGID_140_" gradientUnits="userSpaceOnUse" x1="413.4129" y1="869.2679" x2="478.7092" y2="869.2679" gradientTransform="matrix(0.9524 -0.3047 0.3047 0.9524 -112.2695 -437.3087)">
					<stop  offset="0" style="stop-color:#09005D"/>
					<stop  offset="1" style="stop-color:#1A0F91"/>
				</linearGradient>
				<path class="st154" d="M608.7,253l-59.9,19.2l-4.8-15.1l59.6-19.1c1.4-0.5,2.9,0.3,3.4,1.7l3.3,10.3
					C610.6,251.3,609.9,252.6,608.7,253z"/>
				<linearGradient id="SVGID_141_" gradientUnits="userSpaceOnUse" x1="564.5157" y1="177.8217" x2="547.603" y2="198.5398">
					<stop  offset="0" style="stop-color:#FF928E"/>
					<stop  offset="1" style="stop-color:#FE7062"/>
				</linearGradient>
				<polygon class="st155" points="487.5,210.3 543,266.9 546,261.9 491.3,204.9 				"/>
				<linearGradient id="SVGID_142_" gradientUnits="userSpaceOnUse" x1="603.09" y1="172.8489" x2="595.902" y2="200.3322">
					<stop  offset="0" style="stop-color:#FF928E"/>
					<stop  offset="1" style="stop-color:#FE7062"/>
				</linearGradient>
				<polygon class="st156" points="555,258.1 608.4,242.5 609.4,247.4 555.2,263.9 				"/>
				<g>
					<linearGradient id="SVGID_143_" gradientUnits="userSpaceOnUse" x1="550.7203" y1="233.7416" x2="540.5726" y2="292.9361">
						<stop  offset="0" style="stop-color:#FF928E"/>
						<stop  offset="1" style="stop-color:#FE7062"/>
					</linearGradient>
					<circle class="st157" cx="546.5" cy="258.1" r="17.9"/>
					
						<ellipse transform="matrix(0.9302 -0.3671 0.3671 0.9302 -56.4531 218.5602)" class="st112" cx="546.4" cy="257.7" rx="14" ry="14"/>
				</g>
				<g>
					
						<linearGradient id="SVGID_144_" gradientUnits="userSpaceOnUse" x1="-5583.7671" y1="1254.0145" x2="-5554.4829" y2="1254.0145" gradientTransform="matrix(-0.5034 -0.8641 0.8641 -0.5034 -3265.2874 -3945.9961)">
						<stop  offset="0" style="stop-color:#09005D"/>
						<stop  offset="1" style="stop-color:#1A0F91"/>
					</linearGradient>
					<path class="st158" d="M617.5,247.1l16.3-2.3c1.3-0.2,2.3-1.2,2.5-2.4c1-7.9-1.2-15.5-12.8-22.7c-1.7-1-3.9-0.7-5.2,0.8
						l-9.4,15.5c-0.6,1-0.6,2.3,0.2,3.3l4.8,6.4C614.6,246.7,616,247.3,617.5,247.1z"/>
					<linearGradient id="SVGID_145_" gradientUnits="userSpaceOnUse" x1="651.7447" y1="182.8327" x2="596.2158" y2="304.0267">
						<stop  offset="0" style="stop-color:#4F52FF"/>
						<stop  offset="1" style="stop-color:#4042E2"/>
					</linearGradient>
					<path class="st159" d="M613.5,244.8c0.8-0.4,23-7,23-7l-0.3-2.7L613.5,244.8z"/>
					<linearGradient id="SVGID_146_" gradientUnits="userSpaceOnUse" x1="638.309" y1="192.0935" x2="606.1375" y2="292.5743">
						<stop  offset="0" style="stop-color:#4F52FF"/>
						<stop  offset="1" style="stop-color:#4042E2"/>
					</linearGradient>
					<polygon class="st160" points="613.2,243 634.6,231 632.9,228.1 					"/>
					<linearGradient id="SVGID_147_" gradientUnits="userSpaceOnUse" x1="629.3011" y1="202.6563" x2="607.2659" y2="279.339">
						<stop  offset="0" style="stop-color:#4F52FF"/>
						<stop  offset="1" style="stop-color:#4042E2"/>
					</linearGradient>
					<polygon class="st161" points="610.9,239 630.7,225.4 628.2,223.1 					"/>
					<linearGradient id="SVGID_148_" gradientUnits="userSpaceOnUse" x1="623.6778" y1="300.2558" x2="610.0159" y2="183.4688">
						<stop  offset="0" style="stop-color:#09005D"/>
						<stop  offset="1" style="stop-color:#1A0F91"/>
					</linearGradient>
					<path class="st162" d="M607.5,240.8l2.5-18.6c0.1-0.7,0.8-1.2,1.5-1l10.7,2.6c2.5,0.6,2.5,2-0.6,4.2l-7.1,0.4l0.2,2.9
						L607.5,240.8z"/>
					<g>
						
							<linearGradient id="SVGID_149_" gradientUnits="userSpaceOnUse" x1="-2614.0154" y1="3238.0603" x2="-2603.3191" y2="3238.0603" gradientTransform="matrix(0.5903 -0.8072 0.8072 0.5903 -463.7493 -3774.9063)">
							<stop  offset="0" style="stop-color:#FF928E"/>
							<stop  offset="1" style="stop-color:#FE7062"/>
						</linearGradient>
						<circle class="st163" cx="610.1" cy="242.2" r="5.3"/>
						<path class="st112" d="M612.5,238.9c1.9,1.4,2.3,4,0.9,5.9c-1.4,1.9-4,2.3-5.9,0.9c-1.9-1.4-2.3-4-0.9-5.9
							C608,237.9,610.6,237.5,612.5,238.9z"/>
					</g>
				</g>
			</g>
			
				<linearGradient id="SVGID_150_" gradientUnits="userSpaceOnUse" x1="-819.7437" y1="-2353.2397" x2="-776.0698" y2="-2353.2397" gradientTransform="matrix(0.5205 0.8539 -0.8539 0.5205 -1104.3938 2107.3696)">
				<stop  offset="0" style="stop-color:#FEBBBA"/>
				<stop  offset="1" style="stop-color:#FF928E"/>
			</linearGradient>
			<circle class="st164" cx="489.7" cy="201.2" r="21.8"/>
			
				<ellipse transform="matrix(0.9573 -0.289 0.289 0.9573 -37.244 150.1286)" class="st112" cx="489.7" cy="201.2" rx="16" ry="16"/>
		</g>
	</g>
</g>
</svg>
