<?xml version="1.0" encoding="utf-8"?>
<!-- Generator: Adobe Illustrator 24.0.1, SVG Export Plug-In . SVG Version: 6.00 Build 0)  -->
<svg version="1.1" id="Layer_1" xmlns="http://www.w3.org/2000/svg" xmlns:xlink="http://www.w3.org/1999/xlink" x="0px" y="0px"
	 viewBox="0 0 537 453" style="enable-background:new 0 0 537 453;" xml:space="preserve">
<style type="text/css">
	.st0{fill:#78BC43;}
	.st1{fill:#F6B333;}
	.st2{fill:#EF3942;}
	.st3{fill:#4A8CCA;}
</style>
<title>wordpresshosting</title>
<path class="st0" d="M127.3,228.8l-8.8-8.8c-26.9-26.9-34.8-65-24.6-99.3C67,114.5,47.1,90.6,47.1,62.1c0-33.4,26.9-60.3,60.3-60.3
	c30.2,0,54.7,22.3,59.6,50.8c32.5-7.9,68.2,1.6,93.7,26.2l3.2,3.2l-44.5,44.3l-3.2-3.2c-14.4-14.4-38.1-14.4-52.4,0
	c-14.4,14.4-14.4,38.1,0,52.4l8.8,8.8l44.5,44.5l46.8,46.8l-44.5,44.5l-46.8-46.8L127.3,228.8"/>
<path class="st1" d="M177.2,178.8l46.8-46.8l44.5-44.5l8.8-8.8c26.9-26.9,65-34.8,98.4-25.3c3.9-29.4,29.4-51.5,59.6-51.5
	c33.4,0,60.3,26.9,60.3,60.3c0,30.2-23,55.5-52.4,59.6c9.5,34.1,1.6,71.4-25.3,98.4l-3.2,3.2l-44.5-44.5l3.2-3.2
	c14.4-14.4,14.4-38.1,0-52.4c-14.4-14.4-37.3-14.4-52.4,0l-8.8,8.8l-43.6,44.5l-46.8,46.8L177.2,178.8"/>
<path class="st2" d="M377.1,402.6c-34.1,10.2-73,2.3-100-24.6l-3.2-3.2l44.5-44.5l3.2,3.2c14.4,14.4,38.1,14.4,52.4,0
	c14.4-14.4,14.4-37.3,0-52.4l-8.8-8.8l-44.5-44.5l-46.8-46.8l44.5-44.2l46.8,46.8l44.5,44.5l8.8,8.8c25.3,25.3,34.1,61,26.2,94.4
	c29.4,3.9,51.5,29.4,51.5,59.6c0,33.4-26.9,60.3-60.3,60.3C406.6,450.9,382.7,430.2,377.1,402.6"/>
<path class="st3" d="M359.7,278l-46.8,46.8l-44.5,44.5l-8.8,8.8c-25.3,25.3-61.9,34.1-94.4,26.2c-6.3,26.9-30.2,46.8-58.7,46.8
	c-33.4,0-60.3-26.9-60.3-60.3c0-28.5,19.9-52.4,45.9-58.7c-8.8-33.4,0-69.1,26.2-95.1l3.2-3.2l44.5,44.5l-3.2,3.2
	c-14.4,14.4-14.4,38.1,0,52.4c14.4,14.4,38.1,14.4,52.4,0l8.8-8.8l44.5-44.5l46.8-46.8L359.7,278"/>
</svg>
