<?xml version="1.0" encoding="utf-8"?>
<!-- Generator: Adobe Illustrator 24.0.1, SVG Export Plug-In . SVG Version: 6.00 Build 0)  -->
<svg version="1.1" id="Ñëîé_1" xmlns="http://www.w3.org/2000/svg" xmlns:xlink="http://www.w3.org/1999/xlink" x="0px" y="0px"
	 viewBox="0 0 592.3 538.2" style="enable-background:new 0 0 592.3 538.2;" xml:space="preserve">
<style type="text/css">
	.st0{display:none;fill:#C3D9EA;}
	.st1{fill:#050F64;}
	.st2{fill:#FFFFFF;}
	.st3{fill:#155BCD;}
	.st4{fill:#84A9FF;}
	.st5{fill:#FFBD00;}
	.st6{opacity:0.2;}
	.st7{fill:#FEBD1D;}
	.st8{fill:#FFD45B;}
	.st9{fill:#D6A02F;}
	.st10{fill:#E4A218;}
	.st11{opacity:0.1;}
	.st12{fill:#0C9197;}
	.st13{fill:#F9E288;}
	.st14{fill:#E5E6EB;}
	.st15{opacity:0.5;}
	.st16{fill:#FF654F;}
	.st17{fill:#3B7AA5;}
	.st18{fill:#EA8096;}
	.st19{fill:#F5BDC8;}
</style>
<rect x="-185.5" y="-16.1" class="st0" width="960" height="560"/>
<g>
	<g>
		<g>
			<g>
				<path class="st1" d="M33.1,242.6l78.3,208.5c1.2,3.3,5.1,4.9,8.6,3.6l103.4-38.8c3.5-1.3,5.4-5.1,4.1-8.4L149.2,199
					c-1.2-3.3-5.1-4.9-8.6-3.6L37.2,234.2C33.7,235.6,31.9,239.3,33.1,242.6z"/>
			</g>
		</g>
		<g>
			<g>
				
					<ellipse transform="matrix(0.4045 -0.9145 0.9145 0.4045 -190.9344 224.293)" class="st2" cx="76.8" cy="258.8" rx="19.6" ry="19.6"/>
			</g>
		</g>
		<g>
			<g>
				
					<rect x="52.6" y="306.4" transform="matrix(-0.3518 -0.9361 0.9361 -0.3518 -59.9412 578.5051)" class="st3" width="235.5" height="7.3"/>
			</g>
		</g>
		<g>
			<g>
				
					<rect x="173.8" y="370.1" transform="matrix(0.9361 -0.3518 0.3518 0.9361 -126.4292 87.4657)" class="st4" width="7.3" height="43"/>
			</g>
		</g>
		<g>
			<g>
				
					<rect x="155.5" y="320" transform="matrix(0.9361 -0.3518 0.3518 0.9361 -110.4165 77.8844)" class="st2" width="7.3" height="45.6"/>
			</g>
		</g>
		<g>
			<g>
				
					<rect x="136.7" y="269.9" transform="matrix(0.9361 -0.3518 0.3518 0.9361 -94.0061 68.0652)" class="st2" width="7.3" height="45.6"/>
			</g>
		</g>
		<g>
			<g>
				
					<rect x="118.3" y="222.4" transform="matrix(0.9361 -0.3518 0.3518 0.9361 -77.9934 58.4839)" class="st2" width="7.3" height="43"/>
			</g>
		</g>
		<g>
			<g>
				<g>
					<path class="st5" d="M154.9,376.7l11.5,30.7c1.9,5-0.7,10.5-5.6,12.4l-15.1,5.7c-5,1.9-10.5-0.7-12.4-5.6l-11.5-30.7
						c-1.9-5,0.7-10.5,5.6-12.4l15.1-5.7C147.5,369.2,153.1,371.7,154.9,376.7z"/>
				</g>
			</g>
			<g>
				<g>
					
						<rect x="150.9" y="369.5" transform="matrix(0.9361 -0.3518 0.3518 0.9361 -129.4719 78.4955)" class="st3" width="0.7" height="52"/>
				</g>
			</g>
			<g>
				<g>
					
						<rect x="136.5" y="375" transform="matrix(0.9361 -0.3518 0.3518 0.9361 -132.3113 73.7502)" class="st3" width="0.7" height="52"/>
				</g>
			</g>
			<g>
				<g>
					
						<rect x="134.5" y="392.3" transform="matrix(0.9361 -0.3518 0.3518 0.9361 -128.7014 76.9089)" class="st3" width="25.5" height="0.7"/>
				</g>
			</g>
			<g>
				<g>
					
						<rect x="130.6" y="382.8" transform="matrix(0.9361 -0.3517 0.3517 0.9361 -125.9273 73.1497)" class="st3" width="15.5" height="0.7"/>
				</g>
			</g>
			<g>
				<g>
					
						<rect x="131" y="410.1" transform="matrix(0.9361 -0.3518 0.3518 0.9361 -134.8855 78.5552)" class="st3" width="35.4" height="0.7"/>
				</g>
			</g>
			<g>
				<g>
					
						<rect x="128.7" y="406.3" transform="matrix(0.9361 -0.3518 0.3518 0.9361 -134.4917 73.0014)" class="st3" width="9.9" height="0.7"/>
				</g>
			</g>
			<g>
				<g>
					
						<rect x="158" y="412.2" transform="matrix(0.9361 -0.3518 0.3518 0.9361 -134.6961 83.718)" class="st3" width="10.1" height="0.7"/>
				</g>
			</g>
		</g>
	</g>
	<g>
		<g>
			<g>
				<g>
					<path class="st3" d="M468,60v409.3c0,26.6-21.6,48.2-48.2,48.2H211.2c-10.9,0-20.9-3.6-29-9.7C170.5,499,163,485,163,469.3V60
						c0-26.6,21.6-48.2,48.2-48.2h208.6C446.4,11.8,468,33.4,468,60z"/>
				</g>
			</g>
			<g class="st6">
				<g>
					<polygon class="st2" points="305.6,11.8 163,219.7 163,163.5 267,11.8 					"/>
				</g>
				<g>
					<path class="st2" d="M468,60v31L182.2,507.8C170.5,499,163,485,163,469.3V332.1L382.6,11.8h37.2C446.4,11.8,468,33.4,468,60z"
						/>
				</g>
				<g>
					<polygon class="st2" points="468,161.2 468,263 293.5,517.5 223.7,517.5 					"/>
				</g>
				<g>
					<polygon class="st2" points="468,326.2 468,393 382.6,517.5 336.9,517.5 					"/>
				</g>
			</g>
			<g>
				<g>
					<path class="st1" d="M419.8,8H211.2c-17.7,0-33.5,8.9-42.8,22.6c-0.3,0.4-0.5,0.8-0.8,1.2c-5.3,8.1-8.3,17.8-8.3,28.2v409.3
						c0,28.7,23.3,52,52,52h208.6c28.7,0,52-23.3,52-52V60C471.8,31.3,448.5,8,419.8,8z M464.2,469.3c0,24.5-19.9,44.4-44.4,44.4
						H211.2c-24.5,0-44.4-19.9-44.4-44.4V60c0-10.3,3.5-19.9,9.5-27.4c0.9-1.2,1.9-2.3,2.9-3.3c8.1-8.4,19.4-13.7,32-13.7h208.6
						c24.5,0,44.4,19.9,44.4,44.4V469.3z"/>
				</g>
			</g>
		</g>
		<g>
			<path class="st1" d="M385.8,42.6H261c-9.3,0-16.8-7.5-16.8-16.8V11.8h158.4v14.1C402.6,35.1,395.1,42.6,385.8,42.6z"/>
		</g>
		<g>
			<g>
				<rect x="294" y="25.3" class="st2" width="58.8" height="3.8"/>
			</g>
		</g>
		<g>
			
				<ellipse transform="matrix(0.7071 -0.7071 0.7071 0.7071 93.2133 279.422)" class="st2" cx="383.9" cy="27.2" rx="4.6" ry="4.6"/>
		</g>
	</g>
	<g>
		<g>
			<g>
				<rect x="102" y="365.9" class="st7" width="127.8" height="16.6"/>
			</g>
			<g>
				<rect x="102" y="362.9" class="st8" width="127.8" height="3"/>
			</g>
			<g>
				<rect x="102" y="382.5" class="st9" width="127.8" height="3"/>
			</g>
			<g>
				<g>
					<rect x="109.7" y="365.9" class="st10" width="3" height="16.6"/>
				</g>
				<g>
					<rect x="120.6" y="365.9" class="st10" width="3" height="16.6"/>
				</g>
				<g>
					<rect x="131.6" y="365.9" class="st10" width="3" height="16.6"/>
				</g>
				<g>
					<rect x="142.5" y="365.9" class="st10" width="3" height="16.6"/>
				</g>
				<g>
					<rect x="153.4" y="365.9" class="st10" width="3" height="16.6"/>
				</g>
				<g>
					<rect x="164.4" y="365.9" class="st10" width="3" height="16.6"/>
				</g>
				<g>
					<rect x="175.3" y="365.9" class="st10" width="3" height="16.6"/>
				</g>
				<g>
					<rect x="186.2" y="365.9" class="st10" width="3" height="16.6"/>
				</g>
				<g>
					<rect x="197.2" y="365.9" class="st10" width="3" height="16.6"/>
				</g>
				<g>
					<rect x="208.1" y="365.9" class="st10" width="3" height="16.6"/>
				</g>
				<g>
					<rect x="219" y="365.9" class="st10" width="3" height="16.6"/>
				</g>
			</g>
		</g>
		<g>
			<g>
				<rect x="91" y="388.5" class="st7" width="127.8" height="16.6"/>
			</g>
			<g>
				<rect x="91" y="385.5" class="st8" width="127.8" height="3"/>
			</g>
			<g>
				<rect x="91" y="405.1" class="st9" width="127.8" height="3"/>
			</g>
			<g>
				<g>
					<rect x="98.8" y="388.5" class="st10" width="3" height="16.6"/>
				</g>
				<g>
					<rect x="109.7" y="388.5" class="st10" width="3" height="16.6"/>
				</g>
				<g>
					<rect x="120.6" y="388.5" class="st10" width="3" height="16.6"/>
				</g>
				<g>
					<rect x="131.6" y="388.5" class="st10" width="3" height="16.6"/>
				</g>
				<g>
					<rect x="142.5" y="388.5" class="st10" width="3" height="16.6"/>
				</g>
				<g>
					<rect x="153.4" y="388.5" class="st10" width="3" height="16.6"/>
				</g>
				<g>
					<rect x="164.3" y="388.5" class="st10" width="3" height="16.6"/>
				</g>
				<g>
					<rect x="175.3" y="388.5" class="st10" width="3" height="16.6"/>
				</g>
				<g>
					<rect x="186.2" y="388.5" class="st10" width="3" height="16.6"/>
				</g>
				<g>
					<rect x="197.1" y="388.5" class="st10" width="3" height="16.6"/>
				</g>
				<g>
					<rect x="208.1" y="388.5" class="st10" width="3" height="16.6"/>
				</g>
			</g>
		</g>
		<g>
			<g>
				<rect x="102" y="411.1" class="st7" width="127.8" height="16.6"/>
			</g>
			<g>
				<rect x="102" y="408.1" class="st8" width="127.8" height="3"/>
			</g>
			<g>
				<rect x="102" y="427.7" class="st9" width="127.8" height="3"/>
			</g>
			<g>
				<g>
					<rect x="109.7" y="411.1" class="st10" width="3" height="16.6"/>
				</g>
				<g>
					<rect x="120.6" y="411.1" class="st10" width="3" height="16.6"/>
				</g>
				<g>
					<rect x="131.6" y="411.1" class="st10" width="3" height="16.6"/>
				</g>
				<g>
					<rect x="142.5" y="411.1" class="st10" width="3" height="16.6"/>
				</g>
				<g>
					<rect x="153.4" y="411.1" class="st10" width="3" height="16.6"/>
				</g>
				<g>
					<rect x="164.4" y="411.1" class="st10" width="3" height="16.6"/>
				</g>
				<g>
					<rect x="175.3" y="411.1" class="st10" width="3" height="16.6"/>
				</g>
				<g>
					<rect x="186.2" y="411.1" class="st10" width="3" height="16.6"/>
				</g>
				<g>
					<rect x="197.1" y="411.1" class="st10" width="3" height="16.6"/>
				</g>
				<g>
					<rect x="208.1" y="411.1" class="st10" width="3" height="16.6"/>
				</g>
				<g>
					<rect x="219" y="411.1" class="st10" width="3" height="16.6"/>
				</g>
			</g>
		</g>
		<g>
			<g>
				<rect x="109.9" y="433.7" class="st7" width="127.8" height="16.6"/>
			</g>
			<g>
				<rect x="109.9" y="430.7" class="st8" width="127.8" height="3"/>
			</g>
			<g>
				<rect x="109.9" y="450.3" class="st9" width="127.8" height="3"/>
			</g>
			<g>
				<g>
					<rect x="117.6" y="433.7" class="st10" width="3" height="16.6"/>
				</g>
				<g>
					<rect x="128.6" y="433.7" class="st10" width="3" height="16.6"/>
				</g>
				<g>
					<rect x="139.5" y="433.7" class="st10" width="3" height="16.6"/>
				</g>
				<g>
					<rect x="150.4" y="433.7" class="st10" width="3" height="16.6"/>
				</g>
				<g>
					<rect x="161.4" y="433.7" class="st10" width="3" height="16.6"/>
				</g>
				<g>
					<rect x="172.3" y="433.7" class="st10" width="3" height="16.6"/>
				</g>
				<g>
					<rect x="183.2" y="433.7" class="st10" width="3" height="16.6"/>
				</g>
				<g>
					<rect x="194.1" y="433.7" class="st10" width="3" height="16.6"/>
				</g>
				<g>
					<rect x="205.1" y="433.7" class="st10" width="3" height="16.6"/>
				</g>
				<g>
					<rect x="216" y="433.7" class="st10" width="3" height="16.6"/>
				</g>
				<g>
					<rect x="226.9" y="433.7" class="st10" width="3" height="16.6"/>
				</g>
			</g>
		</g>
		<g>
			<g>
				<rect x="100.5" y="456.3" class="st7" width="127.8" height="16.6"/>
			</g>
			<g>
				<rect x="100.5" y="453.3" class="st8" width="127.8" height="3"/>
			</g>
			<g>
				<rect x="100.5" y="472.9" class="st9" width="127.8" height="3"/>
			</g>
			<g>
				<g>
					<rect x="108.2" y="456.3" class="st10" width="3" height="16.6"/>
				</g>
				<g>
					<rect x="119.1" y="456.3" class="st10" width="3" height="16.6"/>
				</g>
				<g>
					<rect x="130.1" y="456.3" class="st10" width="3" height="16.6"/>
				</g>
				<g>
					<rect x="141" y="456.3" class="st10" width="3" height="16.6"/>
				</g>
				<g>
					<rect x="151.9" y="456.3" class="st10" width="3" height="16.6"/>
				</g>
				<g>
					<rect x="162.9" y="456.3" class="st10" width="3" height="16.6"/>
				</g>
				<g>
					<rect x="173.8" y="456.3" class="st10" width="3" height="16.6"/>
				</g>
				<g>
					<rect x="184.7" y="456.3" class="st10" width="3" height="16.6"/>
				</g>
				<g>
					<rect x="195.6" y="456.3" class="st10" width="3" height="16.6"/>
				</g>
				<g>
					<rect x="206.6" y="456.3" class="st10" width="3" height="16.6"/>
				</g>
				<g>
					<rect x="217.5" y="456.3" class="st10" width="3" height="16.6"/>
				</g>
			</g>
		</g>
		<g>
			<g>
				<rect x="109.9" y="479" class="st7" width="127.8" height="16.6"/>
			</g>
			<g>
				<rect x="109.9" y="476" class="st8" width="127.8" height="3"/>
			</g>
			<g>
				<rect x="109.9" y="495.5" class="st9" width="127.8" height="3"/>
			</g>
			<g>
				<g>
					<rect x="117.6" y="479" class="st10" width="3" height="16.6"/>
				</g>
				<g>
					<rect x="128.6" y="479" class="st10" width="3" height="16.6"/>
				</g>
				<g>
					<rect x="139.5" y="479" class="st10" width="3" height="16.6"/>
				</g>
				<g>
					<rect x="150.4" y="479" class="st10" width="3" height="16.6"/>
				</g>
				<g>
					<rect x="161.4" y="479" class="st10" width="3" height="16.6"/>
				</g>
				<g>
					<rect x="172.3" y="479" class="st10" width="3" height="16.6"/>
				</g>
				<g>
					<rect x="183.2" y="479" class="st10" width="3" height="16.6"/>
				</g>
				<g>
					<rect x="194.1" y="479" class="st10" width="3" height="16.6"/>
				</g>
				<g>
					<rect x="205.1" y="479" class="st10" width="3" height="16.6"/>
				</g>
				<g>
					<rect x="216" y="479" class="st10" width="3" height="16.6"/>
				</g>
				<g>
					<rect x="226.9" y="479" class="st10" width="3" height="16.6"/>
				</g>
			</g>
		</g>
		<g>
			<g>
				<rect x="97.4" y="501.6" class="st7" width="127.8" height="16.6"/>
			</g>
			<g>
				<rect x="97.4" y="498.6" class="st8" width="127.8" height="3"/>
			</g>
			<g>
				<rect x="97.4" y="518.2" class="st9" width="127.8" height="3"/>
			</g>
			<g>
				<g>
					<rect x="105.2" y="501.6" class="st10" width="3" height="16.6"/>
				</g>
				<g>
					<rect x="116.1" y="501.6" class="st10" width="3" height="16.6"/>
				</g>
				<g>
					<rect x="127" y="501.6" class="st10" width="3" height="16.6"/>
				</g>
				<g>
					<rect x="138" y="501.6" class="st10" width="3" height="16.6"/>
				</g>
				<g>
					<rect x="148.9" y="501.6" class="st10" width="3" height="16.6"/>
				</g>
				<g>
					<rect x="159.8" y="501.6" class="st10" width="3" height="16.6"/>
				</g>
				<g>
					<rect x="170.8" y="501.6" class="st10" width="3" height="16.6"/>
				</g>
				<g>
					<rect x="181.7" y="501.6" class="st10" width="3" height="16.6"/>
				</g>
				<g>
					<rect x="192.6" y="501.6" class="st10" width="3" height="16.6"/>
				</g>
				<g>
					<rect x="203.6" y="501.6" class="st10" width="3" height="16.6"/>
				</g>
				<g>
					<rect x="214.5" y="501.6" class="st10" width="3" height="16.6"/>
				</g>
			</g>
		</g>
		<g class="st11">
			<g>
				<path class="st12" d="M98.8,400.9v120.3h31.3c8.9-4.8,16.5-11.4,22.3-19.6c7.4-10.4,11.8-23.1,11.8-36.9
					c0-35.3-28.6-63.9-63.9-63.9C99.8,400.8,99.2,400.8,98.8,400.9z"/>
			</g>
		</g>
		<g>
			<g>
				<g>
					<path class="st7" d="M36.4,457.3c0,35.3,28.6,63.9,63.9,63.9c10.4,0,20.3-2.5,28.9-6.9c9.3-4.8,17.2-11.7,23.2-20.1
						c7.4-10.4,11.8-23.1,11.8-36.9c0-35.3-28.6-63.9-63.9-63.9c-6.4,0-12.6,1-18.4,2.7c-12.2,3.7-23,11-30.8,20.6
						C41.8,427.7,36.4,441.9,36.4,457.3z"/>
				</g>
			</g>
			<g>
				<g>
					<path class="st8" d="M42.1,457.3c0-32.1,26.1-58.2,58.2-58.2c32.1,0,58.2,26.1,58.2,58.2c0,32.1-26.1,58.2-58.2,58.2
						C68.2,515.5,42.1,489.4,42.1,457.3z M46,457.3c0,29.9,24.3,54.2,54.2,54.2s54.2-24.3,54.2-54.2c0-29.9-24.3-54.2-54.2-54.2
						S46,427.4,46,457.3z"/>
				</g>
			</g>
			<g>
				<g>
					<path class="st13" d="M119,464c-1.4-2.4-3.2-4.4-5.2-6c-1.9-1.5-4.5-3.3-7.6-5.1c-2.6-1.6-4.5-2.9-5.9-3.9
						c-1.3-1-2.4-2.2-3.3-3.5c-0.8-1.2-1.2-2.5-1.2-4.1c0-1.7,0.4-2.9,1.2-3.5c0.8-0.7,2.1-1.1,3.9-1.1c1.8,0,3.1,0.4,3.9,1.1
						c0.8,0.7,1.2,1.9,1.2,3.5v4h15.3V442c0-4.6-1.3-8.4-4-11.2c-2.4-2.6-5.8-4.3-10.1-5.1v-4.8H93.5v4.9c-4.2,0.9-7.6,2.7-9.9,5.2
						c-2.6,2.8-3.9,6.6-3.9,11.1c0,3.2,0.8,6.1,2.2,8.5c1.4,2.4,3.2,4.4,5.2,6c1.9,1.5,4.5,3.3,7.6,5.1c2.6,1.6,4.5,2.9,5.9,3.9
						c1.3,1,2.4,2.2,3.3,3.5c0.8,1.2,1.2,2.5,1.2,4.1c0,2.2-0.6,4.5-5.3,4.5c-4.7,0-5.3-2.3-5.3-4.5v-6.3H79.3v5.7
						c0,4.6,1.3,8.4,4,11.3c2.4,2.6,5.8,4.3,10.2,5.2v4.7h13.6v-4.8c4.3-0.9,7.7-2.6,10.1-5.2c2.7-2.9,4-6.7,4-11.3
						C121.2,469.3,120.5,466.4,119,464z"/>
				</g>
			</g>
			<g class="st6">
				<g>
					<path class="st2" d="M51,416.7l78.2,97.6c9.3-4.8,17.2-11.7,23.2-20.1l-70.6-98.1C69.6,399.7,58.9,407,51,416.7z"/>
				</g>
			</g>
		</g>
	</g>
	<g>
		<g>
			<path class="st1" d="M233.2,297.3c-0.4-0.8-0.6-1.8-0.6-2.7c0-3.7,3-6.7,6.7-6.7h152.2c3.7,0,6.7,3,6.7,6.7c0,1-0.2,1.9-0.6,2.7
				c-1-2.4-3.4-4-6.2-4H239.4C236.6,293.3,234.3,294.9,233.2,297.3z"/>
		</g>
		<g>
			<g>
				
					<rect x="174.1" y="366.2" transform="matrix(-1 -1.224647e-16 1.224647e-16 -1 475.1499 861.1418)" class="st2" width="126.9" height="128.8"/>
			</g>
			<g>
				<g>
					<polygon class="st2" points="281.1,495 281.1,495 281.1,495 					"/>
				</g>
				<g>
					<path class="st2" d="M211.2,428L211.2,428l0-91.1h90.2c1,0,2.1,0.1,3.1,0.3c0.4,0.1,0.8,0.1,1.2,0.2c0.4,0.1,0.8,0.2,1.2,0.3
						c0.4,0.1,0.8,0.2,1.1,0.4c0.9,0.3,1.8,0.8,2.7,1.3c0,0,0,0,0,0c-0.4,0.2-0.7,0.4-1.1,0.6c0,0,0,0,0,0c-0.5,0.3-1,0.7-1.5,1.1
						c-0.5,0.4-0.9,0.8-1.4,1.2c-0.2,0.2-0.4,0.4-0.6,0.7c-0.1,0.1-0.3,0.3-0.4,0.4c-0.1,0.2-0.3,0.3-0.4,0.5
						c-0.1,0.1-0.2,0.3-0.3,0.4c-0.2,0.3-0.4,0.5-0.6,0.8c-0.6,0.8-1.1,1.7-1.5,2.7c-0.1,0.3-0.3,0.6-0.4,1
						c-0.9,2.2-1.4,4.6-1.4,7.1V449h-2.3v-1.1h-67.7v0C220.1,447.9,211.2,439,211.2,428z"/>
				</g>
				<g>
					<path class="st1" d="M301.5,336.9h-44v-1.1h44c3.4,0,6.8,0.9,9.8,2.6l1.7,1l-1.7,1c-5.6,3.2-9.1,9.1-9.1,15.5v87.8H301v-87.8
						c0-7.1,3.9-13.3,9.6-16.5C308,337.8,304.8,336.9,301.5,336.9z"/>
				</g>
				<g>
					<path class="st1" d="M173,363.4v-9.2c0-9.8,7.7-17.8,17.4-18.4v1.1c-1.9,0.1-3.7,0.5-5.3,1.2c-0.3,0.1-0.5,0.2-0.8,0.3
						c-0.4,0.2-0.8,0.4-1.1,0.6c-0.1,0.1-0.2,0.1-0.4,0.2c-0.4,0.2-0.7,0.4-1.1,0.7c-0.2,0.2-0.5,0.3-0.7,0.5
						c-0.3,0.2-0.7,0.5-1,0.8c-0.2,0.2-0.4,0.4-0.6,0.6c-0.2,0.2-0.4,0.4-0.6,0.6c-0.2,0.2-0.4,0.4-0.6,0.6c-0.3,0.3-0.5,0.6-0.8,1
						c-0.2,0.2-0.3,0.4-0.5,0.7c-0.1,0.1-0.2,0.2-0.2,0.3c-0.1,0.2-0.2,0.4-0.4,0.6c-0.1,0.2-0.2,0.3-0.3,0.5
						c-0.2,0.4-0.4,0.7-0.6,1.1c-0.1,0.2-0.2,0.4-0.3,0.7c0,0.1-0.1,0.1-0.1,0.2c-0.7,1.9-1.2,4-1.2,6.2v9.2H173z"/>
				</g>
				<g>
					<rect x="173" y="384.6" class="st1" width="1.1" height="43.5"/>
				</g>
				<g>
					<rect x="174.1" y="495" class="st1" width="96.2" height="1.1"/>
				</g>
				<g>
					<polygon class="st2" points="320,336.9 320,336.9 320,336.9 					"/>
				</g>
				<g>
					<path class="st14" d="M211.2,428.2v-91.3h90.2c1,0,2.1,0.1,3.1,0.3c0.4,0.1,0.8,0.1,1.2,0.2c0.4,0.1,0.8,0.2,1.2,0.3
						c0.4,0.1,0.8,0.2,1.1,0.4c0.9,0.3,1.8,0.8,2.7,1.3c0.4,0.2,0.7,0.4,1.1,0.7c5,3.3,8.3,9,8.3,15.4v72.7H211.2z"/>
				</g>
				<g>
					<path class="st14" d="M211.2,428h39.7c0,0.1,0,0.1,0,0.2c0,0.1,0,0.2,0,0.4c0,0,0,0,0,0.1c0,0,0,0,0,0c0,0.2,0,0.4,0,0.7
						c0,0,0,0,0,0c-0.2,3.4-1.3,6.6-3.1,9.4c0,0,0,0,0,0c-0.1,0.1-0.2,0.3-0.3,0.4l0,0c-0.2,0.3-0.4,0.5-0.5,0.8c0,0,0,0,0,0
						c-0.2,0.3-0.4,0.5-0.6,0.8c-0.1,0.1-0.1,0.1-0.2,0.2c0,0-0.1,0.1-0.1,0.1c-0.1,0.1-0.2,0.2-0.3,0.4c-0.1,0.1-0.2,0.2-0.3,0.3
						c-0.1,0.1-0.2,0.2-0.3,0.3c0,0,0,0,0,0c-0.1,0.1-0.2,0.2-0.3,0.3c-0.2,0.2-0.5,0.4-0.7,0.6c-0.1,0.1-0.3,0.3-0.5,0.4
						c-0.2,0.2-0.4,0.3-0.7,0.5c-0.1,0.1-0.3,0.2-0.4,0.3c-0.1,0.1-0.3,0.2-0.4,0.3c-0.1,0.1-0.3,0.2-0.4,0.3c0,0,0,0,0,0
						c-0.1,0.1-0.3,0.2-0.4,0.2c0,0,0,0,0,0c0,0,0,0,0,0c-0.1,0-0.1,0.1-0.2,0.1c-0.1,0-0.1,0.1-0.2,0.1c0,0-0.1,0-0.1,0.1
						c-0.2,0.1-0.5,0.3-0.7,0.4c-0.1,0.1-0.3,0.1-0.4,0.2c-0.1,0.1-0.3,0.1-0.4,0.2c0,0,0,0,0,0c-0.1,0.1-0.3,0.1-0.4,0.2
						c0,0,0,0,0,0c-0.1,0.1-0.3,0.1-0.4,0.2c-0.1,0.1-0.3,0.1-0.4,0.2c0,0,0,0,0,0c-0.1,0.1-0.3,0.1-0.5,0.2c0,0,0,0,0,0
						c-0.3,0.1-0.7,0.2-1.1,0.3c-1.7,0.5-3.5,0.7-5.3,0.7C220.1,447.9,211.2,439,211.2,428z"/>
				</g>
				<g>
					<path class="st2" d="M250.9,392.8L250.9,392.8C250.9,392.8,250.9,392.8,250.9,392.8z"/>
				</g>
				<g>
					<path class="st2" d="M231.1,447.9c1.6,0,3.1-0.2,4.6-0.5c0.2-0.1,0.5-0.1,0.7-0.2c0.4-0.1,0.7-0.2,1.1-0.3c0,0,0,0,0,0
						c0.2,0,0.3-0.1,0.5-0.2h0c0.1-0.1,0.3-0.1,0.4-0.2c0.1-0.1,0.3-0.1,0.4-0.2c0,0,0,0,0,0c0.1-0.1,0.3-0.1,0.4-0.2c0,0,0,0,0,0
						c0.1-0.1,0.3-0.1,0.4-0.2c0.1-0.1,0.3-0.1,0.4-0.2c0.2-0.1,0.5-0.3,0.7-0.4c0,0,0.1,0,0.1-0.1c0.1,0,0.1-0.1,0.2-0.1
						c0.1,0,0.1-0.1,0.2-0.1c0,0,0,0,0,0c0.3-0.2,0.5-0.3,0.8-0.5c0.1-0.1,0.3-0.2,0.4-0.3c0.1-0.1,0.3-0.2,0.4-0.3
						c0.2-0.2,0.4-0.3,0.7-0.5c0.2-0.1,0.3-0.3,0.5-0.4c0.2-0.2,0.5-0.4,0.7-0.6c0.1-0.1,0.2-0.2,0.3-0.3c0,0,0,0,0,0
						c0.1-0.1,0.2-0.2,0.3-0.3c0.2-0.3,0.5-0.5,0.7-0.8c0.1-0.1,0.1-0.1,0.2-0.2c0.2-0.3,0.4-0.5,0.6-0.8c0,0,0,0,0,0
						c0.2-0.3,0.4-0.5,0.5-0.8c0,0,0,0,0,0c0.1-0.1,0.2-0.3,0.3-0.4c0,0,0,0,0,0c0.1-0.1,0.2-0.3,0.2-0.4c0.2-0.3,0.3-0.5,0.5-0.8
						c0,0,0,0,0,0c0.1-0.3,0.3-0.6,0.4-0.8c0.1-0.3,0.3-0.6,0.4-0.9c0.4-0.9,0.7-1.8,0.9-2.8c0,0,0,0,0,0c0.1-0.3,0.2-0.6,0.2-0.9
						c0,0,0,0,0,0c0.1-0.3,0.1-0.6,0.2-1c0.1-0.3,0.1-0.7,0.1-1c0-0.2,0-0.5,0.1-0.7c0,0,0,0,0,0c0-0.2,0-0.4,0-0.7c0,0,0-0.1,0-0.1
						c0-0.1,0-0.2,0-0.4c0-0.1,0-0.1,0-0.2v0c0-5.3,0-13.1,0-22.5c0-7.8,0-16.8,0-26.3v-3c0-8.8,0-18.1,0-27.3c0-4,0-8,0-12
						c0-30.3,0-27.1,0-38.4c0-3.3,0-5.2,0-5.2h126.1l-0.1,82.8l-0.1,0.1l0,51.8v0c0,2.6-0.5,5-1.4,7.3c-0.1,0.3-0.2,0.6-0.4,0.9
						c-0.3,0.7-0.7,1.4-1.1,2.1c-0.2,0.3-0.3,0.5-0.5,0.8c-0.3,0.4-0.5,0.8-0.8,1.2c-0.1,0.1-0.2,0.2-0.3,0.4
						c-0.2,0.2-0.4,0.5-0.6,0.7c-0.2,0.2-0.4,0.5-0.7,0.7c-0.8,0.8-1.7,1.6-2.7,2.3c-0.2,0.1-0.4,0.3-0.6,0.4c0,0,0,0,0,0
						c-0.3,0.2-0.5,0.3-0.8,0.5c-0.9,0.5-1.8,0.9-2.7,1.3c-0.2,0.1-0.4,0.2-0.7,0.2c-0.2,0.1-0.4,0.1-0.6,0.2
						c-0.3,0.1-0.6,0.2-0.9,0.3c-1.6,0.4-3.2,0.6-5,0.6l0,0v0H231.1z"/>
				</g>
				<g>
					<path class="st1" d="M231.1,447.9v-1.1c10.3,0,18.6-8.3,18.7-18.6c0-0.1,0-0.1,0-0.2h1.1c0,0.1,0,0.1,0,0.2c0,0.1,0,0.3,0,0.4
						c0,0.5,0,1-0.1,1.4c0,0.3-0.1,0.7-0.1,1c0,0.3-0.1,0.6-0.2,1c0,0,0,0,0,0c-0.1,0.3-0.1,0.6-0.2,0.9c0,0,0,0,0,0
						c-0.2,1-0.6,1.9-0.9,2.8c-0.1,0.3-0.3,0.6-0.4,0.9c-0.1,0.3-0.3,0.6-0.4,0.8c0,0,0,0,0,0c-0.2,0.3-0.3,0.6-0.5,0.8
						c-0.2,0.3-0.3,0.5-0.5,0.8c0,0,0,0,0,0c-0.4,0.7-0.9,1.3-1.4,1.9c-0.1,0.1-0.2,0.2-0.3,0.4c-0.2,0.2-0.4,0.5-0.6,0.7
						c0,0,0,0,0,0c-0.1,0.1-0.2,0.2-0.3,0.3c-0.2,0.2-0.5,0.4-0.7,0.6c-0.1,0.1-0.3,0.3-0.5,0.4c-0.2,0.2-0.4,0.3-0.7,0.5
						c-0.1,0.1-0.3,0.2-0.4,0.3c-0.3,0.2-0.5,0.4-0.8,0.5c0,0,0,0,0,0c-0.1,0.1-0.3,0.2-0.4,0.3c-0.1,0-0.1,0.1-0.2,0.1
						c-0.1,0-0.1,0.1-0.2,0.1c0,0-0.1,0-0.1,0.1c-0.2,0.1-0.5,0.3-0.7,0.4c-0.1,0.1-0.3,0.1-0.4,0.2c-0.1,0.1-0.3,0.1-0.4,0.2v0
						c0,0,0,0,0,0c-0.1,0.1-0.3,0.1-0.4,0.2v0c0,0,0,0,0,0c-0.1,0.1-0.3,0.1-0.4,0.2c-0.1,0.1-0.3,0.1-0.4,0.2v0h0
						c-0.1,0.1-0.3,0.1-0.5,0.2c0,0,0,0,0,0c-0.3,0.1-0.7,0.2-1.1,0.3c-0.2,0.1-0.5,0.1-0.7,0.2c0,0,0,0,0,0c0,0,0,0-0.1,0
						c-0.3,0.1-0.6,0.1-0.9,0.2c-0.1,0-0.2,0-0.3,0c-0.3,0-0.6,0.1-0.9,0.1c-0.1,0-0.3,0-0.4,0c-0.3,0-0.5,0.1-0.8,0.1
						c-0.1,0-0.3,0-0.4,0c-0.2,0-0.4,0-0.6,0C231.3,447.9,231.2,447.9,231.1,447.9z"/>
				</g>
				<g>
					<g>
						<path class="st2" d="M250.9,392.8L250.9,392.8C250.9,392.8,250.9,392.8,250.9,392.8z"/>
					</g>
					<g>
						<rect x="377.1" y="298.5" class="st1" width="1.1" height="53.1"/>
					</g>
					<g>
						<path class="st1" d="M298.8,449v-1.1h58.3v0h0v0h0c1.7,0,3.4-0.2,5-0.6c0.3-0.1,0.6-0.2,0.9-0.3c0.2-0.1,0.4-0.1,0.6-0.2
							c0.2-0.1,0.4-0.2,0.7-0.2c0.9-0.4,1.9-0.8,2.7-1.3c0.3-0.2,0.5-0.3,0.8-0.5c0,0,0,0,0,0c0.2-0.1,0.4-0.3,0.6-0.4
							c1-0.7,1.9-1.4,2.7-2.3c0.2-0.2,0.4-0.5,0.7-0.7c0.2-0.2,0.4-0.5,0.6-0.7c0.1-0.1,0.2-0.2,0.3-0.4c0.3-0.4,0.6-0.8,0.8-1.2
							c0.2-0.3,0.3-0.5,0.5-0.8c0.4-0.7,0.8-1.4,1.1-2.1c0.1-0.3,0.3-0.6,0.4-0.9c0.9-2.3,1.4-4.7,1.4-7.3v0l0-16.1h1.1l0,16.2
							c0,11.2-8.8,20.4-19.9,20.9v0l-1.6,0H298.8z"/>
					</g>
					<g>
						<path class="st1" d="M250.9,348.9h-1.1c0-34.5,0-37.6,0-50.4h1.1C250.9,311.3,250.9,314.4,250.9,348.9z"/>
					</g>
					<g>
						<path class="st1" d="M231.1,447.9v-1.1c10.3,0,18.6-8.3,18.7-18.6c0-0.1,0-0.1,0-0.2v0c0-10.2,0-29.7,0-51.8h1.1v3
							c0,9.5,0,18.4,0,26.3c0,9.4,0,17.2,0,22.5v0c0,0.1,0,0.1,0,0.2c0,0.1,0,0.3,0,0.4c0,0.5,0,1-0.1,1.4c0,0.3-0.1,0.7-0.1,1
							c0,0.3-0.1,0.6-0.2,1c0,0,0,0,0,0c-0.1,0.3-0.1,0.6-0.2,0.9c0,0,0,0,0,0c-0.2,1-0.6,1.9-0.9,2.8c-0.1,0.3-0.3,0.6-0.4,0.9
							c-0.1,0.3-0.3,0.6-0.4,0.8c0,0,0,0,0,0c-0.2,0.3-0.3,0.6-0.5,0.8c-0.2,0.3-0.3,0.5-0.5,0.8c0,0,0,0,0,0
							c-0.4,0.7-0.9,1.3-1.4,1.9c-0.1,0.1-0.2,0.2-0.3,0.4c-0.2,0.2-0.4,0.5-0.6,0.7c0,0,0,0,0,0c-0.1,0.1-0.2,0.2-0.3,0.3
							c-0.2,0.2-0.5,0.4-0.7,0.6c-0.1,0.1-0.3,0.3-0.5,0.4c-0.2,0.2-0.4,0.3-0.7,0.5c-0.1,0.1-0.3,0.2-0.4,0.3
							c-0.3,0.2-0.5,0.4-0.8,0.5c0,0,0,0,0,0c-0.1,0.1-0.3,0.2-0.4,0.3c-0.1,0-0.1,0.1-0.2,0.1c-0.1,0-0.1,0.1-0.2,0.1
							c0,0-0.1,0-0.1,0.1c-0.2,0.1-0.5,0.3-0.7,0.4c-0.1,0.1-0.3,0.1-0.4,0.2c-0.1,0.1-0.3,0.1-0.4,0.2v0c0,0,0,0,0,0
							c-0.1,0.1-0.3,0.1-0.4,0.2v0c0,0,0,0,0,0c-0.1,0.1-0.3,0.1-0.4,0.2c-0.1,0.1-0.3,0.1-0.4,0.2v0h0c-0.1,0.1-0.3,0.1-0.5,0.2
							c0,0,0,0,0,0c-0.3,0.1-0.7,0.2-1.1,0.3c-0.2,0.1-0.5,0.1-0.7,0.2c0,0,0,0,0,0c0,0,0,0-0.1,0c-0.3,0.1-0.6,0.1-0.9,0.2
							c-0.1,0-0.2,0-0.3,0c-0.3,0-0.6,0.1-0.9,0.1c-0.1,0-0.3,0-0.4,0c-0.3,0-0.5,0.1-0.8,0.1c-0.1,0-0.3,0-0.4,0
							c-0.2,0-0.4,0-0.6,0C231.3,447.9,231.2,447.9,231.1,447.9z"/>
					</g>
				</g>
			</g>
			<g>
				
					<rect x="192.8" y="336.9" transform="matrix(-1 -1.224647e-16 1.224647e-16 -1 412.7683 695.9925)" class="st14" width="27.2" height="22.3"/>
			</g>
			<g>
				<path class="st2" d="M184.4,336.9h16.8c5.5,0,10,4.5,10,10v40.6h-36.9v-40.6C174.4,341.4,178.9,336.9,184.4,336.9z"/>
			</g>
			<g>
				<g>
					<rect x="260.1" y="326.3" class="st4" width="107.7" height="3.2"/>
				</g>
				<g>
					<rect x="260.1" y="358.3" class="st4" width="18.6" height="3.2"/>
				</g>
				<g>
					<rect x="283.3" y="358.3" class="st4" width="61.3" height="3.2"/>
				</g>
				<g>
					<rect x="349.2" y="358.3" class="st4" width="18.6" height="3.2"/>
				</g>
				<g>
					<rect x="260.1" y="366.7" class="st4" width="18.6" height="3.2"/>
				</g>
				<g>
					<rect x="283.3" y="366.7" class="st4" width="61.3" height="3.2"/>
				</g>
				<g>
					<rect x="349.2" y="366.7" class="st4" width="18.6" height="3.2"/>
				</g>
				<g>
					<rect x="260.1" y="375.1" class="st4" width="18.6" height="3.2"/>
				</g>
				<g>
					<rect x="283.3" y="375.1" class="st4" width="61.3" height="3.2"/>
				</g>
				<g>
					<rect x="349.2" y="375.1" class="st4" width="18.6" height="3.2"/>
				</g>
				<g>
					<rect x="260.1" y="383.5" class="st4" width="18.6" height="3.2"/>
				</g>
				<g>
					<rect x="283.3" y="383.5" class="st4" width="61.3" height="3.2"/>
				</g>
				<g>
					<rect x="349.2" y="383.5" class="st4" width="18.6" height="3.2"/>
				</g>
				<g>
					<rect x="274.5" y="335.9" class="st4" width="78.8" height="3.2"/>
				</g>
				<g>
					<rect x="294.2" y="397.3" class="st4" width="39.5" height="3.2"/>
				</g>
				<g>
					<rect x="260.1" y="349.9" class="st4" width="107.7" height="3.2"/>
				</g>
			</g>
		</g>
		<g class="st15">
			<path class="st1" d="M391.6,301.3H239.4c-2.7,0-5.1-1.6-6.2-4c1-2.4,3.4-4,6.2-4h152.2c2.7,0,5.1,1.6,6.2,4
				c-0.3,0.8-0.8,1.4-1.4,2C395.2,300.5,393.5,301.3,391.6,301.3z"/>
		</g>
	</g>
	<g>
		<g class="st15">
			<path class="st1" d="M369,139.2c0.4,93.8-53.5,106.9-53.5,106.9s-4.5-1.1-11-5c-2.9-1.8-6.3-4.1-9.7-7.1
				c-6.6-5.9-13.8-14.4-19.8-26.7c-2.1-4.4-4.1-9.4-5.9-14.9c-0.7-2.3-1.4-4.7-2.1-7.2c-0.9-3.3-1.6-6.8-2.3-10.5
				c-1.9-10.3-2.9-22.1-2.9-35.6c0,0,16.8-4.5,16-18.8c0,0,6.4-2.6,16.3-4.6c2.5-0.5,5.3-1,8.2-1.3c1.9-0.2,3.9-0.4,5.9-0.6
				c2.3-0.2,4.7-0.3,7.2-0.3c2.1,0,4.2,0.1,6.2,0.2c14.7,0.9,26.2,4.7,30,6.1c0.9,0.3,1.3,0.5,1.3,0.5c-0.3,5.7,2.2,9.9,5.3,12.9
				C363,137.6,369,139.2,369,139.2z"/>
		</g>
		<g>
			<path class="st14" d="M369.6,131.7c0.4,93.8-54.1,106.9-54.1,106.9s-4.6-1.1-11.1-5c-3-1.8-6.3-4.1-9.8-7.1
				c-6.7-5.9-14-14.4-20-26.7c-2.2-4.4-4.2-9.4-5.9-14.9c-0.7-2.3-1.4-4.7-2.1-7.2c-0.9-3.3-1.6-6.8-2.3-10.5
				c-1.9-10.3-3-22.1-2.9-35.6c0,0,17-4.5,16.2-18.8c0,0,6.4-2.6,16.4-4.6c2.5-0.5,5.3-1,8.3-1.3c1.9-0.2,3.9-0.4,6-0.6
				c2.3-0.2,4.8-0.3,7.2-0.3c2.1,0,4.2,0.1,6.2,0.2c14.8,0.9,26.5,4.7,30.3,6.1c0.9,0.3,1.3,0.5,1.3,0.5c-0.3,5.7,2.2,9.9,5.4,12.9
				C363.5,130.1,369.6,131.7,369.6,131.7z"/>
		</g>
		<g>
			<path class="st3" d="M315.5,230.2c-3.9-1.5-13-5.8-22-16.1c-15.1-17.2-23.4-43.8-24-77c6.5-3.2,13.7-9.2,15.7-18.4
				c6-1.8,17.2-4.6,30.4-4.6c13.1,0,24.4,2.8,30.4,4.6c1.9,9.3,9.2,15.2,15.7,18.4c-0.7,33.2-8.9,59.8-24,77
				C328.5,224.4,319.4,228.7,315.5,230.2z"/>
		</g>
		<g>
			<path class="st1" d="M315.5,230.2c-4.3-1.6-8.4-3.8-12.1-6.5c-1.9-1.3-3.7-2.8-5.4-4.3c-1.7-1.5-3.3-3.2-4.9-4.9
				c-3.1-3.4-5.8-7.2-8.3-11.1c-2.4-3.9-4.5-8.1-6.3-12.3c-3.6-8.5-6.1-17.4-7.7-26.5c-1.7-9.1-2.5-18.3-2.7-27.5l0-0.9l0.8-0.4
				c3.6-1.8,6.9-4.2,9.5-7.2c2.6-3,4.5-6.5,5.3-10.3l0.2-0.9l0.8-0.3c5-1.5,10.1-2.7,15.2-3.5c5.1-0.8,10.4-1.2,15.6-1.3
				c5.2,0,10.4,0.4,15.6,1.3c5.1,0.8,10.2,2,15.2,3.5l0.8,0.3l0.2,0.9c0.8,3.8,2.7,7.4,5.3,10.3c2.6,3,5.9,5.4,9.5,7.2l0.8,0.4
				l0,0.9c-0.2,9.2-1.1,18.4-2.7,27.5c-1.6,9.1-4.1,18-7.7,26.5c-1.9,4.2-3.9,8.4-6.3,12.3c-2.5,3.9-5.2,7.6-8.3,11.1
				c-1.6,1.7-3.2,3.3-4.9,4.9c-1.7,1.5-3.5,3-5.4,4.3C323.9,226.4,319.8,228.6,315.5,230.2z M315.5,230.2c4.2-1.8,8.1-4.2,11.7-7
				c1.8-1.4,3.5-2.9,5.2-4.5c1.6-1.6,3.2-3.2,4.7-5c2.9-3.5,5.5-7.2,7.8-11.1c2.3-3.9,4.2-8,5.9-12.2c3.3-8.5,5.6-17.3,7.1-26.2
				c1.4-9,2.2-18,2.3-27.1l0.8,1.3c-3.9-1.9-7.5-4.5-10.4-7.7c-1.5-1.6-2.8-3.4-3.8-5.4c-1-2-1.8-4.1-2.3-6.2l1,1.1
				c-4.8-1.5-9.8-2.6-14.8-3.3c-5-0.8-10.1-1.2-15.1-1.2c-5.1,0-10.1,0.4-15.1,1.2c-5,0.8-10,1.9-14.8,3.3l1-1.1
				c-0.5,2.2-1.2,4.3-2.3,6.2c-1,2-2.3,3.8-3.8,5.4c-3,3.3-6.6,5.8-10.4,7.7l0.8-1.3c0.2,9.1,0.9,18.2,2.3,27.1
				c1.4,9,3.8,17.8,7.1,26.2c1.7,4.2,3.6,8.3,5.9,12.2c2.3,3.9,4.9,7.7,7.8,11.1c1.5,1.7,3,3.4,4.7,5c1.6,1.6,3.4,3.1,5.2,4.5
				C307.4,226,311.3,228.5,315.5,230.2z"/>
		</g>
	</g>
	<g>
		<g>
			<path class="st3" d="M516.7,218.6h-82.3c-17.8,0-32.2,14.4-32.2,32.2v248.8c0,12,9.7,21.7,21.7,21.7h103.3
				c12,0,21.7-9.7,21.7-21.7V250.8C548.9,233,534.5,218.6,516.7,218.6z"/>
		</g>
		<g>
			<path class="st1" d="M524.4,195h-97.7c-7.9,0-14.2,6.4-14.2,14.2v151.9c0,16.9,13.7,30.5,30.5,30.5h65.1
				c16.9,0,30.5-13.7,30.5-30.5V209.3C538.6,201.4,532.2,195,524.4,195z"/>
		</g>
		<g>
			<g>
				<path class="st2" d="M438.9,407.4h-10.2c-3.3,0-6,2.7-6,6v2.2c0,3.3,2.7,6,6,6h10.2c3.3,0,6-2.7,6-6v-2.2
					C444.9,410.1,442.2,407.4,438.9,407.4z"/>
			</g>
			<g>
				<path class="st2" d="M466.7,407.4h-10.2c-3.3,0-6,2.7-6,6v2.2c0,3.3,2.7,6,6,6h10.2c3.3,0,6-2.7,6-6v-2.2
					C472.7,410.1,470,407.4,466.7,407.4z"/>
			</g>
			<g>
				<path class="st2" d="M494.5,407.4h-10.2c-3.3,0-6,2.7-6,6v2.2c0,3.3,2.7,6,6,6h10.2c3.3,0,6-2.7,6-6v-2.2
					C500.5,410.1,497.8,407.4,494.5,407.4z"/>
			</g>
			<g>
				<path class="st2" d="M522.4,407.4h-10.2c-3.3,0-6,2.7-6,6v2.2c0,3.3,2.7,6,6,6h10.2c3.3,0,6-2.7,6-6v-2.2
					C528.3,410.1,525.7,407.4,522.4,407.4z"/>
			</g>
			<g>
				<path class="st2" d="M438.9,426.7h-10.2c-3.3,0-6,2.7-6,6v2.2c0,3.3,2.7,6,6,6h10.2c3.3,0,6-2.7,6-6v-2.2
					C444.9,429.4,442.2,426.7,438.9,426.7z"/>
			</g>
			<g>
				<path class="st2" d="M466.7,426.7h-10.2c-3.3,0-6,2.7-6,6v2.2c0,3.3,2.7,6,6,6h10.2c3.3,0,6-2.7,6-6v-2.2
					C472.7,429.4,470,426.7,466.7,426.7z"/>
			</g>
			<g>
				<path class="st2" d="M494.5,426.7h-10.2c-3.3,0-6,2.7-6,6v2.2c0,3.3,2.7,6,6,6h10.2c3.3,0,6-2.7,6-6v-2.2
					C500.5,429.4,497.8,426.7,494.5,426.7z"/>
			</g>
			<g>
				<path class="st2" d="M522.4,426.7h-10.2c-3.3,0-6,2.7-6,6v2.2c0,3.3,2.7,6,6,6h10.2c3.3,0,6-2.7,6-6v-2.2
					C528.3,429.4,525.7,426.7,522.4,426.7z"/>
			</g>
			<g>
				<path class="st2" d="M438.9,446h-10.2c-3.3,0-6,2.7-6,6v2.2c0,3.3,2.7,6,6,6h10.2c3.3,0,6-2.7,6-6V452
					C444.9,448.7,442.2,446,438.9,446z"/>
			</g>
			<g>
				<path class="st2" d="M466.7,446h-10.2c-3.3,0-6,2.7-6,6v2.2c0,3.3,2.7,6,6,6h10.2c3.3,0,6-2.7,6-6V452
					C472.7,448.7,470,446,466.7,446z"/>
			</g>
			<g>
				<path class="st2" d="M494.5,446h-10.2c-3.3,0-6,2.7-6,6v2.2c0,3.3,2.7,6,6,6h10.2c3.3,0,6-2.7,6-6V452
					C500.5,448.7,497.8,446,494.5,446z"/>
			</g>
			<g>
				<path class="st2" d="M522.4,446h-10.2c-3.3,0-6,2.7-6,6v2.2c0,3.3,2.7,6,6,6h10.2c3.3,0,6-2.7,6-6V452
					C528.3,448.7,525.7,446,522.4,446z"/>
			</g>
			<g>
				<path class="st2" d="M438.9,465.4h-10.2c-3.3,0-6,2.7-6,6v2.2c0,3.3,2.7,6,6,6h10.2c3.3,0,6-2.7,6-6v-2.2
					C444.9,468,442.2,465.4,438.9,465.4z"/>
			</g>
			<g>
				<path class="st2" d="M466.7,465.4h-10.2c-3.3,0-6,2.7-6,6v2.2c0,3.3,2.7,6,6,6h10.2c3.3,0,6-2.7,6-6v-2.2
					C472.7,468,470,465.4,466.7,465.4z"/>
			</g>
			<g>
				<path class="st2" d="M494.5,465.4h-10.2c-3.3,0-6,2.7-6,6v2.2c0,3.3,2.7,6,6,6h10.2c3.3,0,6-2.7,6-6v-2.2
					C500.5,468,497.8,465.4,494.5,465.4z"/>
			</g>
			<g>
				<path class="st1" d="M522.4,465.4h-10.2c-3.3,0-6,2.7-6,6v2.2c0,3.3,2.7,6,6,6h10.2c3.3,0,6-2.7,6-6v-2.2
					C528.3,468,525.7,465.4,522.4,465.4z"/>
			</g>
			<g>
				<rect x="506.2" y="471.3" class="st1" width="22.2" height="20.4"/>
			</g>
			<g>
				<path class="st16" d="M438.9,484.7h-10.2c-3.3,0-6,2.7-6,6v2.2c0,3.3,2.7,6,6,6h10.2c3.3,0,6-2.7,6-6v-2.2
					C444.9,487.4,442.2,484.7,438.9,484.7z"/>
			</g>
			<g>
				<path class="st2" d="M466.7,484.7h-10.2c-3.3,0-6,2.7-6,6v2.2c0,3.3,2.7,6,6,6h10.2c3.3,0,6-2.7,6-6v-2.2
					C472.7,487.4,470,484.7,466.7,484.7z"/>
			</g>
			<g>
				<path class="st5" d="M494.5,484.7h-10.2c-3.3,0-6,2.7-6,6v2.2c0,3.3,2.7,6,6,6h10.2c3.3,0,6-2.7,6-6v-2.2
					C500.5,487.4,497.8,484.7,494.5,484.7z"/>
			</g>
			<g>
				<path class="st1" d="M522.4,484.7h-10.2c-3.3,0-6,2.7-6,6v2.2c0,3.3,2.7,6,6,6h10.2c3.3,0,6-2.7,6-6v-2.2
					C528.3,487.4,525.7,484.7,522.4,484.7z"/>
			</g>
		</g>
		<g>
			<g>
				<path class="st2" d="M446.3,369.9h-7.4c-2,0-3.5,1.6-3.5,3.5v2.1c0,2,1.6,3.5,3.5,3.5h7.4c2,0,3.5-1.6,3.5-3.5v-2.1
					C449.8,371.5,448.2,369.9,446.3,369.9z"/>
			</g>
			<g>
				<path class="st2" d="M464.9,369.9h-7.4c-2,0-3.5,1.6-3.5,3.5v2.1c0,2,1.6,3.5,3.5,3.5h7.4c2,0,3.5-1.6,3.5-3.5v-2.1
					C468.4,371.5,466.8,369.9,464.9,369.9z"/>
			</g>
			<g>
				<path class="st2" d="M475.5,369.9c-1.6,0-3,1.3-3,3v3.3c0,1.6,1.3,3,3,3c1.6,0,3-1.3,3-3v-3.3
					C478.5,371.2,477.2,369.9,475.5,369.9z"/>
			</g>
			<g>
				<path class="st2" d="M493.6,369.9h-7.4c-2,0-3.5,1.6-3.5,3.5v2.1c0,2,1.6,3.5,3.5,3.5h7.4c2,0,3.5-1.6,3.5-3.5v-2.1
					C497.1,371.5,495.5,369.9,493.6,369.9z"/>
			</g>
			<g>
				<path class="st2" d="M512.2,369.9h-7.4c-2,0-3.5,1.6-3.5,3.5v2.1c0,2,1.6,3.5,3.5,3.5h7.4c2,0,3.5-1.6,3.5-3.5v-2.1
					C515.8,371.5,514.2,369.9,512.2,369.9z"/>
			</g>
		</g>
		<g>
			<path class="st3" d="M512.7,269.4h-74.3c-5.1,0-9.2,4.1-9.2,9.2v6.2v52.7v6.2c0,5.1,4.1,9.2,9.2,9.2h74.3c5.1,0,9.2-4.1,9.2-9.2
				v-6.2v-52.7v-6.2C521.9,273.5,517.8,269.4,512.7,269.4z"/>
		</g>
		<g>
			<path class="st2" d="M512.7,272.5h-74.3c-5.1,0-9.2,4.1-9.2,9.2v58.9c0,5.1,4.1,9.2,9.2,9.2h74.3c5.1,0,9.2-4.1,9.2-9.2v-58.9
				C521.9,276.6,517.8,272.5,512.7,272.5z"/>
		</g>
		<g>
			<path class="st3" d="M524.9,245.2h-98.8l0,0c0-4.3,3.5-7.8,7.8-7.8h83.1C521.4,237.4,524.9,240.9,524.9,245.2L524.9,245.2z"/>
		</g>
		<g>
			<g>
				<g>
					<path class="st2" d="M521.1,170.7L521.1,170.7C521.1,170.7,521.1,170.7,521.1,170.7z"/>
				</g>
				<g>
					<polygon class="st3" points="429.2,182.6 430,182.6 430,182.7 429.2,182.7 					"/>
				</g>
				<g>
					<path class="st3" d="M429.4,143.5h0.8c-0.1,0.6-0.1,1.1-0.1,1.7v0l0,11.7h-0.8l0-11.7C429.3,144.6,429.3,144,429.4,143.5z"/>
				</g>
				<g>
					<rect x="447.1" y="130.1" class="st3" width="39.4" height="0.8"/>
				</g>
				<g>
					<path class="st3" d="M521.9,146c0,7.5,0,21.2,0,36.6h-0.8v-2.2c0-6.9,0-13.3,0-19c0-6.3,0-11.7,0-15.5H521.9z"/>
				</g>
			</g>
			<g>
				<polygon class="st2" points="430.1,130.9 429.9,242.5 521.1,242.5 521.1,130.9 				"/>
			</g>
			<g>
				<g>
					<g>
						<rect x="436.6" y="152.4" class="st4" width="28.1" height="2.8"/>
					</g>
					<g>
						<rect x="501.9" y="152.4" class="st4" width="12.6" height="2.8"/>
					</g>
					<g>
						<rect x="436.6" y="160.6" class="st4" width="52.8" height="2.8"/>
					</g>
					<g>
						<rect x="501.9" y="160.6" class="st4" width="12.6" height="2.8"/>
					</g>
					<g>
						<rect x="436.6" y="168.8" class="st4" width="35.5" height="2.8"/>
					</g>
					<g>
						<rect x="501.9" y="168.8" class="st4" width="12.6" height="2.8"/>
					</g>
					<g>
						<rect x="436.6" y="177" class="st4" width="51.2" height="2.8"/>
					</g>
					<g>
						<rect x="501.9" y="177" class="st4" width="12.6" height="2.8"/>
					</g>
					<g>
						<rect x="436.6" y="185.3" class="st4" width="30" height="2.8"/>
					</g>
					<g>
						<rect x="501.9" y="185.3" class="st4" width="12.6" height="2.8"/>
					</g>
				</g>
				<g>
					<g>
						<rect x="436.6" y="185.3" class="st4" width="28.1" height="2.8"/>
					</g>
					<g>
						<rect x="501.9" y="185.3" class="st4" width="12.6" height="2.8"/>
					</g>
					<g>
						<rect x="436.6" y="193.5" class="st4" width="45" height="2.8"/>
					</g>
					<g>
						<rect x="501.9" y="193.5" class="st4" width="12.6" height="2.8"/>
					</g>
					<g>
						<rect x="436.6" y="201.7" class="st4" width="50.3" height="2.8"/>
					</g>
					<g>
						<rect x="501.9" y="201.7" class="st4" width="12.6" height="2.8"/>
					</g>
					<g>
						<rect x="436.6" y="210" class="st4" width="17" height="2.8"/>
					</g>
					<g>
						<rect x="501.9" y="210" class="st4" width="12.6" height="2.8"/>
					</g>
					<g>
						<rect x="436.6" y="218.2" class="st4" width="35.5" height="2.8"/>
					</g>
					<g>
						<rect x="501.9" y="218.2" class="st4" width="12.6" height="2.8"/>
					</g>
				</g>
			</g>
		</g>
	</g>
	<g class="st15">
		<path class="st1" d="M238,97.3c0,11.9-6,22.4-15.2,28.5h-63.5V60c0-10.4,3.1-20.1,8.3-28.2c0.3-0.4,0.5-0.8,0.8-1.2
			c2.7,0.4,5.4,1.1,7.9,2c14.4,4.9,25.8,16.3,30.8,30.7C224.4,65,238,79.6,238,97.3z"/>
	</g>
	<g>
		<path class="st4" d="M238,90c0,11.9-6,22.4-15.2,28.5H103.2c-13.2-4-22.7-16.2-22.7-30.7c0-17.7,14.4-32.1,32.1-32.1
			c0.3,0,0.7,0,1,0c6.8-19.3,25.2-33.2,46.8-33.2c21.7,0,40.1,14,46.8,33.3C224.4,57.6,238,72.2,238,90z"/>
	</g>
	<g>
		<g>
			<g>
				<g>
					<path class="st2" d="M159.2,106.5c-7.1,0-14-2.4-19.4-6.9c-5.4-4.4-9.2-10.5-10.7-17.2l2.4-0.5c2.9,12.8,14.5,22.2,27.7,22.2
						c10.8,0,20.5-6,25.4-15.7l2.2,1.1c-2.5,5-6.4,9.3-11.2,12.3C170.7,104.9,165.1,106.5,159.2,106.5z"/>
				</g>
			</g>
			<g>
				<g>
					<g>
						<polygon class="st2" points="180.4,88.4 188.1,82.1 189.7,92 						"/>
					</g>
				</g>
			</g>
		</g>
		<g>
			<g>
				<g>
					<path class="st2" d="M186.9,69.4c-2.9-12.8-14.5-22.2-27.7-22.2c-10.8,0-20.5,6-25.4,15.7l-2.2-1.1c2.5-5,6.4-9.3,11.2-12.3
						c4.9-3.1,10.6-4.7,16.4-4.7c7.1,0,14,2.4,19.4,6.9c5.4,4.4,9.2,10.5,10.7,17.2L186.9,69.4z"/>
				</g>
			</g>
			<g>
				<g>
					<g>
						<polygon class="st2" points="138,62.8 130.3,69.1 128.7,59.3 						"/>
					</g>
				</g>
			</g>
		</g>
	</g>
	<g>
		<rect x="32.4" y="518.2" class="st1" width="527.5" height="9.8"/>
	</g>
	<g>
		<g>
			<path class="st3" d="M373.8,521.7h-19.5c0-0.7,0.1-1.3,0.5-1.8c0.5-0.6,1.2-0.9,2-1c0.7-0.1,1.5-0.1,2.3-0.1
				c1.9-0.1,3.7-0.6,5.3-1.5c0.8-0.5,1.6-1.1,2.5-1.4l5.3,0.1c0.7,0.8,1.2,1.8,1.4,2.9C373.8,519.7,373.8,520.7,373.8,521.7z"/>
		</g>
		<g>
			<path class="st3" d="M411.8,521.7h-19.5c0-0.7,0.1-1.3,0.5-1.8c0.5-0.6,1.2-0.9,2-1c0.7-0.1,1.5-0.1,2.3-0.1
				c1.9-0.1,3.7-0.6,5.3-1.5c0.8-0.5,1.6-1.1,2.5-1.4l5.3,0.1c0.7,0.8,1.2,1.8,1.4,2.9C411.8,519.7,411.9,520.7,411.8,521.7z"/>
		</g>
		<g>
			<path class="st1" d="M365.8,515.8l2.1-60.2c0,0,0.1-1.1,0.1-1.2l5.2-41.8c0.4-5.2,42,3.1,42,3.1L410.6,516l-6.9-0.2l-9.7-82
				l-11.7,23.1l-9.4,59.1L365.8,515.8z"/>
		</g>
		<g>
			<g>
				<polygon class="st17" points="355.7,360.7 360.3,377 362,377 357.4,360.7 				"/>
			</g>
			<g>
				<polygon class="st1" points="346.5,360.7 351.1,377 360.3,377 355.7,360.7 				"/>
			</g>
		</g>
		<g>
			<g>
				<g>
					<path class="st18" d="M353.6,369.7c1.1,0,2.1,0.6,2.2,1.5c0.3,2.4,0.7,4.8,1.4,6.9c0.2,0.5,0.3,1.1,0.5,1.6
						c0,0.1,0.1,0.2,0.1,0.3l0.1,0.3c0.1,0.2,0.2,0.3,0.3,0.5c0.4,0.6,0.8,1.2,1.3,1.6c0.5,0.4,1.2,0.6,1.8,0.5
						c0.6-0.1,1.2-0.4,1.7-0.8c0.2-0.2,0.4-0.4,0.6-0.6c0.1-0.1,0.2-0.2,0.3-0.3l0.1-0.2l0.2-0.3c0.7-0.7,1.3-1.6,1.9-2.5
						c0.6-0.9,1.2-1.8,1.8-2.8c0.6-1,1.1-2,1.6-3c1-2.1,2-4.2,2.8-6.4c1.7-4.4,3.2-9,4.5-13.6c0.4-1.5,1.7-2.5,3.3-3
						c1.6-0.5,3.6-0.5,5.7,0.1h0c2,0.7,3.6,1.9,4.5,3.4c0.9,1.5,1.2,3.2,0.5,4.7c-2.2,4.7-4.7,9.4-7.5,13.9
						c-1.4,2.3-2.9,4.5-4.5,6.7c-1.6,2.2-3.4,4.3-5.4,6.3c-1,1-2.1,2-3.3,2.9l-0.5,0.4l-0.6,0.4c-0.4,0.3-0.8,0.5-1.2,0.8
						c-0.2,0.1-0.4,0.2-0.6,0.4c-0.2,0.1-0.4,0.2-0.6,0.3c-0.4,0.2-0.9,0.4-1.3,0.6c-0.4,0.2-0.9,0.3-1.3,0.4
						c-0.5,0.1-0.9,0.2-1.4,0.2c-0.9,0.1-1.8,0.1-2.7-0.1c-1.8-0.3-3.4-1.3-4.6-2.5c-1.2-1.3-2.1-2.9-2.7-4.6
						c-0.1-0.4-0.3-0.9-0.4-1.3l-0.2-0.6c0-0.2-0.1-0.4-0.1-0.6c-0.1-0.7-0.2-1.4-0.3-2.1c-0.3-2.7-0.3-5.4-0.1-8
						C351.5,370.4,352.4,369.7,353.6,369.7L353.6,369.7z"/>
				</g>
			</g>
			<g>
				<path class="st4" d="M385.3,379.1l6.3-17c1.9-5.1-0.3-10.9-5.4-12.8l0,0c-5.1-1.9-11.2,0.7-13.1,5.9l-6.3,17L385.3,379.1z"/>
			</g>
		</g>
		<g>
			<path class="st4" d="M397.9,344.5L397.9,344.5c-10.6-1.6-20.3,6.2-21,16.9l-3.7,51.2c16.5,9.3,26.7,7.1,42,3.1l1.7-48.1
				C417.4,356.1,409.2,346.2,397.9,344.5z"/>
		</g>
		<g>
			<path class="st2" d="M416,395.7h0.6l0.8-23.4h-0.6L416,395.7z M372.6,412.8l0.3,0.2c8.1,4.6,15,6.6,22.4,6.6
				c5.6,0,11-1.1,17.6-2.8l0-0.6c-14,3.6-24,5.1-39.7-3.7l1.2-16.4l-0.6,0L372.6,412.8z M397.9,344.5c0.1,0,0.2,0,0.3,0.1l0-0.6
				c-0.1,0-0.1,0-0.2,0c-1-0.1-1.9-0.2-2.9-0.2c-9.9,0-18.1,7.7-18.8,17.6l-1.1,15.7h0.6l1.1-15.7c0.7-9.7,8.8-17.1,18.2-17.1
				C396.1,344.3,397,344.4,397.9,344.5z"/>
		</g>
		<g>
			<g>
				<path class="st19" d="M366,417.8c2.6-1.7,5.1-3.3,7.6-5c2.5-1.7,4.9-3.5,7.2-5.3c2.3-1.8,4.4-3.8,6.3-5.8
					c1.8-2.1,3.3-4.3,4.5-6.6c1.2-2.4,2-4.9,2.6-7.6c0.6-2.7,1.1-5.5,1.4-8.4c0.1-0.7,0.2-1.4,0.2-2.2l0.2-2.2
					c0.1-1.5,0.2-2.9,0.3-4.4c0.2-3,0.3-6,0.4-9c0.2-3.8,3.9-6.7,8.2-6.3l0,0c4.2,0.4,7.3,4,6.7,7.9c-0.6,3.1-1.2,6.1-1.8,9.2
					c-0.3,1.5-0.7,3.1-1,4.6l-0.6,2.3c-0.2,0.8-0.4,1.6-0.6,2.3c-0.8,3.1-1.8,6.3-3.1,9.4c-1.3,3.1-2.8,6.3-4.8,9.2
					c-2,2.9-4.4,5.5-7,7.6c-2.6,2.2-5.3,4-8.1,5.6c-2.8,1.6-5.5,3-8.3,4.4c-2.8,1.4-5.6,2.7-8.4,3.9c-0.9,0.4-2.1,0-2.6-1v0
					C364.8,419.6,365.1,418.4,366,417.8z"/>
			</g>
			<g>
				<path class="st4" d="M411.1,383.9l2.4-17.9c0.7-5.4-2.7-10.5-8.1-11.2l0,0c-5.4-0.7-10.8,3.2-11.5,8.6l-2.4,17.9L411.1,383.9z"
					/>
			</g>
			<g>
				<path class="st2" d="M393.1,363.8h0.6l0.1-0.5c0.7-5.4,6.1-9.4,11.5-8.6c2.3,0.3,4.2,1.4,5.6,2.9h0.8c-1.6-1.9-3.8-3.2-6.3-3.5
					c-0.4-0.1-0.9-0.1-1.4-0.1c-5.4,0-10.1,4-10.8,9.2L393.1,363.8z M390.8,381.8l8.6,1.1v-0.6l-7.9-1l1.3-10.1h-0.6L390.8,381.8z
					 M411.1,383.9l-2.9-0.4v0.6l3.4,0.4l2.2-16.3h-0.6L411.1,383.9z"/>
			</g>
		</g>
		<g>
			<g>
				<g>
					<path class="st19" d="M390.9,339.2l1.6,12.9c3,1.5,5.8,1.1,8.4-1.1l-1.6-12.9L390.9,339.2z"/>
				</g>
				<g>
					<path class="st18" d="M390.9,339.2l0.7,5.8c0.6,0.2,1.3,0.2,1.9,0.2c0.2,0,0.4,0,0.6-0.1c2.3-0.3,4.4-1.6,5.5-3.6l-0.4-3.5
						L390.9,339.2z"/>
				</g>
				<g>
					<path class="st19" d="M386,331.7l0.9,5.4l0.4,2.2c0.5,3,3.2,5.2,6.2,5.1c1,0,2-0.3,2.8-0.8c0.2-0.1,0.4-0.2,0.6-0.3
						c0.1-0.1,0.2-0.2,0.3-0.2c1.1-0.8,1.9-1.9,2.3-3.2c0.4-1.1,0.7-2.3,1-3.6c0.2-0.7,0.3-1.5,0.5-2.2c0.7-3.3-0.5-6.9-3.1-9
						c-2.3-1.8-4.9-2.2-7.8-0.9C387.2,325.4,385.5,328.5,386,331.7z"/>
				</g>
			</g>
			<g>
				<path class="st1" d="M384.4,333.4c-0.6-0.5-0.8-1.5-0.7-2.4c0-0.9,0.1-1.8-0.3-2.5c-0.5-1-1.6-1.4-1.9-2.5c-0.3-1,0.4-2,1-2.7
					c1.7-1.8,3.4-3.7,5.1-5.5c0.7-0.8,1.4-1.5,2.3-1.9c0.9-0.4,2-0.4,2.8,0.3c0.4,0.4,0.8,0.9,1.2,1.2c1,0.8,2.3,0.3,3.4,0
					c1.4-0.4,2.8-0.6,4.2,0.1c1.4,0.7,2.5,2.4,2.2,4.1c-0.1,0.8-0.5,1.4-0.8,2.1c-0.3,0.7-0.5,1.5-0.2,2.3c0.4,1,1.4,1.4,2.2,2
					c1.1,0.8,2,2.3,2.1,3.8c0.2,1.5-0.3,3.1-1.2,4c-0.8,0.8-2.2,1.1-3,0.1c-0.9-1.2-0.6-3.4-1.8-4c-1.4-0.8-2.8,1.9-4.2,1
					c-0.7-0.5-0.9-1.7-1.6-2.3c-0.9-0.8-2-0.4-2.9,0c-0.9,0.4-1.9,0.6-2.8,0.7c-0.9,0.2-1.6,0.6-2.3,1.2
					C386.4,333.1,385.4,334.1,384.4,333.4z"/>
			</g>
			<g>
				<path class="st19" d="M396.9,334.4c0.2,1.5,1.8,2.6,3.5,2.4c1.7-0.2,3-1.7,2.8-3.2c-0.2-1.5-1.8-2.6-3.5-2.4
					C398,331.4,396.7,332.8,396.9,334.4z"/>
			</g>
		</g>
	</g>
</g>
<g>
	<path class="st2" d="M287.4,146.5c7.4,7.7,14.3,8.9,41.5,8.9c27.3,0,15.3,6-1.6,21.1c5.4-9.3,23.7-17.5-6.3-17.1
		C292.3,159.9,290.6,151.1,287.4,146.5z"/>
	<path class="st2" d="M306.9,183.9c0,2.3-1.9,4.1-4.1,4.1c-2.3,0-4.2-1.9-4.2-4.1c0-2.3,1.9-4.2,4.2-4.2
		C305,179.8,306.9,181.6,306.9,183.9z"/>
	<path class="st2" d="M325.6,183.9c0,2.3-1.9,4.1-4.1,4.1c-2.3,0-4.2-1.9-4.2-4.1c0-2.3,1.9-4.2,4.2-4.2
		C323.8,179.8,325.6,181.6,325.6,183.9z"/>
</g>
</svg>
