<?xml version="1.0" encoding="UTF-8"?> <svg xmlns="http://www.w3.org/2000/svg" id="Hosting_icons" data-name="Hosting icons" viewBox="0 0 38 38"><defs><style>.cls-1{fill:#5d43ac;}.cls-2{fill:#ff775c;}</style></defs><title>Icons</title><path class="cls-1" d="M11.39,19.16a6.62,6.62,0,0,1-1.11-.39v-1.2a4.65,4.65,0,0,0,2.18.65,1.28,1.28,0,0,0,.77-.2.67.67,0,0,0,.3-.59.64.64,0,0,0-.17-.44,1.35,1.35,0,0,0-.4-.3c-.17-.08-.4-.18-.7-.29a7.82,7.82,0,0,1-1-.43,2.16,2.16,0,0,1-.66-.59,1.65,1.65,0,0,1-.27-1A1.7,1.7,0,0,1,10.94,13a2.61,2.61,0,0,1,1.68-.49,3.9,3.9,0,0,1,1,.11,3.6,3.6,0,0,1,.89.31v1.18a3.7,3.7,0,0,0-1.83-.53,1.49,1.49,0,0,0-.77.17.55.55,0,0,0-.28.5.57.57,0,0,0,.29.5,5.28,5.28,0,0,0,.89.4,10,10,0,0,1,1,.45,2,2,0,0,1,.7.63,1.87,1.87,0,0,1,.32,1.05,1.84,1.84,0,0,1-.63,1.47,2.55,2.55,0,0,1-1.69.53A5.12,5.12,0,0,1,11.39,19.16Z"></path><path class="cls-1" d="M17.41,19.16a6.73,6.73,0,0,1-1.12-.39v-1.2a4.68,4.68,0,0,0,2.18.65,1.33,1.33,0,0,0,.78-.2.67.67,0,0,0,.3-.59.64.64,0,0,0-.17-.44,1.28,1.28,0,0,0-.41-.3,6.89,6.89,0,0,0-.69-.29,7.82,7.82,0,0,1-1-.43,2,2,0,0,1-.66-.59,1.65,1.65,0,0,1-.27-1A1.67,1.67,0,0,1,17,13a2.59,2.59,0,0,1,1.67-.49,4,4,0,0,1,1,.11,3.6,3.6,0,0,1,.89.31v1.18a3.73,3.73,0,0,0-1.84-.53,1.48,1.48,0,0,0-.76.17.58.58,0,0,0,0,1,5.11,5.11,0,0,0,.88.4,10.3,10.3,0,0,1,1,.45,2,2,0,0,1,.7.63,1.79,1.79,0,0,1,.31,1.05,1.84,1.84,0,0,1-.63,1.47,2.54,2.54,0,0,1-1.68.53A5.12,5.12,0,0,1,17.41,19.16Z"></path><path class="cls-1" d="M26.66,13a2.58,2.58,0,0,1,1.1,1.14,3.77,3.77,0,0,1,.38,1.73,3.81,3.81,0,0,1-.38,1.74,2.56,2.56,0,0,1-1.1,1.13,3.48,3.48,0,0,1-1.73.4H22.52V12.64h2.41A3.48,3.48,0,0,1,26.66,13Zm-.33,4.49a2.36,2.36,0,0,0,.5-1.62,2.36,2.36,0,0,0-.5-1.62,1.79,1.79,0,0,0-1.4-.55H23.76v4.34h1.17A1.79,1.79,0,0,0,26.33,17.53Z"></path><path class="cls-2" d="M11.64,5.33a1.27,1.27,0,1,1-1.27-1.27A1.27,1.27,0,0,1,11.64,5.33Z"></path><path class="cls-2" d="M29,5.33a1.27,1.27,0,1,1-1.27-1.27A1.27,1.27,0,0,1,29,5.33Z"></path><path class="cls-2" d="M28.1,32.23H23.62a.79.79,0,1,0,0,1.57H28.1a.79.79,0,0,0,0-1.57Z"></path><path class="cls-1" d="M30.15,0H7.85A2.75,2.75,0,0,0,5.1,2.74v32A3.25,3.25,0,0,0,8.35,38h21.3a3.25,3.25,0,0,0,3.25-3.24v-32A2.75,2.75,0,0,0,30.15,0ZM7.85,1.57h22.3a1.17,1.17,0,0,1,1.18,1.17V28.5A3.19,3.19,0,0,0,29.65,28H8.35a3.19,3.19,0,0,0-1.68.47V2.74A1.17,1.17,0,0,1,7.85,1.57ZM31.33,34.76a1.68,1.68,0,0,1-1.68,1.67H8.35a1.68,1.68,0,0,1-1.68-1.67V31.27a1.68,1.68,0,0,1,1.68-1.68h21.3a1.68,1.68,0,0,1,1.68,1.68v3.49Z"></path></svg> 