<?xml version="1.0" encoding="utf-8"?>
<!-- Generator: Adobe Illustrator 24.0.1, SVG Export Plug-In . SVG Version: 6.00 Build 0)  -->
<svg version="1.1" id="Layer_1" xmlns="http://www.w3.org/2000/svg" xmlns:xlink="http://www.w3.org/1999/xlink" x="0px" y="0px"
	 viewBox="0 0 630 530" style="enable-background:new 0 0 630 530;" xml:space="preserve">
<style type="text/css">
	.st0{opacity:0.1;fill:#919AC6;enable-background:new    ;}
	.st1{opacity:0.35;fill:#C5DBFF;enable-background:new    ;}
	.st2{opacity:0.34;fill:#C5DBFF;enable-background:new    ;}
	.st3{opacity:0.36;fill:#ACC9F9;enable-background:new    ;}
	.st4{display:none;fill:#FF775C;}
	.st5{fill:#EDF0F6;}
	.st6{display:none;fill:#52399E;}
	.st7{display:none;fill:#004667;}
	.st8{display:none;opacity:0.75;fill:#DCE1F6;enable-background:new    ;}
	.st9{opacity:0.3;}
	.st10{display:none;fill:#919AC6;}
	.st11{opacity:0.6;fill:#ACBBEF;}
</style>
<path class="st0" d="M497.4,448.6l70.2-115c69.8-114.3-20.8-259.3-154.1-246.7l-249.9,23.6c-162.2,15.3-203.6,233-58.5,306.9
	l179.7,91.4C360.5,547.4,453.1,521.1,497.4,448.6z"/>
<path class="st1" d="M107.4,64.2c-19,0-34.5,15.4-34.5,34.5s15.4,34.5,34.5,34.5c19,0,34.5-15.4,34.5-34.5
	C141.8,79.6,126.4,64.2,107.4,64.2"/>
<path class="st2" d="M521,444c-19,0-34.5,15.4-34.5,34.5c0,19,15.4,34.5,34.5,34.5c19,0,34.5-15.4,34.5-34.5S540.1,444,521,444"/>
<path class="st3" d="M503.5,85.9c-9.7,0-17.6,7.9-17.6,17.6s7.9,17.6,17.6,17.6c9.7,0,17.6-7.9,17.6-17.6S513.2,85.9,503.5,85.9"/>
<path class="st4" d="M153.2,141.7c-3,0-5.4,2.4-5.4,5.4c0,3,2.4,5.4,5.4,5.4c3,0,5.4-2.4,5.4-5.4S156.2,141.7,153.2,141.7"/>
<path class="st5" d="M55.6,278.6c-3.9,0-7,3.2-7,7c0,3.9,3.2,7,7,7s7-3.2,7-7C62.7,281.8,59.5,278.6,55.6,278.6"/>
<path class="st4" d="M419,26.4c-3.4,0-6.2-2.8-6.2-6.2c0-3.4,2.8-6.2,6.2-6.2s6.2,2.8,6.2,6.2C425.2,23.6,422.5,26.4,419,26.4z
	 M419,17.2c-1.6,0-2.9,1.3-2.9,2.9c0,1.6,1.3,2.9,2.9,2.9c1.6,0,2.9-1.3,2.9-2.9C421.9,18.5,420.6,17.2,419,17.2z"/>
<path class="st6" d="M99.1,194.2c-2.3,0-4.2-1.9-4.2-4.1c0-2.3,1.9-4.2,4.2-4.2c2.3,0,4.2,1.9,4.2,4.2
	C103.2,192.3,101.4,194.2,99.1,194.2z M99.1,188.1c-1.1,0-1.9,0.9-1.9,1.9s0.9,1.9,1.9,1.9s1.9-0.9,1.9-1.9S100.2,188.1,99.1,188.1z
	"/>
<path class="st7" d="M82.8,358.5c-2.3,0-4.2-1.9-4.2-4.1s1.9-4.2,4.2-4.2c2.3,0,4.2,1.9,4.2,4.2S85.1,358.5,82.8,358.5z M82.8,352.4
	c-1.1,0-1.9,0.9-1.9,1.9c0,1.1,0.9,1.9,1.9,1.9c1.1,0,1.9-0.9,1.9-1.9C84.8,353.3,83.9,352.4,82.8,352.4z"/>
<path class="st6" d="M511.6,125.2c-3,0-5.4-2.4-5.4-5.4s2.4-5.4,5.4-5.4c3,0,5.4,2.4,5.4,5.4S514.6,125.2,511.6,125.2z M511.6,117.3
	c-1.4,0-2.5,1.1-2.5,2.5s1.1,2.5,2.5,2.5c1.4,0,2.5-1.1,2.5-2.5S513,117.3,511.6,117.3z"/>
<path class="st4" d="M569.5,171.8h-2.7v-2.7c0-0.8-0.7-1.5-1.5-1.5c-0.8,0-1.5,0.7-1.5,1.5v2.7h-2.7c-0.8,0-1.5,0.7-1.5,1.5
	c0,0.8,0.7,1.5,1.5,1.5h2.7v2.7c0,0.8,0.7,1.5,1.5,1.5c0.8,0,1.5-0.7,1.5-1.5v-2.7h2.7c0.8,0,1.5-0.7,1.5-1.5
	C571,172.4,570.3,171.8,569.5,171.8z"/>
<path class="st4" d="M134.9,439h-3.6v-3.6c0-1.1-0.9-2-2-2c-1.1,0-2,0.9-2,2v3.6h-3.6c-1.1,0-2,0.9-2,2s0.9,2,2,2h3.6v3.6
	c0,1.1,0.9,2,2,2c1.1,0,2-0.9,2-2v-3.6h3.6c1.1,0,2-0.9,2-2S136,439,134.9,439z"/>
<path class="st6" d="M462.1,110.4h-2v-2c0-0.6-0.5-1.2-1.2-1.2c-0.6,0-1.2,0.5-1.2,1.2v2h-2c-0.6,0-1.2,0.5-1.2,1.2
	c0,0.6,0.5,1.2,1.2,1.2h2v2c0,0.6,0.5,1.2,1.2,1.2c0.6,0,1.2-0.5,1.2-1.2v-2h2c0.6,0,1.2-0.5,1.2-1.2
	C463.3,110.9,462.8,110.4,462.1,110.4z"/>
<path class="st7" d="M70.2,158.2h-2v-2c0-0.6-0.5-1.2-1.2-1.2s-1.2,0.5-1.2,1.2v2h-2c-0.6,0-1.2,0.5-1.2,1.2c0,0.6,0.5,1.2,1.2,1.2
	h2v2c0,0.6,0.5,1.2,1.2,1.2s1.2-0.5,1.2-1.2v-2h2c0.6,0,1.2-0.5,1.2-1.2C71.4,158.7,70.8,158.2,70.2,158.2z"/>
<path class="st4" d="M562.6,113.4h-1.9v-1.9c0-0.6-0.5-1.1-1.1-1.1c-0.6,0-1.1,0.5-1.1,1.1v1.9h-1.9c-0.6,0-1.1,0.5-1.1,1.1
	s0.5,1.1,1.1,1.1h1.9v1.9c0,0.6,0.5,1.1,1.1,1.1c0.6,0,1.1-0.5,1.1-1.1v-1.9h1.9c0.6,0,1.1-0.5,1.1-1.1S563.2,113.4,562.6,113.4z"/>
<path class="st6" d="M35,213.9h-1.9V212c0-0.6-0.5-1.1-1.1-1.1S31,211.4,31,212v1.9h-1.9c-0.6,0-1.1,0.5-1.1,1.1s0.5,1.1,1.1,1.1H31
	v1.9c0,0.6,0.5,1.1,1.1,1.1s1.1-0.5,1.1-1.1V216H35c0.6,0,1.1-0.5,1.1-1.1C36,214.4,35.6,213.9,35,213.9z"/>
<path class="st4" d="M469,148.3l-0.9,0.9l-0.9-0.9c-0.3-0.3-0.8-0.3-1.1,0c-0.3,0.3-0.3,0.8,0,1.1l0.9,0.9l-0.9,0.9
	c-0.3,0.3-0.3,0.8,0,1.1c0.3,0.3,0.8,0.3,1.1,0l0.9-0.9l0.9,0.9c0.3,0.3,0.8,0.3,1.1,0c0.3-0.3,0.3-0.8,0-1.1l-0.9-0.9l0.9-0.9
	c0.3-0.3,0.3-0.8,0-1.1C469.7,148,469.2,148,469,148.3z"/>
<path class="st6" d="M154.8,1.4L153.2,3l-1.6-1.6c-0.5-0.5-1.3-0.5-1.8,0s-0.5,1.3,0,1.8l1.6,1.6l-1.6,1.6c-0.5,0.5-0.5,1.3,0,1.8
	c0.5,0.5,1.3,0.5,1.8,0l1.6-1.6l1.6,1.6c0.5,0.5,1.3,0.5,1.8,0c0.5-0.5,0.5-1.3,0-1.8L155,4.8l1.6-1.6c0.5-0.5,0.5-1.3,0-1.8
	S155.3,0.9,154.8,1.4z"/>
<path class="st4" d="M539,271.4l-1.6,1.6l-1.6-1.6c-0.5-0.5-1.3-0.5-1.8,0c-0.5,0.5-0.5,1.3,0,1.8l1.6,1.6l-1.6,1.6
	c-0.5,0.5-0.5,1.3,0,1.8c0.5,0.5,1.3,0.5,1.8,0l1.6-1.6l1.6,1.6c0.5,0.5,1.3,0.5,1.8,0c0.5-0.5,0.5-1.3,0-1.8l-1.6-1.6l1.6-1.6
	c0.5-0.5,0.5-1.3,0-1.8C540.3,270.9,539.5,270.9,539,271.4z"/>
<path class="st7" d="M92.7,237.6l-0.9,0.9l-0.9-0.9c-0.3-0.3-0.8-0.3-1,0c-0.3,0.3-0.3,0.8,0,1l0.9,0.9l-0.9,0.9
	c-0.3,0.3-0.3,0.8,0,1c0.3,0.3,0.8,0.3,1,0l0.9-0.9l0.9,0.9c0.3,0.3,0.8,0.3,1,0c0.3-0.3,0.3-0.8,0-1l-0.9-0.9l0.9-0.9
	c0.3-0.3,0.3-0.8,0-1C93.5,237.3,93,237.3,92.7,237.6z"/>
<path class="st4" d="M539,354.8l-1.6,1.6l-1.6-1.6c-0.5-0.5-1.3-0.5-1.8,0c-0.5,0.5-0.5,1.3,0,1.8l1.6,1.6l-1.6,1.6
	c-0.5,0.5-0.5,1.3,0,1.8c0.5,0.5,1.3,0.5,1.8,0l1.6-1.6l1.6,1.6c0.5,0.5,1.3,0.5,1.8,0c0.5-0.5,0.5-1.3,0-1.8l-1.6-1.6l1.6-1.6
	c0.5-0.5,0.5-1.3,0-1.8C540.3,354.3,539.5,354.3,539,354.8z"/>
<path class="st6" d="M504.5,184.3l-1.6,1.6l-1.6-1.6c-0.5-0.5-1.3-0.5-1.8,0c-0.5,0.5-0.5,1.3,0,1.8l1.6,1.6l-1.6,1.6
	c-0.5,0.5-0.5,1.3,0,1.8c0.5,0.5,1.3,0.5,1.8,0l1.6-1.6l1.6,1.6c0.5,0.5,1.3,0.5,1.8,0c0.5-0.5,0.5-1.3,0-1.8l-1.6-1.6l1.6-1.6
	c0.5-0.5,0.5-1.3,0-1.8C505.8,183.8,505,183.8,504.5,184.3z"/>
<circle class="st6" cx="457.2" cy="172.2" r="1.7"/>
<circle class="st6" cx="615.5" cy="143.4" r="1.3"/>
<circle class="st6" cx="184.4" cy="63.7" r="1.3"/>
<circle class="st7" cx="445.4" cy="108.7" r="1.7"/>
<circle class="st4" cx="23.6" cy="176.9" r="1.7"/>
<circle class="st4" cx="591.8" cy="97.1" r="1.7"/>
<path class="st4" d="M485.7,425.7c-1.3,3.2-4.9,4.8-8,3.5c-3.2-1.3-4.8-4.9-3.5-8c1.3-3.2,4.9-4.8,8-3.5
	C485.4,418.9,486.9,422.5,485.7,425.7z M477.2,422.4c-0.6,1.5,0.2,3.2,1.6,3.8c1.5,0.6,3.2-0.2,3.8-1.6c0.6-1.5-0.2-3.2-1.6-3.8
	C479.5,420.1,477.8,420.9,477.2,422.4z"/>
<path class="st4" d="M430,101.9l-1,2.5l-2.5-1c-0.8-0.3-1.6,0.1-2,0.9c-0.3,0.8,0.1,1.6,0.9,2l2.5,1l-1,2.5c-0.3,0.8,0.1,1.6,0.9,2
	c0.8,0.3,1.6-0.1,2-0.9l1-2.5l2.5,1c0.8,0.3,1.6-0.1,2-0.9c0.3-0.8-0.1-1.6-0.9-2l-2.5-1l1-2.5c0.3-0.8-0.1-1.6-0.9-2
	C431.1,100.7,430.3,101.1,430,101.9z"/>
<path class="st4" d="M290.3,75.3l-1.3,3.4l-3.4-1.3c-1-0.4-2.2,0.1-2.6,1.2c-0.4,1,0.1,2.2,1.2,2.6l3.4,1.3l-1.3,3.4
	c-0.4,1,0.1,2.2,1.2,2.6c1,0.4,2.2-0.1,2.6-1.2l1.3-3.4l3.4,1.3c1,0.4,2.2-0.1,2.6-1.2c0.4-1-0.1-2.2-1.2-2.6l-3.4-1.3l1.3-3.4
	c0.4-1-0.1-2.2-1.2-2.6C291.8,73.7,290.7,74.3,290.3,75.3z"/>
<path class="st4" d="M347.8,69.1l0.9,2.1l-2.1,0.9c-0.7,0.3-1,1-0.7,1.7c0.3,0.7,1,0.9,1.7,0.7l2.1-0.9l0.9,2.1c0.3,0.7,1,1,1.7,0.7
	c0.7-0.3,1-1,0.7-1.7l-0.9-2.1l2.1-0.9c0.7-0.3,1-1,0.7-1.7c-0.3-0.7-1-0.9-1.7-0.7l-2.1,0.9l-0.9-2.1c-0.3-0.7-1-0.9-1.7-0.7
	C347.8,67.7,347.5,68.5,347.8,69.1z"/>
<circle class="st6" cx="84.8" cy="306.3" r="1.3"/>
<circle class="st4" cx="322.5" cy="75.3" r="1.7"/>
<circle class="st4" cx="553.6" cy="147.1" r="2"/>
<path class="st7" d="M527.1,331.1c0,1.1-0.9,2-2,2s-2-0.9-2-2s0.9-2,2-2S527.1,330,527.1,331.1"/>
<path class="st7" d="M233.5,83.3c0,1.1-0.9,2-2,2s-2-0.9-2-2s0.9-2,2-2S233.5,82.2,233.5,83.3"/>
<path class="st8" d="M558.4,201.2c0-0.1,0-0.2,0-0.4c0-0.3,0-0.5-0.1-0.8c0-0.1,0-0.3,0-0.4c0-0.2-0.1-0.5-0.1-0.7
	c0-0.1,0-0.2-0.1-0.4c-0.1-0.3-0.1-0.6-0.2-0.9c0-0.1,0-0.1,0-0.2c0,0,0,0,0,0c0-0.2-0.1-0.4-0.1-0.5c0-0.1-0.1-0.3-0.1-0.4
	c-0.1-0.2-0.1-0.4-0.2-0.5c0-0.1-0.1-0.3-0.1-0.4c-0.1-0.2-0.1-0.4-0.2-0.6c0-0.1-0.1-0.2-0.1-0.3c-0.1-0.2-0.2-0.4-0.3-0.7
	c0-0.1-0.1-0.1-0.1-0.2c0,0,0,0,0,0c-0.2-0.4-0.4-0.7-0.6-1.1c-0.1-0.1-0.1-0.2-0.2-0.3c-0.2-0.3-0.3-0.6-0.5-0.8
	c0,0-0.1-0.1-0.1-0.1c0,0,0,0,0-0.1c-0.2-0.3-0.4-0.6-0.6-0.8c0,0,0,0,0-0.1c-0.2-0.3-0.4-0.5-0.6-0.8c0,0,0,0,0-0.1
	c0,0,0-0.1-0.1-0.1c-0.4-0.4-0.8-0.9-1.2-1.3c0,0,0,0-0.1,0c0,0-0.1-0.1-0.1-0.1c-0.4-0.4-0.8-0.7-1.2-1.1c0,0,0,0,0,0
	c0,0-0.1,0-0.1-0.1c-0.4-0.3-0.8-0.6-1.2-0.9c0,0,0,0-0.1,0c0,0,0,0,0,0c-0.4-0.3-0.8-0.5-1.2-0.7c0,0-0.1-0.1-0.1-0.1
	c0,0-0.1,0-0.1-0.1c-0.4-0.2-0.8-0.4-1.2-0.6c0,0,0,0-0.1,0c0,0-0.1,0-0.1-0.1c-0.3-0.2-0.7-0.3-1-0.4c-0.1,0-0.1,0-0.2-0.1
	c0,0-0.1,0-0.1,0c-0.4-0.1-0.8-0.3-1.2-0.4c0,0,0,0-0.1,0c-0.1,0-0.1,0-0.2,0c-0.3-0.1-0.6-0.2-1-0.3c-0.1,0-0.1,0-0.2,0
	c-0.1,0-0.1,0-0.2,0c-0.4-0.1-0.7-0.1-1.1-0.2c0,0-0.1,0-0.1,0c0,0,0,0,0,0c-0.4-0.1-0.8-0.1-1.2-0.1c0,0-0.1,0-0.1,0
	c-0.1,0-0.1,0-0.2,0c-0.3,0-0.6,0-0.9,0c-0.1,0-0.1,0-0.2,0c-0.1,0-0.2,0-0.4,0c-0.3,0-0.6,0-1,0c0,0,0,0,0,0
	c-0.4,0-0.8,0.1-1.2,0.1c0,0-0.1,0-0.1,0c-0.1,0-0.1,0-0.2,0c-0.3,0-0.6,0.1-0.9,0.1c-0.1,0-0.1,0-0.2,0c0,0-0.1,0-0.1,0
	c-0.4,0.1-0.8,0.2-1.2,0.3c0,0,0,0,0,0c0,0-0.1,0-0.1,0c-0.4,0.1-0.7,0.2-1.1,0.3c-0.1,0-0.1,0-0.2,0.1c0,0-0.1,0-0.1,0.1
	c-0.4,0.1-0.8,0.3-1.2,0.4c0,0,0,0,0,0c0,0,0,0,0,0c-0.4,0.2-0.8,0.4-1.2,0.5c0,0-0.1,0-0.1,0.1c0,0-0.1,0-0.1,0.1
	c-0.4,0.2-0.8,0.4-1.2,0.7c0,0,0,0,0,0c0,0-0.1,0-0.1,0.1c-0.4,0.2-0.8,0.5-1.1,0.8c0,0-0.1,0-0.1,0.1c0,0,0,0,0,0
	c-0.4,0.3-0.8,0.6-1.2,0.9c0,0-0.1,0.1-0.1,0.1c0,0,0,0-0.1,0.1c-0.4,0.4-0.8,0.7-1.2,1.1c0,0-0.1,0.1-0.1,0.1c0,0-0.1,0.1-0.1,0.1
	c-0.1,0.1-0.3,0.3-0.4,0.4c-0.1,0.1-0.2,0.2-0.3,0.3c-0.1,0.2-0.3,0.3-0.4,0.5c-0.1,0.1-0.1,0.2-0.2,0.2c0,0,0,0,0,0.1
	c-0.2,0.3-0.4,0.6-0.6,0.9c0,0.1-0.1,0.1-0.1,0.2c-0.2,0.2-0.3,0.5-0.5,0.7c0,0,0,0.1-0.1,0.1c0,0,0,0.1-0.1,0.1
	c-0.2,0.4-0.4,0.8-0.6,1.2c0,0,0,0,0,0c-0.2,0.4-0.4,0.8-0.5,1.2c0,0.1,0,0.1-0.1,0.2c0,0.1,0,0.1-0.1,0.2c0,0.1-0.1,0.3-0.1,0.4
	c-0.1,0.2-0.1,0.3-0.2,0.5c0,0.1-0.1,0.3-0.1,0.4c0,0.2-0.1,0.3-0.1,0.5c0,0.1-0.1,0.3-0.1,0.4c0,0.2-0.1,0.3-0.1,0.5
	c0,0.1-0.1,0.3-0.1,0.4c0,0.2-0.1,0.4-0.1,0.5c0,0.1,0,0.3-0.1,0.4c0,0.2,0,0.4-0.1,0.6c0,0.1,0,0.2,0,0.4c0,0.2,0,0.4,0,0.6
	c0,0.1,0,0.2,0,0.3c0,0.3,0,0.6,0,1s0,0.6,0,1c0,0.1,0,0.2,0,0.3c0,0.2,0,0.4,0,0.6c0,0.1,0,0.2,0,0.4c0,0.2,0,0.4,0.1,0.6
	c0,0.1,0,0.3,0.1,0.4c0,0.2,0.1,0.4,0.1,0.5c0,0.1,0.1,0.3,0.1,0.4c0,0.2,0.1,0.3,0.1,0.5c0,0.1,0.1,0.3,0.1,0.4
	c0,0.2,0.1,0.3,0.1,0.5c0,0.1,0.1,0.3,0.1,0.4c0.1,0.2,0.1,0.3,0.2,0.5c0,0.1,0.1,0.3,0.1,0.4c0,0.1,0,0.1,0.1,0.2
	c0,0.1,0,0.1,0.1,0.2c0.2,0.4,0.3,0.8,0.5,1.2c0,0,0,0,0,0c0.2,0.4,0.4,0.8,0.6,1.2c0,0,0.1,0.1,0.1,0.1c0,0,0,0.1,0.1,0.1
	c0.1,0.3,0.3,0.5,0.5,0.7c0,0.1,0.1,0.1,0.1,0.2c0.2,0.3,0.4,0.6,0.6,0.9c0,0,0,0,0,0.1c0.1,0.1,0.1,0.2,0.2,0.2
	c0.1,0.2,0.3,0.3,0.4,0.5c0.1,0.1,0.2,0.2,0.3,0.3c0.1,0.1,0.3,0.3,0.4,0.4c0,0,0.1,0.1,0.1,0.1c0,0,0.1,0.1,0.1,0.1
	c0.4,0.4,0.8,0.8,1.2,1.1c0,0,0,0,0.1,0.1c0,0,0.1,0.1,0.1,0.1c0.4,0.3,0.8,0.6,1.2,0.9c0,0,0,0,0,0c0,0,0.1,0,0.1,0.1
	c0.4,0.3,0.7,0.5,1.1,0.8c0,0,0.1,0,0.1,0.1c0,0,0,0,0,0c0.4,0.2,0.8,0.4,1.2,0.6c0,0,0.1,0,0.1,0.1c0,0,0.1,0.1,0.1,0.1
	c0.4,0.2,0.8,0.4,1.2,0.5c0,0,0,0,0,0c0,0,0,0,0,0c0.4,0.2,0.8,0.3,1.2,0.4c0,0,0.1,0,0.1,0.1c0.1,0,0.1,0,0.2,0.1
	c0.4,0.1,0.7,0.2,1.1,0.3c0,0,0.1,0,0.1,0c0,0,0,0,0,0c0.4,0.1,0.8,0.2,1.2,0.3c0,0,0.1,0,0.1,0c0.1,0,0.1,0,0.2,0
	c0.3,0.1,0.6,0.1,0.9,0.1c0.1,0,0.1,0,0.2,0c0,0,0.1,0,0.1,0c0.4,0,0.8,0.1,1.2,0.1c0,0,0,0,0,0c0.3,0,0.6,0,1,0c0.1,0,0.2,0,0.4,0
	c0.1,0,0.1,0,0.2,0c0.3,0,0.6,0,0.9,0c0.1,0,0.1,0,0.2,0c0,0,0.1,0,0.1,0c0.4,0,0.8-0.1,1.2-0.1c0,0,0,0,0,0c0,0,0.1,0,0.1,0
	c0.4-0.1,0.7-0.1,1.1-0.2c0.1,0,0.1,0,0.2,0c0.1,0,0.1,0,0.2,0c0.3-0.1,0.7-0.2,1-0.3c0.1,0,0.1,0,0.2,0c0,0,0,0,0.1,0
	c0.4-0.1,0.8-0.3,1.2-0.4c0,0,0.1,0,0.1,0c0.1,0,0.1,0,0.2-0.1c0.3-0.1,0.7-0.3,1-0.4c0,0,0.1,0,0.1-0.1c0,0,0,0,0.1,0
	c0.4-0.2,0.8-0.4,1.2-0.6c0,0,0.1,0,0.1-0.1c0,0,0.1,0,0.1-0.1c0.4-0.2,0.8-0.5,1.2-0.7c0,0,0,0,0,0c0,0,0,0,0.1,0
	c0.4-0.3,0.8-0.6,1.2-0.9c0,0,0.1,0,0.1-0.1c0,0,0,0,0,0c0.3-0.3,0.7-0.6,1-0.8c0,0,0.1-0.1,0.1-0.1c0.1-0.1,0.2-0.1,0.2-0.2
	c0,0,0,0,0.1,0c0.4-0.4,0.8-0.8,1.2-1.3c0,0,0-0.1,0.1-0.1c0,0,0,0,0,0c0,0,0,0,0,0c0.2-0.3,0.4-0.5,0.6-0.8c0,0,0,0,0,0
	c0.2-0.3,0.4-0.5,0.6-0.8c0,0,0,0,0-0.1c0,0,0.1-0.1,0.1-0.1c0.2-0.3,0.3-0.6,0.5-0.8c0.1-0.1,0.1-0.2,0.2-0.3
	c0.2-0.3,0.4-0.7,0.6-1.1c0,0,0,0,0,0c0-0.1,0.1-0.1,0.1-0.2c0.1-0.2,0.2-0.4,0.3-0.6c0-0.1,0.1-0.2,0.1-0.3
	c0.1-0.2,0.2-0.4,0.2-0.6c0-0.1,0.1-0.3,0.1-0.4c0.1-0.2,0.1-0.3,0.2-0.5c0-0.1,0.1-0.3,0.1-0.4c0-0.2,0.1-0.4,0.1-0.5c0,0,0,0,0,0
	c0-0.1,0-0.1,0-0.2c0.1-0.3,0.1-0.6,0.2-0.9c0-0.1,0-0.2,0.1-0.4c0-0.2,0.1-0.5,0.1-0.7c0-0.1,0-0.3,0-0.4c0-0.3,0.1-0.5,0.1-0.8
	c0-0.1,0-0.2,0-0.4c0-0.4,0-0.8,0-1.1C558.4,202,558.4,201.6,558.4,201.2z"/>
<g class="st9">
	<path class="st10" d="M184.5,445.9c34.7,27.4,76.5,41.9,120.8,41.9c107.6,0,195.1-87.5,195.1-195.1S412.9,97.7,305.3,97.7
		c-107.6,0-195.1,87.5-195.1,195.1c0,46.3,16.5,91.2,46.5,126.4c3,3.5,8.2,3.9,11.8,0.9c3.5-3,3.9-8.2,0.9-11.8
		c-27.4-32.2-42.5-73.2-42.5-115.6c0-98.4,80-178.4,178.4-178.4c98.4,0,178.4,80,178.4,178.4c0,98.4-80,178.4-178.4,178.4
		c-40.5,0-78.7-13.2-110.4-38.3c-3.6-2.9-8.9-2.2-11.7,1.4C180.3,437.8,180.9,443.1,184.5,445.9z"/>
	<path class="st11" d="M306.9,121c-93.8,0-170,76.3-170,170c0,93.8,76.3,170.1,170,170.1c93.8,0,170-76.3,170-170.1
		C477,197.3,400.7,121,306.9,121z M154.1,291.1c0-22.2,4.8-43.2,13.2-62.2l72.9,199.8C189.2,403.9,154.1,351.6,154.1,291.1z
		 M306.9,444c-15,0-29.5-2.2-43.2-6.2l45.9-133.3l47,128.7c0.3,0.8,0.7,1.5,1.1,2.1C341.8,440.9,324.7,444,306.9,444z M328,219.4
		c9.2-0.5,17.5-1.5,17.5-1.5c8.2-1,7.3-13.1-1-12.6c0,0-24.8,1.9-40.7,1.9c-15,0-40.3-1.9-40.3-1.9c-8.2-0.5-9.2,12.1-1,12.6
		c0,0,7.8,1,16,1.5l23.8,65.3L268.9,385l-55.7-165.6c9.2-0.5,17.5-1.5,17.5-1.5c8.2-1,7.3-13.1-1-12.6c0,0-24.8,1.9-40.7,1.9
		c-2.9,0-6.3-0.1-9.8-0.2c27.3-41.5,74.3-68.9,127.7-68.9c39.8,0,76,15.2,103.2,40.1c-0.7,0-1.3-0.1-2-0.1
		c-15,0-25.7,13.1-25.7,27.1c0,12.6,7.3,23.3,15,35.9c5.8,10.2,12.6,23.3,12.6,42.2c0,13.1-5,28.3-11.6,49.4l-15.3,51L328,219.4z
		 M441.1,217.7c11.9,21.8,18.7,46.8,18.7,73.3c0,56.4-30.6,105.6-76,132.1l46.7-135c8.7-21.8,11.6-39.3,11.6-54.8
		C442.1,227.8,441.8,222.6,441.1,217.7z"/>
</g>
</svg>
